G04 (created by PCBNEW (2013-07-07 BZR 4022)-stable) date 2015-02-26 23:16:54*
%MOIN*%
G04 Gerber Fmt 3.4, Leading zero omitted, Abs format*
%FSLAX34Y34*%
G01*
G70*
G90*
G04 APERTURE LIST*
%ADD10C,0.00629921*%
%ADD11C,0.012*%
%ADD12C,0.0039*%
%ADD13C,0.005*%
%ADD14C,0.008*%
%ADD15C,0.006*%
%ADD16C,0.00393701*%
G04 APERTURE END LIST*
G54D10*
G54D11*
X19216Y14476D02*
X16216Y14476D01*
X16216Y14476D02*
X16216Y13476D01*
X16216Y13476D02*
X19216Y13476D01*
X19216Y13476D02*
X19216Y14476D01*
X16466Y14476D02*
X16466Y13476D01*
X16716Y13476D02*
X16716Y14476D01*
X19216Y13976D02*
X19716Y13976D01*
X16216Y13976D02*
X15716Y13976D01*
G54D12*
X384Y13292D02*
G75*
G03X384Y13292I-50J0D01*
G74*
G01*
X784Y13292D02*
X384Y13292D01*
X384Y13292D02*
X384Y12692D01*
X384Y12692D02*
X784Y12692D01*
X1184Y12692D02*
X1584Y12692D01*
X1584Y12692D02*
X1584Y13292D01*
X1584Y13292D02*
X1184Y13292D01*
X9360Y2977D02*
G75*
G03X9360Y2977I-50J0D01*
G74*
G01*
X9760Y2977D02*
X9360Y2977D01*
X9360Y2977D02*
X9360Y2377D01*
X9360Y2377D02*
X9760Y2377D01*
X10160Y2377D02*
X10560Y2377D01*
X10560Y2377D02*
X10560Y2977D01*
X10560Y2977D02*
X10160Y2977D01*
X12195Y12504D02*
G75*
G03X12195Y12504I-50J0D01*
G74*
G01*
X12595Y12504D02*
X12195Y12504D01*
X12195Y12504D02*
X12195Y11904D01*
X12195Y11904D02*
X12595Y11904D01*
X12995Y11904D02*
X13395Y11904D01*
X13395Y11904D02*
X13395Y12504D01*
X13395Y12504D02*
X12995Y12504D01*
X8770Y2652D02*
G75*
G03X8770Y2652I-50J0D01*
G74*
G01*
X8270Y2652D02*
X8670Y2652D01*
X8670Y2652D02*
X8670Y3252D01*
X8670Y3252D02*
X8270Y3252D01*
X7870Y3252D02*
X7470Y3252D01*
X7470Y3252D02*
X7470Y2652D01*
X7470Y2652D02*
X7870Y2652D01*
X18100Y10339D02*
G75*
G03X18100Y10339I-50J0D01*
G74*
G01*
X18500Y10339D02*
X18100Y10339D01*
X18100Y10339D02*
X18100Y9739D01*
X18100Y9739D02*
X18500Y9739D01*
X18900Y9739D02*
X19300Y9739D01*
X19300Y9739D02*
X19300Y10339D01*
X19300Y10339D02*
X18900Y10339D01*
X18100Y9355D02*
G75*
G03X18100Y9355I-50J0D01*
G74*
G01*
X18500Y9355D02*
X18100Y9355D01*
X18100Y9355D02*
X18100Y8755D01*
X18100Y8755D02*
X18500Y8755D01*
X18900Y8755D02*
X19300Y8755D01*
X19300Y8755D02*
X19300Y9355D01*
X19300Y9355D02*
X18900Y9355D01*
X24523Y13051D02*
G75*
G03X24523Y13051I-50J0D01*
G74*
G01*
X24473Y12601D02*
X24473Y13001D01*
X24473Y13001D02*
X23873Y13001D01*
X23873Y13001D02*
X23873Y12601D01*
X23873Y12201D02*
X23873Y11801D01*
X23873Y11801D02*
X24473Y11801D01*
X24473Y11801D02*
X24473Y12201D01*
X6688Y8189D02*
G75*
G03X6688Y8189I-50J0D01*
G74*
G01*
X6638Y7739D02*
X6638Y8139D01*
X6638Y8139D02*
X6038Y8139D01*
X6038Y8139D02*
X6038Y7739D01*
X6038Y7339D02*
X6038Y6939D01*
X6038Y6939D02*
X6638Y6939D01*
X6638Y6939D02*
X6638Y7339D01*
X5502Y6008D02*
G75*
G03X5502Y6008I-50J0D01*
G74*
G01*
X5902Y6008D02*
X5502Y6008D01*
X5502Y6008D02*
X5502Y5408D01*
X5502Y5408D02*
X5902Y5408D01*
X6302Y5408D02*
X6702Y5408D01*
X6702Y5408D02*
X6702Y6008D01*
X6702Y6008D02*
X6302Y6008D01*
X1546Y15063D02*
G75*
G03X1546Y15063I-50J0D01*
G74*
G01*
X1946Y15063D02*
X1546Y15063D01*
X1546Y15063D02*
X1546Y14463D01*
X1546Y14463D02*
X1946Y14463D01*
X2346Y14463D02*
X2746Y14463D01*
X2746Y14463D02*
X2746Y15063D01*
X2746Y15063D02*
X2346Y15063D01*
X16133Y5841D02*
G75*
G03X16133Y5841I-50J0D01*
G74*
G01*
X15633Y5841D02*
X16033Y5841D01*
X16033Y5841D02*
X16033Y6441D01*
X16033Y6441D02*
X15633Y6441D01*
X15233Y6441D02*
X14833Y6441D01*
X14833Y6441D02*
X14833Y5841D01*
X14833Y5841D02*
X15233Y5841D01*
X4124Y6008D02*
G75*
G03X4124Y6008I-50J0D01*
G74*
G01*
X4524Y6008D02*
X4124Y6008D01*
X4124Y6008D02*
X4124Y5408D01*
X4124Y5408D02*
X4524Y5408D01*
X4924Y5408D02*
X5324Y5408D01*
X5324Y5408D02*
X5324Y6008D01*
X5324Y6008D02*
X4924Y6008D01*
X14833Y7937D02*
G75*
G03X14833Y7937I-50J0D01*
G74*
G01*
X15233Y7937D02*
X14833Y7937D01*
X14833Y7937D02*
X14833Y7337D01*
X14833Y7337D02*
X15233Y7337D01*
X15633Y7337D02*
X16033Y7337D01*
X16033Y7337D02*
X16033Y7937D01*
X16033Y7937D02*
X15633Y7937D01*
X16133Y6589D02*
G75*
G03X16133Y6589I-50J0D01*
G74*
G01*
X15633Y6589D02*
X16033Y6589D01*
X16033Y6589D02*
X16033Y7189D01*
X16033Y7189D02*
X15633Y7189D01*
X15233Y7189D02*
X14833Y7189D01*
X14833Y7189D02*
X14833Y6589D01*
X14833Y6589D02*
X15233Y6589D01*
X22992Y3744D02*
G75*
G03X22992Y3744I-50J0D01*
G74*
G01*
X23392Y3744D02*
X22992Y3744D01*
X22992Y3744D02*
X22992Y3144D01*
X22992Y3144D02*
X23392Y3144D01*
X23792Y3144D02*
X24192Y3144D01*
X24192Y3144D02*
X24192Y3744D01*
X24192Y3744D02*
X23792Y3744D01*
X13844Y3838D02*
G75*
G03X13844Y3838I-50J0D01*
G74*
G01*
X13794Y4288D02*
X13794Y3888D01*
X13794Y3888D02*
X14394Y3888D01*
X14394Y3888D02*
X14394Y4288D01*
X14394Y4688D02*
X14394Y5088D01*
X14394Y5088D02*
X13794Y5088D01*
X13794Y5088D02*
X13794Y4688D01*
X12978Y3838D02*
G75*
G03X12978Y3838I-50J0D01*
G74*
G01*
X12928Y4288D02*
X12928Y3888D01*
X12928Y3888D02*
X13528Y3888D01*
X13528Y3888D02*
X13528Y4288D01*
X13528Y4688D02*
X13528Y5088D01*
X13528Y5088D02*
X12928Y5088D01*
X12928Y5088D02*
X12928Y4688D01*
X13298Y14463D02*
G75*
G03X13298Y14463I-50J0D01*
G74*
G01*
X12798Y14463D02*
X13198Y14463D01*
X13198Y14463D02*
X13198Y15063D01*
X13198Y15063D02*
X12798Y15063D01*
X12398Y15063D02*
X11998Y15063D01*
X11998Y15063D02*
X11998Y14463D01*
X11998Y14463D02*
X12398Y14463D01*
X25109Y9739D02*
G75*
G03X25109Y9739I-50J0D01*
G74*
G01*
X24609Y9739D02*
X25009Y9739D01*
X25009Y9739D02*
X25009Y10339D01*
X25009Y10339D02*
X24609Y10339D01*
X24209Y10339D02*
X23809Y10339D01*
X23809Y10339D02*
X23809Y9739D01*
X23809Y9739D02*
X24209Y9739D01*
X25109Y8951D02*
G75*
G03X25109Y8951I-50J0D01*
G74*
G01*
X24609Y8951D02*
X25009Y8951D01*
X25009Y8951D02*
X25009Y9551D01*
X25009Y9551D02*
X24609Y9551D01*
X24209Y9551D02*
X23809Y9551D01*
X23809Y9551D02*
X23809Y8951D01*
X23809Y8951D02*
X24209Y8951D01*
X14833Y5693D02*
G75*
G03X14833Y5693I-50J0D01*
G74*
G01*
X15233Y5693D02*
X14833Y5693D01*
X14833Y5693D02*
X14833Y5093D01*
X14833Y5093D02*
X15233Y5093D01*
X15633Y5093D02*
X16033Y5093D01*
X16033Y5093D02*
X16033Y5693D01*
X16033Y5693D02*
X15633Y5693D01*
X12195Y13292D02*
G75*
G03X12195Y13292I-50J0D01*
G74*
G01*
X12595Y13292D02*
X12195Y13292D01*
X12195Y13292D02*
X12195Y12692D01*
X12195Y12692D02*
X12595Y12692D01*
X12995Y12692D02*
X13395Y12692D01*
X13395Y12692D02*
X13395Y13292D01*
X13395Y13292D02*
X12995Y13292D01*
X26294Y15020D02*
G75*
G03X26294Y15020I-50J0D01*
G74*
G01*
X26244Y14570D02*
X26244Y14970D01*
X26244Y14970D02*
X25644Y14970D01*
X25644Y14970D02*
X25644Y14570D01*
X25644Y14170D02*
X25644Y13770D01*
X25644Y13770D02*
X26244Y13770D01*
X26244Y13770D02*
X26244Y14170D01*
X24523Y15020D02*
G75*
G03X24523Y15020I-50J0D01*
G74*
G01*
X24473Y14570D02*
X24473Y14970D01*
X24473Y14970D02*
X23873Y14970D01*
X23873Y14970D02*
X23873Y14570D01*
X23873Y14170D02*
X23873Y13770D01*
X23873Y13770D02*
X24473Y13770D01*
X24473Y13770D02*
X24473Y14170D01*
X11526Y14463D02*
G75*
G03X11526Y14463I-50J0D01*
G74*
G01*
X11026Y14463D02*
X11426Y14463D01*
X11426Y14463D02*
X11426Y15063D01*
X11426Y15063D02*
X11026Y15063D01*
X10626Y15063D02*
X10226Y15063D01*
X10226Y15063D02*
X10226Y14463D01*
X10226Y14463D02*
X10626Y14463D01*
X11920Y11904D02*
G75*
G03X11920Y11904I-50J0D01*
G74*
G01*
X11420Y11904D02*
X11820Y11904D01*
X11820Y11904D02*
X11820Y12504D01*
X11820Y12504D02*
X11420Y12504D01*
X11020Y12504D02*
X10620Y12504D01*
X10620Y12504D02*
X10620Y11904D01*
X10620Y11904D02*
X11020Y11904D01*
X9833Y13292D02*
G75*
G03X9833Y13292I-50J0D01*
G74*
G01*
X10233Y13292D02*
X9833Y13292D01*
X9833Y13292D02*
X9833Y12692D01*
X9833Y12692D02*
X10233Y12692D01*
X10633Y12692D02*
X11033Y12692D01*
X11033Y12692D02*
X11033Y13292D01*
X11033Y13292D02*
X10633Y13292D01*
X5424Y4621D02*
G75*
G03X5424Y4621I-50J0D01*
G74*
G01*
X4924Y4621D02*
X5324Y4621D01*
X5324Y4621D02*
X5324Y5221D01*
X5324Y5221D02*
X4924Y5221D01*
X4524Y5221D02*
X4124Y5221D01*
X4124Y5221D02*
X4124Y4621D01*
X4124Y4621D02*
X4524Y4621D01*
X9164Y14463D02*
G75*
G03X9164Y14463I-50J0D01*
G74*
G01*
X8664Y14463D02*
X9064Y14463D01*
X9064Y14463D02*
X9064Y15063D01*
X9064Y15063D02*
X8664Y15063D01*
X8264Y15063D02*
X7864Y15063D01*
X7864Y15063D02*
X7864Y14463D01*
X7864Y14463D02*
X8264Y14463D01*
X7470Y12504D02*
G75*
G03X7470Y12504I-50J0D01*
G74*
G01*
X7870Y12504D02*
X7470Y12504D01*
X7470Y12504D02*
X7470Y11904D01*
X7470Y11904D02*
X7870Y11904D01*
X8270Y11904D02*
X8670Y11904D01*
X8670Y11904D02*
X8670Y12504D01*
X8670Y12504D02*
X8270Y12504D01*
X2471Y11885D02*
G75*
G03X2471Y11885I-50J0D01*
G74*
G01*
X1971Y11885D02*
X2371Y11885D01*
X2371Y11885D02*
X2371Y12485D01*
X2371Y12485D02*
X1971Y12485D01*
X1571Y12485D02*
X1171Y12485D01*
X1171Y12485D02*
X1171Y11885D01*
X1171Y11885D02*
X1571Y11885D01*
X25773Y4231D02*
G75*
G03X25773Y4231I-50J0D01*
G74*
G01*
X25723Y4681D02*
X25723Y4281D01*
X25723Y4281D02*
X26323Y4281D01*
X26323Y4281D02*
X26323Y4681D01*
X26323Y5081D02*
X26323Y5481D01*
X26323Y5481D02*
X25723Y5481D01*
X25723Y5481D02*
X25723Y5081D01*
X26373Y6870D02*
G75*
G03X26373Y6870I-50J0D01*
G74*
G01*
X26323Y6420D02*
X26323Y6820D01*
X26323Y6820D02*
X25723Y6820D01*
X25723Y6820D02*
X25723Y6420D01*
X25723Y6020D02*
X25723Y5620D01*
X25723Y5620D02*
X26323Y5620D01*
X26323Y5620D02*
X26323Y6020D01*
X6802Y14463D02*
G75*
G03X6802Y14463I-50J0D01*
G74*
G01*
X6302Y14463D02*
X6702Y14463D01*
X6702Y14463D02*
X6702Y15063D01*
X6702Y15063D02*
X6302Y15063D01*
X5902Y15063D02*
X5502Y15063D01*
X5502Y15063D02*
X5502Y14463D01*
X5502Y14463D02*
X5902Y14463D01*
X5108Y12504D02*
G75*
G03X5108Y12504I-50J0D01*
G74*
G01*
X5508Y12504D02*
X5108Y12504D01*
X5108Y12504D02*
X5108Y11904D01*
X5108Y11904D02*
X5508Y11904D01*
X5908Y11904D02*
X6308Y11904D01*
X6308Y11904D02*
X6308Y12504D01*
X6308Y12504D02*
X5908Y12504D01*
X5108Y13292D02*
G75*
G03X5108Y13292I-50J0D01*
G74*
G01*
X5508Y13292D02*
X5108Y13292D01*
X5108Y13292D02*
X5108Y12692D01*
X5108Y12692D02*
X5508Y12692D01*
X5908Y12692D02*
X6308Y12692D01*
X6308Y12692D02*
X6308Y13292D01*
X6308Y13292D02*
X5908Y13292D01*
X4124Y4433D02*
G75*
G03X4124Y4433I-50J0D01*
G74*
G01*
X4524Y4433D02*
X4124Y4433D01*
X4124Y4433D02*
X4124Y3833D01*
X4124Y3833D02*
X4524Y3833D01*
X4924Y3833D02*
X5324Y3833D01*
X5324Y3833D02*
X5324Y4433D01*
X5324Y4433D02*
X4924Y4433D01*
X18337Y7229D02*
G75*
G03X18337Y7229I-50J0D01*
G74*
G01*
X18737Y7229D02*
X18337Y7229D01*
X18337Y7229D02*
X18337Y6629D01*
X18337Y6629D02*
X18737Y6629D01*
X19137Y6629D02*
X19537Y6629D01*
X19537Y6629D02*
X19537Y7229D01*
X19537Y7229D02*
X19137Y7229D01*
X4440Y14463D02*
G75*
G03X4440Y14463I-50J0D01*
G74*
G01*
X3940Y14463D02*
X4340Y14463D01*
X4340Y14463D02*
X4340Y15063D01*
X4340Y15063D02*
X3940Y15063D01*
X3540Y15063D02*
X3140Y15063D01*
X3140Y15063D02*
X3140Y14463D01*
X3140Y14463D02*
X3540Y14463D01*
X2746Y12504D02*
G75*
G03X2746Y12504I-50J0D01*
G74*
G01*
X3146Y12504D02*
X2746Y12504D01*
X2746Y12504D02*
X2746Y11904D01*
X2746Y11904D02*
X3146Y11904D01*
X3546Y11904D02*
X3946Y11904D01*
X3946Y11904D02*
X3946Y12504D01*
X3946Y12504D02*
X3546Y12504D01*
X2746Y13292D02*
G75*
G03X2746Y13292I-50J0D01*
G74*
G01*
X3146Y13292D02*
X2746Y13292D01*
X2746Y13292D02*
X2746Y12692D01*
X2746Y12692D02*
X3146Y12692D01*
X3546Y12692D02*
X3946Y12692D01*
X3946Y12692D02*
X3946Y13292D01*
X3946Y13292D02*
X3546Y13292D01*
X26294Y13051D02*
G75*
G03X26294Y13051I-50J0D01*
G74*
G01*
X26244Y12601D02*
X26244Y13001D01*
X26244Y13001D02*
X25644Y13001D01*
X25644Y13001D02*
X25644Y12601D01*
X25644Y12201D02*
X25644Y11801D01*
X25644Y11801D02*
X26244Y11801D01*
X26244Y11801D02*
X26244Y12201D01*
X5896Y9355D02*
G75*
G03X5896Y9355I-50J0D01*
G74*
G01*
X6296Y9355D02*
X5896Y9355D01*
X5896Y9355D02*
X5896Y8755D01*
X5896Y8755D02*
X6296Y8755D01*
X6696Y8755D02*
X7096Y8755D01*
X7096Y8755D02*
X7096Y9355D01*
X7096Y9355D02*
X6696Y9355D01*
X7470Y13292D02*
G75*
G03X7470Y13292I-50J0D01*
G74*
G01*
X7870Y13292D02*
X7470Y13292D01*
X7470Y13292D02*
X7470Y12692D01*
X7470Y12692D02*
X7870Y12692D01*
X8270Y12692D02*
X8670Y12692D01*
X8670Y12692D02*
X8670Y13292D01*
X8670Y13292D02*
X8270Y13292D01*
G54D13*
X3853Y7172D02*
X3853Y8732D01*
X3853Y8732D02*
X5753Y8732D01*
X5753Y8732D02*
X5753Y7172D01*
X5753Y7172D02*
X3853Y7172D01*
X4053Y7172D02*
X4053Y6742D01*
X4553Y7172D02*
X4553Y6742D01*
X5053Y7172D02*
X5053Y6742D01*
X5553Y6742D02*
X5553Y7172D01*
X5553Y8732D02*
X5553Y9162D01*
X5053Y9162D02*
X5053Y8732D01*
X4553Y9162D02*
X4553Y8732D01*
X4053Y9162D02*
X4053Y8732D01*
X4329Y8442D02*
G75*
G03X4329Y8442I-186J0D01*
G74*
G01*
G54D14*
X14234Y6486D02*
X14234Y5286D01*
X14234Y5286D02*
X11434Y5286D01*
X11434Y5286D02*
X11434Y6486D01*
X14234Y7686D02*
X14234Y7986D01*
X14234Y7986D02*
X13634Y8886D01*
X13634Y8886D02*
X12034Y8886D01*
X12034Y8886D02*
X11434Y7986D01*
X11434Y7986D02*
X11434Y7686D01*
G54D15*
X19319Y4126D02*
X19769Y4126D01*
X19319Y6306D02*
X19759Y6306D01*
X19319Y4126D02*
X19319Y6306D01*
X20199Y3656D02*
X20199Y3226D01*
X22409Y3646D02*
X22409Y3226D01*
X22419Y3226D02*
X20199Y3216D01*
X22399Y7196D02*
X20229Y7206D01*
X22829Y6506D02*
X22829Y3676D01*
X20219Y7196D02*
X20219Y6786D01*
X22579Y6746D02*
X19799Y6746D01*
X19779Y3666D02*
X19779Y6706D01*
X22829Y3666D02*
X19829Y3666D01*
X23279Y6336D02*
X23279Y4116D01*
X23279Y4116D02*
X22829Y4116D01*
X22825Y6516D02*
X22595Y6746D01*
X23277Y6336D02*
X22825Y6336D01*
X22399Y6746D02*
X22399Y7198D01*
X22605Y6342D02*
G75*
G03X22605Y6342I-188J0D01*
G74*
G01*
G54D16*
X15531Y1358D02*
X16515Y1358D01*
X16515Y1358D02*
X16515Y1948D01*
X16515Y1948D02*
X15531Y1948D01*
X20374Y8759D02*
X21358Y8759D01*
X21358Y8759D02*
X21358Y9350D01*
X21358Y9350D02*
X20374Y9350D01*
X20374Y9744D02*
X21358Y9744D01*
X21358Y9744D02*
X21358Y10334D01*
X21358Y10334D02*
X20374Y10334D01*
G54D13*
X12779Y2424D02*
X12679Y2424D01*
X12679Y2424D02*
X12679Y3324D01*
X12679Y3324D02*
X12779Y3324D01*
X12779Y2424D02*
X12779Y3324D01*
X12779Y3324D02*
X13429Y3324D01*
X14129Y2424D02*
X14779Y2424D01*
X14779Y2424D02*
X14779Y3324D01*
X14779Y3324D02*
X14129Y3324D01*
X13429Y2424D02*
X12779Y2424D01*
X11587Y4464D02*
X11587Y4564D01*
X11587Y4564D02*
X12487Y4564D01*
X12487Y4564D02*
X12487Y4464D01*
X11587Y4464D02*
X12487Y4464D01*
X12487Y4464D02*
X12487Y3814D01*
X11587Y3114D02*
X11587Y2464D01*
X11587Y2464D02*
X12487Y2464D01*
X12487Y2464D02*
X12487Y3114D01*
X11587Y3814D02*
X11587Y4464D01*
G54D12*
X21216Y2421D02*
G75*
G03X21216Y2421I-50J0D01*
G74*
G01*
X21166Y1971D02*
X21166Y2371D01*
X21166Y2371D02*
X20566Y2371D01*
X20566Y2371D02*
X20566Y1971D01*
X20566Y1571D02*
X20566Y1171D01*
X20566Y1171D02*
X21166Y1171D01*
X21166Y1171D02*
X21166Y1571D01*
G54D10*
X18833Y12911D02*
X18833Y13305D01*
X18740Y13305D01*
X18683Y13286D01*
X18646Y13248D01*
X18627Y13211D01*
X18608Y13136D01*
X18608Y13080D01*
X18627Y13005D01*
X18646Y12967D01*
X18683Y12930D01*
X18740Y12911D01*
X18833Y12911D01*
X18233Y12911D02*
X18458Y12911D01*
X18346Y12911D02*
X18346Y13305D01*
X18383Y13248D01*
X18421Y13211D01*
X18458Y13192D01*
X17692Y13305D02*
X17448Y13305D01*
X17579Y13155D01*
X17523Y13155D01*
X17485Y13136D01*
X17467Y13117D01*
X17448Y13080D01*
X17448Y12986D01*
X17467Y12949D01*
X17485Y12930D01*
X17523Y12911D01*
X17635Y12911D01*
X17673Y12930D01*
X17692Y12949D01*
X17204Y13305D02*
X17167Y13305D01*
X17129Y13286D01*
X17110Y13267D01*
X17092Y13230D01*
X17073Y13155D01*
X17073Y13061D01*
X17092Y12986D01*
X17110Y12949D01*
X17129Y12930D01*
X17167Y12911D01*
X17204Y12911D01*
X17242Y12930D01*
X17260Y12949D01*
X17279Y12986D01*
X17298Y13061D01*
X17298Y13155D01*
X17279Y13230D01*
X17260Y13267D01*
X17242Y13286D01*
X17204Y13305D01*
X16961Y13305D02*
X16829Y12911D01*
X16698Y13305D01*
X2654Y10391D02*
X2785Y10579D01*
X2879Y10391D02*
X2879Y10785D01*
X2729Y10785D01*
X2692Y10766D01*
X2673Y10748D01*
X2654Y10710D01*
X2654Y10654D01*
X2673Y10616D01*
X2692Y10598D01*
X2729Y10579D01*
X2879Y10579D01*
X2279Y10391D02*
X2504Y10391D01*
X2392Y10391D02*
X2392Y10785D01*
X2429Y10729D01*
X2467Y10691D01*
X2504Y10673D01*
X1904Y10391D02*
X2129Y10391D01*
X2017Y10391D02*
X2017Y10785D01*
X2054Y10729D01*
X2092Y10691D01*
X2129Y10673D01*
X1366Y10391D02*
X1591Y10391D01*
X1479Y10391D02*
X1479Y10785D01*
X1516Y10729D01*
X1554Y10691D01*
X1591Y10673D01*
X1122Y10785D02*
X1085Y10785D01*
X1047Y10766D01*
X1029Y10748D01*
X1010Y10710D01*
X991Y10635D01*
X991Y10541D01*
X1010Y10466D01*
X1029Y10429D01*
X1047Y10410D01*
X1085Y10391D01*
X1122Y10391D01*
X1160Y10410D01*
X1179Y10429D01*
X1197Y10466D01*
X1216Y10541D01*
X1216Y10635D01*
X1197Y10710D01*
X1179Y10748D01*
X1160Y10766D01*
X1122Y10785D01*
X748Y10785D02*
X710Y10785D01*
X673Y10766D01*
X654Y10748D01*
X635Y10710D01*
X616Y10635D01*
X616Y10541D01*
X635Y10466D01*
X654Y10429D01*
X673Y10410D01*
X710Y10391D01*
X748Y10391D01*
X785Y10410D01*
X804Y10429D01*
X823Y10466D01*
X841Y10541D01*
X841Y10635D01*
X823Y10710D01*
X804Y10748D01*
X785Y10766D01*
X748Y10785D01*
X448Y10391D02*
X448Y10785D01*
X410Y10541D02*
X298Y10391D01*
X298Y10654D02*
X448Y10504D01*
X9662Y3817D02*
X9793Y4004D01*
X9887Y3817D02*
X9887Y4210D01*
X9737Y4210D01*
X9700Y4191D01*
X9681Y4173D01*
X9662Y4135D01*
X9662Y4079D01*
X9681Y4041D01*
X9700Y4023D01*
X9737Y4004D01*
X9887Y4004D01*
X9531Y4210D02*
X9287Y4210D01*
X9418Y4060D01*
X9362Y4060D01*
X9325Y4041D01*
X9306Y4023D01*
X9287Y3985D01*
X9287Y3892D01*
X9306Y3854D01*
X9325Y3835D01*
X9362Y3817D01*
X9475Y3817D01*
X9512Y3835D01*
X9531Y3854D01*
X9062Y4041D02*
X9100Y4060D01*
X9118Y4079D01*
X9137Y4116D01*
X9137Y4135D01*
X9118Y4173D01*
X9100Y4191D01*
X9062Y4210D01*
X8987Y4210D01*
X8950Y4191D01*
X8931Y4173D01*
X8912Y4135D01*
X8912Y4116D01*
X8931Y4079D01*
X8950Y4060D01*
X8987Y4041D01*
X9062Y4041D01*
X9100Y4023D01*
X9118Y4004D01*
X9137Y3967D01*
X9137Y3892D01*
X9118Y3854D01*
X9100Y3835D01*
X9062Y3817D01*
X8987Y3817D01*
X8950Y3835D01*
X8931Y3854D01*
X8912Y3892D01*
X8912Y3967D01*
X8931Y4004D01*
X8950Y4023D01*
X8987Y4041D01*
X9709Y3488D02*
X9709Y3226D01*
X9803Y3638D02*
X9896Y3357D01*
X9653Y3357D01*
X9540Y3620D02*
X9278Y3620D01*
X9446Y3226D01*
X9053Y3620D02*
X9015Y3620D01*
X8978Y3601D01*
X8959Y3582D01*
X8940Y3545D01*
X8922Y3470D01*
X8922Y3376D01*
X8940Y3301D01*
X8959Y3263D01*
X8978Y3245D01*
X9015Y3226D01*
X9053Y3226D01*
X9090Y3245D01*
X9109Y3263D01*
X9128Y3301D01*
X9146Y3376D01*
X9146Y3470D01*
X9128Y3545D01*
X9109Y3582D01*
X9090Y3601D01*
X9053Y3620D01*
X12812Y9840D02*
X12943Y10028D01*
X13037Y9840D02*
X13037Y10234D01*
X12887Y10234D01*
X12849Y10215D01*
X12830Y10196D01*
X12812Y10159D01*
X12812Y10103D01*
X12830Y10065D01*
X12849Y10046D01*
X12887Y10028D01*
X13037Y10028D01*
X12680Y10234D02*
X12437Y10234D01*
X12568Y10084D01*
X12512Y10084D01*
X12474Y10065D01*
X12455Y10046D01*
X12437Y10009D01*
X12437Y9915D01*
X12455Y9878D01*
X12474Y9859D01*
X12512Y9840D01*
X12624Y9840D01*
X12662Y9859D01*
X12680Y9878D01*
X12287Y10196D02*
X12268Y10215D01*
X12230Y10234D01*
X12137Y10234D01*
X12099Y10215D01*
X12080Y10196D01*
X12062Y10159D01*
X12062Y10121D01*
X12080Y10065D01*
X12305Y9840D01*
X12062Y9840D01*
X7103Y2399D02*
X7234Y2587D01*
X7328Y2399D02*
X7328Y2793D01*
X7178Y2793D01*
X7140Y2774D01*
X7122Y2755D01*
X7103Y2718D01*
X7103Y2662D01*
X7122Y2624D01*
X7140Y2605D01*
X7178Y2587D01*
X7328Y2587D01*
X6972Y2793D02*
X6728Y2793D01*
X6859Y2643D01*
X6803Y2643D01*
X6766Y2624D01*
X6747Y2605D01*
X6728Y2568D01*
X6728Y2474D01*
X6747Y2437D01*
X6766Y2418D01*
X6803Y2399D01*
X6916Y2399D01*
X6953Y2418D01*
X6972Y2437D01*
X6372Y2793D02*
X6559Y2793D01*
X6578Y2605D01*
X6559Y2624D01*
X6522Y2643D01*
X6428Y2643D01*
X6391Y2624D01*
X6372Y2605D01*
X6353Y2568D01*
X6353Y2474D01*
X6372Y2437D01*
X6391Y2418D01*
X6428Y2399D01*
X6522Y2399D01*
X6559Y2418D01*
X6578Y2437D01*
X7457Y2244D02*
X7439Y2262D01*
X7401Y2281D01*
X7307Y2281D01*
X7270Y2262D01*
X7251Y2244D01*
X7232Y2206D01*
X7232Y2169D01*
X7251Y2112D01*
X7476Y1887D01*
X7232Y1887D01*
X7082Y2244D02*
X7064Y2262D01*
X7026Y2281D01*
X6932Y2281D01*
X6895Y2262D01*
X6876Y2244D01*
X6857Y2206D01*
X6857Y2169D01*
X6876Y2112D01*
X7101Y1887D01*
X6857Y1887D01*
X6614Y2281D02*
X6576Y2281D01*
X6539Y2262D01*
X6520Y2244D01*
X6501Y2206D01*
X6482Y2131D01*
X6482Y2037D01*
X6501Y1962D01*
X6520Y1925D01*
X6539Y1906D01*
X6576Y1887D01*
X6614Y1887D01*
X6651Y1906D01*
X6670Y1925D01*
X6689Y1962D01*
X6707Y2037D01*
X6707Y2131D01*
X6689Y2206D01*
X6670Y2244D01*
X6651Y2262D01*
X6614Y2281D01*
X6314Y1887D02*
X6314Y2281D01*
X6276Y2037D02*
X6164Y1887D01*
X6164Y2150D02*
X6314Y2000D01*
X18727Y10982D02*
X18858Y11169D01*
X18952Y10982D02*
X18952Y11376D01*
X18802Y11376D01*
X18764Y11357D01*
X18745Y11338D01*
X18727Y11301D01*
X18727Y11244D01*
X18745Y11207D01*
X18764Y11188D01*
X18802Y11169D01*
X18952Y11169D01*
X18595Y11376D02*
X18352Y11376D01*
X18483Y11226D01*
X18427Y11226D01*
X18389Y11207D01*
X18370Y11188D01*
X18352Y11151D01*
X18352Y11057D01*
X18370Y11019D01*
X18389Y11001D01*
X18427Y10982D01*
X18539Y10982D01*
X18577Y11001D01*
X18595Y11019D01*
X18895Y10470D02*
X19120Y10470D01*
X19008Y10470D02*
X19008Y10864D01*
X19045Y10808D01*
X19083Y10770D01*
X19120Y10751D01*
X18652Y10864D02*
X18614Y10864D01*
X18577Y10845D01*
X18558Y10826D01*
X18539Y10789D01*
X18520Y10714D01*
X18520Y10620D01*
X18539Y10545D01*
X18558Y10508D01*
X18577Y10489D01*
X18614Y10470D01*
X18652Y10470D01*
X18689Y10489D01*
X18708Y10508D01*
X18727Y10545D01*
X18745Y10620D01*
X18745Y10714D01*
X18727Y10789D01*
X18708Y10826D01*
X18689Y10845D01*
X18652Y10864D01*
X18352Y10470D02*
X18352Y10864D01*
X18314Y10620D02*
X18202Y10470D01*
X18202Y10733D02*
X18352Y10583D01*
X18727Y8187D02*
X18858Y8374D01*
X18952Y8187D02*
X18952Y8580D01*
X18802Y8580D01*
X18764Y8562D01*
X18745Y8543D01*
X18727Y8505D01*
X18727Y8449D01*
X18745Y8412D01*
X18764Y8393D01*
X18802Y8374D01*
X18952Y8374D01*
X18577Y8543D02*
X18558Y8562D01*
X18520Y8580D01*
X18427Y8580D01*
X18389Y8562D01*
X18370Y8543D01*
X18352Y8505D01*
X18352Y8468D01*
X18370Y8412D01*
X18595Y8187D01*
X18352Y8187D01*
X17635Y8187D02*
X17860Y8187D01*
X17748Y8187D02*
X17748Y8580D01*
X17785Y8524D01*
X17823Y8487D01*
X17860Y8468D01*
X17392Y8580D02*
X17354Y8580D01*
X17317Y8562D01*
X17298Y8543D01*
X17279Y8505D01*
X17260Y8430D01*
X17260Y8337D01*
X17279Y8262D01*
X17298Y8224D01*
X17317Y8205D01*
X17354Y8187D01*
X17392Y8187D01*
X17429Y8205D01*
X17448Y8224D01*
X17467Y8262D01*
X17485Y8337D01*
X17485Y8430D01*
X17467Y8505D01*
X17448Y8543D01*
X17429Y8562D01*
X17392Y8580D01*
X17092Y8187D02*
X17092Y8580D01*
X17054Y8337D02*
X16942Y8187D01*
X16942Y8449D02*
X17092Y8299D01*
X23702Y12654D02*
X23515Y12785D01*
X23702Y12879D02*
X23308Y12879D01*
X23308Y12729D01*
X23327Y12692D01*
X23346Y12673D01*
X23383Y12654D01*
X23440Y12654D01*
X23477Y12673D01*
X23496Y12692D01*
X23515Y12729D01*
X23515Y12879D01*
X23702Y12279D02*
X23702Y12504D01*
X23702Y12392D02*
X23308Y12392D01*
X23365Y12429D01*
X23402Y12467D01*
X23421Y12504D01*
X23702Y12092D02*
X23702Y12017D01*
X23683Y11979D01*
X23665Y11961D01*
X23608Y11923D01*
X23533Y11904D01*
X23383Y11904D01*
X23346Y11923D01*
X23327Y11942D01*
X23308Y11979D01*
X23308Y12054D01*
X23327Y12092D01*
X23346Y12110D01*
X23383Y12129D01*
X23477Y12129D01*
X23515Y12110D01*
X23533Y12092D01*
X23552Y12054D01*
X23552Y11979D01*
X23533Y11942D01*
X23515Y11923D01*
X23477Y11904D01*
X24240Y11257D02*
X24465Y11257D01*
X24353Y11257D02*
X24353Y11651D01*
X24390Y11595D01*
X24428Y11557D01*
X24465Y11539D01*
X23997Y11651D02*
X23959Y11651D01*
X23922Y11632D01*
X23903Y11614D01*
X23884Y11576D01*
X23865Y11501D01*
X23865Y11407D01*
X23884Y11332D01*
X23903Y11295D01*
X23922Y11276D01*
X23959Y11257D01*
X23997Y11257D01*
X24034Y11276D01*
X24053Y11295D01*
X24071Y11332D01*
X24090Y11407D01*
X24090Y11501D01*
X24071Y11576D01*
X24053Y11614D01*
X24034Y11632D01*
X23997Y11651D01*
X23622Y11651D02*
X23584Y11651D01*
X23547Y11632D01*
X23528Y11614D01*
X23509Y11576D01*
X23490Y11501D01*
X23490Y11407D01*
X23509Y11332D01*
X23528Y11295D01*
X23547Y11276D01*
X23584Y11257D01*
X23622Y11257D01*
X23659Y11276D01*
X23678Y11295D01*
X23697Y11332D01*
X23715Y11407D01*
X23715Y11501D01*
X23697Y11576D01*
X23678Y11614D01*
X23659Y11632D01*
X23622Y11651D01*
X23322Y11257D02*
X23322Y11651D01*
X23284Y11407D02*
X23172Y11257D01*
X23172Y11520D02*
X23322Y11370D01*
X8402Y7675D02*
X8533Y7862D01*
X8627Y7675D02*
X8627Y8068D01*
X8477Y8068D01*
X8440Y8050D01*
X8421Y8031D01*
X8402Y7994D01*
X8402Y7937D01*
X8421Y7900D01*
X8440Y7881D01*
X8477Y7862D01*
X8627Y7862D01*
X8271Y8068D02*
X8027Y8068D01*
X8158Y7919D01*
X8102Y7919D01*
X8065Y7900D01*
X8046Y7881D01*
X8027Y7844D01*
X8027Y7750D01*
X8046Y7712D01*
X8065Y7694D01*
X8102Y7675D01*
X8215Y7675D01*
X8252Y7694D01*
X8271Y7712D01*
X7690Y7937D02*
X7690Y7675D01*
X7784Y8087D02*
X7877Y7806D01*
X7634Y7806D01*
X8442Y7557D02*
X8629Y7557D01*
X8648Y7369D01*
X8629Y7388D01*
X8592Y7407D01*
X8498Y7407D01*
X8460Y7388D01*
X8442Y7369D01*
X8423Y7332D01*
X8423Y7238D01*
X8442Y7200D01*
X8460Y7182D01*
X8498Y7163D01*
X8592Y7163D01*
X8629Y7182D01*
X8648Y7200D01*
X8085Y7557D02*
X8160Y7557D01*
X8198Y7538D01*
X8217Y7519D01*
X8254Y7463D01*
X8273Y7388D01*
X8273Y7238D01*
X8254Y7200D01*
X8235Y7182D01*
X8198Y7163D01*
X8123Y7163D01*
X8085Y7182D01*
X8067Y7200D01*
X8048Y7238D01*
X8048Y7332D01*
X8067Y7369D01*
X8085Y7388D01*
X8123Y7407D01*
X8198Y7407D01*
X8235Y7388D01*
X8254Y7369D01*
X8273Y7332D01*
X7879Y7163D02*
X7879Y7557D01*
X7842Y7313D02*
X7729Y7163D01*
X7729Y7425D02*
X7879Y7275D01*
X8953Y5549D02*
X9085Y5736D01*
X9178Y5549D02*
X9178Y5943D01*
X9028Y5943D01*
X8991Y5924D01*
X8972Y5905D01*
X8953Y5868D01*
X8953Y5811D01*
X8972Y5774D01*
X8991Y5755D01*
X9028Y5736D01*
X9178Y5736D01*
X8822Y5943D02*
X8578Y5943D01*
X8710Y5793D01*
X8653Y5793D01*
X8616Y5774D01*
X8597Y5755D01*
X8578Y5718D01*
X8578Y5624D01*
X8597Y5586D01*
X8616Y5568D01*
X8653Y5549D01*
X8766Y5549D01*
X8803Y5568D01*
X8822Y5586D01*
X8241Y5943D02*
X8316Y5943D01*
X8353Y5924D01*
X8372Y5905D01*
X8410Y5849D01*
X8428Y5774D01*
X8428Y5624D01*
X8410Y5586D01*
X8391Y5568D01*
X8353Y5549D01*
X8278Y5549D01*
X8241Y5568D01*
X8222Y5586D01*
X8203Y5624D01*
X8203Y5718D01*
X8222Y5755D01*
X8241Y5774D01*
X8278Y5793D01*
X8353Y5793D01*
X8391Y5774D01*
X8410Y5755D01*
X8428Y5718D01*
X7635Y5549D02*
X7860Y5549D01*
X7748Y5549D02*
X7748Y5943D01*
X7785Y5886D01*
X7823Y5849D01*
X7860Y5830D01*
X7392Y5943D02*
X7354Y5943D01*
X7317Y5924D01*
X7298Y5905D01*
X7279Y5868D01*
X7260Y5793D01*
X7260Y5699D01*
X7279Y5624D01*
X7298Y5586D01*
X7317Y5568D01*
X7354Y5549D01*
X7392Y5549D01*
X7429Y5568D01*
X7448Y5586D01*
X7467Y5624D01*
X7485Y5699D01*
X7485Y5793D01*
X7467Y5868D01*
X7448Y5905D01*
X7429Y5924D01*
X7392Y5943D01*
X7092Y5549D02*
X7092Y5943D01*
X7054Y5699D02*
X6942Y5549D01*
X6942Y5811D02*
X7092Y5661D01*
X1079Y14407D02*
X1211Y14595D01*
X1304Y14407D02*
X1304Y14801D01*
X1154Y14801D01*
X1117Y14782D01*
X1098Y14763D01*
X1079Y14726D01*
X1079Y14670D01*
X1098Y14632D01*
X1117Y14613D01*
X1154Y14595D01*
X1304Y14595D01*
X929Y14763D02*
X911Y14782D01*
X873Y14801D01*
X779Y14801D01*
X742Y14782D01*
X723Y14763D01*
X704Y14726D01*
X704Y14688D01*
X723Y14632D01*
X948Y14407D01*
X704Y14407D01*
X329Y14407D02*
X554Y14407D01*
X442Y14407D02*
X442Y14801D01*
X479Y14745D01*
X517Y14707D01*
X554Y14688D01*
X1211Y15183D02*
X1248Y15202D01*
X1267Y15221D01*
X1286Y15258D01*
X1286Y15277D01*
X1267Y15314D01*
X1248Y15333D01*
X1211Y15352D01*
X1136Y15352D01*
X1098Y15333D01*
X1079Y15314D01*
X1061Y15277D01*
X1061Y15258D01*
X1079Y15221D01*
X1098Y15202D01*
X1136Y15183D01*
X1211Y15183D01*
X1248Y15164D01*
X1267Y15146D01*
X1286Y15108D01*
X1286Y15033D01*
X1267Y14996D01*
X1248Y14977D01*
X1211Y14958D01*
X1136Y14958D01*
X1098Y14977D01*
X1079Y14996D01*
X1061Y15033D01*
X1061Y15108D01*
X1079Y15146D01*
X1098Y15164D01*
X1136Y15183D01*
X892Y14958D02*
X892Y15352D01*
X854Y15108D02*
X742Y14958D01*
X742Y15221D02*
X892Y15071D01*
X592Y15314D02*
X573Y15333D01*
X536Y15352D01*
X442Y15352D01*
X404Y15333D01*
X386Y15314D01*
X367Y15277D01*
X367Y15239D01*
X386Y15183D01*
X611Y14958D01*
X367Y14958D01*
X16040Y8580D02*
X16171Y8768D01*
X16265Y8580D02*
X16265Y8974D01*
X16115Y8974D01*
X16077Y8955D01*
X16059Y8937D01*
X16040Y8899D01*
X16040Y8843D01*
X16059Y8805D01*
X16077Y8787D01*
X16115Y8768D01*
X16265Y8768D01*
X15665Y8580D02*
X15890Y8580D01*
X15778Y8580D02*
X15778Y8974D01*
X15815Y8918D01*
X15853Y8880D01*
X15890Y8862D01*
X15421Y8974D02*
X15384Y8974D01*
X15346Y8955D01*
X15328Y8937D01*
X15309Y8899D01*
X15290Y8824D01*
X15290Y8730D01*
X15309Y8655D01*
X15328Y8618D01*
X15346Y8599D01*
X15384Y8580D01*
X15421Y8580D01*
X15459Y8599D01*
X15478Y8618D01*
X15496Y8655D01*
X15515Y8730D01*
X15515Y8824D01*
X15496Y8899D01*
X15478Y8937D01*
X15459Y8955D01*
X15421Y8974D01*
X2654Y5943D02*
X2785Y6130D01*
X2879Y5943D02*
X2879Y6336D01*
X2729Y6336D01*
X2692Y6317D01*
X2673Y6299D01*
X2654Y6261D01*
X2654Y6205D01*
X2673Y6167D01*
X2692Y6149D01*
X2729Y6130D01*
X2879Y6130D01*
X2523Y6336D02*
X2279Y6336D01*
X2410Y6186D01*
X2354Y6186D01*
X2317Y6167D01*
X2298Y6149D01*
X2279Y6111D01*
X2279Y6017D01*
X2298Y5980D01*
X2317Y5961D01*
X2354Y5943D01*
X2467Y5943D01*
X2504Y5961D01*
X2523Y5980D01*
X2148Y6336D02*
X1904Y6336D01*
X2035Y6186D01*
X1979Y6186D01*
X1942Y6167D01*
X1923Y6149D01*
X1904Y6111D01*
X1904Y6017D01*
X1923Y5980D01*
X1942Y5961D01*
X1979Y5943D01*
X2092Y5943D01*
X2129Y5961D01*
X2148Y5980D01*
X2684Y5391D02*
X2909Y5391D01*
X2797Y5391D02*
X2797Y5785D01*
X2834Y5729D01*
X2872Y5691D01*
X2909Y5673D01*
X2515Y5391D02*
X2515Y5785D01*
X2478Y5541D02*
X2365Y5391D01*
X2365Y5654D02*
X2515Y5504D01*
X16049Y9565D02*
X16181Y9752D01*
X16274Y9565D02*
X16274Y9958D01*
X16124Y9958D01*
X16087Y9940D01*
X16068Y9921D01*
X16049Y9883D01*
X16049Y9827D01*
X16068Y9790D01*
X16087Y9771D01*
X16124Y9752D01*
X16274Y9752D01*
X15918Y9958D02*
X15656Y9958D01*
X15824Y9565D01*
X16049Y9053D02*
X16181Y9240D01*
X16274Y9053D02*
X16274Y9446D01*
X16124Y9446D01*
X16087Y9428D01*
X16068Y9409D01*
X16049Y9371D01*
X16049Y9315D01*
X16068Y9278D01*
X16087Y9259D01*
X16124Y9240D01*
X16274Y9240D01*
X15862Y9053D02*
X15787Y9053D01*
X15749Y9071D01*
X15731Y9090D01*
X15693Y9146D01*
X15674Y9221D01*
X15674Y9371D01*
X15693Y9409D01*
X15712Y9428D01*
X15749Y9446D01*
X15824Y9446D01*
X15862Y9428D01*
X15881Y9409D01*
X15899Y9371D01*
X15899Y9278D01*
X15881Y9240D01*
X15862Y9221D01*
X15824Y9203D01*
X15749Y9203D01*
X15712Y9221D01*
X15693Y9240D01*
X15674Y9278D01*
X24356Y2634D02*
X24375Y2615D01*
X24431Y2596D01*
X24469Y2596D01*
X24525Y2615D01*
X24563Y2652D01*
X24581Y2690D01*
X24600Y2765D01*
X24600Y2821D01*
X24581Y2896D01*
X24563Y2934D01*
X24525Y2971D01*
X24469Y2990D01*
X24431Y2990D01*
X24375Y2971D01*
X24356Y2952D01*
X23982Y2596D02*
X24206Y2596D01*
X24094Y2596D02*
X24094Y2990D01*
X24131Y2934D01*
X24169Y2896D01*
X24206Y2877D01*
X24675Y2478D02*
X24638Y2478D01*
X24600Y2459D01*
X24581Y2440D01*
X24563Y2403D01*
X24544Y2328D01*
X24544Y2234D01*
X24563Y2159D01*
X24581Y2122D01*
X24600Y2103D01*
X24638Y2084D01*
X24675Y2084D01*
X24713Y2103D01*
X24731Y2122D01*
X24750Y2159D01*
X24769Y2234D01*
X24769Y2328D01*
X24750Y2403D01*
X24731Y2440D01*
X24713Y2459D01*
X24675Y2478D01*
X24206Y2347D02*
X24206Y2084D01*
X24375Y2347D02*
X24375Y2140D01*
X24356Y2103D01*
X24319Y2084D01*
X24263Y2084D01*
X24225Y2103D01*
X24206Y2122D01*
X23813Y2084D02*
X24038Y2084D01*
X23925Y2084D02*
X23925Y2478D01*
X23963Y2422D01*
X24000Y2384D01*
X24038Y2365D01*
X11301Y5853D02*
X11113Y5984D01*
X11301Y6077D02*
X10907Y6077D01*
X10907Y5928D01*
X10926Y5890D01*
X10944Y5871D01*
X10982Y5853D01*
X11038Y5853D01*
X11076Y5871D01*
X11094Y5890D01*
X11113Y5928D01*
X11113Y6077D01*
X10907Y5515D02*
X10907Y5590D01*
X10926Y5628D01*
X10944Y5646D01*
X11001Y5684D01*
X11076Y5703D01*
X11226Y5703D01*
X11263Y5684D01*
X11282Y5665D01*
X11301Y5628D01*
X11301Y5553D01*
X11282Y5515D01*
X11263Y5496D01*
X11226Y5478D01*
X11132Y5478D01*
X11094Y5496D01*
X11076Y5515D01*
X11057Y5553D01*
X11057Y5628D01*
X11076Y5665D01*
X11094Y5684D01*
X11132Y5703D01*
X10946Y7395D02*
X10946Y7152D01*
X11096Y7283D01*
X11096Y7227D01*
X11115Y7189D01*
X11134Y7170D01*
X11171Y7152D01*
X11265Y7152D01*
X11302Y7170D01*
X11321Y7189D01*
X11340Y7227D01*
X11340Y7339D01*
X11321Y7377D01*
X11302Y7395D01*
X10946Y6814D02*
X10946Y6889D01*
X10965Y6927D01*
X10984Y6946D01*
X11040Y6983D01*
X11115Y7002D01*
X11265Y7002D01*
X11302Y6983D01*
X11321Y6964D01*
X11340Y6927D01*
X11340Y6852D01*
X11321Y6814D01*
X11302Y6796D01*
X11265Y6777D01*
X11171Y6777D01*
X11134Y6796D01*
X11115Y6814D01*
X11096Y6852D01*
X11096Y6927D01*
X11115Y6964D01*
X11134Y6983D01*
X11171Y7002D01*
X10946Y6533D02*
X10946Y6496D01*
X10965Y6458D01*
X10984Y6439D01*
X11021Y6421D01*
X11096Y6402D01*
X11190Y6402D01*
X11265Y6421D01*
X11302Y6439D01*
X11321Y6458D01*
X11340Y6496D01*
X11340Y6533D01*
X11321Y6571D01*
X11302Y6589D01*
X11265Y6608D01*
X11190Y6627D01*
X11096Y6627D01*
X11021Y6608D01*
X10984Y6589D01*
X10965Y6571D01*
X10946Y6533D01*
X10828Y5853D02*
X10641Y5984D01*
X10828Y6077D02*
X10434Y6077D01*
X10434Y5928D01*
X10453Y5890D01*
X10472Y5871D01*
X10509Y5853D01*
X10566Y5853D01*
X10603Y5871D01*
X10622Y5890D01*
X10641Y5928D01*
X10641Y6077D01*
X10566Y5515D02*
X10828Y5515D01*
X10416Y5609D02*
X10697Y5703D01*
X10697Y5459D01*
X10828Y7152D02*
X10828Y7377D01*
X10828Y7264D02*
X10434Y7264D01*
X10491Y7302D01*
X10528Y7339D01*
X10547Y7377D01*
X10472Y7002D02*
X10453Y6983D01*
X10434Y6946D01*
X10434Y6852D01*
X10453Y6814D01*
X10472Y6796D01*
X10509Y6777D01*
X10547Y6777D01*
X10603Y6796D01*
X10828Y7020D01*
X10828Y6777D01*
X10434Y6533D02*
X10434Y6496D01*
X10453Y6458D01*
X10472Y6439D01*
X10509Y6421D01*
X10584Y6402D01*
X10678Y6402D01*
X10753Y6421D01*
X10791Y6439D01*
X10809Y6458D01*
X10828Y6496D01*
X10828Y6533D01*
X10809Y6571D01*
X10791Y6589D01*
X10753Y6608D01*
X10678Y6627D01*
X10584Y6627D01*
X10509Y6608D01*
X10472Y6589D01*
X10453Y6571D01*
X10434Y6533D01*
X12733Y15352D02*
X12864Y15539D01*
X12958Y15352D02*
X12958Y15746D01*
X12808Y15746D01*
X12770Y15727D01*
X12752Y15708D01*
X12733Y15671D01*
X12733Y15614D01*
X12752Y15577D01*
X12770Y15558D01*
X12808Y15539D01*
X12958Y15539D01*
X12583Y15708D02*
X12564Y15727D01*
X12527Y15746D01*
X12433Y15746D01*
X12395Y15727D01*
X12377Y15708D01*
X12358Y15671D01*
X12358Y15633D01*
X12377Y15577D01*
X12602Y15352D01*
X12358Y15352D01*
X12020Y15746D02*
X12095Y15746D01*
X12133Y15727D01*
X12152Y15708D01*
X12189Y15652D01*
X12208Y15577D01*
X12208Y15427D01*
X12189Y15389D01*
X12170Y15371D01*
X12133Y15352D01*
X12058Y15352D01*
X12020Y15371D01*
X12002Y15389D01*
X11983Y15427D01*
X11983Y15521D01*
X12002Y15558D01*
X12020Y15577D01*
X12058Y15596D01*
X12133Y15596D01*
X12170Y15577D01*
X12189Y15558D01*
X12208Y15521D01*
X12864Y16128D02*
X12902Y16147D01*
X12920Y16166D01*
X12939Y16203D01*
X12939Y16222D01*
X12920Y16259D01*
X12902Y16278D01*
X12864Y16297D01*
X12789Y16297D01*
X12752Y16278D01*
X12733Y16259D01*
X12714Y16222D01*
X12714Y16203D01*
X12733Y16166D01*
X12752Y16147D01*
X12789Y16128D01*
X12864Y16128D01*
X12902Y16109D01*
X12920Y16091D01*
X12939Y16053D01*
X12939Y15978D01*
X12920Y15941D01*
X12902Y15922D01*
X12864Y15903D01*
X12789Y15903D01*
X12752Y15922D01*
X12733Y15941D01*
X12714Y15978D01*
X12714Y16053D01*
X12733Y16091D01*
X12752Y16109D01*
X12789Y16128D01*
X12545Y15903D02*
X12545Y16297D01*
X12508Y16053D02*
X12395Y15903D01*
X12395Y16166D02*
X12545Y16016D01*
X12245Y16259D02*
X12227Y16278D01*
X12189Y16297D01*
X12095Y16297D01*
X12058Y16278D01*
X12039Y16259D01*
X12020Y16222D01*
X12020Y16184D01*
X12039Y16128D01*
X12264Y15903D01*
X12020Y15903D01*
X23333Y10389D02*
X23352Y10371D01*
X23408Y10352D01*
X23445Y10352D01*
X23502Y10371D01*
X23539Y10408D01*
X23558Y10446D01*
X23577Y10521D01*
X23577Y10577D01*
X23558Y10652D01*
X23539Y10689D01*
X23502Y10727D01*
X23445Y10746D01*
X23408Y10746D01*
X23352Y10727D01*
X23333Y10708D01*
X23183Y10708D02*
X23164Y10727D01*
X23127Y10746D01*
X23033Y10746D01*
X22995Y10727D01*
X22977Y10708D01*
X22958Y10671D01*
X22958Y10633D01*
X22977Y10577D01*
X23202Y10352D01*
X22958Y10352D01*
X23533Y10234D02*
X23496Y10234D01*
X23458Y10215D01*
X23440Y10196D01*
X23421Y10159D01*
X23402Y10084D01*
X23402Y9990D01*
X23421Y9915D01*
X23440Y9878D01*
X23458Y9859D01*
X23496Y9840D01*
X23533Y9840D01*
X23571Y9859D01*
X23590Y9878D01*
X23608Y9915D01*
X23627Y9990D01*
X23627Y10084D01*
X23608Y10159D01*
X23590Y10196D01*
X23571Y10215D01*
X23533Y10234D01*
X23065Y10103D02*
X23065Y9840D01*
X23233Y10103D02*
X23233Y9896D01*
X23215Y9859D01*
X23177Y9840D01*
X23121Y9840D01*
X23083Y9859D01*
X23065Y9878D01*
X22671Y9840D02*
X22896Y9840D01*
X22784Y9840D02*
X22784Y10234D01*
X22821Y10178D01*
X22859Y10140D01*
X22896Y10121D01*
X23372Y9326D02*
X23391Y9308D01*
X23447Y9289D01*
X23485Y9289D01*
X23541Y9308D01*
X23578Y9345D01*
X23597Y9383D01*
X23616Y9458D01*
X23616Y9514D01*
X23597Y9589D01*
X23578Y9626D01*
X23541Y9664D01*
X23485Y9683D01*
X23447Y9683D01*
X23391Y9664D01*
X23372Y9645D01*
X23241Y9683D02*
X22997Y9683D01*
X23128Y9533D01*
X23072Y9533D01*
X23035Y9514D01*
X23016Y9495D01*
X22997Y9458D01*
X22997Y9364D01*
X23016Y9326D01*
X23035Y9308D01*
X23072Y9289D01*
X23185Y9289D01*
X23222Y9308D01*
X23241Y9326D01*
X23494Y9131D02*
X23457Y9131D01*
X23419Y9113D01*
X23400Y9094D01*
X23382Y9056D01*
X23363Y8982D01*
X23363Y8888D01*
X23382Y8813D01*
X23400Y8775D01*
X23419Y8757D01*
X23457Y8738D01*
X23494Y8738D01*
X23532Y8757D01*
X23550Y8775D01*
X23569Y8813D01*
X23588Y8888D01*
X23588Y8982D01*
X23569Y9056D01*
X23550Y9094D01*
X23532Y9113D01*
X23494Y9131D01*
X23025Y9000D02*
X23025Y8738D01*
X23194Y9000D02*
X23194Y8794D01*
X23175Y8757D01*
X23138Y8738D01*
X23082Y8738D01*
X23044Y8757D01*
X23025Y8775D01*
X22632Y8738D02*
X22857Y8738D01*
X22744Y8738D02*
X22744Y9131D01*
X22782Y9075D01*
X22819Y9038D01*
X22857Y9019D01*
X16049Y8068D02*
X16181Y8256D01*
X16274Y8068D02*
X16274Y8462D01*
X16124Y8462D01*
X16087Y8443D01*
X16068Y8425D01*
X16049Y8387D01*
X16049Y8331D01*
X16068Y8293D01*
X16087Y8275D01*
X16124Y8256D01*
X16274Y8256D01*
X15824Y8293D02*
X15862Y8312D01*
X15881Y8331D01*
X15899Y8368D01*
X15899Y8387D01*
X15881Y8425D01*
X15862Y8443D01*
X15824Y8462D01*
X15749Y8462D01*
X15712Y8443D01*
X15693Y8425D01*
X15674Y8387D01*
X15674Y8368D01*
X15693Y8331D01*
X15712Y8312D01*
X15749Y8293D01*
X15824Y8293D01*
X15862Y8275D01*
X15881Y8256D01*
X15899Y8218D01*
X15899Y8143D01*
X15881Y8106D01*
X15862Y8087D01*
X15824Y8068D01*
X15749Y8068D01*
X15712Y8087D01*
X15693Y8106D01*
X15674Y8143D01*
X15674Y8218D01*
X15693Y8256D01*
X15712Y8275D01*
X15749Y8293D01*
X12812Y10352D02*
X12943Y10539D01*
X13037Y10352D02*
X13037Y10746D01*
X12887Y10746D01*
X12849Y10727D01*
X12830Y10708D01*
X12812Y10671D01*
X12812Y10614D01*
X12830Y10577D01*
X12849Y10558D01*
X12887Y10539D01*
X13037Y10539D01*
X12437Y10352D02*
X12662Y10352D01*
X12549Y10352D02*
X12549Y10746D01*
X12587Y10689D01*
X12624Y10652D01*
X12662Y10633D01*
X12099Y10746D02*
X12174Y10746D01*
X12212Y10727D01*
X12230Y10708D01*
X12268Y10652D01*
X12287Y10577D01*
X12287Y10427D01*
X12268Y10389D01*
X12249Y10371D01*
X12212Y10352D01*
X12137Y10352D01*
X12099Y10371D01*
X12080Y10389D01*
X12062Y10427D01*
X12062Y10521D01*
X12080Y10558D01*
X12099Y10577D01*
X12137Y10596D01*
X12212Y10596D01*
X12249Y10577D01*
X12268Y10558D01*
X12287Y10521D01*
X25356Y15253D02*
X25168Y15384D01*
X25356Y15478D02*
X24962Y15478D01*
X24962Y15328D01*
X24981Y15290D01*
X25000Y15271D01*
X25037Y15253D01*
X25093Y15253D01*
X25131Y15271D01*
X25149Y15290D01*
X25168Y15328D01*
X25168Y15478D01*
X25356Y14878D02*
X25356Y15103D01*
X25356Y14990D02*
X24962Y14990D01*
X25018Y15028D01*
X25056Y15065D01*
X25074Y15103D01*
X25131Y14653D02*
X25112Y14690D01*
X25093Y14709D01*
X25056Y14728D01*
X25037Y14728D01*
X25000Y14709D01*
X24981Y14690D01*
X24962Y14653D01*
X24962Y14578D01*
X24981Y14540D01*
X25000Y14521D01*
X25037Y14503D01*
X25056Y14503D01*
X25093Y14521D01*
X25112Y14540D01*
X25131Y14578D01*
X25131Y14653D01*
X25149Y14690D01*
X25168Y14709D01*
X25206Y14728D01*
X25281Y14728D01*
X25318Y14709D01*
X25337Y14690D01*
X25356Y14653D01*
X25356Y14578D01*
X25337Y14540D01*
X25318Y14521D01*
X25281Y14503D01*
X25206Y14503D01*
X25168Y14521D01*
X25149Y14540D01*
X25131Y14578D01*
X26970Y15155D02*
X26970Y15380D01*
X26970Y15268D02*
X26576Y15268D01*
X26632Y15305D01*
X26670Y15343D01*
X26689Y15380D01*
X26576Y14911D02*
X26576Y14874D01*
X26595Y14836D01*
X26614Y14818D01*
X26651Y14799D01*
X26726Y14780D01*
X26820Y14780D01*
X26895Y14799D01*
X26932Y14818D01*
X26951Y14836D01*
X26970Y14874D01*
X26970Y14911D01*
X26951Y14949D01*
X26932Y14968D01*
X26895Y14986D01*
X26820Y15005D01*
X26726Y15005D01*
X26651Y14986D01*
X26614Y14968D01*
X26595Y14949D01*
X26576Y14911D01*
X26970Y14611D02*
X26576Y14611D01*
X26820Y14574D02*
X26970Y14461D01*
X26707Y14461D02*
X26857Y14611D01*
X24268Y15194D02*
X24400Y15382D01*
X24493Y15194D02*
X24493Y15588D01*
X24343Y15588D01*
X24306Y15569D01*
X24287Y15551D01*
X24268Y15513D01*
X24268Y15457D01*
X24287Y15419D01*
X24306Y15401D01*
X24343Y15382D01*
X24493Y15382D01*
X23893Y15194D02*
X24118Y15194D01*
X24006Y15194D02*
X24006Y15588D01*
X24043Y15532D01*
X24081Y15494D01*
X24118Y15476D01*
X23762Y15588D02*
X23500Y15588D01*
X23668Y15194D01*
X24250Y15746D02*
X24475Y15746D01*
X24362Y15746D02*
X24362Y16139D01*
X24400Y16083D01*
X24437Y16046D01*
X24475Y16027D01*
X24006Y16139D02*
X23968Y16139D01*
X23931Y16121D01*
X23912Y16102D01*
X23893Y16064D01*
X23875Y15989D01*
X23875Y15896D01*
X23893Y15821D01*
X23912Y15783D01*
X23931Y15764D01*
X23968Y15746D01*
X24006Y15746D01*
X24043Y15764D01*
X24062Y15783D01*
X24081Y15821D01*
X24100Y15896D01*
X24100Y15989D01*
X24081Y16064D01*
X24062Y16102D01*
X24043Y16121D01*
X24006Y16139D01*
X23706Y15746D02*
X23706Y16139D01*
X23668Y15896D02*
X23556Y15746D01*
X23556Y16008D02*
X23706Y15858D01*
X11079Y15352D02*
X11211Y15539D01*
X11304Y15352D02*
X11304Y15746D01*
X11154Y15746D01*
X11117Y15727D01*
X11098Y15708D01*
X11079Y15671D01*
X11079Y15614D01*
X11098Y15577D01*
X11117Y15558D01*
X11154Y15539D01*
X11304Y15539D01*
X10929Y15708D02*
X10911Y15727D01*
X10873Y15746D01*
X10779Y15746D01*
X10742Y15727D01*
X10723Y15708D01*
X10704Y15671D01*
X10704Y15633D01*
X10723Y15577D01*
X10948Y15352D01*
X10704Y15352D01*
X10348Y15746D02*
X10536Y15746D01*
X10554Y15558D01*
X10536Y15577D01*
X10498Y15596D01*
X10404Y15596D01*
X10367Y15577D01*
X10348Y15558D01*
X10329Y15521D01*
X10329Y15427D01*
X10348Y15389D01*
X10367Y15371D01*
X10404Y15352D01*
X10498Y15352D01*
X10536Y15371D01*
X10554Y15389D01*
X11211Y16128D02*
X11248Y16147D01*
X11267Y16166D01*
X11286Y16203D01*
X11286Y16222D01*
X11267Y16259D01*
X11248Y16278D01*
X11211Y16297D01*
X11136Y16297D01*
X11098Y16278D01*
X11079Y16259D01*
X11061Y16222D01*
X11061Y16203D01*
X11079Y16166D01*
X11098Y16147D01*
X11136Y16128D01*
X11211Y16128D01*
X11248Y16109D01*
X11267Y16091D01*
X11286Y16053D01*
X11286Y15978D01*
X11267Y15941D01*
X11248Y15922D01*
X11211Y15903D01*
X11136Y15903D01*
X11098Y15922D01*
X11079Y15941D01*
X11061Y15978D01*
X11061Y16053D01*
X11079Y16091D01*
X11098Y16109D01*
X11136Y16128D01*
X10892Y15903D02*
X10892Y16297D01*
X10854Y16053D02*
X10742Y15903D01*
X10742Y16166D02*
X10892Y16016D01*
X10592Y16259D02*
X10573Y16278D01*
X10536Y16297D01*
X10442Y16297D01*
X10404Y16278D01*
X10386Y16259D01*
X10367Y16222D01*
X10367Y16184D01*
X10386Y16128D01*
X10611Y15903D01*
X10367Y15903D01*
X11237Y9840D02*
X11368Y10028D01*
X11462Y9840D02*
X11462Y10234D01*
X11312Y10234D01*
X11274Y10215D01*
X11256Y10196D01*
X11237Y10159D01*
X11237Y10103D01*
X11256Y10065D01*
X11274Y10046D01*
X11312Y10028D01*
X11462Y10028D01*
X11106Y10234D02*
X10862Y10234D01*
X10993Y10084D01*
X10937Y10084D01*
X10899Y10065D01*
X10881Y10046D01*
X10862Y10009D01*
X10862Y9915D01*
X10881Y9878D01*
X10899Y9859D01*
X10937Y9840D01*
X11049Y9840D01*
X11087Y9859D01*
X11106Y9878D01*
X10487Y9840D02*
X10712Y9840D01*
X10599Y9840D02*
X10599Y10234D01*
X10637Y10178D01*
X10674Y10140D01*
X10712Y10121D01*
X10725Y10352D02*
X10856Y10539D01*
X10950Y10352D02*
X10950Y10746D01*
X10800Y10746D01*
X10763Y10727D01*
X10744Y10708D01*
X10725Y10671D01*
X10725Y10614D01*
X10744Y10577D01*
X10763Y10558D01*
X10800Y10539D01*
X10950Y10539D01*
X10350Y10352D02*
X10575Y10352D01*
X10463Y10352D02*
X10463Y10746D01*
X10500Y10689D01*
X10538Y10652D01*
X10575Y10633D01*
X9994Y10746D02*
X10181Y10746D01*
X10200Y10558D01*
X10181Y10577D01*
X10144Y10596D01*
X10050Y10596D01*
X10013Y10577D01*
X9994Y10558D01*
X9975Y10521D01*
X9975Y10427D01*
X9994Y10389D01*
X10013Y10371D01*
X10050Y10352D01*
X10144Y10352D01*
X10181Y10371D01*
X10200Y10389D01*
X6670Y4838D02*
X6689Y4820D01*
X6745Y4801D01*
X6782Y4801D01*
X6839Y4820D01*
X6876Y4857D01*
X6895Y4895D01*
X6914Y4970D01*
X6914Y5026D01*
X6895Y5101D01*
X6876Y5138D01*
X6839Y5176D01*
X6782Y5194D01*
X6745Y5194D01*
X6689Y5176D01*
X6670Y5157D01*
X6295Y4801D02*
X6520Y4801D01*
X6407Y4801D02*
X6407Y5194D01*
X6445Y5138D01*
X6482Y5101D01*
X6520Y5082D01*
X6051Y5194D02*
X6014Y5194D01*
X5976Y5176D01*
X5958Y5157D01*
X5939Y5119D01*
X5920Y5044D01*
X5920Y4951D01*
X5939Y4876D01*
X5958Y4838D01*
X5976Y4820D01*
X6014Y4801D01*
X6051Y4801D01*
X6089Y4820D01*
X6107Y4838D01*
X6126Y4876D01*
X6145Y4951D01*
X6145Y5044D01*
X6126Y5119D01*
X6107Y5157D01*
X6089Y5176D01*
X6051Y5194D01*
X6661Y4250D02*
X6886Y4250D01*
X6773Y4250D02*
X6773Y4643D01*
X6811Y4587D01*
X6848Y4550D01*
X6886Y4531D01*
X6417Y4643D02*
X6379Y4643D01*
X6342Y4625D01*
X6323Y4606D01*
X6304Y4568D01*
X6286Y4493D01*
X6286Y4400D01*
X6304Y4325D01*
X6323Y4287D01*
X6342Y4268D01*
X6379Y4250D01*
X6417Y4250D01*
X6454Y4268D01*
X6473Y4287D01*
X6492Y4325D01*
X6511Y4400D01*
X6511Y4493D01*
X6492Y4568D01*
X6473Y4606D01*
X6454Y4625D01*
X6417Y4643D01*
X6042Y4643D02*
X6004Y4643D01*
X5967Y4625D01*
X5948Y4606D01*
X5929Y4568D01*
X5911Y4493D01*
X5911Y4400D01*
X5929Y4325D01*
X5948Y4287D01*
X5967Y4268D01*
X6004Y4250D01*
X6042Y4250D01*
X6079Y4268D01*
X6098Y4287D01*
X6117Y4325D01*
X6136Y4400D01*
X6136Y4493D01*
X6117Y4568D01*
X6098Y4606D01*
X6079Y4625D01*
X6042Y4643D01*
X5742Y4512D02*
X5742Y4118D01*
X5742Y4493D02*
X5704Y4512D01*
X5629Y4512D01*
X5592Y4493D01*
X5573Y4475D01*
X5554Y4437D01*
X5554Y4325D01*
X5573Y4287D01*
X5592Y4268D01*
X5629Y4250D01*
X5704Y4250D01*
X5742Y4268D01*
X8678Y15352D02*
X8809Y15539D01*
X8903Y15352D02*
X8903Y15746D01*
X8753Y15746D01*
X8715Y15727D01*
X8697Y15708D01*
X8678Y15671D01*
X8678Y15614D01*
X8697Y15577D01*
X8715Y15558D01*
X8753Y15539D01*
X8903Y15539D01*
X8528Y15708D02*
X8509Y15727D01*
X8472Y15746D01*
X8378Y15746D01*
X8340Y15727D01*
X8322Y15708D01*
X8303Y15671D01*
X8303Y15633D01*
X8322Y15577D01*
X8547Y15352D01*
X8303Y15352D01*
X7965Y15614D02*
X7965Y15352D01*
X8059Y15764D02*
X8153Y15483D01*
X7909Y15483D01*
X8809Y16089D02*
X8847Y16107D01*
X8865Y16126D01*
X8884Y16164D01*
X8884Y16182D01*
X8865Y16220D01*
X8847Y16239D01*
X8809Y16257D01*
X8734Y16257D01*
X8697Y16239D01*
X8678Y16220D01*
X8659Y16182D01*
X8659Y16164D01*
X8678Y16126D01*
X8697Y16107D01*
X8734Y16089D01*
X8809Y16089D01*
X8847Y16070D01*
X8865Y16051D01*
X8884Y16014D01*
X8884Y15939D01*
X8865Y15901D01*
X8847Y15883D01*
X8809Y15864D01*
X8734Y15864D01*
X8697Y15883D01*
X8678Y15901D01*
X8659Y15939D01*
X8659Y16014D01*
X8678Y16051D01*
X8697Y16070D01*
X8734Y16089D01*
X8490Y15864D02*
X8490Y16257D01*
X8453Y16014D02*
X8340Y15864D01*
X8340Y16126D02*
X8490Y15976D01*
X8190Y16220D02*
X8172Y16239D01*
X8134Y16257D01*
X8040Y16257D01*
X8003Y16239D01*
X7984Y16220D01*
X7965Y16182D01*
X7965Y16145D01*
X7984Y16089D01*
X8209Y15864D01*
X7965Y15864D01*
X8796Y9840D02*
X8927Y10028D01*
X9021Y9840D02*
X9021Y10234D01*
X8871Y10234D01*
X8833Y10215D01*
X8815Y10196D01*
X8796Y10159D01*
X8796Y10103D01*
X8815Y10065D01*
X8833Y10046D01*
X8871Y10028D01*
X9021Y10028D01*
X8665Y10234D02*
X8421Y10234D01*
X8552Y10084D01*
X8496Y10084D01*
X8458Y10065D01*
X8440Y10046D01*
X8421Y10009D01*
X8421Y9915D01*
X8440Y9878D01*
X8458Y9859D01*
X8496Y9840D01*
X8608Y9840D01*
X8646Y9859D01*
X8665Y9878D01*
X8177Y10234D02*
X8140Y10234D01*
X8102Y10215D01*
X8083Y10196D01*
X8065Y10159D01*
X8046Y10084D01*
X8046Y9990D01*
X8065Y9915D01*
X8083Y9878D01*
X8102Y9859D01*
X8140Y9840D01*
X8177Y9840D01*
X8215Y9859D01*
X8233Y9878D01*
X8252Y9915D01*
X8271Y9990D01*
X8271Y10084D01*
X8252Y10159D01*
X8233Y10196D01*
X8215Y10215D01*
X8177Y10234D01*
X2654Y9880D02*
X2785Y10067D01*
X2879Y9880D02*
X2879Y10273D01*
X2729Y10273D01*
X2692Y10254D01*
X2673Y10236D01*
X2654Y10198D01*
X2654Y10142D01*
X2673Y10104D01*
X2692Y10086D01*
X2729Y10067D01*
X2879Y10067D01*
X2504Y10236D02*
X2485Y10254D01*
X2448Y10273D01*
X2354Y10273D01*
X2317Y10254D01*
X2298Y10236D01*
X2279Y10198D01*
X2279Y10161D01*
X2298Y10104D01*
X2523Y9880D01*
X2279Y9880D01*
X2148Y10273D02*
X1886Y10273D01*
X2054Y9880D01*
X1336Y9880D02*
X1561Y9880D01*
X1449Y9880D02*
X1449Y10273D01*
X1486Y10217D01*
X1524Y10179D01*
X1561Y10161D01*
X1092Y10273D02*
X1055Y10273D01*
X1017Y10254D01*
X999Y10236D01*
X980Y10198D01*
X961Y10123D01*
X961Y10029D01*
X980Y9955D01*
X999Y9917D01*
X1017Y9898D01*
X1055Y9880D01*
X1092Y9880D01*
X1130Y9898D01*
X1149Y9917D01*
X1167Y9955D01*
X1186Y10029D01*
X1186Y10123D01*
X1167Y10198D01*
X1149Y10236D01*
X1130Y10254D01*
X1092Y10273D01*
X793Y9880D02*
X793Y10273D01*
X755Y10029D02*
X643Y9880D01*
X643Y10142D02*
X793Y9992D01*
X26364Y3618D02*
X26383Y3599D01*
X26439Y3580D01*
X26477Y3580D01*
X26533Y3599D01*
X26571Y3637D01*
X26589Y3674D01*
X26608Y3749D01*
X26608Y3805D01*
X26589Y3880D01*
X26571Y3918D01*
X26533Y3955D01*
X26477Y3974D01*
X26439Y3974D01*
X26383Y3955D01*
X26364Y3937D01*
X26233Y3974D02*
X25971Y3974D01*
X26139Y3580D01*
X26698Y3385D02*
X26679Y3404D01*
X26642Y3423D01*
X26548Y3423D01*
X26511Y3404D01*
X26492Y3385D01*
X26473Y3348D01*
X26473Y3310D01*
X26492Y3254D01*
X26717Y3029D01*
X26473Y3029D01*
X26323Y3385D02*
X26304Y3404D01*
X26267Y3423D01*
X26173Y3423D01*
X26136Y3404D01*
X26117Y3385D01*
X26098Y3348D01*
X26098Y3310D01*
X26117Y3254D01*
X26342Y3029D01*
X26098Y3029D01*
X25929Y3292D02*
X25929Y2898D01*
X25929Y3273D02*
X25892Y3292D01*
X25817Y3292D01*
X25779Y3273D01*
X25761Y3254D01*
X25742Y3217D01*
X25742Y3104D01*
X25761Y3067D01*
X25779Y3048D01*
X25817Y3029D01*
X25892Y3029D01*
X25929Y3048D01*
X26837Y7870D02*
X26856Y7851D01*
X26912Y7832D01*
X26949Y7832D01*
X27005Y7851D01*
X27043Y7889D01*
X27062Y7926D01*
X27080Y8001D01*
X27080Y8057D01*
X27062Y8132D01*
X27043Y8170D01*
X27005Y8207D01*
X26949Y8226D01*
X26912Y8226D01*
X26856Y8207D01*
X26837Y8188D01*
X26499Y8226D02*
X26574Y8226D01*
X26612Y8207D01*
X26631Y8188D01*
X26668Y8132D01*
X26687Y8057D01*
X26687Y7907D01*
X26668Y7870D01*
X26649Y7851D01*
X26612Y7832D01*
X26537Y7832D01*
X26499Y7851D01*
X26481Y7870D01*
X26462Y7907D01*
X26462Y8001D01*
X26481Y8038D01*
X26499Y8057D01*
X26537Y8076D01*
X26612Y8076D01*
X26649Y8057D01*
X26668Y8038D01*
X26687Y8001D01*
X27052Y7598D02*
X27034Y7617D01*
X26996Y7635D01*
X26902Y7635D01*
X26865Y7617D01*
X26846Y7598D01*
X26827Y7560D01*
X26827Y7523D01*
X26846Y7467D01*
X27071Y7242D01*
X26827Y7242D01*
X26677Y7598D02*
X26659Y7617D01*
X26621Y7635D01*
X26527Y7635D01*
X26490Y7617D01*
X26471Y7598D01*
X26452Y7560D01*
X26452Y7523D01*
X26471Y7467D01*
X26696Y7242D01*
X26452Y7242D01*
X26284Y7504D02*
X26284Y7110D01*
X26284Y7485D02*
X26246Y7504D01*
X26171Y7504D01*
X26134Y7485D01*
X26115Y7467D01*
X26096Y7429D01*
X26096Y7317D01*
X26115Y7279D01*
X26134Y7260D01*
X26171Y7242D01*
X26246Y7242D01*
X26284Y7260D01*
X6394Y15313D02*
X6526Y15500D01*
X6619Y15313D02*
X6619Y15706D01*
X6469Y15706D01*
X6432Y15688D01*
X6413Y15669D01*
X6394Y15631D01*
X6394Y15575D01*
X6413Y15538D01*
X6432Y15519D01*
X6469Y15500D01*
X6619Y15500D01*
X6244Y15669D02*
X6226Y15688D01*
X6188Y15706D01*
X6094Y15706D01*
X6057Y15688D01*
X6038Y15669D01*
X6019Y15631D01*
X6019Y15594D01*
X6038Y15538D01*
X6263Y15313D01*
X6019Y15313D01*
X5888Y15706D02*
X5644Y15706D01*
X5776Y15556D01*
X5719Y15556D01*
X5682Y15538D01*
X5663Y15519D01*
X5644Y15481D01*
X5644Y15388D01*
X5663Y15350D01*
X5682Y15331D01*
X5719Y15313D01*
X5832Y15313D01*
X5869Y15331D01*
X5888Y15350D01*
X6526Y16089D02*
X6563Y16107D01*
X6582Y16126D01*
X6601Y16164D01*
X6601Y16182D01*
X6582Y16220D01*
X6563Y16239D01*
X6526Y16257D01*
X6451Y16257D01*
X6413Y16239D01*
X6394Y16220D01*
X6376Y16182D01*
X6376Y16164D01*
X6394Y16126D01*
X6413Y16107D01*
X6451Y16089D01*
X6526Y16089D01*
X6563Y16070D01*
X6582Y16051D01*
X6601Y16014D01*
X6601Y15939D01*
X6582Y15901D01*
X6563Y15883D01*
X6526Y15864D01*
X6451Y15864D01*
X6413Y15883D01*
X6394Y15901D01*
X6376Y15939D01*
X6376Y16014D01*
X6394Y16051D01*
X6413Y16070D01*
X6451Y16089D01*
X6207Y15864D02*
X6207Y16257D01*
X6169Y16014D02*
X6057Y15864D01*
X6057Y16126D02*
X6207Y15976D01*
X5907Y16220D02*
X5888Y16239D01*
X5851Y16257D01*
X5757Y16257D01*
X5719Y16239D01*
X5701Y16220D01*
X5682Y16182D01*
X5682Y16145D01*
X5701Y16089D01*
X5926Y15864D01*
X5682Y15864D01*
X5804Y9880D02*
X5935Y10067D01*
X6029Y9880D02*
X6029Y10273D01*
X5879Y10273D01*
X5841Y10254D01*
X5823Y10236D01*
X5804Y10198D01*
X5804Y10142D01*
X5823Y10104D01*
X5841Y10086D01*
X5879Y10067D01*
X6029Y10067D01*
X5654Y10236D02*
X5635Y10254D01*
X5598Y10273D01*
X5504Y10273D01*
X5466Y10254D01*
X5448Y10236D01*
X5429Y10198D01*
X5429Y10161D01*
X5448Y10104D01*
X5673Y9880D01*
X5429Y9880D01*
X5241Y9880D02*
X5166Y9880D01*
X5129Y9898D01*
X5110Y9917D01*
X5073Y9973D01*
X5054Y10048D01*
X5054Y10198D01*
X5073Y10236D01*
X5091Y10254D01*
X5129Y10273D01*
X5204Y10273D01*
X5241Y10254D01*
X5260Y10236D01*
X5279Y10198D01*
X5279Y10104D01*
X5260Y10067D01*
X5241Y10048D01*
X5204Y10029D01*
X5129Y10029D01*
X5091Y10048D01*
X5073Y10067D01*
X5054Y10104D01*
X5804Y10391D02*
X5935Y10579D01*
X6029Y10391D02*
X6029Y10785D01*
X5879Y10785D01*
X5841Y10766D01*
X5823Y10748D01*
X5804Y10710D01*
X5804Y10654D01*
X5823Y10616D01*
X5841Y10598D01*
X5879Y10579D01*
X6029Y10579D01*
X5429Y10391D02*
X5654Y10391D01*
X5541Y10391D02*
X5541Y10785D01*
X5579Y10729D01*
X5616Y10691D01*
X5654Y10673D01*
X5298Y10785D02*
X5054Y10785D01*
X5185Y10635D01*
X5129Y10635D01*
X5091Y10616D01*
X5073Y10598D01*
X5054Y10560D01*
X5054Y10466D01*
X5073Y10429D01*
X5091Y10410D01*
X5129Y10391D01*
X5241Y10391D01*
X5279Y10410D01*
X5298Y10429D01*
X5961Y3187D02*
X6092Y3374D01*
X6186Y3187D02*
X6186Y3580D01*
X6036Y3580D01*
X5999Y3562D01*
X5980Y3543D01*
X5961Y3505D01*
X5961Y3449D01*
X5980Y3412D01*
X5999Y3393D01*
X6036Y3374D01*
X6186Y3374D01*
X5830Y3580D02*
X5586Y3580D01*
X5718Y3430D01*
X5661Y3430D01*
X5624Y3412D01*
X5605Y3393D01*
X5586Y3355D01*
X5586Y3262D01*
X5605Y3224D01*
X5624Y3205D01*
X5661Y3187D01*
X5774Y3187D01*
X5811Y3205D01*
X5830Y3224D01*
X5455Y3580D02*
X5193Y3580D01*
X5361Y3187D01*
X4908Y3543D02*
X4889Y3562D01*
X4851Y3580D01*
X4758Y3580D01*
X4720Y3562D01*
X4701Y3543D01*
X4683Y3505D01*
X4683Y3468D01*
X4701Y3412D01*
X4926Y3187D01*
X4683Y3187D01*
X4514Y3187D02*
X4514Y3580D01*
X4476Y3337D02*
X4364Y3187D01*
X4364Y3449D02*
X4514Y3299D01*
X4214Y3543D02*
X4195Y3562D01*
X4158Y3580D01*
X4064Y3580D01*
X4026Y3562D01*
X4008Y3543D01*
X3989Y3505D01*
X3989Y3468D01*
X4008Y3412D01*
X4233Y3187D01*
X3989Y3187D01*
X19553Y7399D02*
X19685Y7587D01*
X19778Y7399D02*
X19778Y7793D01*
X19628Y7793D01*
X19591Y7774D01*
X19572Y7755D01*
X19553Y7718D01*
X19553Y7662D01*
X19572Y7624D01*
X19591Y7605D01*
X19628Y7587D01*
X19778Y7587D01*
X19178Y7399D02*
X19403Y7399D01*
X19291Y7399D02*
X19291Y7793D01*
X19328Y7737D01*
X19366Y7699D01*
X19403Y7680D01*
X18775Y7662D02*
X18775Y7399D01*
X18869Y7812D02*
X18963Y7530D01*
X18719Y7530D01*
X18569Y7399D02*
X18569Y7793D01*
X18532Y7549D02*
X18419Y7399D01*
X18419Y7662D02*
X18569Y7512D01*
X18288Y7793D02*
X18025Y7793D01*
X18194Y7399D01*
X4071Y15391D02*
X4203Y15579D01*
X4296Y15391D02*
X4296Y15785D01*
X4146Y15785D01*
X4109Y15766D01*
X4090Y15748D01*
X4071Y15710D01*
X4071Y15654D01*
X4090Y15616D01*
X4109Y15598D01*
X4146Y15579D01*
X4296Y15579D01*
X3922Y15748D02*
X3903Y15766D01*
X3865Y15785D01*
X3772Y15785D01*
X3734Y15766D01*
X3715Y15748D01*
X3697Y15710D01*
X3697Y15673D01*
X3715Y15616D01*
X3940Y15391D01*
X3697Y15391D01*
X3547Y15748D02*
X3528Y15766D01*
X3490Y15785D01*
X3397Y15785D01*
X3359Y15766D01*
X3340Y15748D01*
X3322Y15710D01*
X3322Y15673D01*
X3340Y15616D01*
X3565Y15391D01*
X3322Y15391D01*
X4242Y16128D02*
X4280Y16147D01*
X4298Y16166D01*
X4317Y16203D01*
X4317Y16222D01*
X4298Y16259D01*
X4280Y16278D01*
X4242Y16297D01*
X4167Y16297D01*
X4130Y16278D01*
X4111Y16259D01*
X4092Y16222D01*
X4092Y16203D01*
X4111Y16166D01*
X4130Y16147D01*
X4167Y16128D01*
X4242Y16128D01*
X4280Y16109D01*
X4298Y16091D01*
X4317Y16053D01*
X4317Y15978D01*
X4298Y15941D01*
X4280Y15922D01*
X4242Y15903D01*
X4167Y15903D01*
X4130Y15922D01*
X4111Y15941D01*
X4092Y15978D01*
X4092Y16053D01*
X4111Y16091D01*
X4130Y16109D01*
X4167Y16128D01*
X3923Y15903D02*
X3923Y16297D01*
X3886Y16053D02*
X3773Y15903D01*
X3773Y16166D02*
X3923Y16016D01*
X3623Y16259D02*
X3605Y16278D01*
X3567Y16297D01*
X3473Y16297D01*
X3436Y16278D01*
X3417Y16259D01*
X3398Y16222D01*
X3398Y16184D01*
X3417Y16128D01*
X3642Y15903D01*
X3398Y15903D01*
X4229Y9880D02*
X4360Y10067D01*
X4454Y9880D02*
X4454Y10273D01*
X4304Y10273D01*
X4266Y10254D01*
X4248Y10236D01*
X4229Y10198D01*
X4229Y10142D01*
X4248Y10104D01*
X4266Y10086D01*
X4304Y10067D01*
X4454Y10067D01*
X4079Y10236D02*
X4060Y10254D01*
X4023Y10273D01*
X3929Y10273D01*
X3892Y10254D01*
X3873Y10236D01*
X3854Y10198D01*
X3854Y10161D01*
X3873Y10104D01*
X4098Y9880D01*
X3854Y9880D01*
X3629Y10104D02*
X3667Y10123D01*
X3685Y10142D01*
X3704Y10179D01*
X3704Y10198D01*
X3685Y10236D01*
X3667Y10254D01*
X3629Y10273D01*
X3554Y10273D01*
X3517Y10254D01*
X3498Y10236D01*
X3479Y10198D01*
X3479Y10179D01*
X3498Y10142D01*
X3517Y10123D01*
X3554Y10104D01*
X3629Y10104D01*
X3667Y10086D01*
X3685Y10067D01*
X3704Y10029D01*
X3704Y9955D01*
X3685Y9917D01*
X3667Y9898D01*
X3629Y9880D01*
X3554Y9880D01*
X3517Y9898D01*
X3498Y9917D01*
X3479Y9955D01*
X3479Y10029D01*
X3498Y10067D01*
X3517Y10086D01*
X3554Y10104D01*
X4229Y10391D02*
X4360Y10579D01*
X4454Y10391D02*
X4454Y10785D01*
X4304Y10785D01*
X4266Y10766D01*
X4248Y10748D01*
X4229Y10710D01*
X4229Y10654D01*
X4248Y10616D01*
X4266Y10598D01*
X4304Y10579D01*
X4454Y10579D01*
X3854Y10391D02*
X4079Y10391D01*
X3967Y10391D02*
X3967Y10785D01*
X4004Y10729D01*
X4041Y10691D01*
X4079Y10673D01*
X3704Y10748D02*
X3685Y10766D01*
X3648Y10785D01*
X3554Y10785D01*
X3517Y10766D01*
X3498Y10748D01*
X3479Y10710D01*
X3479Y10673D01*
X3498Y10616D01*
X3723Y10391D01*
X3479Y10391D01*
X25395Y12142D02*
X25208Y12274D01*
X25395Y12367D02*
X25001Y12367D01*
X25001Y12217D01*
X25020Y12180D01*
X25039Y12161D01*
X25076Y12142D01*
X25133Y12142D01*
X25170Y12161D01*
X25189Y12180D01*
X25208Y12217D01*
X25208Y12367D01*
X25039Y11992D02*
X25020Y11974D01*
X25001Y11936D01*
X25001Y11842D01*
X25020Y11805D01*
X25039Y11786D01*
X25076Y11767D01*
X25114Y11767D01*
X25170Y11786D01*
X25395Y12011D01*
X25395Y11767D01*
X25001Y11524D02*
X25001Y11486D01*
X25020Y11449D01*
X25039Y11430D01*
X25076Y11411D01*
X25151Y11392D01*
X25245Y11392D01*
X25320Y11411D01*
X25358Y11430D01*
X25376Y11449D01*
X25395Y11486D01*
X25395Y11524D01*
X25376Y11561D01*
X25358Y11580D01*
X25320Y11599D01*
X25245Y11617D01*
X25151Y11617D01*
X25076Y11599D01*
X25039Y11580D01*
X25020Y11561D01*
X25001Y11524D01*
X26891Y12075D02*
X26891Y12300D01*
X26891Y12187D02*
X26497Y12187D01*
X26554Y12225D01*
X26591Y12262D01*
X26610Y12300D01*
X26497Y11831D02*
X26497Y11794D01*
X26516Y11756D01*
X26535Y11737D01*
X26572Y11719D01*
X26647Y11700D01*
X26741Y11700D01*
X26816Y11719D01*
X26854Y11737D01*
X26872Y11756D01*
X26891Y11794D01*
X26891Y11831D01*
X26872Y11869D01*
X26854Y11887D01*
X26816Y11906D01*
X26741Y11925D01*
X26647Y11925D01*
X26572Y11906D01*
X26535Y11887D01*
X26516Y11869D01*
X26497Y11831D01*
X26497Y11456D02*
X26497Y11419D01*
X26516Y11381D01*
X26535Y11362D01*
X26572Y11344D01*
X26647Y11325D01*
X26741Y11325D01*
X26816Y11344D01*
X26854Y11362D01*
X26872Y11381D01*
X26891Y11419D01*
X26891Y11456D01*
X26872Y11494D01*
X26854Y11512D01*
X26816Y11531D01*
X26741Y11550D01*
X26647Y11550D01*
X26572Y11531D01*
X26535Y11512D01*
X26516Y11494D01*
X26497Y11456D01*
X26891Y11156D02*
X26497Y11156D01*
X26741Y11119D02*
X26891Y11006D01*
X26629Y11006D02*
X26779Y11156D01*
X7064Y10074D02*
X7082Y10056D01*
X7139Y10037D01*
X7176Y10037D01*
X7232Y10056D01*
X7270Y10093D01*
X7289Y10131D01*
X7307Y10206D01*
X7307Y10262D01*
X7289Y10337D01*
X7270Y10374D01*
X7232Y10412D01*
X7176Y10431D01*
X7139Y10431D01*
X7082Y10412D01*
X7064Y10393D01*
X6689Y10037D02*
X6914Y10037D01*
X6801Y10037D02*
X6801Y10431D01*
X6839Y10374D01*
X6876Y10337D01*
X6914Y10318D01*
X6314Y10037D02*
X6539Y10037D01*
X6426Y10037D02*
X6426Y10431D01*
X6464Y10374D01*
X6501Y10337D01*
X6539Y10318D01*
X7289Y9881D02*
X7270Y9900D01*
X7232Y9919D01*
X7139Y9919D01*
X7101Y9900D01*
X7082Y9881D01*
X7064Y9844D01*
X7064Y9806D01*
X7082Y9750D01*
X7307Y9525D01*
X7064Y9525D01*
X6895Y9788D02*
X6895Y9525D01*
X6895Y9750D02*
X6876Y9769D01*
X6839Y9788D01*
X6782Y9788D01*
X6745Y9769D01*
X6726Y9731D01*
X6726Y9525D01*
X6557Y9881D02*
X6539Y9900D01*
X6501Y9919D01*
X6407Y9919D01*
X6370Y9900D01*
X6351Y9881D01*
X6332Y9844D01*
X6332Y9806D01*
X6351Y9750D01*
X6576Y9525D01*
X6332Y9525D01*
X8796Y10352D02*
X8927Y10539D01*
X9021Y10352D02*
X9021Y10746D01*
X8871Y10746D01*
X8833Y10727D01*
X8815Y10708D01*
X8796Y10671D01*
X8796Y10614D01*
X8815Y10577D01*
X8833Y10558D01*
X8871Y10539D01*
X9021Y10539D01*
X8421Y10352D02*
X8646Y10352D01*
X8533Y10352D02*
X8533Y10746D01*
X8571Y10689D01*
X8608Y10652D01*
X8646Y10633D01*
X8083Y10614D02*
X8083Y10352D01*
X8177Y10764D02*
X8271Y10483D01*
X8027Y10483D01*
X3685Y8068D02*
X3685Y7750D01*
X3667Y7712D01*
X3648Y7694D01*
X3610Y7675D01*
X3535Y7675D01*
X3498Y7694D01*
X3479Y7712D01*
X3460Y7750D01*
X3460Y8068D01*
X3310Y8068D02*
X3067Y8068D01*
X3198Y7919D01*
X3142Y7919D01*
X3104Y7900D01*
X3085Y7881D01*
X3067Y7844D01*
X3067Y7750D01*
X3085Y7712D01*
X3104Y7694D01*
X3142Y7675D01*
X3254Y7675D01*
X3292Y7694D01*
X3310Y7712D01*
X3509Y8580D02*
X3697Y8580D01*
X3715Y8393D01*
X3697Y8412D01*
X3659Y8430D01*
X3565Y8430D01*
X3528Y8412D01*
X3509Y8393D01*
X3490Y8355D01*
X3490Y8262D01*
X3509Y8224D01*
X3528Y8205D01*
X3565Y8187D01*
X3659Y8187D01*
X3697Y8205D01*
X3715Y8224D01*
X3134Y8580D02*
X3322Y8580D01*
X3340Y8393D01*
X3322Y8412D01*
X3284Y8430D01*
X3190Y8430D01*
X3153Y8412D01*
X3134Y8393D01*
X3115Y8355D01*
X3115Y8262D01*
X3134Y8224D01*
X3153Y8205D01*
X3190Y8187D01*
X3284Y8187D01*
X3322Y8205D01*
X3340Y8224D01*
X2759Y8580D02*
X2947Y8580D01*
X2965Y8393D01*
X2947Y8412D01*
X2909Y8430D01*
X2815Y8430D01*
X2778Y8412D01*
X2759Y8393D01*
X2740Y8355D01*
X2740Y8262D01*
X2759Y8224D01*
X2778Y8205D01*
X2815Y8187D01*
X2909Y8187D01*
X2947Y8205D01*
X2965Y8224D01*
X14630Y8895D02*
X14630Y8577D01*
X14611Y8539D01*
X14593Y8520D01*
X14555Y8502D01*
X14480Y8502D01*
X14443Y8520D01*
X14424Y8539D01*
X14405Y8577D01*
X14405Y8895D01*
X14011Y8502D02*
X14236Y8502D01*
X14124Y8502D02*
X14124Y8895D01*
X14161Y8839D01*
X14199Y8802D01*
X14236Y8783D01*
X14435Y9053D02*
X14623Y9053D01*
X14623Y9446D01*
X14304Y9053D02*
X14304Y9446D01*
X14173Y9165D01*
X14041Y9446D01*
X14041Y9053D01*
X13648Y9053D02*
X13873Y9053D01*
X13760Y9053D02*
X13760Y9446D01*
X13798Y9390D01*
X13835Y9353D01*
X13873Y9334D01*
X13273Y9053D02*
X13498Y9053D01*
X13385Y9053D02*
X13385Y9446D01*
X13423Y9390D01*
X13460Y9353D01*
X13498Y9334D01*
X12898Y9053D02*
X13123Y9053D01*
X13010Y9053D02*
X13010Y9446D01*
X13048Y9390D01*
X13085Y9353D01*
X13123Y9334D01*
X12767Y9446D02*
X12504Y9446D01*
X12673Y9053D01*
X23545Y8337D02*
X23151Y8337D01*
X23507Y7924D02*
X23526Y7943D01*
X23545Y7999D01*
X23545Y8037D01*
X23526Y8093D01*
X23488Y8130D01*
X23451Y8149D01*
X23376Y8168D01*
X23320Y8168D01*
X23245Y8149D01*
X23207Y8130D01*
X23170Y8093D01*
X23151Y8037D01*
X23151Y7999D01*
X23170Y7943D01*
X23188Y7924D01*
X23545Y7549D02*
X23545Y7774D01*
X23545Y7662D02*
X23151Y7662D01*
X23207Y7699D01*
X23245Y7737D01*
X23263Y7774D01*
X24141Y8325D02*
X24141Y8138D01*
X24253Y8363D02*
X23860Y8232D01*
X24253Y8100D01*
X23860Y8025D02*
X23860Y7800D01*
X24253Y7913D02*
X23860Y7913D01*
X24253Y7669D02*
X23860Y7669D01*
X24141Y7538D01*
X23860Y7407D01*
X24253Y7407D01*
X24047Y7219D02*
X24047Y7088D01*
X24253Y7032D02*
X24253Y7219D01*
X23860Y7219D01*
X23860Y7032D01*
X23878Y6657D02*
X23860Y6694D01*
X23860Y6751D01*
X23878Y6807D01*
X23916Y6844D01*
X23953Y6863D01*
X24028Y6882D01*
X24085Y6882D01*
X24160Y6863D01*
X24197Y6844D01*
X24235Y6807D01*
X24253Y6751D01*
X24253Y6713D01*
X24235Y6657D01*
X24216Y6638D01*
X24085Y6638D01*
X24085Y6713D01*
X24141Y6488D02*
X24141Y6301D01*
X24253Y6526D02*
X23860Y6394D01*
X24253Y6263D01*
X23860Y6169D02*
X23860Y5926D01*
X24010Y6057D01*
X24010Y6001D01*
X24028Y5963D01*
X24047Y5944D01*
X24085Y5926D01*
X24178Y5926D01*
X24216Y5944D01*
X24235Y5963D01*
X24253Y6001D01*
X24253Y6113D01*
X24235Y6151D01*
X24216Y6169D01*
X23897Y5776D02*
X23878Y5757D01*
X23860Y5719D01*
X23860Y5626D01*
X23878Y5588D01*
X23897Y5569D01*
X23935Y5551D01*
X23972Y5551D01*
X24028Y5569D01*
X24253Y5794D01*
X24253Y5551D01*
X24028Y5326D02*
X24010Y5363D01*
X23991Y5382D01*
X23953Y5401D01*
X23935Y5401D01*
X23897Y5382D01*
X23878Y5363D01*
X23860Y5326D01*
X23860Y5251D01*
X23878Y5213D01*
X23897Y5194D01*
X23935Y5176D01*
X23953Y5176D01*
X23991Y5194D01*
X24010Y5213D01*
X24028Y5251D01*
X24028Y5326D01*
X24047Y5363D01*
X24066Y5382D01*
X24103Y5401D01*
X24178Y5401D01*
X24216Y5382D01*
X24235Y5363D01*
X24253Y5326D01*
X24253Y5251D01*
X24235Y5213D01*
X24216Y5194D01*
X24178Y5176D01*
X24103Y5176D01*
X24066Y5194D01*
X24047Y5213D01*
X24028Y5251D01*
X24253Y5007D02*
X23860Y5007D01*
X23860Y4857D01*
X23878Y4820D01*
X23897Y4801D01*
X23935Y4782D01*
X23991Y4782D01*
X24028Y4801D01*
X24047Y4820D01*
X24066Y4857D01*
X24066Y5007D01*
X24103Y4613D02*
X24103Y4313D01*
X24141Y4145D02*
X24141Y3957D01*
X24253Y4182D02*
X23860Y4051D01*
X24253Y3920D01*
X16351Y2478D02*
X16351Y2197D01*
X16370Y2140D01*
X16407Y2103D01*
X16464Y2084D01*
X16501Y2084D01*
X16164Y2084D02*
X16164Y2478D01*
X16014Y2478D01*
X15976Y2459D01*
X15958Y2440D01*
X15939Y2403D01*
X15939Y2347D01*
X15958Y2309D01*
X15976Y2290D01*
X16014Y2272D01*
X16164Y2272D01*
X15564Y2084D02*
X15789Y2084D01*
X15676Y2084D02*
X15676Y2478D01*
X15714Y2422D01*
X15751Y2384D01*
X15789Y2365D01*
X15202Y1494D02*
X15427Y1494D01*
X15314Y1494D02*
X15314Y1887D01*
X15352Y1831D01*
X15389Y1794D01*
X15427Y1775D01*
X20800Y8502D02*
X20800Y8220D01*
X20819Y8164D01*
X20856Y8127D01*
X20913Y8108D01*
X20950Y8108D01*
X20613Y8108D02*
X20613Y8502D01*
X20463Y8502D01*
X20425Y8483D01*
X20406Y8464D01*
X20388Y8427D01*
X20388Y8370D01*
X20406Y8333D01*
X20425Y8314D01*
X20463Y8295D01*
X20613Y8295D01*
X20238Y8464D02*
X20219Y8483D01*
X20181Y8502D01*
X20088Y8502D01*
X20050Y8483D01*
X20031Y8464D01*
X20013Y8427D01*
X20013Y8389D01*
X20031Y8333D01*
X20256Y8108D01*
X20013Y8108D01*
X21154Y10903D02*
X21154Y10622D01*
X21173Y10566D01*
X21211Y10528D01*
X21267Y10509D01*
X21304Y10509D01*
X20967Y10509D02*
X20967Y10903D01*
X20817Y10903D01*
X20779Y10884D01*
X20761Y10866D01*
X20742Y10828D01*
X20742Y10772D01*
X20761Y10734D01*
X20779Y10716D01*
X20817Y10697D01*
X20967Y10697D01*
X20611Y10903D02*
X20367Y10903D01*
X20498Y10753D01*
X20442Y10753D01*
X20404Y10734D01*
X20386Y10716D01*
X20367Y10678D01*
X20367Y10584D01*
X20386Y10547D01*
X20404Y10528D01*
X20442Y10509D01*
X20554Y10509D01*
X20592Y10528D01*
X20611Y10547D01*
X20399Y9368D02*
X20624Y9368D01*
X20511Y9368D02*
X20511Y9761D01*
X20549Y9705D01*
X20586Y9668D01*
X20624Y9649D01*
X14199Y1807D02*
X14218Y1788D01*
X14274Y1769D01*
X14311Y1769D01*
X14368Y1788D01*
X14405Y1826D01*
X14424Y1863D01*
X14443Y1938D01*
X14443Y1994D01*
X14424Y2069D01*
X14405Y2107D01*
X14368Y2144D01*
X14311Y2163D01*
X14274Y2163D01*
X14218Y2144D01*
X14199Y2125D01*
X13843Y2163D02*
X14030Y2163D01*
X14049Y1976D01*
X14030Y1994D01*
X13993Y2013D01*
X13899Y2013D01*
X13862Y1994D01*
X13843Y1976D01*
X13824Y1938D01*
X13824Y1844D01*
X13843Y1807D01*
X13862Y1788D01*
X13899Y1769D01*
X13993Y1769D01*
X14030Y1788D01*
X14049Y1807D01*
X14386Y1218D02*
X14611Y1218D01*
X14499Y1218D02*
X14499Y1612D01*
X14536Y1556D01*
X14574Y1518D01*
X14611Y1499D01*
X14143Y1612D02*
X14105Y1612D01*
X14068Y1593D01*
X14049Y1574D01*
X14030Y1537D01*
X14011Y1462D01*
X14011Y1368D01*
X14030Y1293D01*
X14049Y1256D01*
X14068Y1237D01*
X14105Y1218D01*
X14143Y1218D01*
X14180Y1237D01*
X14199Y1256D01*
X14218Y1293D01*
X14236Y1368D01*
X14236Y1462D01*
X14218Y1537D01*
X14199Y1574D01*
X14180Y1593D01*
X14143Y1612D01*
X13674Y1481D02*
X13674Y1218D01*
X13843Y1481D02*
X13843Y1274D01*
X13824Y1237D01*
X13787Y1218D01*
X13730Y1218D01*
X13693Y1237D01*
X13674Y1256D01*
X11440Y4278D02*
X11459Y4296D01*
X11478Y4353D01*
X11478Y4390D01*
X11459Y4446D01*
X11422Y4484D01*
X11384Y4503D01*
X11309Y4521D01*
X11253Y4521D01*
X11178Y4503D01*
X11140Y4484D01*
X11103Y4446D01*
X11084Y4390D01*
X11084Y4353D01*
X11103Y4296D01*
X11122Y4278D01*
X11215Y3940D02*
X11478Y3940D01*
X11065Y4034D02*
X11347Y4128D01*
X11347Y3884D01*
X11458Y3412D02*
X11458Y3637D01*
X11458Y3525D02*
X11064Y3525D01*
X11121Y3562D01*
X11158Y3600D01*
X11177Y3637D01*
X11064Y3168D02*
X11064Y3131D01*
X11083Y3093D01*
X11102Y3075D01*
X11139Y3056D01*
X11214Y3037D01*
X11308Y3037D01*
X11383Y3056D01*
X11421Y3075D01*
X11439Y3093D01*
X11458Y3131D01*
X11458Y3168D01*
X11439Y3206D01*
X11421Y3225D01*
X11383Y3243D01*
X11308Y3262D01*
X11214Y3262D01*
X11139Y3243D01*
X11102Y3225D01*
X11083Y3206D01*
X11064Y3168D01*
X11196Y2700D02*
X11458Y2700D01*
X11196Y2868D02*
X11402Y2868D01*
X11439Y2850D01*
X11458Y2812D01*
X11458Y2756D01*
X11439Y2718D01*
X11421Y2700D01*
X21734Y2034D02*
X21546Y2165D01*
X21734Y2259D02*
X21340Y2259D01*
X21340Y2109D01*
X21359Y2071D01*
X21377Y2052D01*
X21415Y2034D01*
X21471Y2034D01*
X21509Y2052D01*
X21527Y2071D01*
X21546Y2109D01*
X21546Y2259D01*
X21340Y1677D02*
X21340Y1865D01*
X21527Y1884D01*
X21509Y1865D01*
X21490Y1827D01*
X21490Y1734D01*
X21509Y1696D01*
X21527Y1677D01*
X21565Y1659D01*
X21659Y1659D01*
X21696Y1677D01*
X21715Y1696D01*
X21734Y1734D01*
X21734Y1827D01*
X21715Y1865D01*
X21696Y1884D01*
X21061Y588D02*
X21286Y588D01*
X21173Y588D02*
X21173Y982D01*
X21211Y926D01*
X21248Y888D01*
X21286Y869D01*
X20817Y982D02*
X20779Y982D01*
X20742Y963D01*
X20723Y944D01*
X20704Y907D01*
X20686Y832D01*
X20686Y738D01*
X20704Y663D01*
X20723Y626D01*
X20742Y607D01*
X20779Y588D01*
X20817Y588D01*
X20854Y607D01*
X20873Y626D01*
X20892Y663D01*
X20911Y738D01*
X20911Y832D01*
X20892Y907D01*
X20873Y944D01*
X20854Y963D01*
X20817Y982D01*
X20517Y588D02*
X20517Y982D01*
X20479Y738D02*
X20367Y588D01*
X20367Y851D02*
X20517Y701D01*
M02*
