G04 (created by PCBNEW (2013-07-07 BZR 4022)-stable) date 2015-02-26 23:16:54*
%MOIN*%
G04 Gerber Fmt 3.4, Leading zero omitted, Abs format*
%FSLAX34Y34*%
G01*
G70*
G90*
G04 APERTURE LIST*
%ADD10C,0.00629921*%
%ADD11C,0.012*%
%ADD12C,0.015*%
%ADD13C,0.00590551*%
G04 APERTURE END LIST*
G54D10*
X15118Y7874D02*
X15905Y7874D01*
X12440Y7874D02*
X13307Y7874D01*
X16141Y7874D02*
X16220Y7874D01*
X16141Y8267D02*
X16299Y8267D01*
X16141Y8661D02*
X16377Y8661D01*
X16141Y9055D02*
X16456Y9055D01*
X12204Y9055D02*
X11889Y9055D01*
X12204Y8661D02*
X11968Y8661D01*
X12204Y8267D02*
X12047Y8267D01*
X12204Y7874D02*
X12125Y7874D01*
X11811Y9448D02*
X12204Y7480D01*
X12204Y9448D02*
X11811Y9448D01*
X16535Y9448D02*
X16141Y7480D01*
X16141Y9448D02*
X16535Y9448D01*
X12204Y7480D02*
X12204Y9448D01*
X16141Y7480D02*
X12204Y7480D01*
X16141Y9448D02*
X16141Y7480D01*
X12204Y9448D02*
X16141Y9448D01*
X12581Y8895D02*
X12581Y9289D01*
X12806Y8895D01*
X12806Y9289D01*
X12994Y8895D02*
X12994Y9289D01*
X13143Y9289D02*
X13406Y8895D01*
X13406Y9289D02*
X13143Y8895D01*
X13556Y8895D02*
X13556Y9289D01*
X13743Y9101D02*
X13875Y9101D01*
X13931Y8895D02*
X13743Y8895D01*
X13743Y9289D01*
X13931Y9289D01*
X14231Y9101D02*
X14287Y9083D01*
X14306Y9064D01*
X14325Y9026D01*
X14325Y8970D01*
X14306Y8933D01*
X14287Y8914D01*
X14250Y8895D01*
X14100Y8895D01*
X14100Y9289D01*
X14231Y9289D01*
X14268Y9270D01*
X14287Y9251D01*
X14306Y9214D01*
X14306Y9176D01*
X14287Y9139D01*
X14268Y9120D01*
X14231Y9101D01*
X14100Y9101D01*
X14568Y9289D02*
X14643Y9289D01*
X14681Y9270D01*
X14718Y9233D01*
X14737Y9158D01*
X14737Y9026D01*
X14718Y8952D01*
X14681Y8914D01*
X14643Y8895D01*
X14568Y8895D01*
X14531Y8914D01*
X14493Y8952D01*
X14475Y9026D01*
X14475Y9158D01*
X14493Y9233D01*
X14531Y9270D01*
X14568Y9289D01*
X14887Y9008D02*
X15074Y9008D01*
X14850Y8895D02*
X14981Y9289D01*
X15112Y8895D01*
X15468Y8895D02*
X15337Y9083D01*
X15243Y8895D02*
X15243Y9289D01*
X15393Y9289D01*
X15431Y9270D01*
X15449Y9251D01*
X15468Y9214D01*
X15468Y9158D01*
X15449Y9120D01*
X15431Y9101D01*
X15393Y9083D01*
X15243Y9083D01*
X15637Y8895D02*
X15637Y9289D01*
X15731Y9289D01*
X15787Y9270D01*
X15824Y9233D01*
X15843Y9195D01*
X15862Y9120D01*
X15862Y9064D01*
X15843Y8989D01*
X15824Y8952D01*
X15787Y8914D01*
X15731Y8895D01*
X15637Y8895D01*
X12665Y8656D02*
X12628Y8675D01*
X12572Y8675D01*
X12515Y8656D01*
X12478Y8619D01*
X12459Y8581D01*
X12440Y8506D01*
X12440Y8450D01*
X12459Y8375D01*
X12478Y8337D01*
X12515Y8300D01*
X12572Y8281D01*
X12609Y8281D01*
X12665Y8300D01*
X12684Y8319D01*
X12684Y8450D01*
X12609Y8450D01*
X13378Y8281D02*
X13247Y8469D01*
X13153Y8281D02*
X13153Y8675D01*
X13303Y8675D01*
X13340Y8656D01*
X13359Y8637D01*
X13378Y8600D01*
X13378Y8544D01*
X13359Y8506D01*
X13340Y8487D01*
X13303Y8469D01*
X13153Y8469D01*
X13622Y8675D02*
X13697Y8675D01*
X13734Y8656D01*
X13772Y8619D01*
X13790Y8544D01*
X13790Y8412D01*
X13772Y8337D01*
X13734Y8300D01*
X13697Y8281D01*
X13622Y8281D01*
X13584Y8300D01*
X13547Y8337D01*
X13528Y8412D01*
X13528Y8544D01*
X13547Y8619D01*
X13584Y8656D01*
X13622Y8675D01*
X14090Y8487D02*
X14146Y8469D01*
X14165Y8450D01*
X14184Y8412D01*
X14184Y8356D01*
X14165Y8319D01*
X14146Y8300D01*
X14109Y8281D01*
X13959Y8281D01*
X13959Y8675D01*
X14090Y8675D01*
X14128Y8656D01*
X14146Y8637D01*
X14165Y8600D01*
X14165Y8562D01*
X14146Y8525D01*
X14128Y8506D01*
X14090Y8487D01*
X13959Y8487D01*
X14353Y8281D02*
X14353Y8675D01*
X14540Y8281D02*
X14540Y8675D01*
X14765Y8281D01*
X14765Y8675D01*
X14934Y8300D02*
X14990Y8281D01*
X15084Y8281D01*
X15121Y8300D01*
X15140Y8319D01*
X15159Y8356D01*
X15159Y8394D01*
X15140Y8431D01*
X15121Y8450D01*
X15084Y8469D01*
X15009Y8487D01*
X14971Y8506D01*
X14953Y8525D01*
X14934Y8562D01*
X14934Y8600D01*
X14953Y8637D01*
X14971Y8656D01*
X15009Y8675D01*
X15103Y8675D01*
X15159Y8656D01*
X15403Y8675D02*
X15478Y8675D01*
X15515Y8656D01*
X15553Y8619D01*
X15571Y8544D01*
X15571Y8412D01*
X15553Y8337D01*
X15515Y8300D01*
X15478Y8281D01*
X15403Y8281D01*
X15365Y8300D01*
X15328Y8337D01*
X15309Y8412D01*
X15309Y8544D01*
X15328Y8619D01*
X15365Y8656D01*
X15403Y8675D01*
X15740Y8281D02*
X15740Y8675D01*
X15965Y8281D01*
X15965Y8675D01*
X13537Y8023D02*
X13556Y8042D01*
X13593Y8061D01*
X13687Y8061D01*
X13725Y8042D01*
X13743Y8023D01*
X13762Y7986D01*
X13762Y7948D01*
X13743Y7892D01*
X13518Y7667D01*
X13762Y7667D01*
X14006Y8061D02*
X14043Y8061D01*
X14081Y8042D01*
X14100Y8023D01*
X14118Y7986D01*
X14137Y7911D01*
X14137Y7817D01*
X14118Y7742D01*
X14100Y7704D01*
X14081Y7686D01*
X14043Y7667D01*
X14006Y7667D01*
X13968Y7686D01*
X13950Y7704D01*
X13931Y7742D01*
X13912Y7817D01*
X13912Y7911D01*
X13931Y7986D01*
X13950Y8023D01*
X13968Y8042D01*
X14006Y8061D01*
X14512Y7667D02*
X14287Y7667D01*
X14400Y7667D02*
X14400Y8061D01*
X14362Y8004D01*
X14325Y7967D01*
X14287Y7948D01*
X14868Y8061D02*
X14681Y8061D01*
X14662Y7873D01*
X14681Y7892D01*
X14718Y7911D01*
X14812Y7911D01*
X14850Y7892D01*
X14868Y7873D01*
X14887Y7836D01*
X14887Y7742D01*
X14868Y7704D01*
X14850Y7686D01*
X14812Y7667D01*
X14718Y7667D01*
X14681Y7686D01*
X14662Y7704D01*
G54D11*
X9775Y5232D02*
X9775Y8232D01*
X9775Y8232D02*
X10775Y8232D01*
X10775Y8232D02*
X10775Y5232D01*
X10775Y5232D02*
X9775Y5232D01*
X9775Y7982D02*
X10775Y7982D01*
X10775Y7732D02*
X9775Y7732D01*
X10275Y5232D02*
X10275Y4732D01*
X10275Y8232D02*
X10275Y8732D01*
G54D12*
X14397Y14082D02*
X14397Y14082D01*
X14397Y14082D02*
X14897Y14082D01*
X14897Y14082D02*
X14897Y13082D01*
X14897Y13082D02*
X14397Y13082D01*
X14397Y14582D02*
X23397Y14582D01*
X23397Y14582D02*
X23397Y12582D01*
X23397Y12582D02*
X14397Y12582D01*
X14397Y12582D02*
X14397Y14582D01*
G54D13*
X9448Y8700D02*
X9448Y9330D01*
X9448Y9330D02*
X7401Y9330D01*
X7401Y9330D02*
X7401Y8700D01*
X7401Y8700D02*
G75*
G03X8425Y7677I1023J0D01*
G74*
G01*
X8425Y7677D02*
G75*
G03X9448Y8700I0J1023D01*
G74*
G01*
G54D10*
X3437Y17429D02*
X9437Y17429D01*
X9437Y17429D02*
X9437Y16429D01*
X9437Y16429D02*
X3437Y16429D01*
X4437Y17429D02*
X4437Y16429D01*
X3437Y17429D02*
X3437Y16429D01*
X12098Y17429D02*
X24098Y17429D01*
X24098Y17429D02*
X24098Y16429D01*
X24098Y16429D02*
X12098Y16429D01*
X13098Y17429D02*
X13098Y16429D01*
X12098Y17429D02*
X12098Y16429D01*
X26614Y12362D02*
X27244Y12362D01*
X27244Y12362D02*
X27244Y14409D01*
X27244Y14409D02*
X26614Y14409D01*
X26614Y14409D02*
G75*
G03X25590Y13385I0J-1023D01*
G74*
G01*
X25590Y13385D02*
G75*
G03X26614Y12362I1023J0D01*
G74*
G01*
X11968Y13897D02*
X11968Y13267D01*
X11968Y13267D02*
X14015Y13267D01*
X14015Y13267D02*
X14015Y13897D01*
X14015Y13897D02*
G75*
G03X12992Y14921I-1023J0D01*
G74*
G01*
X12992Y14921D02*
G75*
G03X11968Y13897I0J-1023D01*
G74*
G01*
X11968Y11338D02*
X11968Y10708D01*
X11968Y10708D02*
X14015Y10708D01*
X14015Y10708D02*
X14015Y11338D01*
X14015Y11338D02*
G75*
G03X12992Y12362I-1023J0D01*
G74*
G01*
X12992Y12362D02*
G75*
G03X11968Y11338I0J-1023D01*
G74*
G01*
X24842Y12362D02*
X25472Y12362D01*
X25472Y12362D02*
X25472Y14409D01*
X25472Y14409D02*
X24842Y14409D01*
X24842Y14409D02*
G75*
G03X23818Y13385I0J-1023D01*
G74*
G01*
X23818Y13385D02*
G75*
G03X24842Y12362I1023J0D01*
G74*
G01*
X9606Y13897D02*
X9606Y13267D01*
X9606Y13267D02*
X11653Y13267D01*
X11653Y13267D02*
X11653Y13897D01*
X11653Y13897D02*
G75*
G03X10629Y14921I-1023J0D01*
G74*
G01*
X10629Y14921D02*
G75*
G03X9606Y13897I0J-1023D01*
G74*
G01*
X7244Y13897D02*
X7244Y13267D01*
X7244Y13267D02*
X9291Y13267D01*
X9291Y13267D02*
X9291Y13897D01*
X9291Y13897D02*
G75*
G03X8267Y14921I-1023J0D01*
G74*
G01*
X8267Y14921D02*
G75*
G03X7244Y13897I0J-1023D01*
G74*
G01*
X7244Y11338D02*
X7244Y10708D01*
X7244Y10708D02*
X9291Y10708D01*
X9291Y10708D02*
X9291Y11338D01*
X9291Y11338D02*
G75*
G03X8267Y12362I-1023J0D01*
G74*
G01*
X8267Y12362D02*
G75*
G03X7244Y11338I0J-1023D01*
G74*
G01*
X4881Y13897D02*
X4881Y13267D01*
X4881Y13267D02*
X6929Y13267D01*
X6929Y13267D02*
X6929Y13897D01*
X6929Y13897D02*
G75*
G03X5905Y14921I-1023J0D01*
G74*
G01*
X5905Y14921D02*
G75*
G03X4881Y13897I0J-1023D01*
G74*
G01*
X4881Y11338D02*
X4881Y10708D01*
X4881Y10708D02*
X6929Y10708D01*
X6929Y10708D02*
X6929Y11338D01*
X6929Y11338D02*
G75*
G03X5905Y12362I-1023J0D01*
G74*
G01*
X5905Y12362D02*
G75*
G03X4881Y11338I0J-1023D01*
G74*
G01*
X2519Y13897D02*
X2519Y13267D01*
X2519Y13267D02*
X4566Y13267D01*
X4566Y13267D02*
X4566Y13897D01*
X4566Y13897D02*
G75*
G03X3543Y14921I-1023J0D01*
G74*
G01*
X3543Y14921D02*
G75*
G03X2519Y13897I0J-1023D01*
G74*
G01*
X2519Y11338D02*
X2519Y10708D01*
X2519Y10708D02*
X4566Y10708D01*
X4566Y10708D02*
X4566Y11338D01*
X4566Y11338D02*
G75*
G03X3543Y12362I-1023J0D01*
G74*
G01*
X3543Y12362D02*
G75*
G03X2519Y11338I0J-1023D01*
G74*
G01*
X157Y13897D02*
X157Y13267D01*
X157Y13267D02*
X2204Y13267D01*
X2204Y13267D02*
X2204Y13897D01*
X2204Y13897D02*
G75*
G03X1181Y14921I-1023J0D01*
G74*
G01*
X1181Y14921D02*
G75*
G03X157Y13897I0J-1023D01*
G74*
G01*
X9606Y11338D02*
X9606Y10708D01*
X9606Y10708D02*
X11653Y10708D01*
X11653Y10708D02*
X11653Y11338D01*
X11653Y11338D02*
G75*
G03X10629Y12362I-1023J0D01*
G74*
G01*
X10629Y12362D02*
G75*
G03X9606Y11338I0J-1023D01*
G74*
G01*
X157Y11338D02*
X157Y10708D01*
X157Y10708D02*
X2204Y10708D01*
X2204Y10708D02*
X2204Y11338D01*
X2204Y11338D02*
G75*
G03X1181Y12362I-1023J0D01*
G74*
G01*
X1181Y12362D02*
G75*
G03X157Y11338I0J-1023D01*
G74*
G01*
X9646Y5511D02*
G75*
G03X9646Y5511I-1969J0D01*
G74*
G01*
X5354Y5000D02*
G75*
G03X5354Y5000I-1968J0D01*
G74*
G01*
X3779Y8661D02*
G75*
G03X3779Y8661I-1614J0D01*
G74*
G01*
X6645Y982D02*
X6645Y732D01*
X6645Y732D02*
X2645Y732D01*
X2645Y732D02*
X2645Y982D01*
X6645Y2482D02*
X6645Y982D01*
X6645Y982D02*
X2645Y982D01*
X2645Y982D02*
X2645Y2482D01*
X2645Y2482D02*
X6645Y2482D01*
X7204Y2520D02*
X7795Y2520D01*
X7795Y2520D02*
G75*
G03X7795Y2520I-295J0D01*
G74*
G01*
X7401Y945D02*
X7401Y1142D01*
X7401Y1142D02*
X10551Y1142D01*
X10551Y1142D02*
X10551Y945D01*
X7106Y2913D02*
X7106Y945D01*
X7106Y945D02*
X10846Y945D01*
X10846Y945D02*
X10846Y2913D01*
X10846Y2913D02*
X7106Y2913D01*
X24534Y4236D02*
X24534Y6036D01*
X24534Y6036D02*
X24534Y6236D01*
X26134Y6236D02*
X26134Y4236D01*
X24534Y4236D02*
G75*
G03X25334Y3436I800J0D01*
G74*
G01*
X25334Y3436D02*
G75*
G03X26134Y4236I0J800D01*
G74*
G01*
X25334Y7036D02*
G75*
G03X24534Y6236I0J-800D01*
G74*
G01*
X26134Y6236D02*
G75*
G03X25334Y7036I-800J0D01*
G74*
G01*
X22787Y1350D02*
X22787Y2350D01*
X23787Y1350D02*
X21787Y1350D01*
X21787Y1350D02*
X21787Y2350D01*
X21787Y2350D02*
X23787Y2350D01*
X23787Y1350D02*
X23787Y2350D01*
X21350Y9555D02*
X22350Y9555D01*
X21350Y8555D02*
X21350Y10555D01*
X21350Y10555D02*
X22350Y10555D01*
X22350Y10555D02*
X22350Y8555D01*
X21350Y8555D02*
X22350Y8555D01*
X16311Y6051D02*
X17311Y6051D01*
X16311Y5051D02*
X16311Y7051D01*
X16311Y7051D02*
X17311Y7051D01*
X17311Y7051D02*
X17311Y5051D01*
X16311Y5051D02*
X17311Y5051D01*
X12566Y2281D02*
X12566Y1281D01*
X11566Y2281D02*
X13566Y2281D01*
X13566Y2281D02*
X13566Y1281D01*
X13566Y1281D02*
X11566Y1281D01*
X11566Y2281D02*
X11566Y1281D01*
X22787Y346D02*
X22787Y1346D01*
X23787Y346D02*
X21787Y346D01*
X21787Y346D02*
X21787Y1346D01*
X21787Y1346D02*
X23787Y1346D01*
X23787Y346D02*
X23787Y1346D01*
X19381Y9555D02*
X20381Y9555D01*
X19381Y8555D02*
X19381Y10555D01*
X19381Y10555D02*
X20381Y10555D01*
X20381Y10555D02*
X20381Y8555D01*
X19381Y8555D02*
X20381Y8555D01*
X16507Y287D02*
X16507Y1287D01*
X17507Y287D02*
X15507Y287D01*
X15507Y287D02*
X15507Y1287D01*
X15507Y1287D02*
X17507Y1287D01*
X17507Y287D02*
X17507Y1287D01*
X287Y3846D02*
X1287Y3846D01*
X287Y2846D02*
X287Y4846D01*
X287Y4846D02*
X1287Y4846D01*
X1287Y4846D02*
X1287Y2846D01*
X287Y2846D02*
X1287Y2846D01*
X18019Y2712D02*
X15019Y2712D01*
X15019Y2712D02*
X15019Y4712D01*
X15019Y4712D02*
X18019Y4712D01*
X18019Y2712D02*
X18019Y3712D01*
X18019Y3712D02*
X17019Y3712D01*
X17019Y3712D02*
X17019Y4712D01*
X18019Y3712D02*
X18019Y4712D01*
G54D11*
X19397Y2614D02*
X17897Y1114D01*
X17897Y1114D02*
X17897Y614D01*
X17897Y614D02*
X18397Y114D01*
X18397Y114D02*
X19397Y114D01*
X19397Y114D02*
X20397Y1114D01*
X20397Y1114D02*
X20397Y2114D01*
X20397Y2114D02*
X19897Y2614D01*
X19897Y2614D02*
X19397Y2614D01*
G54D10*
X25090Y11326D02*
X25090Y7326D01*
X26090Y7326D02*
X26090Y11326D01*
X26090Y10326D02*
X25090Y10326D01*
X26090Y7326D02*
X25090Y7326D01*
X26090Y11326D02*
X25090Y11326D01*
X11419Y5378D02*
X11025Y5378D01*
X11025Y5472D01*
X11044Y5528D01*
X11081Y5566D01*
X11119Y5584D01*
X11194Y5603D01*
X11250Y5603D01*
X11325Y5584D01*
X11362Y5566D01*
X11400Y5528D01*
X11419Y5472D01*
X11419Y5378D01*
X11062Y5753D02*
X11044Y5772D01*
X11025Y5809D01*
X11025Y5903D01*
X11044Y5941D01*
X11062Y5959D01*
X11100Y5978D01*
X11137Y5978D01*
X11194Y5959D01*
X11419Y5734D01*
X11419Y5978D01*
X11064Y6449D02*
X11383Y6449D01*
X11421Y6467D01*
X11439Y6486D01*
X11458Y6524D01*
X11458Y6599D01*
X11439Y6636D01*
X11421Y6655D01*
X11383Y6674D01*
X11064Y6674D01*
X11252Y6992D02*
X11252Y6861D01*
X11458Y6861D02*
X11064Y6861D01*
X11064Y7049D01*
X11196Y7367D02*
X11458Y7367D01*
X11046Y7274D02*
X11327Y7180D01*
X11327Y7424D01*
X11064Y7649D02*
X11064Y7686D01*
X11083Y7724D01*
X11102Y7742D01*
X11139Y7761D01*
X11214Y7780D01*
X11308Y7780D01*
X11383Y7761D01*
X11421Y7742D01*
X11439Y7724D01*
X11458Y7686D01*
X11458Y7649D01*
X11439Y7611D01*
X11421Y7592D01*
X11383Y7574D01*
X11308Y7555D01*
X11214Y7555D01*
X11139Y7574D01*
X11102Y7592D01*
X11083Y7611D01*
X11064Y7649D01*
X11064Y8023D02*
X11064Y8061D01*
X11083Y8098D01*
X11102Y8117D01*
X11139Y8136D01*
X11214Y8155D01*
X11308Y8155D01*
X11383Y8136D01*
X11421Y8117D01*
X11439Y8098D01*
X11458Y8061D01*
X11458Y8023D01*
X11439Y7986D01*
X11421Y7967D01*
X11383Y7949D01*
X11308Y7930D01*
X11214Y7930D01*
X11139Y7949D01*
X11102Y7967D01*
X11083Y7986D01*
X11064Y8023D01*
X11196Y8492D02*
X11458Y8492D01*
X11046Y8398D02*
X11327Y8305D01*
X11327Y8548D01*
X15014Y11415D02*
X15014Y11096D01*
X15033Y11059D01*
X15052Y11040D01*
X15089Y11021D01*
X15164Y11021D01*
X15202Y11040D01*
X15221Y11059D01*
X15239Y11096D01*
X15239Y11415D01*
X15408Y11377D02*
X15427Y11396D01*
X15464Y11415D01*
X15558Y11415D01*
X15596Y11396D01*
X15614Y11377D01*
X15633Y11340D01*
X15633Y11302D01*
X15614Y11246D01*
X15389Y11021D01*
X15633Y11021D01*
X14998Y10431D02*
X14998Y10824D01*
X15223Y10431D02*
X15054Y10656D01*
X15223Y10824D02*
X14998Y10599D01*
X15598Y10431D02*
X15373Y10431D01*
X15485Y10431D02*
X15485Y10824D01*
X15448Y10768D01*
X15410Y10731D01*
X15373Y10712D01*
X15954Y10824D02*
X15766Y10824D01*
X15748Y10637D01*
X15766Y10656D01*
X15804Y10674D01*
X15898Y10674D01*
X15935Y10656D01*
X15954Y10637D01*
X15973Y10599D01*
X15973Y10506D01*
X15954Y10468D01*
X15935Y10449D01*
X15898Y10431D01*
X15804Y10431D01*
X15766Y10449D01*
X15748Y10468D01*
X16329Y10824D02*
X16141Y10824D01*
X16122Y10637D01*
X16141Y10656D01*
X16179Y10674D01*
X16272Y10674D01*
X16310Y10656D01*
X16329Y10637D01*
X16347Y10599D01*
X16347Y10506D01*
X16329Y10468D01*
X16310Y10449D01*
X16272Y10431D01*
X16179Y10431D01*
X16141Y10449D01*
X16122Y10468D01*
X16516Y10431D02*
X16516Y10824D01*
X16704Y10431D02*
X16704Y10824D01*
X16797Y10824D01*
X16854Y10806D01*
X16891Y10768D01*
X16910Y10731D01*
X16929Y10656D01*
X16929Y10599D01*
X16910Y10524D01*
X16891Y10487D01*
X16854Y10449D01*
X16797Y10431D01*
X16704Y10431D01*
X17304Y10431D02*
X17079Y10431D01*
X17191Y10431D02*
X17191Y10824D01*
X17154Y10768D01*
X17116Y10731D01*
X17079Y10712D01*
X6389Y9448D02*
X6351Y9467D01*
X6314Y9505D01*
X6257Y9561D01*
X6220Y9580D01*
X6182Y9580D01*
X6201Y9486D02*
X6164Y9505D01*
X6126Y9542D01*
X6107Y9617D01*
X6107Y9748D01*
X6126Y9823D01*
X6164Y9861D01*
X6201Y9880D01*
X6276Y9880D01*
X6314Y9861D01*
X6351Y9823D01*
X6370Y9748D01*
X6370Y9617D01*
X6351Y9542D01*
X6314Y9505D01*
X6276Y9486D01*
X6201Y9486D01*
X6745Y9486D02*
X6520Y9486D01*
X6632Y9486D02*
X6632Y9880D01*
X6595Y9823D01*
X6557Y9786D01*
X6520Y9767D01*
X6876Y9880D02*
X7139Y9880D01*
X6970Y9486D01*
X7654Y9692D02*
X7710Y9673D01*
X7729Y9655D01*
X7748Y9617D01*
X7748Y9561D01*
X7729Y9523D01*
X7710Y9505D01*
X7673Y9486D01*
X7523Y9486D01*
X7523Y9880D01*
X7654Y9880D01*
X7692Y9861D01*
X7710Y9842D01*
X7729Y9805D01*
X7729Y9767D01*
X7710Y9730D01*
X7692Y9711D01*
X7654Y9692D01*
X7523Y9692D01*
X8142Y9523D02*
X8123Y9505D01*
X8067Y9486D01*
X8029Y9486D01*
X7973Y9505D01*
X7935Y9542D01*
X7917Y9580D01*
X7898Y9655D01*
X7898Y9711D01*
X7917Y9786D01*
X7935Y9823D01*
X7973Y9861D01*
X8029Y9880D01*
X8067Y9880D01*
X8123Y9861D01*
X8142Y9842D01*
X8498Y9880D02*
X8310Y9880D01*
X8292Y9692D01*
X8310Y9711D01*
X8348Y9730D01*
X8442Y9730D01*
X8479Y9711D01*
X8498Y9692D01*
X8517Y9655D01*
X8517Y9561D01*
X8498Y9523D01*
X8479Y9505D01*
X8442Y9486D01*
X8348Y9486D01*
X8310Y9505D01*
X8292Y9523D01*
X8854Y9748D02*
X8854Y9486D01*
X8760Y9898D02*
X8667Y9617D01*
X8910Y9617D01*
X9023Y9880D02*
X9285Y9880D01*
X9116Y9486D01*
X4679Y15864D02*
X4679Y16257D01*
X4829Y16257D01*
X4866Y16239D01*
X4885Y16220D01*
X4904Y16182D01*
X4904Y16126D01*
X4885Y16089D01*
X4866Y16070D01*
X4829Y16051D01*
X4679Y16051D01*
X5279Y15864D02*
X5054Y15864D01*
X5166Y15864D02*
X5166Y16257D01*
X5129Y16201D01*
X5091Y16164D01*
X5054Y16145D01*
X5523Y16257D02*
X5560Y16257D01*
X5598Y16239D01*
X5616Y16220D01*
X5635Y16182D01*
X5654Y16107D01*
X5654Y16014D01*
X5635Y15939D01*
X5616Y15901D01*
X5598Y15883D01*
X5560Y15864D01*
X5523Y15864D01*
X5485Y15883D01*
X5466Y15901D01*
X5448Y15939D01*
X5429Y16014D01*
X5429Y16107D01*
X5448Y16182D01*
X5466Y16220D01*
X5485Y16239D01*
X5523Y16257D01*
X6362Y15976D02*
X6550Y15976D01*
X6325Y15864D02*
X6456Y16257D01*
X6587Y15864D01*
X6719Y15864D02*
X6719Y16257D01*
X6944Y15864D01*
X6944Y16257D01*
X7206Y16257D02*
X7281Y16257D01*
X7319Y16239D01*
X7356Y16201D01*
X7375Y16126D01*
X7375Y15995D01*
X7356Y15920D01*
X7319Y15883D01*
X7281Y15864D01*
X7206Y15864D01*
X7169Y15883D01*
X7131Y15920D01*
X7112Y15995D01*
X7112Y16126D01*
X7131Y16201D01*
X7169Y16239D01*
X7206Y16257D01*
X7544Y15864D02*
X7544Y16257D01*
X7637Y16257D01*
X7694Y16239D01*
X7731Y16201D01*
X7750Y16164D01*
X7769Y16089D01*
X7769Y16032D01*
X7750Y15958D01*
X7731Y15920D01*
X7694Y15883D01*
X7637Y15864D01*
X7544Y15864D01*
X7937Y16070D02*
X8068Y16070D01*
X8125Y15864D02*
X7937Y15864D01*
X7937Y16257D01*
X8125Y16257D01*
X12504Y15824D02*
X12504Y16218D01*
X12654Y16218D01*
X12692Y16199D01*
X12710Y16181D01*
X12729Y16143D01*
X12729Y16087D01*
X12710Y16049D01*
X12692Y16031D01*
X12654Y16012D01*
X12504Y16012D01*
X12917Y15824D02*
X12992Y15824D01*
X13029Y15843D01*
X13048Y15862D01*
X13085Y15918D01*
X13104Y15993D01*
X13104Y16143D01*
X13085Y16181D01*
X13067Y16199D01*
X13029Y16218D01*
X12954Y16218D01*
X12917Y16199D01*
X12898Y16181D01*
X12879Y16143D01*
X12879Y16049D01*
X12898Y16012D01*
X12917Y15993D01*
X12954Y15974D01*
X13029Y15974D01*
X13067Y15993D01*
X13085Y16012D01*
X13104Y16049D01*
X13725Y15824D02*
X13725Y16218D01*
X13818Y16218D01*
X13875Y16199D01*
X13912Y16162D01*
X13931Y16124D01*
X13950Y16049D01*
X13950Y15993D01*
X13931Y15918D01*
X13912Y15881D01*
X13875Y15843D01*
X13818Y15824D01*
X13725Y15824D01*
X14193Y16218D02*
X14231Y16218D01*
X14268Y16199D01*
X14287Y16181D01*
X14306Y16143D01*
X14325Y16068D01*
X14325Y15974D01*
X14306Y15899D01*
X14287Y15862D01*
X14268Y15843D01*
X14231Y15824D01*
X14193Y15824D01*
X14156Y15843D01*
X14137Y15862D01*
X14118Y15899D01*
X14100Y15974D01*
X14100Y16068D01*
X14118Y16143D01*
X14137Y16181D01*
X14156Y16199D01*
X14193Y16218D01*
X26113Y11692D02*
X26076Y11711D01*
X26038Y11749D01*
X25982Y11805D01*
X25944Y11824D01*
X25907Y11824D01*
X25926Y11730D02*
X25888Y11749D01*
X25851Y11786D01*
X25832Y11861D01*
X25832Y11992D01*
X25851Y12067D01*
X25888Y12105D01*
X25926Y12124D01*
X26001Y12124D01*
X26038Y12105D01*
X26076Y12067D01*
X26094Y11992D01*
X26094Y11861D01*
X26076Y11786D01*
X26038Y11749D01*
X26001Y11730D01*
X25926Y11730D01*
X26469Y11730D02*
X26244Y11730D01*
X26357Y11730D02*
X26357Y12124D01*
X26319Y12067D01*
X26282Y12030D01*
X26244Y12011D01*
X26826Y12124D02*
X26638Y12124D01*
X26619Y11936D01*
X26638Y11955D01*
X26676Y11974D01*
X26769Y11974D01*
X26807Y11955D01*
X26826Y11936D01*
X26844Y11899D01*
X26844Y11805D01*
X26826Y11767D01*
X26807Y11749D01*
X26769Y11730D01*
X26676Y11730D01*
X26638Y11749D01*
X26619Y11767D01*
X24373Y14722D02*
X24373Y15116D01*
X24505Y14835D01*
X24636Y15116D01*
X24636Y14722D01*
X24823Y14722D02*
X24823Y15116D01*
X24973Y15116D01*
X25011Y15097D01*
X25029Y15078D01*
X25048Y15041D01*
X25048Y14985D01*
X25029Y14947D01*
X25011Y14928D01*
X24973Y14910D01*
X24823Y14910D01*
X25198Y14741D02*
X25254Y14722D01*
X25348Y14722D01*
X25386Y14741D01*
X25404Y14760D01*
X25423Y14797D01*
X25423Y14835D01*
X25404Y14872D01*
X25386Y14891D01*
X25348Y14910D01*
X25273Y14928D01*
X25236Y14947D01*
X25217Y14966D01*
X25198Y15003D01*
X25198Y15041D01*
X25217Y15078D01*
X25236Y15097D01*
X25273Y15116D01*
X25367Y15116D01*
X25423Y15097D01*
X25573Y14835D02*
X25761Y14835D01*
X25536Y14722D02*
X25667Y15116D01*
X25798Y14722D01*
X26098Y14985D02*
X26098Y14722D01*
X26004Y15134D02*
X25911Y14853D01*
X26154Y14853D01*
X26286Y15078D02*
X26304Y15097D01*
X26342Y15116D01*
X26436Y15116D01*
X26473Y15097D01*
X26492Y15078D01*
X26511Y15041D01*
X26511Y15003D01*
X26492Y14947D01*
X26267Y14722D01*
X26511Y14722D01*
X12994Y15039D02*
X12956Y15058D01*
X12919Y15095D01*
X12862Y15151D01*
X12825Y15170D01*
X12787Y15170D01*
X12806Y15076D02*
X12769Y15095D01*
X12731Y15133D01*
X12712Y15208D01*
X12712Y15339D01*
X12731Y15414D01*
X12769Y15451D01*
X12806Y15470D01*
X12881Y15470D01*
X12919Y15451D01*
X12956Y15414D01*
X12975Y15339D01*
X12975Y15208D01*
X12956Y15133D01*
X12919Y15095D01*
X12881Y15076D01*
X12806Y15076D01*
X13106Y15470D02*
X13368Y15470D01*
X13200Y15076D01*
X2956Y14998D02*
X2956Y15391D01*
X3087Y15110D01*
X3218Y15391D01*
X3218Y14998D01*
X3406Y14998D02*
X3406Y15391D01*
X3556Y15391D01*
X3593Y15373D01*
X3612Y15354D01*
X3631Y15316D01*
X3631Y15260D01*
X3612Y15223D01*
X3593Y15204D01*
X3556Y15185D01*
X3406Y15185D01*
X3781Y15016D02*
X3837Y14998D01*
X3931Y14998D01*
X3968Y15016D01*
X3987Y15035D01*
X4006Y15073D01*
X4006Y15110D01*
X3987Y15148D01*
X3968Y15166D01*
X3931Y15185D01*
X3856Y15204D01*
X3818Y15223D01*
X3800Y15241D01*
X3781Y15279D01*
X3781Y15316D01*
X3800Y15354D01*
X3818Y15373D01*
X3856Y15391D01*
X3950Y15391D01*
X4006Y15373D01*
X4156Y15110D02*
X4343Y15110D01*
X4118Y14998D02*
X4250Y15391D01*
X4381Y14998D01*
X4531Y14998D02*
X4606Y14998D01*
X4643Y15016D01*
X4662Y15035D01*
X4700Y15091D01*
X4718Y15166D01*
X4718Y15316D01*
X4700Y15354D01*
X4681Y15373D01*
X4643Y15391D01*
X4568Y15391D01*
X4531Y15373D01*
X4512Y15354D01*
X4493Y15316D01*
X4493Y15223D01*
X4512Y15185D01*
X4531Y15166D01*
X4568Y15148D01*
X4643Y15148D01*
X4681Y15166D01*
X4700Y15185D01*
X4718Y15223D01*
X4868Y15354D02*
X4887Y15373D01*
X4925Y15391D01*
X5018Y15391D01*
X5056Y15373D01*
X5074Y15354D01*
X5093Y15316D01*
X5093Y15279D01*
X5074Y15223D01*
X4850Y14998D01*
X5093Y14998D01*
X12767Y10157D02*
X12729Y10176D01*
X12692Y10213D01*
X12635Y10269D01*
X12598Y10288D01*
X12560Y10288D01*
X12579Y10194D02*
X12542Y10213D01*
X12504Y10251D01*
X12485Y10326D01*
X12485Y10457D01*
X12504Y10532D01*
X12542Y10569D01*
X12579Y10588D01*
X12654Y10588D01*
X12692Y10569D01*
X12729Y10532D01*
X12748Y10457D01*
X12748Y10326D01*
X12729Y10251D01*
X12692Y10213D01*
X12654Y10194D01*
X12579Y10194D01*
X13123Y10194D02*
X12898Y10194D01*
X13010Y10194D02*
X13010Y10588D01*
X12973Y10532D01*
X12935Y10494D01*
X12898Y10476D01*
X13254Y10588D02*
X13498Y10588D01*
X13367Y10438D01*
X13423Y10438D01*
X13460Y10419D01*
X13479Y10401D01*
X13498Y10363D01*
X13498Y10269D01*
X13479Y10232D01*
X13460Y10213D01*
X13423Y10194D01*
X13310Y10194D01*
X13273Y10213D01*
X13254Y10232D01*
X2444Y12478D02*
X2444Y12872D01*
X2575Y12590D01*
X2707Y12872D01*
X2707Y12478D01*
X2894Y12478D02*
X2894Y12872D01*
X3044Y12872D01*
X3082Y12853D01*
X3100Y12834D01*
X3119Y12797D01*
X3119Y12740D01*
X3100Y12703D01*
X3082Y12684D01*
X3044Y12665D01*
X2894Y12665D01*
X3269Y12497D02*
X3325Y12478D01*
X3419Y12478D01*
X3457Y12497D01*
X3475Y12515D01*
X3494Y12553D01*
X3494Y12590D01*
X3475Y12628D01*
X3457Y12647D01*
X3419Y12665D01*
X3344Y12684D01*
X3307Y12703D01*
X3288Y12722D01*
X3269Y12759D01*
X3269Y12797D01*
X3288Y12834D01*
X3307Y12853D01*
X3344Y12872D01*
X3438Y12872D01*
X3494Y12853D01*
X3644Y12590D02*
X3832Y12590D01*
X3607Y12478D02*
X3738Y12872D01*
X3869Y12478D01*
X4169Y12740D02*
X4169Y12478D01*
X4075Y12890D02*
X3982Y12609D01*
X4225Y12609D01*
X4356Y12834D02*
X4375Y12853D01*
X4413Y12872D01*
X4506Y12872D01*
X4544Y12853D01*
X4563Y12834D01*
X4581Y12797D01*
X4581Y12759D01*
X4563Y12703D01*
X4338Y12478D01*
X4581Y12478D01*
X24105Y11692D02*
X24068Y11711D01*
X24030Y11749D01*
X23974Y11805D01*
X23937Y11824D01*
X23899Y11824D01*
X23918Y11730D02*
X23880Y11749D01*
X23843Y11786D01*
X23824Y11861D01*
X23824Y11992D01*
X23843Y12067D01*
X23880Y12105D01*
X23918Y12124D01*
X23993Y12124D01*
X24030Y12105D01*
X24068Y12067D01*
X24086Y11992D01*
X24086Y11861D01*
X24068Y11786D01*
X24030Y11749D01*
X23993Y11730D01*
X23918Y11730D01*
X24461Y11730D02*
X24236Y11730D01*
X24349Y11730D02*
X24349Y12124D01*
X24311Y12067D01*
X24274Y12030D01*
X24236Y12011D01*
X24799Y11992D02*
X24799Y11730D01*
X24705Y12142D02*
X24611Y11861D01*
X24855Y11861D01*
X24373Y14722D02*
X24373Y15116D01*
X24505Y14835D01*
X24636Y15116D01*
X24636Y14722D01*
X24823Y14722D02*
X24823Y15116D01*
X24973Y15116D01*
X25011Y15097D01*
X25029Y15078D01*
X25048Y15041D01*
X25048Y14985D01*
X25029Y14947D01*
X25011Y14928D01*
X24973Y14910D01*
X24823Y14910D01*
X25198Y14741D02*
X25254Y14722D01*
X25348Y14722D01*
X25386Y14741D01*
X25404Y14760D01*
X25423Y14797D01*
X25423Y14835D01*
X25404Y14872D01*
X25386Y14891D01*
X25348Y14910D01*
X25273Y14928D01*
X25236Y14947D01*
X25217Y14966D01*
X25198Y15003D01*
X25198Y15041D01*
X25217Y15078D01*
X25236Y15097D01*
X25273Y15116D01*
X25367Y15116D01*
X25423Y15097D01*
X25573Y14835D02*
X25761Y14835D01*
X25536Y14722D02*
X25667Y15116D01*
X25798Y14722D01*
X26098Y14985D02*
X26098Y14722D01*
X26004Y15134D02*
X25911Y14853D01*
X26154Y14853D01*
X26286Y15078D02*
X26304Y15097D01*
X26342Y15116D01*
X26436Y15116D01*
X26473Y15097D01*
X26492Y15078D01*
X26511Y15041D01*
X26511Y15003D01*
X26492Y14947D01*
X26267Y14722D01*
X26511Y14722D01*
X10592Y15039D02*
X10554Y15058D01*
X10517Y15095D01*
X10461Y15151D01*
X10423Y15170D01*
X10386Y15170D01*
X10404Y15076D02*
X10367Y15095D01*
X10329Y15133D01*
X10311Y15208D01*
X10311Y15339D01*
X10329Y15414D01*
X10367Y15451D01*
X10404Y15470D01*
X10479Y15470D01*
X10517Y15451D01*
X10554Y15414D01*
X10573Y15339D01*
X10573Y15208D01*
X10554Y15133D01*
X10517Y15095D01*
X10479Y15076D01*
X10404Y15076D01*
X10911Y15470D02*
X10836Y15470D01*
X10798Y15451D01*
X10779Y15433D01*
X10742Y15376D01*
X10723Y15301D01*
X10723Y15151D01*
X10742Y15114D01*
X10761Y15095D01*
X10798Y15076D01*
X10873Y15076D01*
X10911Y15095D01*
X10929Y15114D01*
X10948Y15151D01*
X10948Y15245D01*
X10929Y15283D01*
X10911Y15301D01*
X10873Y15320D01*
X10798Y15320D01*
X10761Y15301D01*
X10742Y15283D01*
X10723Y15245D01*
X2956Y14998D02*
X2956Y15391D01*
X3087Y15110D01*
X3218Y15391D01*
X3218Y14998D01*
X3406Y14998D02*
X3406Y15391D01*
X3556Y15391D01*
X3593Y15373D01*
X3612Y15354D01*
X3631Y15316D01*
X3631Y15260D01*
X3612Y15223D01*
X3593Y15204D01*
X3556Y15185D01*
X3406Y15185D01*
X3781Y15016D02*
X3837Y14998D01*
X3931Y14998D01*
X3968Y15016D01*
X3987Y15035D01*
X4006Y15073D01*
X4006Y15110D01*
X3987Y15148D01*
X3968Y15166D01*
X3931Y15185D01*
X3856Y15204D01*
X3818Y15223D01*
X3800Y15241D01*
X3781Y15279D01*
X3781Y15316D01*
X3800Y15354D01*
X3818Y15373D01*
X3856Y15391D01*
X3950Y15391D01*
X4006Y15373D01*
X4156Y15110D02*
X4343Y15110D01*
X4118Y14998D02*
X4250Y15391D01*
X4381Y14998D01*
X4531Y14998D02*
X4606Y14998D01*
X4643Y15016D01*
X4662Y15035D01*
X4700Y15091D01*
X4718Y15166D01*
X4718Y15316D01*
X4700Y15354D01*
X4681Y15373D01*
X4643Y15391D01*
X4568Y15391D01*
X4531Y15373D01*
X4512Y15354D01*
X4493Y15316D01*
X4493Y15223D01*
X4512Y15185D01*
X4531Y15166D01*
X4568Y15148D01*
X4643Y15148D01*
X4681Y15166D01*
X4700Y15185D01*
X4718Y15223D01*
X4868Y15354D02*
X4887Y15373D01*
X4925Y15391D01*
X5018Y15391D01*
X5056Y15373D01*
X5074Y15354D01*
X5093Y15316D01*
X5093Y15279D01*
X5074Y15223D01*
X4850Y14998D01*
X5093Y14998D01*
X8230Y15039D02*
X8192Y15058D01*
X8155Y15095D01*
X8098Y15151D01*
X8061Y15170D01*
X8023Y15170D01*
X8042Y15076D02*
X8005Y15095D01*
X7967Y15133D01*
X7949Y15208D01*
X7949Y15339D01*
X7967Y15414D01*
X8005Y15451D01*
X8042Y15470D01*
X8117Y15470D01*
X8155Y15451D01*
X8192Y15414D01*
X8211Y15339D01*
X8211Y15208D01*
X8192Y15133D01*
X8155Y15095D01*
X8117Y15076D01*
X8042Y15076D01*
X8567Y15470D02*
X8380Y15470D01*
X8361Y15283D01*
X8380Y15301D01*
X8417Y15320D01*
X8511Y15320D01*
X8548Y15301D01*
X8567Y15283D01*
X8586Y15245D01*
X8586Y15151D01*
X8567Y15114D01*
X8548Y15095D01*
X8511Y15076D01*
X8417Y15076D01*
X8380Y15095D01*
X8361Y15114D01*
X2956Y14998D02*
X2956Y15391D01*
X3087Y15110D01*
X3218Y15391D01*
X3218Y14998D01*
X3406Y14998D02*
X3406Y15391D01*
X3556Y15391D01*
X3593Y15373D01*
X3612Y15354D01*
X3631Y15316D01*
X3631Y15260D01*
X3612Y15223D01*
X3593Y15204D01*
X3556Y15185D01*
X3406Y15185D01*
X3781Y15016D02*
X3837Y14998D01*
X3931Y14998D01*
X3968Y15016D01*
X3987Y15035D01*
X4006Y15073D01*
X4006Y15110D01*
X3987Y15148D01*
X3968Y15166D01*
X3931Y15185D01*
X3856Y15204D01*
X3818Y15223D01*
X3800Y15241D01*
X3781Y15279D01*
X3781Y15316D01*
X3800Y15354D01*
X3818Y15373D01*
X3856Y15391D01*
X3950Y15391D01*
X4006Y15373D01*
X4156Y15110D02*
X4343Y15110D01*
X4118Y14998D02*
X4250Y15391D01*
X4381Y14998D01*
X4531Y14998D02*
X4606Y14998D01*
X4643Y15016D01*
X4662Y15035D01*
X4700Y15091D01*
X4718Y15166D01*
X4718Y15316D01*
X4700Y15354D01*
X4681Y15373D01*
X4643Y15391D01*
X4568Y15391D01*
X4531Y15373D01*
X4512Y15354D01*
X4493Y15316D01*
X4493Y15223D01*
X4512Y15185D01*
X4531Y15166D01*
X4568Y15148D01*
X4643Y15148D01*
X4681Y15166D01*
X4700Y15185D01*
X4718Y15223D01*
X4868Y15354D02*
X4887Y15373D01*
X4925Y15391D01*
X5018Y15391D01*
X5056Y15373D01*
X5074Y15354D01*
X5093Y15316D01*
X5093Y15279D01*
X5074Y15223D01*
X4850Y14998D01*
X5093Y14998D01*
X8042Y10157D02*
X8005Y10176D01*
X7967Y10213D01*
X7911Y10269D01*
X7874Y10288D01*
X7836Y10288D01*
X7855Y10194D02*
X7817Y10213D01*
X7780Y10251D01*
X7761Y10326D01*
X7761Y10457D01*
X7780Y10532D01*
X7817Y10569D01*
X7855Y10588D01*
X7930Y10588D01*
X7967Y10569D01*
X8005Y10532D01*
X8023Y10457D01*
X8023Y10326D01*
X8005Y10251D01*
X7967Y10213D01*
X7930Y10194D01*
X7855Y10194D01*
X8398Y10194D02*
X8173Y10194D01*
X8286Y10194D02*
X8286Y10588D01*
X8248Y10532D01*
X8211Y10494D01*
X8173Y10476D01*
X8773Y10194D02*
X8548Y10194D01*
X8661Y10194D02*
X8661Y10588D01*
X8623Y10532D01*
X8586Y10494D01*
X8548Y10476D01*
X2444Y12478D02*
X2444Y12872D01*
X2575Y12590D01*
X2707Y12872D01*
X2707Y12478D01*
X2894Y12478D02*
X2894Y12872D01*
X3044Y12872D01*
X3082Y12853D01*
X3100Y12834D01*
X3119Y12797D01*
X3119Y12740D01*
X3100Y12703D01*
X3082Y12684D01*
X3044Y12665D01*
X2894Y12665D01*
X3269Y12497D02*
X3325Y12478D01*
X3419Y12478D01*
X3457Y12497D01*
X3475Y12515D01*
X3494Y12553D01*
X3494Y12590D01*
X3475Y12628D01*
X3457Y12647D01*
X3419Y12665D01*
X3344Y12684D01*
X3307Y12703D01*
X3288Y12722D01*
X3269Y12759D01*
X3269Y12797D01*
X3288Y12834D01*
X3307Y12853D01*
X3344Y12872D01*
X3438Y12872D01*
X3494Y12853D01*
X3644Y12590D02*
X3832Y12590D01*
X3607Y12478D02*
X3738Y12872D01*
X3869Y12478D01*
X4169Y12740D02*
X4169Y12478D01*
X4075Y12890D02*
X3982Y12609D01*
X4225Y12609D01*
X4356Y12834D02*
X4375Y12853D01*
X4413Y12872D01*
X4506Y12872D01*
X4544Y12853D01*
X4563Y12834D01*
X4581Y12797D01*
X4581Y12759D01*
X4563Y12703D01*
X4338Y12478D01*
X4581Y12478D01*
X5868Y15039D02*
X5830Y15058D01*
X5793Y15095D01*
X5736Y15151D01*
X5699Y15170D01*
X5661Y15170D01*
X5680Y15076D02*
X5643Y15095D01*
X5605Y15133D01*
X5586Y15208D01*
X5586Y15339D01*
X5605Y15414D01*
X5643Y15451D01*
X5680Y15470D01*
X5755Y15470D01*
X5793Y15451D01*
X5830Y15414D01*
X5849Y15339D01*
X5849Y15208D01*
X5830Y15133D01*
X5793Y15095D01*
X5755Y15076D01*
X5680Y15076D01*
X6186Y15339D02*
X6186Y15076D01*
X6092Y15489D02*
X5999Y15208D01*
X6242Y15208D01*
X2956Y14998D02*
X2956Y15391D01*
X3087Y15110D01*
X3218Y15391D01*
X3218Y14998D01*
X3406Y14998D02*
X3406Y15391D01*
X3556Y15391D01*
X3593Y15373D01*
X3612Y15354D01*
X3631Y15316D01*
X3631Y15260D01*
X3612Y15223D01*
X3593Y15204D01*
X3556Y15185D01*
X3406Y15185D01*
X3781Y15016D02*
X3837Y14998D01*
X3931Y14998D01*
X3968Y15016D01*
X3987Y15035D01*
X4006Y15073D01*
X4006Y15110D01*
X3987Y15148D01*
X3968Y15166D01*
X3931Y15185D01*
X3856Y15204D01*
X3818Y15223D01*
X3800Y15241D01*
X3781Y15279D01*
X3781Y15316D01*
X3800Y15354D01*
X3818Y15373D01*
X3856Y15391D01*
X3950Y15391D01*
X4006Y15373D01*
X4156Y15110D02*
X4343Y15110D01*
X4118Y14998D02*
X4250Y15391D01*
X4381Y14998D01*
X4531Y14998D02*
X4606Y14998D01*
X4643Y15016D01*
X4662Y15035D01*
X4700Y15091D01*
X4718Y15166D01*
X4718Y15316D01*
X4700Y15354D01*
X4681Y15373D01*
X4643Y15391D01*
X4568Y15391D01*
X4531Y15373D01*
X4512Y15354D01*
X4493Y15316D01*
X4493Y15223D01*
X4512Y15185D01*
X4531Y15166D01*
X4568Y15148D01*
X4643Y15148D01*
X4681Y15166D01*
X4700Y15185D01*
X4718Y15223D01*
X4868Y15354D02*
X4887Y15373D01*
X4925Y15391D01*
X5018Y15391D01*
X5056Y15373D01*
X5074Y15354D01*
X5093Y15316D01*
X5093Y15279D01*
X5074Y15223D01*
X4850Y14998D01*
X5093Y14998D01*
X5680Y10196D02*
X5643Y10215D01*
X5605Y10253D01*
X5549Y10309D01*
X5511Y10328D01*
X5474Y10328D01*
X5493Y10234D02*
X5455Y10253D01*
X5418Y10290D01*
X5399Y10365D01*
X5399Y10496D01*
X5418Y10571D01*
X5455Y10609D01*
X5493Y10628D01*
X5568Y10628D01*
X5605Y10609D01*
X5643Y10571D01*
X5661Y10496D01*
X5661Y10365D01*
X5643Y10290D01*
X5605Y10253D01*
X5568Y10234D01*
X5493Y10234D01*
X6036Y10234D02*
X5811Y10234D01*
X5924Y10234D02*
X5924Y10628D01*
X5886Y10571D01*
X5849Y10534D01*
X5811Y10515D01*
X6280Y10628D02*
X6317Y10628D01*
X6355Y10609D01*
X6374Y10590D01*
X6392Y10553D01*
X6411Y10478D01*
X6411Y10384D01*
X6392Y10309D01*
X6374Y10271D01*
X6355Y10253D01*
X6317Y10234D01*
X6280Y10234D01*
X6242Y10253D01*
X6224Y10271D01*
X6205Y10309D01*
X6186Y10384D01*
X6186Y10478D01*
X6205Y10553D01*
X6224Y10590D01*
X6242Y10609D01*
X6280Y10628D01*
X2444Y12478D02*
X2444Y12872D01*
X2575Y12590D01*
X2707Y12872D01*
X2707Y12478D01*
X2894Y12478D02*
X2894Y12872D01*
X3044Y12872D01*
X3082Y12853D01*
X3100Y12834D01*
X3119Y12797D01*
X3119Y12740D01*
X3100Y12703D01*
X3082Y12684D01*
X3044Y12665D01*
X2894Y12665D01*
X3269Y12497D02*
X3325Y12478D01*
X3419Y12478D01*
X3457Y12497D01*
X3475Y12515D01*
X3494Y12553D01*
X3494Y12590D01*
X3475Y12628D01*
X3457Y12647D01*
X3419Y12665D01*
X3344Y12684D01*
X3307Y12703D01*
X3288Y12722D01*
X3269Y12759D01*
X3269Y12797D01*
X3288Y12834D01*
X3307Y12853D01*
X3344Y12872D01*
X3438Y12872D01*
X3494Y12853D01*
X3644Y12590D02*
X3832Y12590D01*
X3607Y12478D02*
X3738Y12872D01*
X3869Y12478D01*
X4169Y12740D02*
X4169Y12478D01*
X4075Y12890D02*
X3982Y12609D01*
X4225Y12609D01*
X4356Y12834D02*
X4375Y12853D01*
X4413Y12872D01*
X4506Y12872D01*
X4544Y12853D01*
X4563Y12834D01*
X4581Y12797D01*
X4581Y12759D01*
X4563Y12703D01*
X4338Y12478D01*
X4581Y12478D01*
X3348Y15551D02*
X3310Y15569D01*
X3273Y15607D01*
X3217Y15663D01*
X3179Y15682D01*
X3142Y15682D01*
X3160Y15588D02*
X3123Y15607D01*
X3085Y15644D01*
X3067Y15719D01*
X3067Y15851D01*
X3085Y15926D01*
X3123Y15963D01*
X3160Y15982D01*
X3235Y15982D01*
X3273Y15963D01*
X3310Y15926D01*
X3329Y15851D01*
X3329Y15719D01*
X3310Y15644D01*
X3273Y15607D01*
X3235Y15588D01*
X3160Y15588D01*
X3460Y15982D02*
X3704Y15982D01*
X3573Y15832D01*
X3629Y15832D01*
X3667Y15813D01*
X3685Y15794D01*
X3704Y15757D01*
X3704Y15663D01*
X3685Y15626D01*
X3667Y15607D01*
X3629Y15588D01*
X3517Y15588D01*
X3479Y15607D01*
X3460Y15626D01*
X2956Y14998D02*
X2956Y15391D01*
X3087Y15110D01*
X3218Y15391D01*
X3218Y14998D01*
X3406Y14998D02*
X3406Y15391D01*
X3556Y15391D01*
X3593Y15373D01*
X3612Y15354D01*
X3631Y15316D01*
X3631Y15260D01*
X3612Y15223D01*
X3593Y15204D01*
X3556Y15185D01*
X3406Y15185D01*
X3781Y15016D02*
X3837Y14998D01*
X3931Y14998D01*
X3968Y15016D01*
X3987Y15035D01*
X4006Y15073D01*
X4006Y15110D01*
X3987Y15148D01*
X3968Y15166D01*
X3931Y15185D01*
X3856Y15204D01*
X3818Y15223D01*
X3800Y15241D01*
X3781Y15279D01*
X3781Y15316D01*
X3800Y15354D01*
X3818Y15373D01*
X3856Y15391D01*
X3950Y15391D01*
X4006Y15373D01*
X4156Y15110D02*
X4343Y15110D01*
X4118Y14998D02*
X4250Y15391D01*
X4381Y14998D01*
X4531Y14998D02*
X4606Y14998D01*
X4643Y15016D01*
X4662Y15035D01*
X4700Y15091D01*
X4718Y15166D01*
X4718Y15316D01*
X4700Y15354D01*
X4681Y15373D01*
X4643Y15391D01*
X4568Y15391D01*
X4531Y15373D01*
X4512Y15354D01*
X4493Y15316D01*
X4493Y15223D01*
X4512Y15185D01*
X4531Y15166D01*
X4568Y15148D01*
X4643Y15148D01*
X4681Y15166D01*
X4700Y15185D01*
X4718Y15223D01*
X4868Y15354D02*
X4887Y15373D01*
X4925Y15391D01*
X5018Y15391D01*
X5056Y15373D01*
X5074Y15354D01*
X5093Y15316D01*
X5093Y15279D01*
X5074Y15223D01*
X4850Y14998D01*
X5093Y14998D01*
X3584Y10118D02*
X3547Y10136D01*
X3509Y10174D01*
X3453Y10230D01*
X3415Y10249D01*
X3378Y10249D01*
X3397Y10155D02*
X3359Y10174D01*
X3322Y10211D01*
X3303Y10286D01*
X3303Y10418D01*
X3322Y10493D01*
X3359Y10530D01*
X3397Y10549D01*
X3472Y10549D01*
X3509Y10530D01*
X3547Y10493D01*
X3565Y10418D01*
X3565Y10286D01*
X3547Y10211D01*
X3509Y10174D01*
X3472Y10155D01*
X3397Y10155D01*
X3753Y10155D02*
X3828Y10155D01*
X3865Y10174D01*
X3884Y10193D01*
X3922Y10249D01*
X3940Y10324D01*
X3940Y10474D01*
X3922Y10511D01*
X3903Y10530D01*
X3865Y10549D01*
X3790Y10549D01*
X3753Y10530D01*
X3734Y10511D01*
X3715Y10474D01*
X3715Y10380D01*
X3734Y10343D01*
X3753Y10324D01*
X3790Y10305D01*
X3865Y10305D01*
X3903Y10324D01*
X3922Y10343D01*
X3940Y10380D01*
X2444Y12478D02*
X2444Y12872D01*
X2575Y12590D01*
X2707Y12872D01*
X2707Y12478D01*
X2894Y12478D02*
X2894Y12872D01*
X3044Y12872D01*
X3082Y12853D01*
X3100Y12834D01*
X3119Y12797D01*
X3119Y12740D01*
X3100Y12703D01*
X3082Y12684D01*
X3044Y12665D01*
X2894Y12665D01*
X3269Y12497D02*
X3325Y12478D01*
X3419Y12478D01*
X3457Y12497D01*
X3475Y12515D01*
X3494Y12553D01*
X3494Y12590D01*
X3475Y12628D01*
X3457Y12647D01*
X3419Y12665D01*
X3344Y12684D01*
X3307Y12703D01*
X3288Y12722D01*
X3269Y12759D01*
X3269Y12797D01*
X3288Y12834D01*
X3307Y12853D01*
X3344Y12872D01*
X3438Y12872D01*
X3494Y12853D01*
X3644Y12590D02*
X3832Y12590D01*
X3607Y12478D02*
X3738Y12872D01*
X3869Y12478D01*
X4169Y12740D02*
X4169Y12478D01*
X4075Y12890D02*
X3982Y12609D01*
X4225Y12609D01*
X4356Y12834D02*
X4375Y12853D01*
X4413Y12872D01*
X4506Y12872D01*
X4544Y12853D01*
X4563Y12834D01*
X4581Y12797D01*
X4581Y12759D01*
X4563Y12703D01*
X4338Y12478D01*
X4581Y12478D01*
X2049Y14803D02*
X2011Y14821D01*
X1974Y14859D01*
X1917Y14915D01*
X1880Y14934D01*
X1842Y14934D01*
X1861Y14840D02*
X1824Y14859D01*
X1786Y14896D01*
X1767Y14971D01*
X1767Y15103D01*
X1786Y15178D01*
X1824Y15215D01*
X1861Y15234D01*
X1936Y15234D01*
X1974Y15215D01*
X2011Y15178D01*
X2030Y15103D01*
X2030Y14971D01*
X2011Y14896D01*
X1974Y14859D01*
X1936Y14840D01*
X1861Y14840D01*
X2180Y15196D02*
X2199Y15215D01*
X2236Y15234D01*
X2330Y15234D01*
X2367Y15215D01*
X2386Y15196D01*
X2405Y15159D01*
X2405Y15121D01*
X2386Y15065D01*
X2161Y14840D01*
X2405Y14840D01*
X2956Y14998D02*
X2956Y15391D01*
X3087Y15110D01*
X3218Y15391D01*
X3218Y14998D01*
X3406Y14998D02*
X3406Y15391D01*
X3556Y15391D01*
X3593Y15373D01*
X3612Y15354D01*
X3631Y15316D01*
X3631Y15260D01*
X3612Y15223D01*
X3593Y15204D01*
X3556Y15185D01*
X3406Y15185D01*
X3781Y15016D02*
X3837Y14998D01*
X3931Y14998D01*
X3968Y15016D01*
X3987Y15035D01*
X4006Y15073D01*
X4006Y15110D01*
X3987Y15148D01*
X3968Y15166D01*
X3931Y15185D01*
X3856Y15204D01*
X3818Y15223D01*
X3800Y15241D01*
X3781Y15279D01*
X3781Y15316D01*
X3800Y15354D01*
X3818Y15373D01*
X3856Y15391D01*
X3950Y15391D01*
X4006Y15373D01*
X4156Y15110D02*
X4343Y15110D01*
X4118Y14998D02*
X4250Y15391D01*
X4381Y14998D01*
X4531Y14998D02*
X4606Y14998D01*
X4643Y15016D01*
X4662Y15035D01*
X4700Y15091D01*
X4718Y15166D01*
X4718Y15316D01*
X4700Y15354D01*
X4681Y15373D01*
X4643Y15391D01*
X4568Y15391D01*
X4531Y15373D01*
X4512Y15354D01*
X4493Y15316D01*
X4493Y15223D01*
X4512Y15185D01*
X4531Y15166D01*
X4568Y15148D01*
X4643Y15148D01*
X4681Y15166D01*
X4700Y15185D01*
X4718Y15223D01*
X4868Y15354D02*
X4887Y15373D01*
X4925Y15391D01*
X5018Y15391D01*
X5056Y15373D01*
X5074Y15354D01*
X5093Y15316D01*
X5093Y15279D01*
X5074Y15223D01*
X4850Y14998D01*
X5093Y14998D01*
X10404Y10157D02*
X10367Y10176D01*
X10329Y10213D01*
X10273Y10269D01*
X10236Y10288D01*
X10198Y10288D01*
X10217Y10194D02*
X10179Y10213D01*
X10142Y10251D01*
X10123Y10326D01*
X10123Y10457D01*
X10142Y10532D01*
X10179Y10569D01*
X10217Y10588D01*
X10292Y10588D01*
X10329Y10569D01*
X10367Y10532D01*
X10386Y10457D01*
X10386Y10326D01*
X10367Y10251D01*
X10329Y10213D01*
X10292Y10194D01*
X10217Y10194D01*
X10761Y10194D02*
X10536Y10194D01*
X10648Y10194D02*
X10648Y10588D01*
X10611Y10532D01*
X10573Y10494D01*
X10536Y10476D01*
X10911Y10551D02*
X10929Y10569D01*
X10967Y10588D01*
X11061Y10588D01*
X11098Y10569D01*
X11117Y10551D01*
X11136Y10513D01*
X11136Y10476D01*
X11117Y10419D01*
X10892Y10194D01*
X11136Y10194D01*
X2444Y12478D02*
X2444Y12872D01*
X2575Y12590D01*
X2707Y12872D01*
X2707Y12478D01*
X2894Y12478D02*
X2894Y12872D01*
X3044Y12872D01*
X3082Y12853D01*
X3100Y12834D01*
X3119Y12797D01*
X3119Y12740D01*
X3100Y12703D01*
X3082Y12684D01*
X3044Y12665D01*
X2894Y12665D01*
X3269Y12497D02*
X3325Y12478D01*
X3419Y12478D01*
X3457Y12497D01*
X3475Y12515D01*
X3494Y12553D01*
X3494Y12590D01*
X3475Y12628D01*
X3457Y12647D01*
X3419Y12665D01*
X3344Y12684D01*
X3307Y12703D01*
X3288Y12722D01*
X3269Y12759D01*
X3269Y12797D01*
X3288Y12834D01*
X3307Y12853D01*
X3344Y12872D01*
X3438Y12872D01*
X3494Y12853D01*
X3644Y12590D02*
X3832Y12590D01*
X3607Y12478D02*
X3738Y12872D01*
X3869Y12478D01*
X4169Y12740D02*
X4169Y12478D01*
X4075Y12890D02*
X3982Y12609D01*
X4225Y12609D01*
X4356Y12834D02*
X4375Y12853D01*
X4413Y12872D01*
X4506Y12872D01*
X4544Y12853D01*
X4563Y12834D01*
X4581Y12797D01*
X4581Y12759D01*
X4563Y12703D01*
X4338Y12478D01*
X4581Y12478D01*
X828Y10157D02*
X791Y10176D01*
X753Y10213D01*
X697Y10269D01*
X659Y10288D01*
X622Y10288D01*
X641Y10194D02*
X603Y10213D01*
X566Y10251D01*
X547Y10326D01*
X547Y10457D01*
X566Y10532D01*
X603Y10569D01*
X641Y10588D01*
X716Y10588D01*
X753Y10569D01*
X791Y10532D01*
X809Y10457D01*
X809Y10326D01*
X791Y10251D01*
X753Y10213D01*
X716Y10194D01*
X641Y10194D01*
X1034Y10419D02*
X997Y10438D01*
X978Y10457D01*
X959Y10494D01*
X959Y10513D01*
X978Y10551D01*
X997Y10569D01*
X1034Y10588D01*
X1109Y10588D01*
X1147Y10569D01*
X1166Y10551D01*
X1184Y10513D01*
X1184Y10494D01*
X1166Y10457D01*
X1147Y10438D01*
X1109Y10419D01*
X1034Y10419D01*
X997Y10401D01*
X978Y10382D01*
X959Y10344D01*
X959Y10269D01*
X978Y10232D01*
X997Y10213D01*
X1034Y10194D01*
X1109Y10194D01*
X1147Y10213D01*
X1166Y10232D01*
X1184Y10269D01*
X1184Y10344D01*
X1166Y10382D01*
X1147Y10401D01*
X1109Y10419D01*
X2444Y12478D02*
X2444Y12872D01*
X2575Y12590D01*
X2707Y12872D01*
X2707Y12478D01*
X2894Y12478D02*
X2894Y12872D01*
X3044Y12872D01*
X3082Y12853D01*
X3100Y12834D01*
X3119Y12797D01*
X3119Y12740D01*
X3100Y12703D01*
X3082Y12684D01*
X3044Y12665D01*
X2894Y12665D01*
X3269Y12497D02*
X3325Y12478D01*
X3419Y12478D01*
X3457Y12497D01*
X3475Y12515D01*
X3494Y12553D01*
X3494Y12590D01*
X3475Y12628D01*
X3457Y12647D01*
X3419Y12665D01*
X3344Y12684D01*
X3307Y12703D01*
X3288Y12722D01*
X3269Y12759D01*
X3269Y12797D01*
X3288Y12834D01*
X3307Y12853D01*
X3344Y12872D01*
X3438Y12872D01*
X3494Y12853D01*
X3644Y12590D02*
X3832Y12590D01*
X3607Y12478D02*
X3738Y12872D01*
X3869Y12478D01*
X4169Y12740D02*
X4169Y12478D01*
X4075Y12890D02*
X3982Y12609D01*
X4225Y12609D01*
X4356Y12834D02*
X4375Y12853D01*
X4413Y12872D01*
X4506Y12872D01*
X4544Y12853D01*
X4563Y12834D01*
X4581Y12797D01*
X4581Y12759D01*
X4563Y12703D01*
X4338Y12478D01*
X4581Y12478D01*
X6272Y8106D02*
X6254Y8087D01*
X6197Y8068D01*
X6160Y8068D01*
X6104Y8087D01*
X6066Y8125D01*
X6047Y8162D01*
X6029Y8237D01*
X6029Y8293D01*
X6047Y8368D01*
X6066Y8406D01*
X6104Y8443D01*
X6160Y8462D01*
X6197Y8462D01*
X6254Y8443D01*
X6272Y8425D01*
X6460Y8068D02*
X6535Y8068D01*
X6572Y8087D01*
X6591Y8106D01*
X6629Y8162D01*
X6647Y8237D01*
X6647Y8387D01*
X6629Y8425D01*
X6610Y8443D01*
X6572Y8462D01*
X6497Y8462D01*
X6460Y8443D01*
X6441Y8425D01*
X6422Y8387D01*
X6422Y8293D01*
X6441Y8256D01*
X6460Y8237D01*
X6497Y8218D01*
X6572Y8218D01*
X6610Y8237D01*
X6629Y8256D01*
X6647Y8293D01*
X6124Y7517D02*
X5899Y7517D01*
X6012Y7517D02*
X6012Y7911D01*
X5974Y7855D01*
X5937Y7817D01*
X5899Y7799D01*
X6368Y7911D02*
X6406Y7911D01*
X6443Y7892D01*
X6462Y7874D01*
X6481Y7836D01*
X6499Y7761D01*
X6499Y7667D01*
X6481Y7592D01*
X6462Y7555D01*
X6443Y7536D01*
X6406Y7517D01*
X6368Y7517D01*
X6331Y7536D01*
X6312Y7555D01*
X6293Y7592D01*
X6274Y7667D01*
X6274Y7761D01*
X6293Y7836D01*
X6312Y7874D01*
X6331Y7892D01*
X6368Y7911D01*
X6837Y7780D02*
X6837Y7517D01*
X6668Y7780D02*
X6668Y7574D01*
X6687Y7536D01*
X6724Y7517D01*
X6781Y7517D01*
X6818Y7536D01*
X6837Y7555D01*
X8436Y4611D02*
X8436Y4911D01*
X8586Y4761D02*
X8286Y4761D01*
X8436Y6111D02*
X8436Y6411D01*
X4146Y7635D02*
X3959Y7635D01*
X3959Y8029D01*
X4484Y7635D02*
X4259Y7635D01*
X4371Y7635D02*
X4371Y8029D01*
X4334Y7973D01*
X4296Y7935D01*
X4259Y7917D01*
X4116Y7084D02*
X3892Y7084D01*
X4004Y7084D02*
X4004Y7478D01*
X3967Y7422D01*
X3929Y7384D01*
X3892Y7365D01*
X4360Y7478D02*
X4398Y7478D01*
X4435Y7459D01*
X4454Y7440D01*
X4473Y7403D01*
X4491Y7328D01*
X4491Y7234D01*
X4473Y7159D01*
X4454Y7122D01*
X4435Y7103D01*
X4398Y7084D01*
X4360Y7084D01*
X4323Y7103D01*
X4304Y7122D01*
X4285Y7159D01*
X4266Y7234D01*
X4266Y7328D01*
X4285Y7403D01*
X4304Y7440D01*
X4323Y7459D01*
X4360Y7478D01*
X4735Y7478D02*
X4773Y7478D01*
X4810Y7459D01*
X4829Y7440D01*
X4848Y7403D01*
X4866Y7328D01*
X4866Y7234D01*
X4848Y7159D01*
X4829Y7122D01*
X4810Y7103D01*
X4773Y7084D01*
X4735Y7084D01*
X4698Y7103D01*
X4679Y7122D01*
X4660Y7159D01*
X4641Y7234D01*
X4641Y7328D01*
X4660Y7403D01*
X4679Y7440D01*
X4698Y7459D01*
X4735Y7478D01*
X5204Y7347D02*
X5204Y7084D01*
X5035Y7347D02*
X5035Y7140D01*
X5054Y7103D01*
X5091Y7084D01*
X5148Y7084D01*
X5185Y7103D01*
X5204Y7122D01*
X5391Y7084D02*
X5391Y7478D01*
X5391Y7290D02*
X5616Y7290D01*
X5616Y7084D02*
X5616Y7478D01*
X4186Y8736D02*
X4167Y8717D01*
X4111Y8698D01*
X4073Y8698D01*
X4017Y8717D01*
X3980Y8755D01*
X3961Y8792D01*
X3942Y8867D01*
X3942Y8923D01*
X3961Y8998D01*
X3980Y9036D01*
X4017Y9073D01*
X4073Y9092D01*
X4111Y9092D01*
X4167Y9073D01*
X4186Y9055D01*
X4411Y8923D02*
X4373Y8942D01*
X4355Y8961D01*
X4336Y8998D01*
X4336Y9017D01*
X4355Y9055D01*
X4373Y9073D01*
X4411Y9092D01*
X4486Y9092D01*
X4523Y9073D01*
X4542Y9055D01*
X4561Y9017D01*
X4561Y8998D01*
X4542Y8961D01*
X4523Y8942D01*
X4486Y8923D01*
X4411Y8923D01*
X4373Y8905D01*
X4355Y8886D01*
X4336Y8848D01*
X4336Y8773D01*
X4355Y8736D01*
X4373Y8717D01*
X4411Y8698D01*
X4486Y8698D01*
X4523Y8717D01*
X4542Y8736D01*
X4561Y8773D01*
X4561Y8848D01*
X4542Y8886D01*
X4523Y8905D01*
X4486Y8923D01*
X3922Y9722D02*
X4165Y9722D01*
X4034Y9572D01*
X4090Y9572D01*
X4128Y9553D01*
X4146Y9535D01*
X4165Y9497D01*
X4165Y9403D01*
X4146Y9366D01*
X4128Y9347D01*
X4090Y9328D01*
X3978Y9328D01*
X3940Y9347D01*
X3922Y9366D01*
X4296Y9722D02*
X4540Y9722D01*
X4409Y9572D01*
X4465Y9572D01*
X4503Y9553D01*
X4521Y9535D01*
X4540Y9497D01*
X4540Y9403D01*
X4521Y9366D01*
X4503Y9347D01*
X4465Y9328D01*
X4353Y9328D01*
X4315Y9347D01*
X4296Y9366D01*
X4784Y9722D02*
X4821Y9722D01*
X4859Y9703D01*
X4878Y9685D01*
X4896Y9647D01*
X4915Y9572D01*
X4915Y9478D01*
X4896Y9403D01*
X4878Y9366D01*
X4859Y9347D01*
X4821Y9328D01*
X4784Y9328D01*
X4746Y9347D01*
X4728Y9366D01*
X4709Y9403D01*
X4690Y9478D01*
X4690Y9572D01*
X4709Y9647D01*
X4728Y9685D01*
X4746Y9703D01*
X4784Y9722D01*
X5253Y9591D02*
X5253Y9328D01*
X5084Y9591D02*
X5084Y9385D01*
X5103Y9347D01*
X5140Y9328D01*
X5196Y9328D01*
X5234Y9347D01*
X5253Y9366D01*
X2924Y7761D02*
X2924Y8061D01*
X3074Y7911D02*
X2774Y7911D01*
X2924Y9261D02*
X2924Y9561D01*
X5562Y3188D02*
X5524Y3207D01*
X5487Y3245D01*
X5431Y3301D01*
X5393Y3320D01*
X5356Y3320D01*
X5374Y3226D02*
X5337Y3245D01*
X5299Y3282D01*
X5281Y3357D01*
X5281Y3488D01*
X5299Y3563D01*
X5337Y3601D01*
X5374Y3620D01*
X5449Y3620D01*
X5487Y3601D01*
X5524Y3563D01*
X5543Y3488D01*
X5543Y3357D01*
X5524Y3282D01*
X5487Y3245D01*
X5449Y3226D01*
X5374Y3226D01*
X5918Y3226D02*
X5693Y3226D01*
X5806Y3226D02*
X5806Y3620D01*
X5768Y3563D01*
X5731Y3526D01*
X5693Y3507D01*
X6256Y3620D02*
X6181Y3620D01*
X6143Y3601D01*
X6124Y3582D01*
X6087Y3526D01*
X6068Y3451D01*
X6068Y3301D01*
X6087Y3263D01*
X6106Y3245D01*
X6143Y3226D01*
X6218Y3226D01*
X6256Y3245D01*
X6274Y3263D01*
X6293Y3301D01*
X6293Y3395D01*
X6274Y3432D01*
X6256Y3451D01*
X6218Y3470D01*
X6143Y3470D01*
X6106Y3451D01*
X6087Y3432D01*
X6068Y3395D01*
X4938Y2635D02*
X4938Y3029D01*
X5350Y2635D02*
X5219Y2823D01*
X5125Y2635D02*
X5125Y3029D01*
X5275Y3029D01*
X5313Y3010D01*
X5331Y2992D01*
X5350Y2954D01*
X5350Y2898D01*
X5331Y2860D01*
X5313Y2842D01*
X5275Y2823D01*
X5125Y2823D01*
X5650Y2842D02*
X5519Y2842D01*
X5519Y2635D02*
X5519Y3029D01*
X5706Y3029D01*
X5819Y3029D02*
X6081Y3029D01*
X5913Y2635D01*
X6400Y2898D02*
X6400Y2635D01*
X6306Y3048D02*
X6212Y2767D01*
X6456Y2767D01*
X6681Y3029D02*
X6719Y3029D01*
X6756Y3010D01*
X6775Y2992D01*
X6794Y2954D01*
X6812Y2879D01*
X6812Y2785D01*
X6794Y2710D01*
X6775Y2673D01*
X6756Y2654D01*
X6719Y2635D01*
X6681Y2635D01*
X6644Y2654D01*
X6625Y2673D01*
X6606Y2710D01*
X6587Y2785D01*
X6587Y2879D01*
X6606Y2954D01*
X6625Y2992D01*
X6644Y3010D01*
X6681Y3029D01*
X9017Y3187D02*
X8886Y3374D01*
X8792Y3187D02*
X8792Y3580D01*
X8942Y3580D01*
X8980Y3562D01*
X8998Y3543D01*
X9017Y3505D01*
X9017Y3449D01*
X8998Y3412D01*
X8980Y3393D01*
X8942Y3374D01*
X8792Y3374D01*
X9130Y3580D02*
X9261Y3187D01*
X9392Y3580D01*
X9730Y3187D02*
X9505Y3187D01*
X9617Y3187D02*
X9617Y3580D01*
X9580Y3524D01*
X9542Y3487D01*
X9505Y3468D01*
X11094Y3187D02*
X10869Y3187D01*
X10982Y3187D02*
X10982Y3580D01*
X10944Y3524D01*
X10907Y3487D01*
X10869Y3468D01*
X11263Y3187D02*
X11263Y3580D01*
X11301Y3337D02*
X11413Y3187D01*
X11413Y3449D02*
X11263Y3299D01*
X23919Y4917D02*
X24312Y5179D01*
X23919Y5179D02*
X24312Y4917D01*
X24312Y5536D02*
X24312Y5311D01*
X24312Y5423D02*
X23919Y5423D01*
X23975Y5386D01*
X24012Y5348D01*
X24031Y5311D01*
X26675Y3914D02*
X26675Y3689D01*
X26675Y3802D02*
X26281Y3802D01*
X26337Y3764D01*
X26375Y3727D01*
X26393Y3689D01*
X26450Y4139D02*
X26431Y4101D01*
X26412Y4083D01*
X26375Y4064D01*
X26356Y4064D01*
X26318Y4083D01*
X26300Y4101D01*
X26281Y4139D01*
X26281Y4214D01*
X26300Y4251D01*
X26318Y4270D01*
X26356Y4289D01*
X26375Y4289D01*
X26412Y4270D01*
X26431Y4251D01*
X26450Y4214D01*
X26450Y4139D01*
X26468Y4101D01*
X26487Y4083D01*
X26525Y4064D01*
X26600Y4064D01*
X26637Y4083D01*
X26656Y4101D01*
X26675Y4139D01*
X26675Y4214D01*
X26656Y4251D01*
X26637Y4270D01*
X26600Y4289D01*
X26525Y4289D01*
X26487Y4270D01*
X26468Y4251D01*
X26450Y4214D01*
X26637Y4458D02*
X26656Y4476D01*
X26675Y4458D01*
X26656Y4439D01*
X26637Y4458D01*
X26675Y4458D01*
X26412Y4814D02*
X26675Y4814D01*
X26262Y4720D02*
X26543Y4626D01*
X26543Y4870D01*
X26281Y4983D02*
X26281Y5226D01*
X26431Y5095D01*
X26431Y5151D01*
X26450Y5189D01*
X26468Y5208D01*
X26506Y5226D01*
X26600Y5226D01*
X26637Y5208D01*
X26656Y5189D01*
X26675Y5151D01*
X26675Y5039D01*
X26656Y5001D01*
X26637Y4983D01*
X26318Y5376D02*
X26300Y5395D01*
X26281Y5433D01*
X26281Y5526D01*
X26300Y5564D01*
X26318Y5583D01*
X26356Y5601D01*
X26393Y5601D01*
X26450Y5583D01*
X26675Y5358D01*
X26675Y5601D01*
X26675Y5770D02*
X26281Y5770D01*
X26562Y5901D01*
X26281Y6032D01*
X26675Y6032D01*
X26675Y6220D02*
X26281Y6220D01*
X26468Y6220D02*
X26468Y6445D01*
X26675Y6445D02*
X26281Y6445D01*
X26412Y6595D02*
X26412Y6801D01*
X26675Y6595D01*
X26675Y6801D01*
X24118Y1691D02*
X24118Y2084D01*
X24268Y2084D01*
X24306Y2065D01*
X24325Y2047D01*
X24343Y2009D01*
X24343Y1953D01*
X24325Y1916D01*
X24306Y1897D01*
X24268Y1878D01*
X24118Y1878D01*
X24681Y1953D02*
X24681Y1691D01*
X24587Y2103D02*
X24493Y1822D01*
X24737Y1822D01*
X21184Y2045D02*
X20997Y2045D01*
X20978Y1857D01*
X20997Y1876D01*
X21034Y1895D01*
X21128Y1895D01*
X21166Y1876D01*
X21184Y1857D01*
X21203Y1820D01*
X21203Y1726D01*
X21184Y1689D01*
X21166Y1670D01*
X21128Y1651D01*
X21034Y1651D01*
X20997Y1670D01*
X20978Y1689D01*
X21316Y2045D02*
X21447Y1651D01*
X21578Y2045D01*
X21638Y7793D02*
X21638Y8187D01*
X21788Y8187D01*
X21826Y8168D01*
X21844Y8149D01*
X21863Y8112D01*
X21863Y8055D01*
X21844Y8018D01*
X21826Y7999D01*
X21788Y7980D01*
X21638Y7980D01*
X21994Y8187D02*
X22257Y8187D01*
X22088Y7793D01*
X21124Y8657D02*
X21143Y8713D01*
X21143Y8807D01*
X21124Y8845D01*
X21106Y8863D01*
X21068Y8882D01*
X21031Y8882D01*
X20993Y8863D01*
X20974Y8845D01*
X20956Y8807D01*
X20937Y8732D01*
X20918Y8695D01*
X20899Y8676D01*
X20862Y8657D01*
X20824Y8657D01*
X20787Y8676D01*
X20768Y8695D01*
X20749Y8732D01*
X20749Y8826D01*
X20768Y8882D01*
X20937Y9051D02*
X20937Y9182D01*
X21143Y9238D02*
X21143Y9051D01*
X20749Y9051D01*
X20749Y9238D01*
X21143Y9632D02*
X20956Y9501D01*
X21143Y9407D02*
X20749Y9407D01*
X20749Y9557D01*
X20768Y9595D01*
X20787Y9613D01*
X20824Y9632D01*
X20881Y9632D01*
X20918Y9613D01*
X20937Y9595D01*
X20956Y9557D01*
X20956Y9407D01*
X21143Y9801D02*
X20749Y9801D01*
X21031Y9970D02*
X21031Y10157D01*
X21143Y9932D02*
X20749Y10063D01*
X21143Y10194D01*
X21143Y10513D02*
X21143Y10326D01*
X20749Y10326D01*
X15553Y5584D02*
X15159Y5584D01*
X15159Y5734D01*
X15178Y5772D01*
X15196Y5791D01*
X15234Y5809D01*
X15290Y5809D01*
X15328Y5791D01*
X15346Y5772D01*
X15365Y5734D01*
X15365Y5584D01*
X15553Y6184D02*
X15553Y5959D01*
X15553Y6072D02*
X15159Y6072D01*
X15215Y6034D01*
X15253Y5997D01*
X15271Y5959D01*
X15159Y6316D02*
X15159Y6559D01*
X15309Y6428D01*
X15309Y6484D01*
X15328Y6522D01*
X15346Y6541D01*
X15384Y6559D01*
X15478Y6559D01*
X15515Y6541D01*
X15534Y6522D01*
X15553Y6484D01*
X15553Y6372D01*
X15534Y6334D01*
X15515Y6316D01*
X16031Y5575D02*
X16031Y5763D01*
X16143Y5538D02*
X15749Y5669D01*
X16143Y5800D01*
X16143Y5931D02*
X15749Y5931D01*
X15749Y6025D01*
X15768Y6081D01*
X15806Y6119D01*
X15843Y6137D01*
X15918Y6156D01*
X15974Y6156D01*
X16049Y6137D01*
X16087Y6119D01*
X16124Y6081D01*
X16143Y6025D01*
X16143Y5931D01*
X16106Y6550D02*
X16124Y6531D01*
X16143Y6475D01*
X16143Y6437D01*
X16124Y6381D01*
X16087Y6344D01*
X16049Y6325D01*
X15974Y6306D01*
X15918Y6306D01*
X15843Y6325D01*
X15806Y6344D01*
X15768Y6381D01*
X15749Y6437D01*
X15749Y6475D01*
X15768Y6531D01*
X15787Y6550D01*
X11608Y2478D02*
X11608Y2872D01*
X11758Y2872D01*
X11796Y2853D01*
X11814Y2834D01*
X11833Y2797D01*
X11833Y2740D01*
X11814Y2703D01*
X11796Y2684D01*
X11758Y2665D01*
X11608Y2665D01*
X12208Y2478D02*
X11983Y2478D01*
X12095Y2478D02*
X12095Y2872D01*
X12058Y2815D01*
X12020Y2778D01*
X11983Y2759D01*
X12358Y2834D02*
X12377Y2853D01*
X12414Y2872D01*
X12508Y2872D01*
X12545Y2853D01*
X12564Y2834D01*
X12583Y2797D01*
X12583Y2759D01*
X12564Y2703D01*
X12339Y2478D01*
X12583Y2478D01*
X13232Y2872D02*
X13044Y2872D01*
X13025Y2684D01*
X13044Y2703D01*
X13082Y2722D01*
X13175Y2722D01*
X13213Y2703D01*
X13232Y2684D01*
X13250Y2647D01*
X13250Y2553D01*
X13232Y2515D01*
X13213Y2497D01*
X13175Y2478D01*
X13082Y2478D01*
X13044Y2497D01*
X13025Y2515D01*
X13363Y2872D02*
X13494Y2478D01*
X13625Y2872D01*
X24010Y667D02*
X24010Y1061D01*
X24160Y1061D01*
X24197Y1042D01*
X24216Y1023D01*
X24235Y986D01*
X24235Y929D01*
X24216Y892D01*
X24197Y873D01*
X24160Y854D01*
X24010Y854D01*
X24610Y667D02*
X24385Y667D01*
X24497Y667D02*
X24497Y1061D01*
X24460Y1004D01*
X24422Y967D01*
X24385Y948D01*
X24985Y667D02*
X24760Y667D01*
X24872Y667D02*
X24872Y1061D01*
X24835Y1004D01*
X24797Y967D01*
X24760Y948D01*
X21184Y1100D02*
X20997Y1100D01*
X20978Y913D01*
X20997Y931D01*
X21034Y950D01*
X21128Y950D01*
X21166Y931D01*
X21184Y913D01*
X21203Y875D01*
X21203Y781D01*
X21184Y744D01*
X21166Y725D01*
X21128Y706D01*
X21034Y706D01*
X20997Y725D01*
X20978Y744D01*
X21316Y1100D02*
X21447Y706D01*
X21578Y1100D01*
X19591Y7832D02*
X19591Y8226D01*
X19741Y8226D01*
X19778Y8207D01*
X19797Y8188D01*
X19816Y8151D01*
X19816Y8095D01*
X19797Y8057D01*
X19778Y8038D01*
X19741Y8020D01*
X19591Y8020D01*
X20041Y8057D02*
X20003Y8076D01*
X19985Y8095D01*
X19966Y8132D01*
X19966Y8151D01*
X19985Y8188D01*
X20003Y8207D01*
X20041Y8226D01*
X20116Y8226D01*
X20153Y8207D01*
X20172Y8188D01*
X20191Y8151D01*
X20191Y8132D01*
X20172Y8095D01*
X20153Y8076D01*
X20116Y8057D01*
X20041Y8057D01*
X20003Y8038D01*
X19985Y8020D01*
X19966Y7982D01*
X19966Y7907D01*
X19985Y7870D01*
X20003Y7851D01*
X20041Y7832D01*
X20116Y7832D01*
X20153Y7851D01*
X20172Y7870D01*
X20191Y7907D01*
X20191Y7982D01*
X20172Y8020D01*
X20153Y8038D01*
X20116Y8057D01*
X19214Y9221D02*
X18820Y9221D01*
X18858Y9390D02*
X18839Y9409D01*
X18820Y9446D01*
X18820Y9540D01*
X18839Y9578D01*
X18858Y9596D01*
X18895Y9615D01*
X18933Y9615D01*
X18989Y9596D01*
X19214Y9371D01*
X19214Y9615D01*
X19176Y10009D02*
X19195Y9990D01*
X19214Y9934D01*
X19214Y9896D01*
X19195Y9840D01*
X19158Y9803D01*
X19120Y9784D01*
X19045Y9765D01*
X18989Y9765D01*
X18914Y9784D01*
X18877Y9803D01*
X18839Y9840D01*
X18820Y9896D01*
X18820Y9934D01*
X18839Y9990D01*
X18858Y10009D01*
X15339Y1533D02*
X15339Y1927D01*
X15489Y1927D01*
X15526Y1908D01*
X15545Y1889D01*
X15564Y1852D01*
X15564Y1796D01*
X15545Y1758D01*
X15526Y1739D01*
X15489Y1721D01*
X15339Y1721D01*
X15714Y1889D02*
X15733Y1908D01*
X15770Y1927D01*
X15864Y1927D01*
X15901Y1908D01*
X15920Y1889D01*
X15939Y1852D01*
X15939Y1814D01*
X15920Y1758D01*
X15695Y1533D01*
X15939Y1533D01*
X16415Y1739D02*
X16471Y1721D01*
X16490Y1702D01*
X16509Y1664D01*
X16509Y1608D01*
X16490Y1571D01*
X16471Y1552D01*
X16434Y1533D01*
X16284Y1533D01*
X16284Y1927D01*
X16415Y1927D01*
X16452Y1908D01*
X16471Y1889D01*
X16490Y1852D01*
X16490Y1814D01*
X16471Y1777D01*
X16452Y1758D01*
X16415Y1739D01*
X16284Y1739D01*
X16677Y1927D02*
X16677Y1608D01*
X16696Y1571D01*
X16715Y1552D01*
X16752Y1533D01*
X16827Y1533D01*
X16865Y1552D01*
X16884Y1571D01*
X16902Y1608D01*
X16902Y1927D01*
X17052Y1927D02*
X17315Y1927D01*
X17052Y1533D01*
X17315Y1533D01*
X17427Y1927D02*
X17690Y1927D01*
X17427Y1533D01*
X17690Y1533D01*
X1520Y2675D02*
X1520Y3068D01*
X1670Y3068D01*
X1707Y3050D01*
X1726Y3031D01*
X1745Y2994D01*
X1745Y2937D01*
X1726Y2900D01*
X1707Y2881D01*
X1670Y2862D01*
X1520Y2862D01*
X2120Y2675D02*
X1895Y2675D01*
X2007Y2675D02*
X2007Y3068D01*
X1970Y3012D01*
X1932Y2975D01*
X1895Y2956D01*
X1143Y5144D02*
X749Y5144D01*
X749Y5294D01*
X768Y5331D01*
X787Y5350D01*
X824Y5369D01*
X881Y5369D01*
X918Y5350D01*
X937Y5331D01*
X956Y5294D01*
X956Y5144D01*
X749Y5500D02*
X1143Y5594D01*
X862Y5669D01*
X1143Y5744D01*
X749Y5838D01*
X1143Y6212D02*
X956Y6081D01*
X1143Y5988D02*
X749Y5988D01*
X749Y6137D01*
X768Y6175D01*
X787Y6194D01*
X824Y6212D01*
X881Y6212D01*
X918Y6194D01*
X937Y6175D01*
X956Y6137D01*
X956Y5988D01*
X14158Y4210D02*
X14158Y4604D01*
X14308Y4604D01*
X14345Y4585D01*
X14364Y4566D01*
X14383Y4529D01*
X14383Y4473D01*
X14364Y4435D01*
X14345Y4416D01*
X14308Y4398D01*
X14158Y4398D01*
X14720Y4604D02*
X14645Y4604D01*
X14608Y4585D01*
X14589Y4566D01*
X14551Y4510D01*
X14533Y4435D01*
X14533Y4285D01*
X14551Y4248D01*
X14570Y4229D01*
X14608Y4210D01*
X14683Y4210D01*
X14720Y4229D01*
X14739Y4248D01*
X14758Y4285D01*
X14758Y4379D01*
X14739Y4416D01*
X14720Y4435D01*
X14683Y4454D01*
X14608Y4454D01*
X14570Y4435D01*
X14551Y4416D01*
X14533Y4379D01*
X14064Y3580D02*
X14064Y3974D01*
X14233Y3599D02*
X14289Y3580D01*
X14383Y3580D01*
X14420Y3599D01*
X14439Y3618D01*
X14458Y3655D01*
X14458Y3693D01*
X14439Y3730D01*
X14420Y3749D01*
X14383Y3768D01*
X14308Y3787D01*
X14270Y3805D01*
X14251Y3824D01*
X14233Y3862D01*
X14233Y3899D01*
X14251Y3937D01*
X14270Y3955D01*
X14308Y3974D01*
X14401Y3974D01*
X14458Y3955D01*
X14626Y3580D02*
X14626Y3974D01*
X14776Y3974D01*
X14814Y3955D01*
X14833Y3937D01*
X14851Y3899D01*
X14851Y3843D01*
X14833Y3805D01*
X14814Y3787D01*
X14776Y3768D01*
X14626Y3768D01*
X18702Y2874D02*
X18665Y2892D01*
X18627Y2930D01*
X18571Y2986D01*
X18533Y3005D01*
X18496Y3005D01*
X18515Y2911D02*
X18477Y2930D01*
X18440Y2967D01*
X18421Y3042D01*
X18421Y3173D01*
X18440Y3248D01*
X18477Y3286D01*
X18515Y3305D01*
X18590Y3305D01*
X18627Y3286D01*
X18665Y3248D01*
X18683Y3173D01*
X18683Y3042D01*
X18665Y2967D01*
X18627Y2930D01*
X18590Y2911D01*
X18515Y2911D01*
X19058Y2911D02*
X18833Y2911D01*
X18946Y2911D02*
X18946Y3305D01*
X18908Y3248D01*
X18871Y3211D01*
X18833Y3192D01*
X19364Y3267D02*
X19383Y3286D01*
X19420Y3305D01*
X19514Y3305D01*
X19551Y3286D01*
X19570Y3267D01*
X19589Y3230D01*
X19589Y3192D01*
X19570Y3136D01*
X19345Y2911D01*
X19589Y2911D01*
X19758Y2911D02*
X19758Y3305D01*
X19983Y2911D01*
X19983Y3305D01*
X20133Y3305D02*
X20395Y3305D01*
X20226Y2911D01*
X20620Y3305D02*
X20658Y3305D01*
X20695Y3286D01*
X20714Y3267D01*
X20733Y3230D01*
X20751Y3155D01*
X20751Y3061D01*
X20733Y2986D01*
X20714Y2949D01*
X20695Y2930D01*
X20658Y2911D01*
X20620Y2911D01*
X20583Y2930D01*
X20564Y2949D01*
X20545Y2986D01*
X20526Y3061D01*
X20526Y3155D01*
X20545Y3230D01*
X20564Y3267D01*
X20583Y3286D01*
X20620Y3305D01*
X20995Y3305D02*
X21032Y3305D01*
X21070Y3286D01*
X21089Y3267D01*
X21107Y3230D01*
X21126Y3155D01*
X21126Y3061D01*
X21107Y2986D01*
X21089Y2949D01*
X21070Y2930D01*
X21032Y2911D01*
X20995Y2911D01*
X20958Y2930D01*
X20939Y2949D01*
X20920Y2986D01*
X20901Y3061D01*
X20901Y3155D01*
X20920Y3230D01*
X20939Y3267D01*
X20958Y3286D01*
X20995Y3305D01*
X21370Y3305D02*
X21407Y3305D01*
X21445Y3286D01*
X21464Y3267D01*
X21482Y3230D01*
X21501Y3155D01*
X21501Y3061D01*
X21482Y2986D01*
X21464Y2949D01*
X21445Y2930D01*
X21407Y2911D01*
X21370Y2911D01*
X21332Y2930D01*
X21314Y2949D01*
X21295Y2986D01*
X21276Y3061D01*
X21276Y3155D01*
X21295Y3230D01*
X21314Y3267D01*
X21332Y3286D01*
X21370Y3305D01*
X26694Y8055D02*
X26301Y8055D01*
X26301Y8205D01*
X26319Y8243D01*
X26338Y8262D01*
X26376Y8280D01*
X26432Y8280D01*
X26469Y8262D01*
X26488Y8243D01*
X26507Y8205D01*
X26507Y8055D01*
X26301Y8637D02*
X26301Y8449D01*
X26488Y8430D01*
X26469Y8449D01*
X26451Y8487D01*
X26451Y8580D01*
X26469Y8618D01*
X26488Y8637D01*
X26526Y8655D01*
X26619Y8655D01*
X26657Y8637D01*
X26676Y8618D01*
X26694Y8580D01*
X26694Y8487D01*
X26676Y8449D01*
X26657Y8430D01*
X26488Y9947D02*
X26507Y10003D01*
X26526Y10022D01*
X26563Y10041D01*
X26619Y10041D01*
X26657Y10022D01*
X26676Y10003D01*
X26694Y9966D01*
X26694Y9816D01*
X26301Y9816D01*
X26301Y9947D01*
X26319Y9985D01*
X26338Y10003D01*
X26376Y10022D01*
X26413Y10022D01*
X26451Y10003D01*
X26469Y9985D01*
X26488Y9947D01*
X26488Y9816D01*
X26301Y10153D02*
X26301Y10378D01*
X26694Y10266D02*
X26301Y10266D01*
X26694Y10509D02*
X26301Y10509D01*
X26694Y10734D01*
X26301Y10734D01*
M02*
