G04 (created by PCBNEW (2013-07-07 BZR 4022)-stable) date 2015-02-26 23:16:54*
%MOIN*%
G04 Gerber Fmt 3.4, Leading zero omitted, Abs format*
%FSLAX34Y34*%
G01*
G70*
G90*
G04 APERTURE LIST*
%ADD10C,0.00629921*%
%ADD11C,0.07*%
%ADD12R,0.07X0.07*%
%ADD13R,0.055X0.055*%
%ADD14C,0.055*%
%ADD15R,0.035X0.055*%
%ADD16R,0.055X0.035*%
%ADD17R,0.025X0.05*%
%ADD18R,0.144X0.08*%
%ADD19R,0.04X0.08*%
%ADD20R,0.0787X0.0177*%
%ADD21R,0.0177X0.0787*%
%ADD22R,0.019685X0.0393701*%
%ADD23O,0.0314961X0.0472441*%
%ADD24C,0.1969*%
%ADD25R,0.06X0.08*%
%ADD26R,0.08X0.06*%
%ADD27R,0.0590551X0.0590551*%
%ADD28C,0.0590551*%
%ADD29O,0.0472441X0.0314961*%
%ADD30C,0.0591*%
%ADD31R,0.0591X0.0591*%
%ADD32C,0.0472*%
%ADD33C,0.0354331*%
%ADD34C,0.011811*%
%ADD35C,0.019685*%
%ADD36C,0.01*%
G04 APERTURE END LIST*
G54D10*
G54D11*
X10275Y4732D03*
G54D12*
X10275Y8732D03*
G54D11*
X19716Y13976D03*
G54D12*
X15716Y13976D03*
G54D13*
X15397Y12082D03*
G54D14*
X16397Y12082D03*
X17397Y12082D03*
X18397Y12082D03*
X19397Y12082D03*
X20397Y12082D03*
X21397Y12082D03*
X22397Y12082D03*
X22397Y15082D03*
X21397Y15082D03*
X20397Y15082D03*
X19397Y15082D03*
X18397Y15082D03*
X17397Y15082D03*
X16397Y15082D03*
X15397Y15082D03*
G54D15*
X609Y12992D03*
X1359Y12992D03*
X9585Y2677D03*
X10335Y2677D03*
X12420Y12204D03*
X13170Y12204D03*
X8445Y2952D03*
X7695Y2952D03*
X18325Y10039D03*
X19075Y10039D03*
X18325Y9055D03*
X19075Y9055D03*
G54D16*
X24173Y12776D03*
X24173Y12026D03*
X6338Y7914D03*
X6338Y7164D03*
G54D15*
X5727Y5708D03*
X6477Y5708D03*
X1771Y14763D03*
X2521Y14763D03*
X15808Y6141D03*
X15058Y6141D03*
X4349Y5708D03*
X5099Y5708D03*
X15058Y7637D03*
X15808Y7637D03*
X15808Y6889D03*
X15058Y6889D03*
X23217Y3444D03*
X23967Y3444D03*
G54D16*
X14094Y4113D03*
X14094Y4863D03*
X13228Y4113D03*
X13228Y4863D03*
G54D15*
X12973Y14763D03*
X12223Y14763D03*
X24784Y10039D03*
X24034Y10039D03*
X24784Y9251D03*
X24034Y9251D03*
X15058Y5393D03*
X15808Y5393D03*
X12420Y12992D03*
X13170Y12992D03*
G54D16*
X25944Y14745D03*
X25944Y13995D03*
X24173Y14745D03*
X24173Y13995D03*
G54D15*
X11201Y14763D03*
X10451Y14763D03*
X11595Y12204D03*
X10845Y12204D03*
X10058Y12992D03*
X10808Y12992D03*
X5099Y4921D03*
X4349Y4921D03*
X8839Y14763D03*
X8089Y14763D03*
X7695Y12204D03*
X8445Y12204D03*
X2146Y12185D03*
X1396Y12185D03*
G54D16*
X26023Y4506D03*
X26023Y5256D03*
X26023Y6595D03*
X26023Y5845D03*
G54D15*
X6477Y14763D03*
X5727Y14763D03*
X5333Y12204D03*
X6083Y12204D03*
X5333Y12992D03*
X6083Y12992D03*
X4349Y4133D03*
X5099Y4133D03*
X18562Y6929D03*
X19312Y6929D03*
X4115Y14763D03*
X3365Y14763D03*
X2971Y12204D03*
X3721Y12204D03*
X2971Y12992D03*
X3721Y12992D03*
G54D16*
X25944Y12776D03*
X25944Y12026D03*
G54D15*
X6121Y9055D03*
X6871Y9055D03*
X7695Y12992D03*
X8445Y12992D03*
G54D17*
X4053Y9052D03*
X4553Y9052D03*
X5053Y9052D03*
X5553Y9052D03*
X5553Y6852D03*
X5053Y6852D03*
X4553Y6852D03*
X4053Y6852D03*
G54D18*
X12834Y8386D03*
G54D19*
X12834Y5786D03*
X11934Y5786D03*
X13734Y5786D03*
G54D20*
X23195Y4123D03*
X23195Y4438D03*
X23195Y4753D03*
X23195Y5068D03*
X23195Y5383D03*
X23195Y5698D03*
X23195Y6013D03*
X23195Y6328D03*
X19429Y6326D03*
X19429Y4116D03*
X19429Y4436D03*
X19429Y4756D03*
X19429Y5066D03*
X19429Y5386D03*
X19429Y5696D03*
X19429Y6016D03*
G54D21*
X22411Y7116D03*
X22097Y7116D03*
X21781Y7116D03*
X21467Y7116D03*
X21151Y7116D03*
X20837Y7116D03*
X20521Y7116D03*
X20207Y7116D03*
X22409Y3336D03*
X22099Y3336D03*
X21779Y3336D03*
X21469Y3336D03*
X21159Y3336D03*
X20839Y3336D03*
X20519Y3336D03*
X20199Y3336D03*
G54D22*
X15708Y1653D03*
X16023Y1653D03*
X16338Y1653D03*
X20551Y9055D03*
X20866Y9055D03*
X21181Y9055D03*
X20551Y10039D03*
X20866Y10039D03*
X21181Y10039D03*
G54D23*
X9015Y8818D03*
X8425Y8622D03*
X7834Y8818D03*
G54D24*
X1181Y16535D03*
X26377Y16535D03*
X26377Y1181D03*
X1181Y1181D03*
G54D25*
X13129Y2874D03*
X14429Y2874D03*
G54D26*
X12037Y4114D03*
X12037Y2814D03*
G54D16*
X20866Y2146D03*
X20866Y1396D03*
G54D27*
X3937Y16929D03*
G54D28*
X4937Y16929D03*
X5937Y16929D03*
X6937Y16929D03*
X7937Y16929D03*
X8937Y16929D03*
G54D27*
X12598Y16929D03*
G54D28*
X13598Y16929D03*
X14598Y16929D03*
X15598Y16929D03*
X16598Y16929D03*
X17598Y16929D03*
X18598Y16929D03*
X19598Y16929D03*
X20598Y16929D03*
X21598Y16929D03*
X22598Y16929D03*
X23598Y16929D03*
G54D29*
X26732Y12795D03*
X26535Y13385D03*
X26732Y13976D03*
G54D23*
X12401Y13779D03*
X12992Y13976D03*
X13582Y13779D03*
X12401Y11220D03*
X12992Y11417D03*
X13582Y11220D03*
G54D29*
X24960Y12795D03*
X24763Y13385D03*
X24960Y13976D03*
G54D23*
X10039Y13779D03*
X10629Y13976D03*
X11220Y13779D03*
X7677Y13779D03*
X8267Y13976D03*
X8858Y13779D03*
X7677Y11220D03*
X8267Y11417D03*
X8858Y11220D03*
X5314Y13779D03*
X5905Y13976D03*
X6496Y13779D03*
X5314Y11220D03*
X5905Y11417D03*
X6496Y11220D03*
X2952Y13779D03*
X3543Y13976D03*
X4133Y13779D03*
X2952Y11220D03*
X3543Y11417D03*
X4133Y11220D03*
X590Y13779D03*
X1181Y13976D03*
X1771Y13779D03*
X10039Y11220D03*
X10629Y11417D03*
X11220Y11220D03*
X590Y11220D03*
X1181Y11417D03*
X1771Y11220D03*
G54D30*
X7677Y4511D03*
G54D31*
X7677Y6511D03*
X3385Y5984D03*
G54D30*
X3385Y4016D03*
X2165Y7913D03*
G54D31*
X2165Y9409D03*
G54D11*
X5645Y1732D03*
X4645Y1732D03*
G54D12*
X3645Y1732D03*
G54D32*
X7976Y1929D03*
X8976Y1929D03*
X9976Y1929D03*
G54D14*
X25334Y6236D03*
X25334Y4236D03*
G54D27*
X23287Y1850D03*
G54D28*
X22287Y1850D03*
G54D27*
X21850Y9055D03*
G54D28*
X21850Y10055D03*
G54D27*
X16811Y5551D03*
G54D28*
X16811Y6551D03*
G54D27*
X12066Y1781D03*
G54D28*
X13066Y1781D03*
G54D27*
X23287Y846D03*
G54D28*
X22287Y846D03*
G54D27*
X19881Y9055D03*
G54D28*
X19881Y10055D03*
G54D27*
X17007Y787D03*
G54D28*
X16007Y787D03*
G54D27*
X787Y3346D03*
G54D28*
X787Y4346D03*
G54D27*
X17519Y4212D03*
G54D28*
X17519Y3212D03*
X16519Y4212D03*
X16519Y3212D03*
X15519Y4212D03*
X15519Y3212D03*
G54D13*
X18397Y1114D03*
G54D14*
X19397Y1114D03*
X19397Y2114D03*
G54D27*
X25590Y10826D03*
G54D28*
X25590Y9826D03*
X25590Y8826D03*
X25590Y7826D03*
G54D33*
X23307Y7125D03*
X21850Y4645D03*
X21220Y4370D03*
X20669Y4015D03*
X16653Y16220D03*
X7204Y7578D03*
X5039Y8346D03*
X21466Y6437D03*
X21259Y8228D03*
X17687Y11190D03*
X17677Y9074D03*
X17893Y7283D03*
X16732Y7283D03*
X20275Y1377D03*
X2559Y12194D03*
X12047Y12204D03*
X25433Y5275D03*
X24498Y3444D03*
X20885Y6053D03*
X10314Y3346D03*
X3740Y4921D03*
X14527Y6929D03*
X7086Y12204D03*
X4724Y12204D03*
G54D34*
X2521Y14763D02*
X2521Y15513D01*
X2521Y15513D02*
X3937Y16929D01*
X4937Y16929D02*
X4937Y16354D01*
X3365Y15373D02*
X3365Y14763D01*
X3740Y15748D02*
X3365Y15373D01*
X4330Y15748D02*
X3740Y15748D01*
X4937Y16354D02*
X4330Y15748D01*
X5937Y16929D02*
X5727Y16719D01*
X5727Y16719D02*
X5727Y14763D01*
X6937Y16929D02*
X6937Y15503D01*
X7677Y14763D02*
X8089Y14763D01*
X6937Y15503D02*
X7677Y14763D01*
X7937Y16929D02*
X7937Y16275D01*
X9664Y15551D02*
X10451Y14763D01*
X8661Y15551D02*
X9664Y15551D01*
X7937Y16275D02*
X8661Y15551D01*
X8937Y16929D02*
X10058Y16929D01*
X10058Y16929D02*
X12223Y14763D01*
X19429Y4756D02*
X18767Y4756D01*
X17972Y5551D02*
X16811Y5551D01*
X18767Y4756D02*
X17972Y5551D01*
X16811Y5551D02*
X16653Y5393D01*
X16653Y5393D02*
X15808Y5393D01*
X15808Y5393D02*
X15808Y6141D01*
X16811Y6551D02*
X17394Y6551D01*
X18249Y5696D02*
X19429Y5696D01*
X17394Y6551D02*
X18249Y5696D01*
X16811Y6551D02*
X16472Y6889D01*
X16472Y6889D02*
X15808Y6889D01*
X15808Y6889D02*
X15808Y7637D01*
X15863Y6944D02*
X15808Y6889D01*
X13734Y5786D02*
X13734Y5517D01*
X14094Y5157D02*
X14094Y4863D01*
X13734Y5517D02*
X14094Y5157D01*
X13228Y4863D02*
X14094Y4863D01*
X1771Y14763D02*
X1771Y13779D01*
X4115Y14763D02*
X4115Y13798D01*
X4115Y13798D02*
X4133Y13779D01*
X6477Y14763D02*
X6477Y13798D01*
X6477Y13798D02*
X6496Y13779D01*
X8839Y14763D02*
X8839Y13798D01*
X8839Y13798D02*
X8858Y13779D01*
X11201Y14763D02*
X11201Y13798D01*
X11201Y13798D02*
X11220Y13779D01*
X12973Y14763D02*
X13385Y14763D01*
X13582Y14566D02*
X13582Y13779D01*
X13385Y14763D02*
X13582Y14566D01*
X22411Y7116D02*
X22707Y7116D01*
X24488Y10039D02*
X24784Y10039D01*
X24409Y9960D02*
X24488Y10039D01*
X24409Y8818D02*
X24409Y9960D01*
X22707Y7116D02*
X24409Y8818D01*
X24784Y10039D02*
X25377Y10039D01*
X25377Y10039D02*
X25590Y9826D01*
X23228Y7125D02*
X23307Y7125D01*
X23195Y6013D02*
X22647Y6013D01*
X22559Y6102D02*
X22647Y6013D01*
X22559Y6456D02*
X22559Y6102D01*
X22559Y6456D02*
X23228Y7125D01*
X22381Y3363D02*
X22381Y4114D01*
X22381Y4114D02*
X21850Y4645D01*
X22409Y3336D02*
X22381Y3363D01*
X22099Y3336D02*
X22099Y3845D01*
X21574Y4370D02*
X21220Y4370D01*
X22099Y3845D02*
X21574Y4370D01*
X21779Y3336D02*
X21779Y3850D01*
X21614Y4015D02*
X20669Y4015D01*
X21779Y3850D02*
X21614Y4015D01*
G54D35*
X16023Y1653D02*
X16007Y1637D01*
X16007Y1637D02*
X16007Y787D01*
G54D34*
X19397Y1114D02*
X20430Y2146D01*
X20430Y2146D02*
X20866Y2146D01*
X20839Y3336D02*
X20866Y3309D01*
X20866Y3309D02*
X20866Y2146D01*
X23195Y6328D02*
X23848Y6328D01*
X24784Y7264D02*
X24784Y9251D01*
X23848Y6328D02*
X24784Y7264D01*
X24784Y9251D02*
X25165Y9251D01*
X25165Y9251D02*
X25590Y8826D01*
X15397Y15082D02*
X13785Y15082D01*
X12598Y16269D02*
X12598Y16929D01*
X13785Y15082D02*
X12598Y16269D01*
X13598Y16929D02*
X14513Y16013D01*
X16397Y15078D02*
X16397Y15082D01*
X15462Y16013D02*
X16397Y15078D01*
X14513Y16013D02*
X15462Y16013D01*
X16598Y16929D02*
X18397Y15129D01*
X18397Y15129D02*
X18397Y15082D01*
X16653Y15826D02*
X17397Y15082D01*
X16653Y16220D02*
X16653Y15826D01*
X18598Y16929D02*
X18598Y16881D01*
X18598Y16881D02*
X20397Y15082D01*
X19598Y16929D02*
X19598Y16881D01*
X19598Y16881D02*
X21397Y15082D01*
X15716Y13976D02*
X15716Y13732D01*
X15716Y13732D02*
X16102Y13346D01*
X15716Y13976D02*
X15748Y13944D01*
X20598Y16929D02*
X21779Y15748D01*
X21779Y15748D02*
X22637Y15748D01*
X22637Y15748D02*
X23031Y15354D01*
X23031Y15354D02*
X23031Y13385D01*
X23031Y13385D02*
X22992Y13346D01*
X22992Y13346D02*
X16102Y13346D01*
X15397Y12641D02*
X15397Y12082D01*
X16102Y13346D02*
X15397Y12641D01*
X21598Y16929D02*
X21598Y16944D01*
X17326Y13011D02*
X16397Y12082D01*
X23102Y13011D02*
X17326Y13011D01*
X23346Y13255D02*
X23102Y13011D01*
X23346Y15580D02*
X23346Y13255D01*
X22739Y16187D02*
X23346Y15580D01*
X22356Y16187D02*
X22739Y16187D01*
X21598Y16944D02*
X22356Y16187D01*
X22598Y16929D02*
X24173Y15354D01*
X24173Y15354D02*
X24173Y14745D01*
X24763Y13385D02*
X24173Y12795D01*
X24173Y12795D02*
X24173Y12776D01*
X24173Y13995D02*
X24191Y13976D01*
X24191Y13976D02*
X24960Y13976D01*
X23598Y16929D02*
X24881Y15645D01*
X25215Y14745D02*
X25944Y14745D01*
X24881Y15078D02*
X25215Y14745D01*
X24881Y15645D02*
X24881Y15078D01*
X25944Y12776D02*
X26535Y13367D01*
X26535Y13367D02*
X26535Y13385D01*
X26732Y13976D02*
X26713Y13995D01*
X26713Y13995D02*
X25944Y13995D01*
X4553Y6852D02*
X4553Y6470D01*
X5099Y5924D02*
X5099Y5708D01*
X4553Y6470D02*
X5099Y5924D01*
X5727Y5708D02*
X5099Y5708D01*
X8976Y7480D02*
X8976Y8070D01*
X8976Y8070D02*
X8425Y8622D01*
X8976Y1929D02*
X8976Y7480D01*
X8976Y7480D02*
X8976Y7559D01*
X6338Y7164D02*
X6790Y7164D01*
X6790Y7164D02*
X7204Y7578D01*
X5553Y6852D02*
X5864Y7164D01*
X5864Y7164D02*
X6338Y7164D01*
X5039Y8346D02*
X5039Y9038D01*
X5039Y9038D02*
X5053Y9052D01*
X5099Y4921D02*
X5099Y4133D01*
X9585Y2677D02*
X9585Y2319D01*
X9585Y2319D02*
X9976Y1929D01*
X7695Y2952D02*
X7695Y2209D01*
X7695Y2209D02*
X7976Y1929D01*
X5053Y6852D02*
X5053Y6364D01*
X6456Y6220D02*
X6477Y6199D01*
X5196Y6220D02*
X6456Y6220D01*
X5053Y6364D02*
X5196Y6220D01*
X6121Y9055D02*
X6121Y8603D01*
X6121Y8603D02*
X6318Y8405D01*
X6318Y8405D02*
X7185Y8405D01*
X7185Y8405D02*
X7716Y7874D01*
X7716Y7874D02*
X7716Y7244D01*
X7716Y7244D02*
X7500Y7027D01*
X7500Y7027D02*
X7263Y7027D01*
X7263Y7027D02*
X6477Y6241D01*
X6477Y6241D02*
X6477Y6199D01*
X6477Y6199D02*
X6477Y5708D01*
X4553Y9052D02*
X4553Y9198D01*
X6121Y9233D02*
X6121Y9055D01*
X5826Y9527D02*
X6121Y9233D01*
X4881Y9527D02*
X5826Y9527D01*
X4553Y9198D02*
X4881Y9527D01*
X5039Y6838D02*
X5053Y6852D01*
G54D35*
X3228Y7913D02*
X2165Y7913D01*
X11934Y5786D02*
X11934Y4217D01*
X11934Y4217D02*
X12037Y4114D01*
X11181Y1496D02*
X11181Y3730D01*
X10393Y708D02*
X11181Y1496D01*
X11565Y4114D02*
X12037Y4114D01*
X11181Y3730D02*
X11565Y4114D01*
X3385Y5984D02*
X3385Y5937D01*
X3385Y5937D02*
X1795Y4346D01*
X5553Y9052D02*
X5553Y7913D01*
X5553Y7913D02*
X5551Y7913D01*
X4053Y6004D02*
X4032Y5984D01*
X4032Y5984D02*
X3385Y5984D01*
X6338Y7914D02*
X6337Y7913D01*
X6337Y7913D02*
X5551Y7913D01*
X5551Y7913D02*
X3228Y7913D01*
X3228Y7913D02*
X3228Y6141D01*
X3228Y6141D02*
X3385Y5984D01*
X4349Y5708D02*
X4053Y6004D01*
X4053Y6004D02*
X4053Y6852D01*
X10393Y708D02*
X14783Y708D01*
X15712Y1637D02*
X15708Y1653D01*
X14783Y708D02*
X15712Y1637D01*
X787Y4346D02*
X1795Y4346D01*
X3425Y708D02*
X10393Y708D01*
X1795Y4346D02*
X2637Y3503D01*
X2637Y3503D02*
X2637Y1496D01*
X2637Y1496D02*
X3425Y708D01*
G54D34*
X10275Y4732D02*
X10826Y4181D01*
X5314Y1062D02*
X4645Y1732D01*
X10246Y1062D02*
X5314Y1062D01*
X10826Y1642D02*
X10246Y1062D01*
X10826Y4181D02*
X10826Y1642D01*
X4645Y1732D02*
X4645Y2716D01*
X4349Y3012D02*
X4349Y4133D01*
X4645Y2716D02*
X4349Y3012D01*
X4349Y4133D02*
X3503Y4133D01*
X3503Y4133D02*
X3385Y4016D01*
X26633Y4350D02*
X25019Y2736D01*
X24173Y12026D02*
X24585Y11614D01*
X26102Y11614D02*
X24585Y11614D01*
X26633Y11082D02*
X26633Y4350D01*
X26102Y11614D02*
X26633Y11082D01*
X25019Y2736D02*
X21614Y2736D01*
X21469Y2881D02*
X21614Y2736D01*
X21469Y3336D02*
X21469Y2881D01*
X20199Y3336D02*
X18395Y3336D01*
X18395Y3336D02*
X17519Y4212D01*
X20519Y3336D02*
X20519Y2802D01*
X17133Y2598D02*
X16519Y3212D01*
X20314Y2598D02*
X17133Y2598D01*
X20519Y2802D02*
X20314Y2598D01*
X590Y11220D02*
X590Y11436D01*
X590Y11436D02*
X1359Y12204D01*
X3721Y12204D02*
X2952Y11436D01*
X2952Y11436D02*
X2952Y11220D01*
X5314Y11220D02*
X5314Y11436D01*
X5314Y11436D02*
X6083Y12204D01*
X7677Y11220D02*
X7677Y11436D01*
X7677Y11436D02*
X8445Y12204D01*
X10039Y11220D02*
X10039Y11436D01*
X10039Y11436D02*
X10808Y12204D01*
X12401Y11436D02*
X13170Y12204D01*
X12401Y11220D02*
X12401Y11436D01*
X1181Y13976D02*
X1181Y13582D01*
X1359Y13404D02*
X1359Y12992D01*
X1181Y13582D02*
X1359Y13404D01*
X1771Y11220D02*
X1771Y12579D01*
X1771Y12579D02*
X1359Y12992D01*
X3543Y13976D02*
X3543Y13582D01*
X3721Y13404D02*
X3721Y12992D01*
X3543Y13582D02*
X3721Y13404D01*
X4133Y11220D02*
X4133Y12579D01*
X4133Y12579D02*
X3721Y12992D01*
X5905Y13976D02*
X5905Y13582D01*
X6083Y13404D02*
X6083Y12992D01*
X5905Y13582D02*
X6083Y13404D01*
X6496Y11220D02*
X6496Y12579D01*
X6496Y12579D02*
X6083Y12992D01*
X8267Y13976D02*
X8267Y13582D01*
X8445Y13404D02*
X8445Y12992D01*
X8267Y13582D02*
X8445Y13404D01*
X8858Y11220D02*
X8858Y12579D01*
X8858Y12579D02*
X8445Y12992D01*
X10629Y13976D02*
X10629Y13582D01*
X10808Y13404D02*
X10808Y12992D01*
X10629Y13582D02*
X10808Y13404D01*
X11220Y11220D02*
X11220Y12579D01*
X11220Y12579D02*
X10808Y12992D01*
X12992Y13976D02*
X12992Y13582D01*
X13170Y13404D02*
X13170Y12992D01*
X12992Y13582D02*
X13170Y13404D01*
X13582Y11220D02*
X13582Y12579D01*
X13582Y12579D02*
X13170Y12992D01*
X25944Y12026D02*
X25996Y12026D01*
X21159Y2876D02*
X21159Y3336D01*
X21515Y2519D02*
X25148Y2519D01*
X21159Y2876D02*
X21515Y2519D01*
X26870Y4241D02*
X25148Y2519D01*
X26870Y11152D02*
X26870Y4241D01*
X25996Y12026D02*
X26870Y11152D01*
X20009Y6525D02*
X21377Y6525D01*
X19606Y6929D02*
X20009Y6525D01*
X19312Y6929D02*
X19606Y6929D01*
X21467Y6437D02*
X21466Y6437D01*
X21467Y6437D02*
X21467Y7116D01*
X21377Y6525D02*
X21466Y6437D01*
X21850Y9055D02*
X21181Y9055D01*
X21850Y9055D02*
X21781Y8985D01*
X21781Y8985D02*
X21781Y7116D01*
X17165Y7948D02*
X15507Y9606D01*
X17165Y7948D02*
X17165Y7086D01*
X17165Y7086D02*
X18235Y6016D01*
X19429Y6016D02*
X18235Y6016D01*
X15507Y9606D02*
X10748Y9606D01*
X1968Y10118D02*
X10236Y10118D01*
X1181Y10905D02*
X1968Y10118D01*
X1181Y10905D02*
X1181Y11417D01*
X10236Y10118D02*
X10748Y9606D01*
X15610Y9842D02*
X10826Y9842D01*
X19429Y6326D02*
X18260Y6326D01*
X17421Y7165D02*
X17421Y8031D01*
X18260Y6326D02*
X17421Y7165D01*
X17421Y8031D02*
X15610Y9842D01*
X4035Y10334D02*
X10334Y10334D01*
X4035Y10334D02*
X3543Y10826D01*
X3543Y10826D02*
X3543Y11417D01*
X10334Y10334D02*
X10826Y9842D01*
X18325Y7460D02*
X15687Y10098D01*
X6417Y10551D02*
X10492Y10551D01*
X5905Y11062D02*
X6417Y10551D01*
X5905Y11062D02*
X5905Y11417D01*
X10492Y10551D02*
X10944Y10098D01*
X10944Y10098D02*
X15687Y10098D01*
X18325Y7460D02*
X20207Y7460D01*
X20207Y7116D02*
X20207Y7460D01*
X15757Y10334D02*
X18414Y7677D01*
X8267Y11417D02*
X8267Y11102D01*
X8582Y10787D02*
X8267Y11102D01*
X10570Y10787D02*
X8582Y10787D01*
X11023Y10334D02*
X10570Y10787D01*
X11023Y10334D02*
X15757Y10334D01*
X18414Y7677D02*
X20393Y7677D01*
X20521Y7549D02*
X20393Y7677D01*
X20521Y7549D02*
X20521Y7116D01*
X11161Y10570D02*
X18562Y10570D01*
X20866Y9389D02*
X20866Y9055D01*
X20728Y9527D02*
X20866Y9389D01*
X18838Y9527D02*
X20728Y9527D01*
X18700Y9665D02*
X18838Y9527D01*
X18700Y10433D02*
X18700Y9665D01*
X18562Y10570D02*
X18700Y10433D01*
X10629Y11417D02*
X10629Y11102D01*
X10629Y11102D02*
X11161Y10570D01*
X12992Y11417D02*
X12992Y11062D01*
X20866Y10551D02*
X20866Y10039D01*
X20629Y10787D02*
X20866Y10551D01*
X13267Y10787D02*
X20629Y10787D01*
X12992Y11062D02*
X13267Y10787D01*
X16519Y4212D02*
X17031Y4724D01*
X18639Y4116D02*
X19429Y4116D01*
X18031Y4724D02*
X18639Y4116D01*
X17031Y4724D02*
X18031Y4724D01*
X21151Y7116D02*
X21151Y8119D01*
X21151Y8119D02*
X21259Y8228D01*
X19881Y10055D02*
X19091Y10055D01*
X19091Y10055D02*
X19075Y10039D01*
X20551Y10039D02*
X19897Y10039D01*
X19897Y10039D02*
X19881Y10055D01*
X20837Y7116D02*
X20837Y8395D01*
X20551Y8681D02*
X20551Y9055D01*
X20837Y8395D02*
X20551Y8681D01*
X19075Y9055D02*
X19881Y9055D01*
X19881Y9055D02*
X20551Y9055D01*
X21850Y10055D02*
X21196Y10055D01*
X21196Y10055D02*
X21181Y10039D01*
X21850Y10055D02*
X22149Y10055D01*
X22097Y8002D02*
X22097Y7116D01*
X22342Y8248D02*
X22097Y8002D01*
X22342Y9862D02*
X22342Y8248D01*
X22149Y10055D02*
X22342Y9862D01*
G54D35*
X17687Y11190D02*
X17677Y11190D01*
X18325Y9055D02*
X18325Y10039D01*
X17696Y9055D02*
X18325Y9055D01*
X17677Y9074D02*
X17696Y9055D01*
X18248Y6929D02*
X17893Y7283D01*
X18248Y6929D02*
X18562Y6929D01*
G54D34*
X25334Y6236D02*
X25000Y5901D01*
X24556Y4438D02*
X23195Y4438D01*
X25000Y4881D02*
X24556Y4438D01*
X25000Y5901D02*
X25000Y4881D01*
X25334Y6236D02*
X25929Y6236D01*
X26023Y6330D02*
X26023Y6595D01*
X25929Y6236D02*
X26023Y6330D01*
X25334Y4236D02*
X25605Y4506D01*
X25605Y4506D02*
X26023Y4506D01*
X23195Y4123D02*
X25221Y4123D01*
X25221Y4123D02*
X25334Y4236D01*
G54D35*
X2165Y9409D02*
X3228Y9409D01*
X3696Y9409D02*
X3228Y9409D01*
X3696Y9409D02*
X4053Y9052D01*
X20866Y1396D02*
X20847Y1377D01*
X20847Y1377D02*
X20275Y1377D01*
X2559Y12194D02*
X2156Y12194D01*
X2156Y12194D02*
X2146Y12185D01*
X2971Y12204D02*
X2568Y12204D01*
X2568Y12204D02*
X2559Y12194D01*
X12066Y1781D02*
X12066Y1338D01*
X14429Y1516D02*
X14429Y2874D01*
X13917Y1003D02*
X14429Y1516D01*
X12401Y1003D02*
X13917Y1003D01*
X12066Y1338D02*
X12401Y1003D01*
X12037Y2814D02*
X12037Y1811D01*
X12037Y1811D02*
X12066Y1781D01*
X14094Y4113D02*
X14094Y3838D01*
X14094Y3838D02*
X14429Y3503D01*
X14429Y3503D02*
X14429Y2874D01*
X15519Y3212D02*
X14768Y3212D01*
X14768Y3212D02*
X14429Y2874D01*
X11595Y12204D02*
X12047Y12204D01*
X12047Y12204D02*
X12420Y12204D01*
X26023Y5256D02*
X26004Y5275D01*
X26004Y5275D02*
X25433Y5275D01*
X26023Y5845D02*
X26023Y5256D01*
X23967Y3444D02*
X24498Y3444D01*
X23195Y5068D02*
X22716Y5068D01*
X22579Y5206D02*
X22579Y5698D01*
X22716Y5068D02*
X22579Y5206D01*
X23195Y5698D02*
X22579Y5698D01*
X19923Y5386D02*
X19429Y5386D01*
X20039Y5501D02*
X19923Y5386D01*
X20039Y5895D02*
X20039Y5501D01*
X20196Y6053D02*
X20039Y5895D01*
X22224Y6053D02*
X20885Y6053D01*
X20885Y6053D02*
X20196Y6053D01*
X22579Y5698D02*
X22224Y6053D01*
X25590Y10826D02*
X24409Y10826D01*
X24034Y10039D02*
X24034Y10451D01*
X24034Y10451D02*
X24409Y10826D01*
X24034Y9251D02*
X24034Y10039D01*
X10335Y2677D02*
X10335Y3325D01*
X10335Y3325D02*
X10314Y3346D01*
G54D34*
X4349Y4921D02*
X3740Y4921D01*
G54D35*
X15058Y6889D02*
X15018Y6929D01*
X15018Y6929D02*
X14527Y6929D01*
X15058Y6889D02*
X15058Y6141D01*
X7695Y12204D02*
X7086Y12204D01*
X5333Y12204D02*
X4724Y12204D01*
X6871Y9055D02*
X7598Y9055D01*
X7598Y9055D02*
X7834Y8818D01*
X7677Y4511D02*
X8445Y3743D01*
X8445Y3743D02*
X8445Y2952D01*
X12420Y12992D02*
X12420Y13760D01*
X12420Y13760D02*
X12401Y13779D01*
X10058Y12992D02*
X10058Y13760D01*
X10058Y13760D02*
X10039Y13779D01*
X7695Y12992D02*
X7695Y13760D01*
X7695Y13760D02*
X7677Y13779D01*
X5333Y12992D02*
X5333Y13760D01*
X5333Y13760D02*
X5314Y13779D01*
X2971Y12992D02*
X2971Y13760D01*
X2971Y13760D02*
X2952Y13779D01*
X609Y12992D02*
X609Y13760D01*
X609Y13760D02*
X590Y13779D01*
G54D10*
G36*
X18619Y6879D02*
X18612Y6879D01*
X18612Y6871D01*
X18512Y6871D01*
X18512Y6879D01*
X18275Y6879D01*
X18238Y6842D01*
X18238Y6683D01*
X18238Y6641D01*
X17628Y7251D01*
X17628Y7863D01*
X18178Y7313D01*
X18178Y7313D01*
X18223Y7283D01*
X18245Y7268D01*
X18245Y7268D01*
X18252Y7267D01*
X18238Y7233D01*
X18238Y7174D01*
X18238Y7016D01*
X18275Y6979D01*
X18512Y6979D01*
X18512Y6987D01*
X18612Y6987D01*
X18612Y6979D01*
X18619Y6979D01*
X18619Y6879D01*
X18619Y6879D01*
G37*
G54D36*
X18619Y6879D02*
X18612Y6879D01*
X18612Y6871D01*
X18512Y6871D01*
X18512Y6879D01*
X18275Y6879D01*
X18238Y6842D01*
X18238Y6683D01*
X18238Y6641D01*
X17628Y7251D01*
X17628Y7863D01*
X18178Y7313D01*
X18178Y7313D01*
X18223Y7283D01*
X18245Y7268D01*
X18245Y7268D01*
X18252Y7267D01*
X18238Y7233D01*
X18238Y7174D01*
X18238Y7016D01*
X18275Y6979D01*
X18512Y6979D01*
X18512Y6987D01*
X18612Y6987D01*
X18612Y6979D01*
X18619Y6979D01*
X18619Y6879D01*
G54D10*
G36*
X20629Y7734D02*
X20540Y7823D01*
X20473Y7868D01*
X20393Y7884D01*
X18649Y7884D01*
X18649Y8809D01*
X18649Y9300D01*
X18649Y9359D01*
X18626Y9414D01*
X18584Y9456D01*
X18530Y9478D01*
X18412Y9478D01*
X18375Y9441D01*
X18375Y9105D01*
X18612Y9105D01*
X18649Y9142D01*
X18649Y9300D01*
X18649Y8809D01*
X18649Y8968D01*
X18612Y9005D01*
X18375Y9005D01*
X18375Y8668D01*
X18412Y8631D01*
X18530Y8631D01*
X18584Y8654D01*
X18626Y8695D01*
X18649Y8750D01*
X18649Y8809D01*
X18649Y7884D01*
X18500Y7884D01*
X18275Y8109D01*
X18275Y8668D01*
X18275Y9005D01*
X18275Y9105D01*
X18275Y9441D01*
X18275Y9653D01*
X18275Y9989D01*
X18039Y9989D01*
X18002Y9952D01*
X18002Y9793D01*
X18002Y9734D01*
X18025Y9680D01*
X18066Y9638D01*
X18121Y9615D01*
X18238Y9615D01*
X18275Y9653D01*
X18275Y9441D01*
X18238Y9478D01*
X18121Y9478D01*
X18066Y9456D01*
X18025Y9414D01*
X18002Y9359D01*
X18002Y9300D01*
X18002Y9142D01*
X18039Y9105D01*
X18275Y9105D01*
X18275Y9005D01*
X18039Y9005D01*
X18002Y8968D01*
X18002Y8809D01*
X18002Y8750D01*
X18025Y8695D01*
X18066Y8654D01*
X18121Y8631D01*
X18238Y8631D01*
X18275Y8668D01*
X18275Y8109D01*
X16021Y10363D01*
X18010Y10363D01*
X18002Y10344D01*
X18002Y10284D01*
X18002Y10126D01*
X18039Y10089D01*
X18275Y10089D01*
X18275Y10097D01*
X18375Y10097D01*
X18375Y10089D01*
X18383Y10089D01*
X18383Y9989D01*
X18375Y9989D01*
X18375Y9653D01*
X18412Y9615D01*
X18503Y9615D01*
X18503Y9615D01*
X18509Y9585D01*
X18554Y9518D01*
X18691Y9380D01*
X18691Y9380D01*
X18736Y9350D01*
X18752Y9340D01*
X18752Y9300D01*
X18752Y8750D01*
X18774Y8696D01*
X18816Y8654D01*
X18871Y8631D01*
X18930Y8631D01*
X19280Y8631D01*
X19334Y8654D01*
X19376Y8695D01*
X19399Y8750D01*
X19399Y8809D01*
X19399Y8847D01*
X19438Y8847D01*
X19438Y8730D01*
X19460Y8675D01*
X19502Y8634D01*
X19556Y8611D01*
X19616Y8611D01*
X20206Y8611D01*
X20261Y8633D01*
X20302Y8675D01*
X20325Y8730D01*
X20325Y8777D01*
X20326Y8774D01*
X20343Y8757D01*
X20343Y8681D01*
X20359Y8601D01*
X20404Y8534D01*
X20629Y8309D01*
X20629Y7734D01*
X20629Y7734D01*
G37*
G54D36*
X20629Y7734D02*
X20540Y7823D01*
X20473Y7868D01*
X20393Y7884D01*
X18649Y7884D01*
X18649Y8809D01*
X18649Y9300D01*
X18649Y9359D01*
X18626Y9414D01*
X18584Y9456D01*
X18530Y9478D01*
X18412Y9478D01*
X18375Y9441D01*
X18375Y9105D01*
X18612Y9105D01*
X18649Y9142D01*
X18649Y9300D01*
X18649Y8809D01*
X18649Y8968D01*
X18612Y9005D01*
X18375Y9005D01*
X18375Y8668D01*
X18412Y8631D01*
X18530Y8631D01*
X18584Y8654D01*
X18626Y8695D01*
X18649Y8750D01*
X18649Y8809D01*
X18649Y7884D01*
X18500Y7884D01*
X18275Y8109D01*
X18275Y8668D01*
X18275Y9005D01*
X18275Y9105D01*
X18275Y9441D01*
X18275Y9653D01*
X18275Y9989D01*
X18039Y9989D01*
X18002Y9952D01*
X18002Y9793D01*
X18002Y9734D01*
X18025Y9680D01*
X18066Y9638D01*
X18121Y9615D01*
X18238Y9615D01*
X18275Y9653D01*
X18275Y9441D01*
X18238Y9478D01*
X18121Y9478D01*
X18066Y9456D01*
X18025Y9414D01*
X18002Y9359D01*
X18002Y9300D01*
X18002Y9142D01*
X18039Y9105D01*
X18275Y9105D01*
X18275Y9005D01*
X18039Y9005D01*
X18002Y8968D01*
X18002Y8809D01*
X18002Y8750D01*
X18025Y8695D01*
X18066Y8654D01*
X18121Y8631D01*
X18238Y8631D01*
X18275Y8668D01*
X18275Y8109D01*
X16021Y10363D01*
X18010Y10363D01*
X18002Y10344D01*
X18002Y10284D01*
X18002Y10126D01*
X18039Y10089D01*
X18275Y10089D01*
X18275Y10097D01*
X18375Y10097D01*
X18375Y10089D01*
X18383Y10089D01*
X18383Y9989D01*
X18375Y9989D01*
X18375Y9653D01*
X18412Y9615D01*
X18503Y9615D01*
X18503Y9615D01*
X18509Y9585D01*
X18554Y9518D01*
X18691Y9380D01*
X18691Y9380D01*
X18736Y9350D01*
X18752Y9340D01*
X18752Y9300D01*
X18752Y8750D01*
X18774Y8696D01*
X18816Y8654D01*
X18871Y8631D01*
X18930Y8631D01*
X19280Y8631D01*
X19334Y8654D01*
X19376Y8695D01*
X19399Y8750D01*
X19399Y8809D01*
X19399Y8847D01*
X19438Y8847D01*
X19438Y8730D01*
X19460Y8675D01*
X19502Y8634D01*
X19556Y8611D01*
X19616Y8611D01*
X20206Y8611D01*
X20261Y8633D01*
X20302Y8675D01*
X20325Y8730D01*
X20325Y8777D01*
X20326Y8774D01*
X20343Y8757D01*
X20343Y8681D01*
X20359Y8601D01*
X20404Y8534D01*
X20629Y8309D01*
X20629Y7734D01*
G54D10*
G36*
X27115Y2412D02*
X27077Y2412D01*
X27077Y4241D01*
X27077Y11152D01*
X27061Y11232D01*
X27061Y11232D01*
X27046Y11254D01*
X27016Y11299D01*
X27016Y11299D01*
X26368Y11947D01*
X26368Y12230D01*
X26345Y12285D01*
X26304Y12327D01*
X26249Y12349D01*
X26190Y12350D01*
X25640Y12350D01*
X25585Y12327D01*
X25544Y12285D01*
X25521Y12231D01*
X25521Y12172D01*
X25521Y11822D01*
X25521Y11821D01*
X24671Y11821D01*
X24596Y11896D01*
X24596Y12230D01*
X24574Y12285D01*
X24532Y12327D01*
X24477Y12349D01*
X24418Y12350D01*
X23868Y12350D01*
X23814Y12327D01*
X23772Y12285D01*
X23749Y12231D01*
X23749Y12172D01*
X23749Y11822D01*
X23772Y11767D01*
X23814Y11725D01*
X23868Y11703D01*
X23927Y11703D01*
X24203Y11703D01*
X24438Y11467D01*
X24438Y11467D01*
X24483Y11437D01*
X24506Y11422D01*
X24506Y11422D01*
X24585Y11406D01*
X26016Y11406D01*
X26426Y10996D01*
X26426Y6849D01*
X26424Y6854D01*
X26382Y6896D01*
X26328Y6918D01*
X26269Y6918D01*
X26039Y6918D01*
X26039Y7770D01*
X26026Y7946D01*
X25983Y8050D01*
X25917Y8082D01*
X25846Y8012D01*
X25846Y8153D01*
X25814Y8219D01*
X25646Y8275D01*
X25470Y8263D01*
X25366Y8219D01*
X25334Y8153D01*
X25590Y7897D01*
X25846Y8153D01*
X25846Y8012D01*
X25661Y7826D01*
X25917Y7570D01*
X25983Y7602D01*
X26039Y7770D01*
X26039Y6918D01*
X25846Y6918D01*
X25846Y7499D01*
X25590Y7756D01*
X25519Y7685D01*
X25519Y7826D01*
X25263Y8082D01*
X25197Y8050D01*
X25141Y7883D01*
X25154Y7707D01*
X25197Y7602D01*
X25263Y7570D01*
X25519Y7826D01*
X25519Y7685D01*
X25334Y7499D01*
X25366Y7433D01*
X25534Y7377D01*
X25710Y7390D01*
X25814Y7433D01*
X25846Y7499D01*
X25846Y6918D01*
X25719Y6918D01*
X25664Y6896D01*
X25622Y6854D01*
X25600Y6800D01*
X25600Y6741D01*
X25600Y6569D01*
X25574Y6594D01*
X25419Y6659D01*
X25250Y6659D01*
X25095Y6595D01*
X24975Y6476D01*
X24911Y6320D01*
X24911Y6152D01*
X24924Y6119D01*
X24853Y6048D01*
X24808Y5980D01*
X24792Y5901D01*
X24792Y4967D01*
X24470Y4646D01*
X23737Y4646D01*
X23737Y4694D01*
X23737Y4672D01*
X23700Y4709D01*
X23245Y4709D01*
X23245Y4695D01*
X23145Y4695D01*
X23145Y4709D01*
X22690Y4709D01*
X22653Y4672D01*
X22653Y4694D01*
X22653Y4635D01*
X22669Y4596D01*
X22653Y4556D01*
X22653Y4497D01*
X22653Y4320D01*
X22669Y4281D01*
X22653Y4241D01*
X22653Y4182D01*
X22653Y4005D01*
X22675Y3951D01*
X22717Y3909D01*
X22772Y3886D01*
X22831Y3886D01*
X23618Y3886D01*
X23672Y3909D01*
X23679Y3916D01*
X25055Y3916D01*
X25094Y3877D01*
X25250Y3812D01*
X25418Y3812D01*
X25574Y3877D01*
X25693Y3996D01*
X25757Y4151D01*
X25758Y4183D01*
X25778Y4183D01*
X26173Y4183D01*
X24933Y2943D01*
X24823Y2943D01*
X24823Y3509D01*
X24774Y3629D01*
X24682Y3720D01*
X24563Y3770D01*
X24433Y3770D01*
X24313Y3721D01*
X24290Y3698D01*
X24290Y3749D01*
X24268Y3803D01*
X24226Y3845D01*
X24172Y3868D01*
X24113Y3868D01*
X23763Y3868D01*
X23708Y3845D01*
X23666Y3804D01*
X23644Y3749D01*
X23644Y3690D01*
X23644Y3140D01*
X23666Y3085D01*
X23708Y3044D01*
X23762Y3021D01*
X23821Y3021D01*
X24171Y3021D01*
X24226Y3043D01*
X24268Y3085D01*
X24290Y3140D01*
X24290Y3191D01*
X24313Y3169D01*
X24432Y3119D01*
X24562Y3119D01*
X24682Y3168D01*
X24773Y3260D01*
X24823Y3379D01*
X24823Y3509D01*
X24823Y2943D01*
X23540Y2943D01*
X23540Y3199D01*
X23540Y3690D01*
X23540Y3749D01*
X23518Y3804D01*
X23476Y3845D01*
X23421Y3868D01*
X23304Y3868D01*
X23267Y3831D01*
X23267Y3494D01*
X23503Y3494D01*
X23540Y3531D01*
X23540Y3690D01*
X23540Y3199D01*
X23540Y3357D01*
X23503Y3394D01*
X23267Y3394D01*
X23267Y3058D01*
X23304Y3021D01*
X23421Y3021D01*
X23476Y3043D01*
X23518Y3085D01*
X23540Y3140D01*
X23540Y3199D01*
X23540Y2943D01*
X23167Y2943D01*
X23167Y3058D01*
X23167Y3394D01*
X23167Y3494D01*
X23167Y3831D01*
X23130Y3868D01*
X23013Y3868D01*
X22958Y3845D01*
X22916Y3804D01*
X22894Y3749D01*
X22894Y3690D01*
X22894Y3531D01*
X22931Y3494D01*
X23167Y3494D01*
X23167Y3394D01*
X22931Y3394D01*
X22894Y3357D01*
X22894Y3199D01*
X22894Y3140D01*
X22916Y3085D01*
X22958Y3043D01*
X23013Y3021D01*
X23130Y3021D01*
X23167Y3058D01*
X23167Y2943D01*
X22646Y2943D01*
X22646Y2972D01*
X22646Y3759D01*
X22623Y3814D01*
X22589Y3848D01*
X22589Y4114D01*
X22573Y4193D01*
X22573Y4193D01*
X22558Y4215D01*
X22528Y4260D01*
X22528Y4260D01*
X22175Y4613D01*
X22176Y4710D01*
X22126Y4829D01*
X22035Y4921D01*
X21915Y4971D01*
X21785Y4971D01*
X21666Y4921D01*
X21574Y4830D01*
X21524Y4710D01*
X21524Y4581D01*
X21526Y4577D01*
X21473Y4577D01*
X21405Y4645D01*
X21285Y4695D01*
X21155Y4695D01*
X21036Y4646D01*
X20944Y4554D01*
X20894Y4435D01*
X20894Y4305D01*
X20928Y4223D01*
X20922Y4223D01*
X20853Y4291D01*
X20734Y4341D01*
X20604Y4341D01*
X20485Y4291D01*
X20393Y4200D01*
X20343Y4080D01*
X20343Y3951D01*
X20377Y3868D01*
X20359Y3861D01*
X20317Y3878D01*
X20258Y3878D01*
X20081Y3878D01*
X20026Y3855D01*
X19984Y3814D01*
X19962Y3759D01*
X19962Y3700D01*
X19962Y3544D01*
X18481Y3544D01*
X17963Y4062D01*
X17963Y4499D01*
X18492Y3969D01*
X18492Y3969D01*
X18537Y3939D01*
X18559Y3924D01*
X18559Y3924D01*
X18639Y3909D01*
X18639Y3909D01*
X18944Y3909D01*
X18951Y3902D01*
X19006Y3879D01*
X19065Y3879D01*
X19852Y3879D01*
X19906Y3902D01*
X19948Y3943D01*
X19971Y3998D01*
X19971Y4057D01*
X19971Y4234D01*
X19953Y4276D01*
X19971Y4318D01*
X19971Y4377D01*
X19971Y4355D01*
X19934Y4392D01*
X19479Y4392D01*
X19479Y4378D01*
X19379Y4378D01*
X19379Y4392D01*
X18924Y4392D01*
X18887Y4355D01*
X18887Y4377D01*
X18887Y4324D01*
X18725Y4324D01*
X18178Y4871D01*
X18110Y4916D01*
X18031Y4931D01*
X17031Y4931D01*
X16952Y4916D01*
X16929Y4901D01*
X16884Y4871D01*
X16651Y4638D01*
X16608Y4656D01*
X16431Y4656D01*
X16268Y4588D01*
X16143Y4464D01*
X16076Y4301D01*
X16075Y4124D01*
X16143Y3961D01*
X16268Y3836D01*
X16431Y3768D01*
X16607Y3768D01*
X16770Y3836D01*
X16895Y3960D01*
X16963Y4123D01*
X16963Y4300D01*
X16945Y4344D01*
X17075Y4475D01*
X17075Y3887D01*
X17098Y3833D01*
X17140Y3791D01*
X17194Y3768D01*
X17253Y3768D01*
X17669Y3768D01*
X18249Y3189D01*
X18316Y3144D01*
X18316Y3144D01*
X18395Y3129D01*
X19962Y3129D01*
X19962Y2913D01*
X19984Y2859D01*
X20026Y2817D01*
X20053Y2805D01*
X17968Y2805D01*
X17968Y3156D01*
X17955Y3332D01*
X17912Y3436D01*
X17846Y3468D01*
X17775Y3398D01*
X17775Y3539D01*
X17743Y3605D01*
X17576Y3661D01*
X17399Y3648D01*
X17295Y3605D01*
X17263Y3539D01*
X17519Y3283D01*
X17775Y3539D01*
X17775Y3398D01*
X17590Y3212D01*
X17846Y2956D01*
X17912Y2988D01*
X17968Y3156D01*
X17968Y2805D01*
X17710Y2805D01*
X17743Y2819D01*
X17775Y2885D01*
X17519Y3141D01*
X17448Y3071D01*
X17448Y3212D01*
X17192Y3468D01*
X17126Y3436D01*
X17070Y3268D01*
X17083Y3092D01*
X17126Y2988D01*
X17192Y2956D01*
X17448Y3212D01*
X17448Y3071D01*
X17263Y2885D01*
X17295Y2819D01*
X17336Y2805D01*
X17219Y2805D01*
X16945Y3080D01*
X16963Y3123D01*
X16963Y3300D01*
X16896Y3463D01*
X16771Y3588D01*
X16608Y3656D01*
X16431Y3656D01*
X16268Y3588D01*
X16143Y3464D01*
X16076Y3301D01*
X16075Y3124D01*
X16143Y2961D01*
X16268Y2836D01*
X16431Y2768D01*
X16607Y2768D01*
X16651Y2787D01*
X16987Y2451D01*
X17054Y2406D01*
X17054Y2406D01*
X17133Y2390D01*
X19075Y2390D01*
X19038Y2354D01*
X18974Y2198D01*
X18974Y2030D01*
X19038Y1874D01*
X19157Y1755D01*
X19313Y1690D01*
X19481Y1690D01*
X19637Y1755D01*
X19756Y1874D01*
X19820Y2029D01*
X19821Y2198D01*
X19756Y2353D01*
X19719Y2390D01*
X20314Y2390D01*
X20394Y2406D01*
X20394Y2406D01*
X20461Y2451D01*
X20658Y2648D01*
X20658Y2470D01*
X20561Y2470D01*
X20507Y2447D01*
X20465Y2405D01*
X20443Y2354D01*
X20430Y2354D01*
X20350Y2338D01*
X20283Y2293D01*
X19514Y1524D01*
X19482Y1537D01*
X19313Y1537D01*
X19158Y1473D01*
X19038Y1354D01*
X18974Y1198D01*
X18974Y1030D01*
X19038Y874D01*
X19157Y755D01*
X19313Y690D01*
X19481Y690D01*
X19637Y755D01*
X19756Y874D01*
X19820Y1029D01*
X19821Y1198D01*
X19807Y1230D01*
X19949Y1373D01*
X19949Y1313D01*
X19999Y1193D01*
X20090Y1102D01*
X20210Y1052D01*
X20340Y1052D01*
X20459Y1101D01*
X20480Y1122D01*
X20506Y1095D01*
X20561Y1073D01*
X20620Y1073D01*
X21170Y1073D01*
X21225Y1095D01*
X21266Y1137D01*
X21289Y1192D01*
X21289Y1251D01*
X21289Y1601D01*
X21267Y1655D01*
X21225Y1697D01*
X21170Y1720D01*
X21111Y1720D01*
X20561Y1720D01*
X20507Y1697D01*
X20465Y1655D01*
X20463Y1650D01*
X20460Y1653D01*
X20340Y1703D01*
X20280Y1703D01*
X20465Y1888D01*
X20465Y1887D01*
X20506Y1845D01*
X20561Y1823D01*
X20620Y1823D01*
X21170Y1823D01*
X21225Y1845D01*
X21266Y1887D01*
X21289Y1942D01*
X21289Y2001D01*
X21289Y2351D01*
X21267Y2405D01*
X21225Y2447D01*
X21170Y2470D01*
X21111Y2470D01*
X21073Y2470D01*
X21073Y2668D01*
X21369Y2372D01*
X21369Y2372D01*
X21414Y2342D01*
X21436Y2327D01*
X21436Y2327D01*
X21515Y2312D01*
X25148Y2312D01*
X25228Y2327D01*
X25228Y2327D01*
X25295Y2372D01*
X27016Y4094D01*
X27061Y4161D01*
X27061Y4161D01*
X27077Y4241D01*
X27077Y2412D01*
X25766Y2412D01*
X25146Y1792D01*
X25146Y443D01*
X23685Y443D01*
X23708Y466D01*
X23731Y521D01*
X23731Y580D01*
X23731Y1171D01*
X23731Y1584D01*
X23731Y2175D01*
X23708Y2229D01*
X23666Y2271D01*
X23612Y2294D01*
X23553Y2294D01*
X22962Y2294D01*
X22908Y2271D01*
X22866Y2229D01*
X22843Y2175D01*
X22843Y2116D01*
X22843Y1525D01*
X22866Y1471D01*
X22907Y1429D01*
X22962Y1406D01*
X23021Y1406D01*
X23612Y1406D01*
X23666Y1429D01*
X23708Y1470D01*
X23731Y1525D01*
X23731Y1584D01*
X23731Y1171D01*
X23708Y1225D01*
X23666Y1267D01*
X23612Y1290D01*
X23553Y1290D01*
X22962Y1290D01*
X22908Y1267D01*
X22866Y1225D01*
X22843Y1171D01*
X22843Y1112D01*
X22843Y521D01*
X22866Y467D01*
X22889Y443D01*
X22736Y443D01*
X22736Y790D01*
X22736Y1794D01*
X22723Y1970D01*
X22680Y2074D01*
X22614Y2106D01*
X22543Y2035D01*
X22543Y2177D01*
X22511Y2243D01*
X22343Y2299D01*
X22167Y2286D01*
X22063Y2243D01*
X22031Y2177D01*
X22287Y1921D01*
X22543Y2177D01*
X22543Y2035D01*
X22358Y1850D01*
X22614Y1594D01*
X22680Y1626D01*
X22736Y1794D01*
X22736Y790D01*
X22723Y966D01*
X22680Y1070D01*
X22614Y1102D01*
X22543Y1031D01*
X22543Y1173D01*
X22543Y1523D01*
X22287Y1779D01*
X22216Y1708D01*
X22216Y1850D01*
X21960Y2106D01*
X21894Y2074D01*
X21838Y1906D01*
X21851Y1730D01*
X21894Y1626D01*
X21960Y1594D01*
X22216Y1850D01*
X22216Y1708D01*
X22031Y1523D01*
X22063Y1457D01*
X22231Y1401D01*
X22407Y1414D01*
X22511Y1457D01*
X22543Y1523D01*
X22543Y1173D01*
X22511Y1239D01*
X22343Y1295D01*
X22167Y1282D01*
X22063Y1239D01*
X22031Y1173D01*
X22287Y917D01*
X22543Y1173D01*
X22543Y1031D01*
X22358Y846D01*
X22614Y590D01*
X22680Y622D01*
X22736Y790D01*
X22736Y443D01*
X22488Y443D01*
X22511Y453D01*
X22543Y519D01*
X22287Y775D01*
X22216Y705D01*
X22216Y846D01*
X21960Y1102D01*
X21894Y1070D01*
X21838Y902D01*
X21851Y726D01*
X21894Y622D01*
X21960Y590D01*
X22216Y846D01*
X22216Y705D01*
X22031Y519D01*
X22063Y453D01*
X22092Y443D01*
X18821Y443D01*
X18821Y868D01*
X18821Y1418D01*
X18798Y1473D01*
X18756Y1514D01*
X18702Y1537D01*
X18643Y1537D01*
X18093Y1537D01*
X18038Y1515D01*
X17996Y1473D01*
X17974Y1418D01*
X17974Y1359D01*
X17974Y809D01*
X17996Y755D01*
X18038Y713D01*
X18092Y690D01*
X18152Y690D01*
X18702Y690D01*
X18756Y713D01*
X18798Y754D01*
X18821Y809D01*
X18821Y868D01*
X18821Y443D01*
X17443Y443D01*
X17451Y462D01*
X17451Y521D01*
X17451Y1112D01*
X17429Y1166D01*
X17387Y1208D01*
X17332Y1231D01*
X17273Y1231D01*
X16683Y1231D01*
X16628Y1208D01*
X16586Y1166D01*
X16585Y1163D01*
X16585Y1486D01*
X16585Y1820D01*
X16585Y1880D01*
X16562Y1934D01*
X16520Y1976D01*
X16466Y1998D01*
X16424Y1998D01*
X16387Y1961D01*
X16387Y1703D01*
X16548Y1703D01*
X16585Y1740D01*
X16585Y1820D01*
X16585Y1486D01*
X16585Y1566D01*
X16548Y1603D01*
X16387Y1603D01*
X16387Y1345D01*
X16424Y1308D01*
X16466Y1308D01*
X16520Y1330D01*
X16562Y1372D01*
X16585Y1427D01*
X16585Y1486D01*
X16585Y1163D01*
X16564Y1112D01*
X16564Y1053D01*
X16564Y462D01*
X16572Y443D01*
X16291Y443D01*
X16383Y535D01*
X16451Y698D01*
X16451Y875D01*
X16384Y1038D01*
X16259Y1163D01*
X16254Y1165D01*
X16254Y1310D01*
X16289Y1345D01*
X16289Y1603D01*
X16280Y1603D01*
X16280Y1703D01*
X16289Y1703D01*
X16289Y1961D01*
X16252Y1998D01*
X16210Y1998D01*
X16181Y1986D01*
X16151Y1998D01*
X16092Y1998D01*
X15895Y1998D01*
X15866Y1986D01*
X15836Y1998D01*
X15777Y1998D01*
X15580Y1998D01*
X15526Y1976D01*
X15484Y1934D01*
X15461Y1880D01*
X15461Y1820D01*
X15461Y1736D01*
X14681Y955D01*
X14217Y955D01*
X14604Y1341D01*
X14657Y1421D01*
X14657Y1421D01*
X14676Y1516D01*
X14676Y2325D01*
X14758Y2325D01*
X14813Y2348D01*
X14855Y2389D01*
X14877Y2444D01*
X14877Y2503D01*
X14877Y2965D01*
X15141Y2965D01*
X15143Y2961D01*
X15268Y2836D01*
X15431Y2768D01*
X15607Y2768D01*
X15770Y2836D01*
X15895Y2960D01*
X15963Y3123D01*
X15963Y3300D01*
X15963Y4300D01*
X15896Y4463D01*
X15771Y4588D01*
X15608Y4656D01*
X15431Y4656D01*
X15381Y4635D01*
X15381Y5148D01*
X15381Y5639D01*
X15381Y5698D01*
X15358Y5752D01*
X15343Y5767D01*
X15358Y5782D01*
X15381Y5837D01*
X15381Y5896D01*
X15381Y6446D01*
X15358Y6500D01*
X15343Y6515D01*
X15358Y6530D01*
X15381Y6585D01*
X15381Y6644D01*
X15381Y7194D01*
X15358Y7248D01*
X15343Y7263D01*
X15358Y7278D01*
X15381Y7333D01*
X15381Y7392D01*
X15381Y7883D01*
X15381Y7942D01*
X15358Y7996D01*
X15317Y8038D01*
X15262Y8061D01*
X15145Y8061D01*
X15108Y8024D01*
X15108Y7687D01*
X15344Y7687D01*
X15381Y7724D01*
X15381Y7883D01*
X15381Y7392D01*
X15381Y7550D01*
X15344Y7587D01*
X15108Y7587D01*
X15108Y7579D01*
X15008Y7579D01*
X15008Y7587D01*
X15008Y7687D01*
X15008Y8024D01*
X14970Y8061D01*
X14853Y8061D01*
X14799Y8038D01*
X14757Y7996D01*
X14734Y7942D01*
X14734Y7883D01*
X14734Y7724D01*
X14771Y7687D01*
X15008Y7687D01*
X15008Y7587D01*
X14771Y7587D01*
X14734Y7550D01*
X14734Y7392D01*
X14734Y7333D01*
X14757Y7278D01*
X14772Y7263D01*
X14757Y7248D01*
X14734Y7194D01*
X14734Y7182D01*
X14712Y7204D01*
X14592Y7254D01*
X14463Y7254D01*
X14343Y7205D01*
X14251Y7113D01*
X14202Y6994D01*
X14201Y6864D01*
X14251Y6744D01*
X14342Y6653D01*
X14462Y6603D01*
X14592Y6603D01*
X14711Y6652D01*
X14734Y6675D01*
X14734Y6585D01*
X14757Y6530D01*
X14772Y6515D01*
X14757Y6500D01*
X14734Y6446D01*
X14734Y6387D01*
X14734Y5837D01*
X14757Y5782D01*
X14772Y5767D01*
X14757Y5752D01*
X14734Y5698D01*
X14734Y5639D01*
X14734Y5480D01*
X14771Y5443D01*
X15008Y5443D01*
X15008Y5451D01*
X15108Y5451D01*
X15108Y5443D01*
X15344Y5443D01*
X15381Y5480D01*
X15381Y5639D01*
X15381Y5148D01*
X15381Y5306D01*
X15344Y5343D01*
X15108Y5343D01*
X15108Y5007D01*
X15145Y4970D01*
X15262Y4970D01*
X15317Y4992D01*
X15358Y5034D01*
X15381Y5089D01*
X15381Y5148D01*
X15381Y4635D01*
X15268Y4588D01*
X15143Y4464D01*
X15076Y4301D01*
X15075Y4124D01*
X15143Y3961D01*
X15268Y3836D01*
X15431Y3768D01*
X15607Y3768D01*
X15770Y3836D01*
X15895Y3960D01*
X15963Y4123D01*
X15963Y4300D01*
X15963Y3300D01*
X15896Y3463D01*
X15771Y3588D01*
X15608Y3656D01*
X15431Y3656D01*
X15268Y3588D01*
X15143Y3464D01*
X15141Y3459D01*
X15008Y3459D01*
X15008Y5007D01*
X15008Y5343D01*
X14771Y5343D01*
X14734Y5306D01*
X14734Y5148D01*
X14734Y5089D01*
X14757Y5034D01*
X14799Y4992D01*
X14853Y4970D01*
X14970Y4970D01*
X15008Y5007D01*
X15008Y3459D01*
X14768Y3459D01*
X14676Y3441D01*
X14676Y3503D01*
X14676Y3503D01*
X14676Y3503D01*
X14666Y3550D01*
X14657Y3598D01*
X14657Y3598D01*
X14604Y3678D01*
X14604Y3678D01*
X14461Y3820D01*
X14495Y3854D01*
X14517Y3908D01*
X14517Y3967D01*
X14517Y4317D01*
X14517Y4717D01*
X14517Y5067D01*
X14495Y5122D01*
X14453Y5163D01*
X14399Y5186D01*
X14340Y5186D01*
X14296Y5186D01*
X14288Y5223D01*
X14286Y5236D01*
X14286Y5236D01*
X14241Y5304D01*
X14083Y5462D01*
X14083Y6216D01*
X14060Y6270D01*
X14018Y6312D01*
X13964Y6335D01*
X13905Y6335D01*
X13703Y6335D01*
X13703Y8016D01*
X13703Y8816D01*
X13680Y8870D01*
X13638Y8912D01*
X13584Y8935D01*
X13525Y8935D01*
X12085Y8935D01*
X12030Y8912D01*
X11988Y8870D01*
X11966Y8816D01*
X11966Y8757D01*
X11966Y7957D01*
X11988Y7902D01*
X12030Y7860D01*
X12084Y7838D01*
X12144Y7838D01*
X13584Y7838D01*
X13638Y7860D01*
X13680Y7902D01*
X13703Y7956D01*
X13703Y8016D01*
X13703Y6335D01*
X13505Y6335D01*
X13450Y6312D01*
X13408Y6270D01*
X13386Y6216D01*
X13386Y6157D01*
X13386Y5357D01*
X13408Y5302D01*
X13450Y5260D01*
X13504Y5238D01*
X13564Y5238D01*
X13720Y5238D01*
X13777Y5181D01*
X13735Y5164D01*
X13693Y5122D01*
X13672Y5070D01*
X13650Y5070D01*
X13629Y5122D01*
X13587Y5163D01*
X13532Y5186D01*
X13473Y5186D01*
X13183Y5186D01*
X13183Y5416D01*
X13183Y6157D01*
X13183Y6216D01*
X13160Y6270D01*
X13118Y6312D01*
X13064Y6335D01*
X12921Y6335D01*
X12884Y6297D01*
X12884Y5836D01*
X13145Y5836D01*
X13183Y5873D01*
X13183Y6157D01*
X13183Y5416D01*
X13183Y5699D01*
X13145Y5736D01*
X12884Y5736D01*
X12884Y5275D01*
X12921Y5238D01*
X13064Y5238D01*
X13118Y5260D01*
X13160Y5302D01*
X13183Y5356D01*
X13183Y5416D01*
X13183Y5186D01*
X12923Y5186D01*
X12869Y5164D01*
X12827Y5122D01*
X12804Y5067D01*
X12804Y5008D01*
X12804Y4658D01*
X12827Y4604D01*
X12869Y4562D01*
X12923Y4539D01*
X12982Y4539D01*
X13532Y4539D01*
X13587Y4562D01*
X13629Y4604D01*
X13650Y4655D01*
X13672Y4655D01*
X13693Y4604D01*
X13735Y4562D01*
X13789Y4539D01*
X13848Y4539D01*
X14398Y4539D01*
X14453Y4562D01*
X14495Y4604D01*
X14517Y4658D01*
X14517Y4717D01*
X14517Y4317D01*
X14495Y4372D01*
X14453Y4413D01*
X14399Y4436D01*
X14340Y4436D01*
X13790Y4436D01*
X13735Y4414D01*
X13693Y4372D01*
X13671Y4317D01*
X13671Y4258D01*
X13671Y3908D01*
X13693Y3854D01*
X13735Y3812D01*
X13789Y3789D01*
X13848Y3789D01*
X13857Y3789D01*
X13866Y3744D01*
X13919Y3664D01*
X14161Y3422D01*
X14100Y3422D01*
X14045Y3399D01*
X14003Y3358D01*
X13981Y3303D01*
X13981Y3244D01*
X13981Y2444D01*
X14003Y2390D01*
X14045Y2348D01*
X14099Y2325D01*
X14158Y2325D01*
X14182Y2325D01*
X14182Y1618D01*
X13815Y1250D01*
X13651Y1250D01*
X13651Y3908D01*
X13651Y4317D01*
X13629Y4372D01*
X13587Y4413D01*
X13532Y4436D01*
X13473Y4436D01*
X13315Y4436D01*
X13278Y4399D01*
X13278Y4163D01*
X13614Y4163D01*
X13651Y4200D01*
X13651Y4317D01*
X13651Y3908D01*
X13651Y4026D01*
X13614Y4063D01*
X13278Y4063D01*
X13278Y3826D01*
X13315Y3789D01*
X13473Y3789D01*
X13532Y3789D01*
X13587Y3812D01*
X13629Y3854D01*
X13651Y3908D01*
X13651Y1250D01*
X13577Y1250D01*
X13577Y2503D01*
X13577Y3244D01*
X13577Y3303D01*
X13555Y3358D01*
X13513Y3399D01*
X13458Y3422D01*
X13216Y3422D01*
X13179Y3385D01*
X13179Y2924D01*
X13540Y2924D01*
X13577Y2961D01*
X13577Y3244D01*
X13577Y2503D01*
X13577Y2786D01*
X13540Y2824D01*
X13179Y2824D01*
X13179Y2362D01*
X13216Y2325D01*
X13458Y2325D01*
X13513Y2348D01*
X13555Y2389D01*
X13577Y2444D01*
X13577Y2503D01*
X13577Y1250D01*
X13515Y1250D01*
X13515Y1725D01*
X13503Y1901D01*
X13460Y2005D01*
X13393Y2037D01*
X13323Y1966D01*
X13323Y2108D01*
X13290Y2174D01*
X13178Y2212D01*
X13178Y3826D01*
X13178Y4063D01*
X13178Y4163D01*
X13178Y4399D01*
X13141Y4436D01*
X12982Y4436D01*
X12923Y4436D01*
X12869Y4413D01*
X12827Y4372D01*
X12804Y4317D01*
X12804Y4200D01*
X12842Y4163D01*
X13178Y4163D01*
X13178Y4063D01*
X12842Y4063D01*
X12804Y4026D01*
X12804Y3908D01*
X12827Y3854D01*
X12869Y3812D01*
X12923Y3789D01*
X12982Y3789D01*
X13141Y3789D01*
X13178Y3826D01*
X13178Y2212D01*
X13123Y2230D01*
X13079Y2227D01*
X13079Y2362D01*
X13079Y2824D01*
X13079Y2924D01*
X13079Y3385D01*
X13042Y3422D01*
X12800Y3422D01*
X12784Y3416D01*
X12784Y5275D01*
X12784Y5736D01*
X12784Y5836D01*
X12784Y6297D01*
X12747Y6335D01*
X12605Y6335D01*
X12550Y6312D01*
X12508Y6270D01*
X12486Y6216D01*
X12486Y6157D01*
X12486Y5873D01*
X12523Y5836D01*
X12784Y5836D01*
X12784Y5736D01*
X12523Y5736D01*
X12486Y5699D01*
X12486Y5416D01*
X12486Y5356D01*
X12508Y5302D01*
X12550Y5260D01*
X12605Y5238D01*
X12747Y5238D01*
X12784Y5275D01*
X12784Y3416D01*
X12745Y3399D01*
X12703Y3358D01*
X12681Y3303D01*
X12681Y3244D01*
X12681Y2961D01*
X12718Y2924D01*
X13079Y2924D01*
X13079Y2824D01*
X12718Y2824D01*
X12681Y2786D01*
X12681Y2503D01*
X12681Y2444D01*
X12703Y2389D01*
X12745Y2348D01*
X12800Y2325D01*
X13042Y2325D01*
X13079Y2362D01*
X13079Y2227D01*
X12947Y2217D01*
X12843Y2174D01*
X12810Y2108D01*
X13066Y1852D01*
X13323Y2108D01*
X13323Y1966D01*
X13137Y1781D01*
X13393Y1525D01*
X13460Y1557D01*
X13515Y1725D01*
X13515Y1250D01*
X13323Y1250D01*
X13323Y1454D01*
X13066Y1710D01*
X12996Y1640D01*
X12996Y1781D01*
X12740Y2037D01*
X12673Y2005D01*
X12618Y1837D01*
X12630Y1661D01*
X12673Y1557D01*
X12740Y1525D01*
X12996Y1781D01*
X12996Y1640D01*
X12810Y1454D01*
X12843Y1388D01*
X13010Y1332D01*
X13186Y1345D01*
X13290Y1388D01*
X13323Y1454D01*
X13323Y1250D01*
X12503Y1250D01*
X12409Y1345D01*
X12446Y1360D01*
X12487Y1402D01*
X12510Y1456D01*
X12510Y1515D01*
X12510Y2106D01*
X12488Y2160D01*
X12446Y2202D01*
X12391Y2225D01*
X12332Y2225D01*
X12284Y2225D01*
X12284Y2366D01*
X12466Y2366D01*
X12521Y2388D01*
X12563Y2430D01*
X12585Y2484D01*
X12585Y2543D01*
X12585Y3143D01*
X12563Y3198D01*
X12521Y3240D01*
X12467Y3262D01*
X12408Y3263D01*
X11608Y3263D01*
X11553Y3240D01*
X11511Y3198D01*
X11489Y3144D01*
X11488Y3085D01*
X11488Y2485D01*
X11511Y2430D01*
X11553Y2388D01*
X11607Y2366D01*
X11666Y2366D01*
X11790Y2366D01*
X11790Y2225D01*
X11742Y2225D01*
X11687Y2202D01*
X11645Y2160D01*
X11623Y2106D01*
X11623Y2047D01*
X11623Y1456D01*
X11645Y1402D01*
X11687Y1360D01*
X11742Y1337D01*
X11801Y1337D01*
X11820Y1337D01*
X11838Y1244D01*
X11892Y1164D01*
X12100Y955D01*
X11467Y955D01*
X11467Y3667D01*
X11520Y3721D01*
X11553Y3688D01*
X11607Y3666D01*
X11666Y3666D01*
X12466Y3666D01*
X12521Y3688D01*
X12563Y3730D01*
X12585Y3784D01*
X12585Y3843D01*
X12585Y4443D01*
X12563Y4498D01*
X12521Y4540D01*
X12467Y4562D01*
X12408Y4563D01*
X12181Y4563D01*
X12181Y5245D01*
X12218Y5260D01*
X12260Y5302D01*
X12283Y5356D01*
X12283Y5416D01*
X12283Y6216D01*
X12260Y6270D01*
X12218Y6312D01*
X12164Y6335D01*
X12105Y6335D01*
X11705Y6335D01*
X11650Y6312D01*
X11608Y6270D01*
X11586Y6216D01*
X11586Y6157D01*
X11586Y5357D01*
X11608Y5302D01*
X11650Y5260D01*
X11687Y5245D01*
X11687Y4563D01*
X11608Y4563D01*
X11553Y4540D01*
X11511Y4498D01*
X11489Y4444D01*
X11488Y4385D01*
X11488Y4346D01*
X11470Y4342D01*
X11467Y4340D01*
X11467Y9398D01*
X15421Y9398D01*
X16957Y7862D01*
X16957Y7086D01*
X16973Y7007D01*
X17013Y6947D01*
X16899Y6994D01*
X16723Y6994D01*
X16678Y6976D01*
X16619Y7036D01*
X16551Y7081D01*
X16472Y7097D01*
X16131Y7097D01*
X16131Y7194D01*
X16108Y7248D01*
X16093Y7263D01*
X16108Y7278D01*
X16131Y7333D01*
X16131Y7392D01*
X16131Y7942D01*
X16108Y7996D01*
X16067Y8038D01*
X16012Y8061D01*
X15953Y8061D01*
X15603Y8061D01*
X15549Y8038D01*
X15507Y7996D01*
X15484Y7942D01*
X15484Y7883D01*
X15484Y7333D01*
X15507Y7278D01*
X15522Y7263D01*
X15507Y7248D01*
X15484Y7194D01*
X15484Y7135D01*
X15484Y6585D01*
X15507Y6530D01*
X15522Y6515D01*
X15507Y6500D01*
X15484Y6446D01*
X15484Y6387D01*
X15484Y5837D01*
X15507Y5782D01*
X15522Y5767D01*
X15507Y5752D01*
X15484Y5698D01*
X15484Y5639D01*
X15484Y5089D01*
X15507Y5034D01*
X15548Y4992D01*
X15603Y4970D01*
X15662Y4970D01*
X16012Y4970D01*
X16067Y4992D01*
X16108Y5034D01*
X16131Y5089D01*
X16131Y5148D01*
X16131Y5186D01*
X16383Y5186D01*
X16389Y5171D01*
X16431Y5130D01*
X16486Y5107D01*
X16545Y5107D01*
X17135Y5107D01*
X17190Y5130D01*
X17232Y5171D01*
X17254Y5226D01*
X17254Y5285D01*
X17254Y5343D01*
X17886Y5343D01*
X18620Y4609D01*
X18620Y4609D01*
X18665Y4579D01*
X18687Y4564D01*
X18687Y4564D01*
X18767Y4549D01*
X18887Y4549D01*
X18887Y4495D01*
X18887Y4517D01*
X18924Y4480D01*
X19379Y4480D01*
X19379Y4494D01*
X19479Y4494D01*
X19479Y4480D01*
X19934Y4480D01*
X19971Y4517D01*
X19971Y4495D01*
X19971Y4554D01*
X19953Y4596D01*
X19971Y4638D01*
X19971Y4697D01*
X19971Y4874D01*
X19955Y4911D01*
X19971Y4948D01*
X19971Y5007D01*
X19971Y4985D01*
X19934Y5022D01*
X19479Y5022D01*
X19479Y5008D01*
X19379Y5008D01*
X19379Y5022D01*
X18924Y5022D01*
X18887Y4985D01*
X18887Y5007D01*
X18887Y4964D01*
X18853Y4964D01*
X18327Y5489D01*
X18887Y5489D01*
X18887Y5445D01*
X18887Y5268D01*
X18904Y5226D01*
X18887Y5184D01*
X18887Y5125D01*
X18887Y5147D01*
X18924Y5110D01*
X19379Y5110D01*
X19379Y5124D01*
X19479Y5124D01*
X19479Y5110D01*
X19934Y5110D01*
X19971Y5147D01*
X19971Y5125D01*
X19971Y5149D01*
X20018Y5158D01*
X20018Y5158D01*
X20098Y5211D01*
X20213Y5327D01*
X20267Y5407D01*
X20267Y5407D01*
X20286Y5501D01*
X20286Y5793D01*
X20299Y5806D01*
X20672Y5806D01*
X20701Y5777D01*
X20820Y5727D01*
X20950Y5727D01*
X21070Y5776D01*
X21099Y5806D01*
X22122Y5806D01*
X22332Y5596D01*
X22332Y5206D01*
X22350Y5111D01*
X22404Y5031D01*
X22542Y4893D01*
X22622Y4840D01*
X22622Y4840D01*
X22653Y4834D01*
X22653Y4812D01*
X22653Y4834D01*
X22653Y4834D01*
X22690Y4797D01*
X23145Y4797D01*
X23145Y4811D01*
X23245Y4811D01*
X23245Y4797D01*
X23700Y4797D01*
X23737Y4834D01*
X23737Y4812D01*
X23737Y4871D01*
X23720Y4911D01*
X23737Y4950D01*
X23737Y5009D01*
X23737Y5186D01*
X23720Y5226D01*
X23737Y5265D01*
X23737Y5324D01*
X23737Y5302D01*
X23700Y5339D01*
X23245Y5339D01*
X23245Y5325D01*
X23145Y5325D01*
X23145Y5339D01*
X23137Y5339D01*
X23137Y5427D01*
X23145Y5427D01*
X23145Y5441D01*
X23245Y5441D01*
X23245Y5427D01*
X23700Y5427D01*
X23737Y5464D01*
X23737Y5442D01*
X23737Y5501D01*
X23720Y5541D01*
X23737Y5580D01*
X23737Y5639D01*
X23737Y5816D01*
X23720Y5856D01*
X23737Y5895D01*
X23737Y5954D01*
X23737Y6121D01*
X23848Y6121D01*
X23927Y6136D01*
X23927Y6136D01*
X23994Y6181D01*
X24931Y7118D01*
X24976Y7185D01*
X24976Y7185D01*
X24991Y7264D01*
X24991Y8829D01*
X25043Y8851D01*
X25085Y8892D01*
X25107Y8947D01*
X25107Y9006D01*
X25107Y9016D01*
X25164Y8958D01*
X25146Y8915D01*
X25146Y8738D01*
X25214Y8575D01*
X25338Y8450D01*
X25501Y8383D01*
X25678Y8382D01*
X25841Y8450D01*
X25966Y8575D01*
X26034Y8738D01*
X26034Y8914D01*
X25966Y9077D01*
X25842Y9202D01*
X25679Y9270D01*
X25502Y9270D01*
X25458Y9252D01*
X25312Y9398D01*
X25244Y9443D01*
X25165Y9459D01*
X25107Y9459D01*
X25107Y9556D01*
X25085Y9610D01*
X25050Y9645D01*
X25085Y9680D01*
X25107Y9734D01*
X25107Y9793D01*
X25107Y9831D01*
X25146Y9831D01*
X25146Y9738D01*
X25214Y9575D01*
X25338Y9450D01*
X25501Y9383D01*
X25678Y9382D01*
X25841Y9450D01*
X25966Y9575D01*
X26034Y9738D01*
X26034Y9914D01*
X25966Y10077D01*
X25842Y10202D01*
X25679Y10270D01*
X25502Y10270D01*
X25423Y10237D01*
X25377Y10246D01*
X25107Y10246D01*
X25107Y10343D01*
X25085Y10398D01*
X25043Y10440D01*
X24989Y10462D01*
X24930Y10462D01*
X24580Y10462D01*
X24525Y10440D01*
X24483Y10398D01*
X24461Y10344D01*
X24460Y10284D01*
X24460Y10241D01*
X24408Y10231D01*
X24386Y10216D01*
X24357Y10197D01*
X24357Y10343D01*
X24335Y10398D01*
X24332Y10400D01*
X24511Y10579D01*
X25146Y10579D01*
X25146Y10502D01*
X25169Y10447D01*
X25211Y10405D01*
X25265Y10383D01*
X25324Y10383D01*
X25915Y10383D01*
X25969Y10405D01*
X26011Y10447D01*
X26034Y10501D01*
X26034Y10560D01*
X26034Y11151D01*
X26011Y11206D01*
X25970Y11247D01*
X25915Y11270D01*
X25856Y11270D01*
X25265Y11270D01*
X25211Y11247D01*
X25169Y11206D01*
X25146Y11151D01*
X25146Y11092D01*
X25146Y11073D01*
X24409Y11073D01*
X24314Y11054D01*
X24234Y11001D01*
X23859Y10626D01*
X23806Y10546D01*
X23787Y10451D01*
X23787Y10445D01*
X23775Y10440D01*
X23733Y10398D01*
X23711Y10344D01*
X23710Y10284D01*
X23710Y9734D01*
X23733Y9680D01*
X23768Y9645D01*
X23733Y9611D01*
X23711Y9556D01*
X23710Y9497D01*
X23710Y8947D01*
X23733Y8893D01*
X23775Y8851D01*
X23829Y8828D01*
X23888Y8828D01*
X24125Y8828D01*
X22648Y7351D01*
X22648Y7539D01*
X22625Y7594D01*
X22583Y7635D01*
X22529Y7658D01*
X22470Y7658D01*
X22304Y7658D01*
X22304Y7916D01*
X22489Y8101D01*
X22534Y8168D01*
X22534Y8168D01*
X22536Y8181D01*
X22549Y8248D01*
X22550Y8248D01*
X22550Y9862D01*
X22534Y9941D01*
X22534Y9941D01*
X22519Y9963D01*
X22489Y10008D01*
X22489Y10008D01*
X22296Y10201D01*
X22259Y10226D01*
X22259Y10226D01*
X22226Y10306D01*
X22102Y10431D01*
X21939Y10498D01*
X21821Y10498D01*
X21821Y12166D01*
X21756Y12322D01*
X21637Y12441D01*
X21482Y12506D01*
X21313Y12506D01*
X21158Y12441D01*
X21038Y12322D01*
X20974Y12167D01*
X20974Y11998D01*
X21038Y11843D01*
X21157Y11723D01*
X21313Y11659D01*
X21481Y11659D01*
X21637Y11723D01*
X21756Y11842D01*
X21820Y11998D01*
X21821Y12166D01*
X21821Y10498D01*
X21762Y10498D01*
X21599Y10431D01*
X21474Y10306D01*
X21456Y10262D01*
X21427Y10262D01*
X21427Y10265D01*
X21405Y10320D01*
X21363Y10361D01*
X21309Y10384D01*
X21250Y10384D01*
X21073Y10384D01*
X21073Y10551D01*
X21057Y10630D01*
X21057Y10630D01*
X21012Y10697D01*
X20821Y10889D01*
X20821Y12166D01*
X20756Y12322D01*
X20637Y12441D01*
X20482Y12506D01*
X20313Y12506D01*
X20158Y12441D01*
X20038Y12322D01*
X19974Y12167D01*
X19974Y11998D01*
X20038Y11843D01*
X20157Y11723D01*
X20313Y11659D01*
X20481Y11659D01*
X20637Y11723D01*
X20756Y11842D01*
X20820Y11998D01*
X20821Y12166D01*
X20821Y10889D01*
X20776Y10934D01*
X20709Y10979D01*
X20629Y10994D01*
X19826Y10994D01*
X19826Y12031D01*
X19813Y12199D01*
X19773Y12294D01*
X19709Y12324D01*
X19639Y12253D01*
X19639Y12394D01*
X19609Y12458D01*
X19449Y12511D01*
X19281Y12498D01*
X19186Y12458D01*
X19156Y12394D01*
X19397Y12153D01*
X19639Y12394D01*
X19639Y12253D01*
X19468Y12082D01*
X19709Y11841D01*
X19773Y11871D01*
X19826Y12031D01*
X19826Y10994D01*
X19639Y10994D01*
X19639Y11770D01*
X19397Y12011D01*
X19326Y11941D01*
X19326Y12082D01*
X19085Y12324D01*
X19021Y12294D01*
X18968Y12134D01*
X18981Y11966D01*
X19021Y11871D01*
X19085Y11841D01*
X19326Y12082D01*
X19326Y11941D01*
X19156Y11770D01*
X19186Y11706D01*
X19346Y11654D01*
X19514Y11666D01*
X19609Y11706D01*
X19639Y11770D01*
X19639Y10994D01*
X18821Y10994D01*
X18821Y12166D01*
X18756Y12322D01*
X18637Y12441D01*
X18482Y12506D01*
X18313Y12506D01*
X18158Y12441D01*
X18038Y12322D01*
X17974Y12167D01*
X17974Y11998D01*
X18038Y11843D01*
X18157Y11723D01*
X18313Y11659D01*
X18481Y11659D01*
X18637Y11723D01*
X18756Y11842D01*
X18820Y11998D01*
X18821Y12166D01*
X18821Y10994D01*
X14616Y10994D01*
X14616Y12548D01*
X14964Y12548D01*
X14913Y12497D01*
X14875Y12406D01*
X14875Y12308D01*
X14875Y11758D01*
X14913Y11668D01*
X14982Y11598D01*
X15073Y11560D01*
X15171Y11560D01*
X15721Y11560D01*
X15812Y11598D01*
X15881Y11667D01*
X15919Y11758D01*
X15919Y11856D01*
X15919Y11873D01*
X15954Y11787D01*
X16101Y11640D01*
X16293Y11560D01*
X16500Y11560D01*
X16692Y11640D01*
X16839Y11786D01*
X16919Y11978D01*
X16919Y12171D01*
X17016Y12268D01*
X16974Y12167D01*
X16974Y11998D01*
X17038Y11843D01*
X17157Y11723D01*
X17313Y11659D01*
X17481Y11659D01*
X17637Y11723D01*
X17756Y11842D01*
X17820Y11998D01*
X17821Y12166D01*
X17756Y12322D01*
X17637Y12441D01*
X17482Y12506D01*
X17313Y12506D01*
X17211Y12463D01*
X17296Y12548D01*
X22158Y12548D01*
X22102Y12525D01*
X21955Y12378D01*
X21875Y12186D01*
X21875Y11979D01*
X21954Y11787D01*
X22101Y11640D01*
X22293Y11560D01*
X22500Y11560D01*
X22692Y11640D01*
X22839Y11786D01*
X22919Y11978D01*
X22919Y12186D01*
X22840Y12377D01*
X22693Y12524D01*
X22636Y12548D01*
X23759Y12548D01*
X23772Y12517D01*
X23814Y12475D01*
X23868Y12453D01*
X23927Y12453D01*
X24477Y12453D01*
X24532Y12475D01*
X24573Y12517D01*
X24586Y12548D01*
X24703Y12548D01*
X24757Y12512D01*
X24874Y12489D01*
X25046Y12489D01*
X25163Y12512D01*
X25217Y12548D01*
X25531Y12548D01*
X25543Y12517D01*
X25585Y12475D01*
X25640Y12453D01*
X25699Y12453D01*
X26249Y12453D01*
X26303Y12475D01*
X26345Y12517D01*
X26358Y12548D01*
X26475Y12548D01*
X26528Y12512D01*
X26646Y12489D01*
X26818Y12489D01*
X26935Y12512D01*
X26989Y12548D01*
X27115Y12548D01*
X27115Y2412D01*
X27115Y2412D01*
G37*
G54D36*
X27115Y2412D02*
X27077Y2412D01*
X27077Y4241D01*
X27077Y11152D01*
X27061Y11232D01*
X27061Y11232D01*
X27046Y11254D01*
X27016Y11299D01*
X27016Y11299D01*
X26368Y11947D01*
X26368Y12230D01*
X26345Y12285D01*
X26304Y12327D01*
X26249Y12349D01*
X26190Y12350D01*
X25640Y12350D01*
X25585Y12327D01*
X25544Y12285D01*
X25521Y12231D01*
X25521Y12172D01*
X25521Y11822D01*
X25521Y11821D01*
X24671Y11821D01*
X24596Y11896D01*
X24596Y12230D01*
X24574Y12285D01*
X24532Y12327D01*
X24477Y12349D01*
X24418Y12350D01*
X23868Y12350D01*
X23814Y12327D01*
X23772Y12285D01*
X23749Y12231D01*
X23749Y12172D01*
X23749Y11822D01*
X23772Y11767D01*
X23814Y11725D01*
X23868Y11703D01*
X23927Y11703D01*
X24203Y11703D01*
X24438Y11467D01*
X24438Y11467D01*
X24483Y11437D01*
X24506Y11422D01*
X24506Y11422D01*
X24585Y11406D01*
X26016Y11406D01*
X26426Y10996D01*
X26426Y6849D01*
X26424Y6854D01*
X26382Y6896D01*
X26328Y6918D01*
X26269Y6918D01*
X26039Y6918D01*
X26039Y7770D01*
X26026Y7946D01*
X25983Y8050D01*
X25917Y8082D01*
X25846Y8012D01*
X25846Y8153D01*
X25814Y8219D01*
X25646Y8275D01*
X25470Y8263D01*
X25366Y8219D01*
X25334Y8153D01*
X25590Y7897D01*
X25846Y8153D01*
X25846Y8012D01*
X25661Y7826D01*
X25917Y7570D01*
X25983Y7602D01*
X26039Y7770D01*
X26039Y6918D01*
X25846Y6918D01*
X25846Y7499D01*
X25590Y7756D01*
X25519Y7685D01*
X25519Y7826D01*
X25263Y8082D01*
X25197Y8050D01*
X25141Y7883D01*
X25154Y7707D01*
X25197Y7602D01*
X25263Y7570D01*
X25519Y7826D01*
X25519Y7685D01*
X25334Y7499D01*
X25366Y7433D01*
X25534Y7377D01*
X25710Y7390D01*
X25814Y7433D01*
X25846Y7499D01*
X25846Y6918D01*
X25719Y6918D01*
X25664Y6896D01*
X25622Y6854D01*
X25600Y6800D01*
X25600Y6741D01*
X25600Y6569D01*
X25574Y6594D01*
X25419Y6659D01*
X25250Y6659D01*
X25095Y6595D01*
X24975Y6476D01*
X24911Y6320D01*
X24911Y6152D01*
X24924Y6119D01*
X24853Y6048D01*
X24808Y5980D01*
X24792Y5901D01*
X24792Y4967D01*
X24470Y4646D01*
X23737Y4646D01*
X23737Y4694D01*
X23737Y4672D01*
X23700Y4709D01*
X23245Y4709D01*
X23245Y4695D01*
X23145Y4695D01*
X23145Y4709D01*
X22690Y4709D01*
X22653Y4672D01*
X22653Y4694D01*
X22653Y4635D01*
X22669Y4596D01*
X22653Y4556D01*
X22653Y4497D01*
X22653Y4320D01*
X22669Y4281D01*
X22653Y4241D01*
X22653Y4182D01*
X22653Y4005D01*
X22675Y3951D01*
X22717Y3909D01*
X22772Y3886D01*
X22831Y3886D01*
X23618Y3886D01*
X23672Y3909D01*
X23679Y3916D01*
X25055Y3916D01*
X25094Y3877D01*
X25250Y3812D01*
X25418Y3812D01*
X25574Y3877D01*
X25693Y3996D01*
X25757Y4151D01*
X25758Y4183D01*
X25778Y4183D01*
X26173Y4183D01*
X24933Y2943D01*
X24823Y2943D01*
X24823Y3509D01*
X24774Y3629D01*
X24682Y3720D01*
X24563Y3770D01*
X24433Y3770D01*
X24313Y3721D01*
X24290Y3698D01*
X24290Y3749D01*
X24268Y3803D01*
X24226Y3845D01*
X24172Y3868D01*
X24113Y3868D01*
X23763Y3868D01*
X23708Y3845D01*
X23666Y3804D01*
X23644Y3749D01*
X23644Y3690D01*
X23644Y3140D01*
X23666Y3085D01*
X23708Y3044D01*
X23762Y3021D01*
X23821Y3021D01*
X24171Y3021D01*
X24226Y3043D01*
X24268Y3085D01*
X24290Y3140D01*
X24290Y3191D01*
X24313Y3169D01*
X24432Y3119D01*
X24562Y3119D01*
X24682Y3168D01*
X24773Y3260D01*
X24823Y3379D01*
X24823Y3509D01*
X24823Y2943D01*
X23540Y2943D01*
X23540Y3199D01*
X23540Y3690D01*
X23540Y3749D01*
X23518Y3804D01*
X23476Y3845D01*
X23421Y3868D01*
X23304Y3868D01*
X23267Y3831D01*
X23267Y3494D01*
X23503Y3494D01*
X23540Y3531D01*
X23540Y3690D01*
X23540Y3199D01*
X23540Y3357D01*
X23503Y3394D01*
X23267Y3394D01*
X23267Y3058D01*
X23304Y3021D01*
X23421Y3021D01*
X23476Y3043D01*
X23518Y3085D01*
X23540Y3140D01*
X23540Y3199D01*
X23540Y2943D01*
X23167Y2943D01*
X23167Y3058D01*
X23167Y3394D01*
X23167Y3494D01*
X23167Y3831D01*
X23130Y3868D01*
X23013Y3868D01*
X22958Y3845D01*
X22916Y3804D01*
X22894Y3749D01*
X22894Y3690D01*
X22894Y3531D01*
X22931Y3494D01*
X23167Y3494D01*
X23167Y3394D01*
X22931Y3394D01*
X22894Y3357D01*
X22894Y3199D01*
X22894Y3140D01*
X22916Y3085D01*
X22958Y3043D01*
X23013Y3021D01*
X23130Y3021D01*
X23167Y3058D01*
X23167Y2943D01*
X22646Y2943D01*
X22646Y2972D01*
X22646Y3759D01*
X22623Y3814D01*
X22589Y3848D01*
X22589Y4114D01*
X22573Y4193D01*
X22573Y4193D01*
X22558Y4215D01*
X22528Y4260D01*
X22528Y4260D01*
X22175Y4613D01*
X22176Y4710D01*
X22126Y4829D01*
X22035Y4921D01*
X21915Y4971D01*
X21785Y4971D01*
X21666Y4921D01*
X21574Y4830D01*
X21524Y4710D01*
X21524Y4581D01*
X21526Y4577D01*
X21473Y4577D01*
X21405Y4645D01*
X21285Y4695D01*
X21155Y4695D01*
X21036Y4646D01*
X20944Y4554D01*
X20894Y4435D01*
X20894Y4305D01*
X20928Y4223D01*
X20922Y4223D01*
X20853Y4291D01*
X20734Y4341D01*
X20604Y4341D01*
X20485Y4291D01*
X20393Y4200D01*
X20343Y4080D01*
X20343Y3951D01*
X20377Y3868D01*
X20359Y3861D01*
X20317Y3878D01*
X20258Y3878D01*
X20081Y3878D01*
X20026Y3855D01*
X19984Y3814D01*
X19962Y3759D01*
X19962Y3700D01*
X19962Y3544D01*
X18481Y3544D01*
X17963Y4062D01*
X17963Y4499D01*
X18492Y3969D01*
X18492Y3969D01*
X18537Y3939D01*
X18559Y3924D01*
X18559Y3924D01*
X18639Y3909D01*
X18639Y3909D01*
X18944Y3909D01*
X18951Y3902D01*
X19006Y3879D01*
X19065Y3879D01*
X19852Y3879D01*
X19906Y3902D01*
X19948Y3943D01*
X19971Y3998D01*
X19971Y4057D01*
X19971Y4234D01*
X19953Y4276D01*
X19971Y4318D01*
X19971Y4377D01*
X19971Y4355D01*
X19934Y4392D01*
X19479Y4392D01*
X19479Y4378D01*
X19379Y4378D01*
X19379Y4392D01*
X18924Y4392D01*
X18887Y4355D01*
X18887Y4377D01*
X18887Y4324D01*
X18725Y4324D01*
X18178Y4871D01*
X18110Y4916D01*
X18031Y4931D01*
X17031Y4931D01*
X16952Y4916D01*
X16929Y4901D01*
X16884Y4871D01*
X16651Y4638D01*
X16608Y4656D01*
X16431Y4656D01*
X16268Y4588D01*
X16143Y4464D01*
X16076Y4301D01*
X16075Y4124D01*
X16143Y3961D01*
X16268Y3836D01*
X16431Y3768D01*
X16607Y3768D01*
X16770Y3836D01*
X16895Y3960D01*
X16963Y4123D01*
X16963Y4300D01*
X16945Y4344D01*
X17075Y4475D01*
X17075Y3887D01*
X17098Y3833D01*
X17140Y3791D01*
X17194Y3768D01*
X17253Y3768D01*
X17669Y3768D01*
X18249Y3189D01*
X18316Y3144D01*
X18316Y3144D01*
X18395Y3129D01*
X19962Y3129D01*
X19962Y2913D01*
X19984Y2859D01*
X20026Y2817D01*
X20053Y2805D01*
X17968Y2805D01*
X17968Y3156D01*
X17955Y3332D01*
X17912Y3436D01*
X17846Y3468D01*
X17775Y3398D01*
X17775Y3539D01*
X17743Y3605D01*
X17576Y3661D01*
X17399Y3648D01*
X17295Y3605D01*
X17263Y3539D01*
X17519Y3283D01*
X17775Y3539D01*
X17775Y3398D01*
X17590Y3212D01*
X17846Y2956D01*
X17912Y2988D01*
X17968Y3156D01*
X17968Y2805D01*
X17710Y2805D01*
X17743Y2819D01*
X17775Y2885D01*
X17519Y3141D01*
X17448Y3071D01*
X17448Y3212D01*
X17192Y3468D01*
X17126Y3436D01*
X17070Y3268D01*
X17083Y3092D01*
X17126Y2988D01*
X17192Y2956D01*
X17448Y3212D01*
X17448Y3071D01*
X17263Y2885D01*
X17295Y2819D01*
X17336Y2805D01*
X17219Y2805D01*
X16945Y3080D01*
X16963Y3123D01*
X16963Y3300D01*
X16896Y3463D01*
X16771Y3588D01*
X16608Y3656D01*
X16431Y3656D01*
X16268Y3588D01*
X16143Y3464D01*
X16076Y3301D01*
X16075Y3124D01*
X16143Y2961D01*
X16268Y2836D01*
X16431Y2768D01*
X16607Y2768D01*
X16651Y2787D01*
X16987Y2451D01*
X17054Y2406D01*
X17054Y2406D01*
X17133Y2390D01*
X19075Y2390D01*
X19038Y2354D01*
X18974Y2198D01*
X18974Y2030D01*
X19038Y1874D01*
X19157Y1755D01*
X19313Y1690D01*
X19481Y1690D01*
X19637Y1755D01*
X19756Y1874D01*
X19820Y2029D01*
X19821Y2198D01*
X19756Y2353D01*
X19719Y2390D01*
X20314Y2390D01*
X20394Y2406D01*
X20394Y2406D01*
X20461Y2451D01*
X20658Y2648D01*
X20658Y2470D01*
X20561Y2470D01*
X20507Y2447D01*
X20465Y2405D01*
X20443Y2354D01*
X20430Y2354D01*
X20350Y2338D01*
X20283Y2293D01*
X19514Y1524D01*
X19482Y1537D01*
X19313Y1537D01*
X19158Y1473D01*
X19038Y1354D01*
X18974Y1198D01*
X18974Y1030D01*
X19038Y874D01*
X19157Y755D01*
X19313Y690D01*
X19481Y690D01*
X19637Y755D01*
X19756Y874D01*
X19820Y1029D01*
X19821Y1198D01*
X19807Y1230D01*
X19949Y1373D01*
X19949Y1313D01*
X19999Y1193D01*
X20090Y1102D01*
X20210Y1052D01*
X20340Y1052D01*
X20459Y1101D01*
X20480Y1122D01*
X20506Y1095D01*
X20561Y1073D01*
X20620Y1073D01*
X21170Y1073D01*
X21225Y1095D01*
X21266Y1137D01*
X21289Y1192D01*
X21289Y1251D01*
X21289Y1601D01*
X21267Y1655D01*
X21225Y1697D01*
X21170Y1720D01*
X21111Y1720D01*
X20561Y1720D01*
X20507Y1697D01*
X20465Y1655D01*
X20463Y1650D01*
X20460Y1653D01*
X20340Y1703D01*
X20280Y1703D01*
X20465Y1888D01*
X20465Y1887D01*
X20506Y1845D01*
X20561Y1823D01*
X20620Y1823D01*
X21170Y1823D01*
X21225Y1845D01*
X21266Y1887D01*
X21289Y1942D01*
X21289Y2001D01*
X21289Y2351D01*
X21267Y2405D01*
X21225Y2447D01*
X21170Y2470D01*
X21111Y2470D01*
X21073Y2470D01*
X21073Y2668D01*
X21369Y2372D01*
X21369Y2372D01*
X21414Y2342D01*
X21436Y2327D01*
X21436Y2327D01*
X21515Y2312D01*
X25148Y2312D01*
X25228Y2327D01*
X25228Y2327D01*
X25295Y2372D01*
X27016Y4094D01*
X27061Y4161D01*
X27061Y4161D01*
X27077Y4241D01*
X27077Y2412D01*
X25766Y2412D01*
X25146Y1792D01*
X25146Y443D01*
X23685Y443D01*
X23708Y466D01*
X23731Y521D01*
X23731Y580D01*
X23731Y1171D01*
X23731Y1584D01*
X23731Y2175D01*
X23708Y2229D01*
X23666Y2271D01*
X23612Y2294D01*
X23553Y2294D01*
X22962Y2294D01*
X22908Y2271D01*
X22866Y2229D01*
X22843Y2175D01*
X22843Y2116D01*
X22843Y1525D01*
X22866Y1471D01*
X22907Y1429D01*
X22962Y1406D01*
X23021Y1406D01*
X23612Y1406D01*
X23666Y1429D01*
X23708Y1470D01*
X23731Y1525D01*
X23731Y1584D01*
X23731Y1171D01*
X23708Y1225D01*
X23666Y1267D01*
X23612Y1290D01*
X23553Y1290D01*
X22962Y1290D01*
X22908Y1267D01*
X22866Y1225D01*
X22843Y1171D01*
X22843Y1112D01*
X22843Y521D01*
X22866Y467D01*
X22889Y443D01*
X22736Y443D01*
X22736Y790D01*
X22736Y1794D01*
X22723Y1970D01*
X22680Y2074D01*
X22614Y2106D01*
X22543Y2035D01*
X22543Y2177D01*
X22511Y2243D01*
X22343Y2299D01*
X22167Y2286D01*
X22063Y2243D01*
X22031Y2177D01*
X22287Y1921D01*
X22543Y2177D01*
X22543Y2035D01*
X22358Y1850D01*
X22614Y1594D01*
X22680Y1626D01*
X22736Y1794D01*
X22736Y790D01*
X22723Y966D01*
X22680Y1070D01*
X22614Y1102D01*
X22543Y1031D01*
X22543Y1173D01*
X22543Y1523D01*
X22287Y1779D01*
X22216Y1708D01*
X22216Y1850D01*
X21960Y2106D01*
X21894Y2074D01*
X21838Y1906D01*
X21851Y1730D01*
X21894Y1626D01*
X21960Y1594D01*
X22216Y1850D01*
X22216Y1708D01*
X22031Y1523D01*
X22063Y1457D01*
X22231Y1401D01*
X22407Y1414D01*
X22511Y1457D01*
X22543Y1523D01*
X22543Y1173D01*
X22511Y1239D01*
X22343Y1295D01*
X22167Y1282D01*
X22063Y1239D01*
X22031Y1173D01*
X22287Y917D01*
X22543Y1173D01*
X22543Y1031D01*
X22358Y846D01*
X22614Y590D01*
X22680Y622D01*
X22736Y790D01*
X22736Y443D01*
X22488Y443D01*
X22511Y453D01*
X22543Y519D01*
X22287Y775D01*
X22216Y705D01*
X22216Y846D01*
X21960Y1102D01*
X21894Y1070D01*
X21838Y902D01*
X21851Y726D01*
X21894Y622D01*
X21960Y590D01*
X22216Y846D01*
X22216Y705D01*
X22031Y519D01*
X22063Y453D01*
X22092Y443D01*
X18821Y443D01*
X18821Y868D01*
X18821Y1418D01*
X18798Y1473D01*
X18756Y1514D01*
X18702Y1537D01*
X18643Y1537D01*
X18093Y1537D01*
X18038Y1515D01*
X17996Y1473D01*
X17974Y1418D01*
X17974Y1359D01*
X17974Y809D01*
X17996Y755D01*
X18038Y713D01*
X18092Y690D01*
X18152Y690D01*
X18702Y690D01*
X18756Y713D01*
X18798Y754D01*
X18821Y809D01*
X18821Y868D01*
X18821Y443D01*
X17443Y443D01*
X17451Y462D01*
X17451Y521D01*
X17451Y1112D01*
X17429Y1166D01*
X17387Y1208D01*
X17332Y1231D01*
X17273Y1231D01*
X16683Y1231D01*
X16628Y1208D01*
X16586Y1166D01*
X16585Y1163D01*
X16585Y1486D01*
X16585Y1820D01*
X16585Y1880D01*
X16562Y1934D01*
X16520Y1976D01*
X16466Y1998D01*
X16424Y1998D01*
X16387Y1961D01*
X16387Y1703D01*
X16548Y1703D01*
X16585Y1740D01*
X16585Y1820D01*
X16585Y1486D01*
X16585Y1566D01*
X16548Y1603D01*
X16387Y1603D01*
X16387Y1345D01*
X16424Y1308D01*
X16466Y1308D01*
X16520Y1330D01*
X16562Y1372D01*
X16585Y1427D01*
X16585Y1486D01*
X16585Y1163D01*
X16564Y1112D01*
X16564Y1053D01*
X16564Y462D01*
X16572Y443D01*
X16291Y443D01*
X16383Y535D01*
X16451Y698D01*
X16451Y875D01*
X16384Y1038D01*
X16259Y1163D01*
X16254Y1165D01*
X16254Y1310D01*
X16289Y1345D01*
X16289Y1603D01*
X16280Y1603D01*
X16280Y1703D01*
X16289Y1703D01*
X16289Y1961D01*
X16252Y1998D01*
X16210Y1998D01*
X16181Y1986D01*
X16151Y1998D01*
X16092Y1998D01*
X15895Y1998D01*
X15866Y1986D01*
X15836Y1998D01*
X15777Y1998D01*
X15580Y1998D01*
X15526Y1976D01*
X15484Y1934D01*
X15461Y1880D01*
X15461Y1820D01*
X15461Y1736D01*
X14681Y955D01*
X14217Y955D01*
X14604Y1341D01*
X14657Y1421D01*
X14657Y1421D01*
X14676Y1516D01*
X14676Y2325D01*
X14758Y2325D01*
X14813Y2348D01*
X14855Y2389D01*
X14877Y2444D01*
X14877Y2503D01*
X14877Y2965D01*
X15141Y2965D01*
X15143Y2961D01*
X15268Y2836D01*
X15431Y2768D01*
X15607Y2768D01*
X15770Y2836D01*
X15895Y2960D01*
X15963Y3123D01*
X15963Y3300D01*
X15963Y4300D01*
X15896Y4463D01*
X15771Y4588D01*
X15608Y4656D01*
X15431Y4656D01*
X15381Y4635D01*
X15381Y5148D01*
X15381Y5639D01*
X15381Y5698D01*
X15358Y5752D01*
X15343Y5767D01*
X15358Y5782D01*
X15381Y5837D01*
X15381Y5896D01*
X15381Y6446D01*
X15358Y6500D01*
X15343Y6515D01*
X15358Y6530D01*
X15381Y6585D01*
X15381Y6644D01*
X15381Y7194D01*
X15358Y7248D01*
X15343Y7263D01*
X15358Y7278D01*
X15381Y7333D01*
X15381Y7392D01*
X15381Y7883D01*
X15381Y7942D01*
X15358Y7996D01*
X15317Y8038D01*
X15262Y8061D01*
X15145Y8061D01*
X15108Y8024D01*
X15108Y7687D01*
X15344Y7687D01*
X15381Y7724D01*
X15381Y7883D01*
X15381Y7392D01*
X15381Y7550D01*
X15344Y7587D01*
X15108Y7587D01*
X15108Y7579D01*
X15008Y7579D01*
X15008Y7587D01*
X15008Y7687D01*
X15008Y8024D01*
X14970Y8061D01*
X14853Y8061D01*
X14799Y8038D01*
X14757Y7996D01*
X14734Y7942D01*
X14734Y7883D01*
X14734Y7724D01*
X14771Y7687D01*
X15008Y7687D01*
X15008Y7587D01*
X14771Y7587D01*
X14734Y7550D01*
X14734Y7392D01*
X14734Y7333D01*
X14757Y7278D01*
X14772Y7263D01*
X14757Y7248D01*
X14734Y7194D01*
X14734Y7182D01*
X14712Y7204D01*
X14592Y7254D01*
X14463Y7254D01*
X14343Y7205D01*
X14251Y7113D01*
X14202Y6994D01*
X14201Y6864D01*
X14251Y6744D01*
X14342Y6653D01*
X14462Y6603D01*
X14592Y6603D01*
X14711Y6652D01*
X14734Y6675D01*
X14734Y6585D01*
X14757Y6530D01*
X14772Y6515D01*
X14757Y6500D01*
X14734Y6446D01*
X14734Y6387D01*
X14734Y5837D01*
X14757Y5782D01*
X14772Y5767D01*
X14757Y5752D01*
X14734Y5698D01*
X14734Y5639D01*
X14734Y5480D01*
X14771Y5443D01*
X15008Y5443D01*
X15008Y5451D01*
X15108Y5451D01*
X15108Y5443D01*
X15344Y5443D01*
X15381Y5480D01*
X15381Y5639D01*
X15381Y5148D01*
X15381Y5306D01*
X15344Y5343D01*
X15108Y5343D01*
X15108Y5007D01*
X15145Y4970D01*
X15262Y4970D01*
X15317Y4992D01*
X15358Y5034D01*
X15381Y5089D01*
X15381Y5148D01*
X15381Y4635D01*
X15268Y4588D01*
X15143Y4464D01*
X15076Y4301D01*
X15075Y4124D01*
X15143Y3961D01*
X15268Y3836D01*
X15431Y3768D01*
X15607Y3768D01*
X15770Y3836D01*
X15895Y3960D01*
X15963Y4123D01*
X15963Y4300D01*
X15963Y3300D01*
X15896Y3463D01*
X15771Y3588D01*
X15608Y3656D01*
X15431Y3656D01*
X15268Y3588D01*
X15143Y3464D01*
X15141Y3459D01*
X15008Y3459D01*
X15008Y5007D01*
X15008Y5343D01*
X14771Y5343D01*
X14734Y5306D01*
X14734Y5148D01*
X14734Y5089D01*
X14757Y5034D01*
X14799Y4992D01*
X14853Y4970D01*
X14970Y4970D01*
X15008Y5007D01*
X15008Y3459D01*
X14768Y3459D01*
X14676Y3441D01*
X14676Y3503D01*
X14676Y3503D01*
X14676Y3503D01*
X14666Y3550D01*
X14657Y3598D01*
X14657Y3598D01*
X14604Y3678D01*
X14604Y3678D01*
X14461Y3820D01*
X14495Y3854D01*
X14517Y3908D01*
X14517Y3967D01*
X14517Y4317D01*
X14517Y4717D01*
X14517Y5067D01*
X14495Y5122D01*
X14453Y5163D01*
X14399Y5186D01*
X14340Y5186D01*
X14296Y5186D01*
X14288Y5223D01*
X14286Y5236D01*
X14286Y5236D01*
X14241Y5304D01*
X14083Y5462D01*
X14083Y6216D01*
X14060Y6270D01*
X14018Y6312D01*
X13964Y6335D01*
X13905Y6335D01*
X13703Y6335D01*
X13703Y8016D01*
X13703Y8816D01*
X13680Y8870D01*
X13638Y8912D01*
X13584Y8935D01*
X13525Y8935D01*
X12085Y8935D01*
X12030Y8912D01*
X11988Y8870D01*
X11966Y8816D01*
X11966Y8757D01*
X11966Y7957D01*
X11988Y7902D01*
X12030Y7860D01*
X12084Y7838D01*
X12144Y7838D01*
X13584Y7838D01*
X13638Y7860D01*
X13680Y7902D01*
X13703Y7956D01*
X13703Y8016D01*
X13703Y6335D01*
X13505Y6335D01*
X13450Y6312D01*
X13408Y6270D01*
X13386Y6216D01*
X13386Y6157D01*
X13386Y5357D01*
X13408Y5302D01*
X13450Y5260D01*
X13504Y5238D01*
X13564Y5238D01*
X13720Y5238D01*
X13777Y5181D01*
X13735Y5164D01*
X13693Y5122D01*
X13672Y5070D01*
X13650Y5070D01*
X13629Y5122D01*
X13587Y5163D01*
X13532Y5186D01*
X13473Y5186D01*
X13183Y5186D01*
X13183Y5416D01*
X13183Y6157D01*
X13183Y6216D01*
X13160Y6270D01*
X13118Y6312D01*
X13064Y6335D01*
X12921Y6335D01*
X12884Y6297D01*
X12884Y5836D01*
X13145Y5836D01*
X13183Y5873D01*
X13183Y6157D01*
X13183Y5416D01*
X13183Y5699D01*
X13145Y5736D01*
X12884Y5736D01*
X12884Y5275D01*
X12921Y5238D01*
X13064Y5238D01*
X13118Y5260D01*
X13160Y5302D01*
X13183Y5356D01*
X13183Y5416D01*
X13183Y5186D01*
X12923Y5186D01*
X12869Y5164D01*
X12827Y5122D01*
X12804Y5067D01*
X12804Y5008D01*
X12804Y4658D01*
X12827Y4604D01*
X12869Y4562D01*
X12923Y4539D01*
X12982Y4539D01*
X13532Y4539D01*
X13587Y4562D01*
X13629Y4604D01*
X13650Y4655D01*
X13672Y4655D01*
X13693Y4604D01*
X13735Y4562D01*
X13789Y4539D01*
X13848Y4539D01*
X14398Y4539D01*
X14453Y4562D01*
X14495Y4604D01*
X14517Y4658D01*
X14517Y4717D01*
X14517Y4317D01*
X14495Y4372D01*
X14453Y4413D01*
X14399Y4436D01*
X14340Y4436D01*
X13790Y4436D01*
X13735Y4414D01*
X13693Y4372D01*
X13671Y4317D01*
X13671Y4258D01*
X13671Y3908D01*
X13693Y3854D01*
X13735Y3812D01*
X13789Y3789D01*
X13848Y3789D01*
X13857Y3789D01*
X13866Y3744D01*
X13919Y3664D01*
X14161Y3422D01*
X14100Y3422D01*
X14045Y3399D01*
X14003Y3358D01*
X13981Y3303D01*
X13981Y3244D01*
X13981Y2444D01*
X14003Y2390D01*
X14045Y2348D01*
X14099Y2325D01*
X14158Y2325D01*
X14182Y2325D01*
X14182Y1618D01*
X13815Y1250D01*
X13651Y1250D01*
X13651Y3908D01*
X13651Y4317D01*
X13629Y4372D01*
X13587Y4413D01*
X13532Y4436D01*
X13473Y4436D01*
X13315Y4436D01*
X13278Y4399D01*
X13278Y4163D01*
X13614Y4163D01*
X13651Y4200D01*
X13651Y4317D01*
X13651Y3908D01*
X13651Y4026D01*
X13614Y4063D01*
X13278Y4063D01*
X13278Y3826D01*
X13315Y3789D01*
X13473Y3789D01*
X13532Y3789D01*
X13587Y3812D01*
X13629Y3854D01*
X13651Y3908D01*
X13651Y1250D01*
X13577Y1250D01*
X13577Y2503D01*
X13577Y3244D01*
X13577Y3303D01*
X13555Y3358D01*
X13513Y3399D01*
X13458Y3422D01*
X13216Y3422D01*
X13179Y3385D01*
X13179Y2924D01*
X13540Y2924D01*
X13577Y2961D01*
X13577Y3244D01*
X13577Y2503D01*
X13577Y2786D01*
X13540Y2824D01*
X13179Y2824D01*
X13179Y2362D01*
X13216Y2325D01*
X13458Y2325D01*
X13513Y2348D01*
X13555Y2389D01*
X13577Y2444D01*
X13577Y2503D01*
X13577Y1250D01*
X13515Y1250D01*
X13515Y1725D01*
X13503Y1901D01*
X13460Y2005D01*
X13393Y2037D01*
X13323Y1966D01*
X13323Y2108D01*
X13290Y2174D01*
X13178Y2212D01*
X13178Y3826D01*
X13178Y4063D01*
X13178Y4163D01*
X13178Y4399D01*
X13141Y4436D01*
X12982Y4436D01*
X12923Y4436D01*
X12869Y4413D01*
X12827Y4372D01*
X12804Y4317D01*
X12804Y4200D01*
X12842Y4163D01*
X13178Y4163D01*
X13178Y4063D01*
X12842Y4063D01*
X12804Y4026D01*
X12804Y3908D01*
X12827Y3854D01*
X12869Y3812D01*
X12923Y3789D01*
X12982Y3789D01*
X13141Y3789D01*
X13178Y3826D01*
X13178Y2212D01*
X13123Y2230D01*
X13079Y2227D01*
X13079Y2362D01*
X13079Y2824D01*
X13079Y2924D01*
X13079Y3385D01*
X13042Y3422D01*
X12800Y3422D01*
X12784Y3416D01*
X12784Y5275D01*
X12784Y5736D01*
X12784Y5836D01*
X12784Y6297D01*
X12747Y6335D01*
X12605Y6335D01*
X12550Y6312D01*
X12508Y6270D01*
X12486Y6216D01*
X12486Y6157D01*
X12486Y5873D01*
X12523Y5836D01*
X12784Y5836D01*
X12784Y5736D01*
X12523Y5736D01*
X12486Y5699D01*
X12486Y5416D01*
X12486Y5356D01*
X12508Y5302D01*
X12550Y5260D01*
X12605Y5238D01*
X12747Y5238D01*
X12784Y5275D01*
X12784Y3416D01*
X12745Y3399D01*
X12703Y3358D01*
X12681Y3303D01*
X12681Y3244D01*
X12681Y2961D01*
X12718Y2924D01*
X13079Y2924D01*
X13079Y2824D01*
X12718Y2824D01*
X12681Y2786D01*
X12681Y2503D01*
X12681Y2444D01*
X12703Y2389D01*
X12745Y2348D01*
X12800Y2325D01*
X13042Y2325D01*
X13079Y2362D01*
X13079Y2227D01*
X12947Y2217D01*
X12843Y2174D01*
X12810Y2108D01*
X13066Y1852D01*
X13323Y2108D01*
X13323Y1966D01*
X13137Y1781D01*
X13393Y1525D01*
X13460Y1557D01*
X13515Y1725D01*
X13515Y1250D01*
X13323Y1250D01*
X13323Y1454D01*
X13066Y1710D01*
X12996Y1640D01*
X12996Y1781D01*
X12740Y2037D01*
X12673Y2005D01*
X12618Y1837D01*
X12630Y1661D01*
X12673Y1557D01*
X12740Y1525D01*
X12996Y1781D01*
X12996Y1640D01*
X12810Y1454D01*
X12843Y1388D01*
X13010Y1332D01*
X13186Y1345D01*
X13290Y1388D01*
X13323Y1454D01*
X13323Y1250D01*
X12503Y1250D01*
X12409Y1345D01*
X12446Y1360D01*
X12487Y1402D01*
X12510Y1456D01*
X12510Y1515D01*
X12510Y2106D01*
X12488Y2160D01*
X12446Y2202D01*
X12391Y2225D01*
X12332Y2225D01*
X12284Y2225D01*
X12284Y2366D01*
X12466Y2366D01*
X12521Y2388D01*
X12563Y2430D01*
X12585Y2484D01*
X12585Y2543D01*
X12585Y3143D01*
X12563Y3198D01*
X12521Y3240D01*
X12467Y3262D01*
X12408Y3263D01*
X11608Y3263D01*
X11553Y3240D01*
X11511Y3198D01*
X11489Y3144D01*
X11488Y3085D01*
X11488Y2485D01*
X11511Y2430D01*
X11553Y2388D01*
X11607Y2366D01*
X11666Y2366D01*
X11790Y2366D01*
X11790Y2225D01*
X11742Y2225D01*
X11687Y2202D01*
X11645Y2160D01*
X11623Y2106D01*
X11623Y2047D01*
X11623Y1456D01*
X11645Y1402D01*
X11687Y1360D01*
X11742Y1337D01*
X11801Y1337D01*
X11820Y1337D01*
X11838Y1244D01*
X11892Y1164D01*
X12100Y955D01*
X11467Y955D01*
X11467Y3667D01*
X11520Y3721D01*
X11553Y3688D01*
X11607Y3666D01*
X11666Y3666D01*
X12466Y3666D01*
X12521Y3688D01*
X12563Y3730D01*
X12585Y3784D01*
X12585Y3843D01*
X12585Y4443D01*
X12563Y4498D01*
X12521Y4540D01*
X12467Y4562D01*
X12408Y4563D01*
X12181Y4563D01*
X12181Y5245D01*
X12218Y5260D01*
X12260Y5302D01*
X12283Y5356D01*
X12283Y5416D01*
X12283Y6216D01*
X12260Y6270D01*
X12218Y6312D01*
X12164Y6335D01*
X12105Y6335D01*
X11705Y6335D01*
X11650Y6312D01*
X11608Y6270D01*
X11586Y6216D01*
X11586Y6157D01*
X11586Y5357D01*
X11608Y5302D01*
X11650Y5260D01*
X11687Y5245D01*
X11687Y4563D01*
X11608Y4563D01*
X11553Y4540D01*
X11511Y4498D01*
X11489Y4444D01*
X11488Y4385D01*
X11488Y4346D01*
X11470Y4342D01*
X11467Y4340D01*
X11467Y9398D01*
X15421Y9398D01*
X16957Y7862D01*
X16957Y7086D01*
X16973Y7007D01*
X17013Y6947D01*
X16899Y6994D01*
X16723Y6994D01*
X16678Y6976D01*
X16619Y7036D01*
X16551Y7081D01*
X16472Y7097D01*
X16131Y7097D01*
X16131Y7194D01*
X16108Y7248D01*
X16093Y7263D01*
X16108Y7278D01*
X16131Y7333D01*
X16131Y7392D01*
X16131Y7942D01*
X16108Y7996D01*
X16067Y8038D01*
X16012Y8061D01*
X15953Y8061D01*
X15603Y8061D01*
X15549Y8038D01*
X15507Y7996D01*
X15484Y7942D01*
X15484Y7883D01*
X15484Y7333D01*
X15507Y7278D01*
X15522Y7263D01*
X15507Y7248D01*
X15484Y7194D01*
X15484Y7135D01*
X15484Y6585D01*
X15507Y6530D01*
X15522Y6515D01*
X15507Y6500D01*
X15484Y6446D01*
X15484Y6387D01*
X15484Y5837D01*
X15507Y5782D01*
X15522Y5767D01*
X15507Y5752D01*
X15484Y5698D01*
X15484Y5639D01*
X15484Y5089D01*
X15507Y5034D01*
X15548Y4992D01*
X15603Y4970D01*
X15662Y4970D01*
X16012Y4970D01*
X16067Y4992D01*
X16108Y5034D01*
X16131Y5089D01*
X16131Y5148D01*
X16131Y5186D01*
X16383Y5186D01*
X16389Y5171D01*
X16431Y5130D01*
X16486Y5107D01*
X16545Y5107D01*
X17135Y5107D01*
X17190Y5130D01*
X17232Y5171D01*
X17254Y5226D01*
X17254Y5285D01*
X17254Y5343D01*
X17886Y5343D01*
X18620Y4609D01*
X18620Y4609D01*
X18665Y4579D01*
X18687Y4564D01*
X18687Y4564D01*
X18767Y4549D01*
X18887Y4549D01*
X18887Y4495D01*
X18887Y4517D01*
X18924Y4480D01*
X19379Y4480D01*
X19379Y4494D01*
X19479Y4494D01*
X19479Y4480D01*
X19934Y4480D01*
X19971Y4517D01*
X19971Y4495D01*
X19971Y4554D01*
X19953Y4596D01*
X19971Y4638D01*
X19971Y4697D01*
X19971Y4874D01*
X19955Y4911D01*
X19971Y4948D01*
X19971Y5007D01*
X19971Y4985D01*
X19934Y5022D01*
X19479Y5022D01*
X19479Y5008D01*
X19379Y5008D01*
X19379Y5022D01*
X18924Y5022D01*
X18887Y4985D01*
X18887Y5007D01*
X18887Y4964D01*
X18853Y4964D01*
X18327Y5489D01*
X18887Y5489D01*
X18887Y5445D01*
X18887Y5268D01*
X18904Y5226D01*
X18887Y5184D01*
X18887Y5125D01*
X18887Y5147D01*
X18924Y5110D01*
X19379Y5110D01*
X19379Y5124D01*
X19479Y5124D01*
X19479Y5110D01*
X19934Y5110D01*
X19971Y5147D01*
X19971Y5125D01*
X19971Y5149D01*
X20018Y5158D01*
X20018Y5158D01*
X20098Y5211D01*
X20213Y5327D01*
X20267Y5407D01*
X20267Y5407D01*
X20286Y5501D01*
X20286Y5793D01*
X20299Y5806D01*
X20672Y5806D01*
X20701Y5777D01*
X20820Y5727D01*
X20950Y5727D01*
X21070Y5776D01*
X21099Y5806D01*
X22122Y5806D01*
X22332Y5596D01*
X22332Y5206D01*
X22350Y5111D01*
X22404Y5031D01*
X22542Y4893D01*
X22622Y4840D01*
X22622Y4840D01*
X22653Y4834D01*
X22653Y4812D01*
X22653Y4834D01*
X22653Y4834D01*
X22690Y4797D01*
X23145Y4797D01*
X23145Y4811D01*
X23245Y4811D01*
X23245Y4797D01*
X23700Y4797D01*
X23737Y4834D01*
X23737Y4812D01*
X23737Y4871D01*
X23720Y4911D01*
X23737Y4950D01*
X23737Y5009D01*
X23737Y5186D01*
X23720Y5226D01*
X23737Y5265D01*
X23737Y5324D01*
X23737Y5302D01*
X23700Y5339D01*
X23245Y5339D01*
X23245Y5325D01*
X23145Y5325D01*
X23145Y5339D01*
X23137Y5339D01*
X23137Y5427D01*
X23145Y5427D01*
X23145Y5441D01*
X23245Y5441D01*
X23245Y5427D01*
X23700Y5427D01*
X23737Y5464D01*
X23737Y5442D01*
X23737Y5501D01*
X23720Y5541D01*
X23737Y5580D01*
X23737Y5639D01*
X23737Y5816D01*
X23720Y5856D01*
X23737Y5895D01*
X23737Y5954D01*
X23737Y6121D01*
X23848Y6121D01*
X23927Y6136D01*
X23927Y6136D01*
X23994Y6181D01*
X24931Y7118D01*
X24976Y7185D01*
X24976Y7185D01*
X24991Y7264D01*
X24991Y8829D01*
X25043Y8851D01*
X25085Y8892D01*
X25107Y8947D01*
X25107Y9006D01*
X25107Y9016D01*
X25164Y8958D01*
X25146Y8915D01*
X25146Y8738D01*
X25214Y8575D01*
X25338Y8450D01*
X25501Y8383D01*
X25678Y8382D01*
X25841Y8450D01*
X25966Y8575D01*
X26034Y8738D01*
X26034Y8914D01*
X25966Y9077D01*
X25842Y9202D01*
X25679Y9270D01*
X25502Y9270D01*
X25458Y9252D01*
X25312Y9398D01*
X25244Y9443D01*
X25165Y9459D01*
X25107Y9459D01*
X25107Y9556D01*
X25085Y9610D01*
X25050Y9645D01*
X25085Y9680D01*
X25107Y9734D01*
X25107Y9793D01*
X25107Y9831D01*
X25146Y9831D01*
X25146Y9738D01*
X25214Y9575D01*
X25338Y9450D01*
X25501Y9383D01*
X25678Y9382D01*
X25841Y9450D01*
X25966Y9575D01*
X26034Y9738D01*
X26034Y9914D01*
X25966Y10077D01*
X25842Y10202D01*
X25679Y10270D01*
X25502Y10270D01*
X25423Y10237D01*
X25377Y10246D01*
X25107Y10246D01*
X25107Y10343D01*
X25085Y10398D01*
X25043Y10440D01*
X24989Y10462D01*
X24930Y10462D01*
X24580Y10462D01*
X24525Y10440D01*
X24483Y10398D01*
X24461Y10344D01*
X24460Y10284D01*
X24460Y10241D01*
X24408Y10231D01*
X24386Y10216D01*
X24357Y10197D01*
X24357Y10343D01*
X24335Y10398D01*
X24332Y10400D01*
X24511Y10579D01*
X25146Y10579D01*
X25146Y10502D01*
X25169Y10447D01*
X25211Y10405D01*
X25265Y10383D01*
X25324Y10383D01*
X25915Y10383D01*
X25969Y10405D01*
X26011Y10447D01*
X26034Y10501D01*
X26034Y10560D01*
X26034Y11151D01*
X26011Y11206D01*
X25970Y11247D01*
X25915Y11270D01*
X25856Y11270D01*
X25265Y11270D01*
X25211Y11247D01*
X25169Y11206D01*
X25146Y11151D01*
X25146Y11092D01*
X25146Y11073D01*
X24409Y11073D01*
X24314Y11054D01*
X24234Y11001D01*
X23859Y10626D01*
X23806Y10546D01*
X23787Y10451D01*
X23787Y10445D01*
X23775Y10440D01*
X23733Y10398D01*
X23711Y10344D01*
X23710Y10284D01*
X23710Y9734D01*
X23733Y9680D01*
X23768Y9645D01*
X23733Y9611D01*
X23711Y9556D01*
X23710Y9497D01*
X23710Y8947D01*
X23733Y8893D01*
X23775Y8851D01*
X23829Y8828D01*
X23888Y8828D01*
X24125Y8828D01*
X22648Y7351D01*
X22648Y7539D01*
X22625Y7594D01*
X22583Y7635D01*
X22529Y7658D01*
X22470Y7658D01*
X22304Y7658D01*
X22304Y7916D01*
X22489Y8101D01*
X22534Y8168D01*
X22534Y8168D01*
X22536Y8181D01*
X22549Y8248D01*
X22550Y8248D01*
X22550Y9862D01*
X22534Y9941D01*
X22534Y9941D01*
X22519Y9963D01*
X22489Y10008D01*
X22489Y10008D01*
X22296Y10201D01*
X22259Y10226D01*
X22259Y10226D01*
X22226Y10306D01*
X22102Y10431D01*
X21939Y10498D01*
X21821Y10498D01*
X21821Y12166D01*
X21756Y12322D01*
X21637Y12441D01*
X21482Y12506D01*
X21313Y12506D01*
X21158Y12441D01*
X21038Y12322D01*
X20974Y12167D01*
X20974Y11998D01*
X21038Y11843D01*
X21157Y11723D01*
X21313Y11659D01*
X21481Y11659D01*
X21637Y11723D01*
X21756Y11842D01*
X21820Y11998D01*
X21821Y12166D01*
X21821Y10498D01*
X21762Y10498D01*
X21599Y10431D01*
X21474Y10306D01*
X21456Y10262D01*
X21427Y10262D01*
X21427Y10265D01*
X21405Y10320D01*
X21363Y10361D01*
X21309Y10384D01*
X21250Y10384D01*
X21073Y10384D01*
X21073Y10551D01*
X21057Y10630D01*
X21057Y10630D01*
X21012Y10697D01*
X20821Y10889D01*
X20821Y12166D01*
X20756Y12322D01*
X20637Y12441D01*
X20482Y12506D01*
X20313Y12506D01*
X20158Y12441D01*
X20038Y12322D01*
X19974Y12167D01*
X19974Y11998D01*
X20038Y11843D01*
X20157Y11723D01*
X20313Y11659D01*
X20481Y11659D01*
X20637Y11723D01*
X20756Y11842D01*
X20820Y11998D01*
X20821Y12166D01*
X20821Y10889D01*
X20776Y10934D01*
X20709Y10979D01*
X20629Y10994D01*
X19826Y10994D01*
X19826Y12031D01*
X19813Y12199D01*
X19773Y12294D01*
X19709Y12324D01*
X19639Y12253D01*
X19639Y12394D01*
X19609Y12458D01*
X19449Y12511D01*
X19281Y12498D01*
X19186Y12458D01*
X19156Y12394D01*
X19397Y12153D01*
X19639Y12394D01*
X19639Y12253D01*
X19468Y12082D01*
X19709Y11841D01*
X19773Y11871D01*
X19826Y12031D01*
X19826Y10994D01*
X19639Y10994D01*
X19639Y11770D01*
X19397Y12011D01*
X19326Y11941D01*
X19326Y12082D01*
X19085Y12324D01*
X19021Y12294D01*
X18968Y12134D01*
X18981Y11966D01*
X19021Y11871D01*
X19085Y11841D01*
X19326Y12082D01*
X19326Y11941D01*
X19156Y11770D01*
X19186Y11706D01*
X19346Y11654D01*
X19514Y11666D01*
X19609Y11706D01*
X19639Y11770D01*
X19639Y10994D01*
X18821Y10994D01*
X18821Y12166D01*
X18756Y12322D01*
X18637Y12441D01*
X18482Y12506D01*
X18313Y12506D01*
X18158Y12441D01*
X18038Y12322D01*
X17974Y12167D01*
X17974Y11998D01*
X18038Y11843D01*
X18157Y11723D01*
X18313Y11659D01*
X18481Y11659D01*
X18637Y11723D01*
X18756Y11842D01*
X18820Y11998D01*
X18821Y12166D01*
X18821Y10994D01*
X14616Y10994D01*
X14616Y12548D01*
X14964Y12548D01*
X14913Y12497D01*
X14875Y12406D01*
X14875Y12308D01*
X14875Y11758D01*
X14913Y11668D01*
X14982Y11598D01*
X15073Y11560D01*
X15171Y11560D01*
X15721Y11560D01*
X15812Y11598D01*
X15881Y11667D01*
X15919Y11758D01*
X15919Y11856D01*
X15919Y11873D01*
X15954Y11787D01*
X16101Y11640D01*
X16293Y11560D01*
X16500Y11560D01*
X16692Y11640D01*
X16839Y11786D01*
X16919Y11978D01*
X16919Y12171D01*
X17016Y12268D01*
X16974Y12167D01*
X16974Y11998D01*
X17038Y11843D01*
X17157Y11723D01*
X17313Y11659D01*
X17481Y11659D01*
X17637Y11723D01*
X17756Y11842D01*
X17820Y11998D01*
X17821Y12166D01*
X17756Y12322D01*
X17637Y12441D01*
X17482Y12506D01*
X17313Y12506D01*
X17211Y12463D01*
X17296Y12548D01*
X22158Y12548D01*
X22102Y12525D01*
X21955Y12378D01*
X21875Y12186D01*
X21875Y11979D01*
X21954Y11787D01*
X22101Y11640D01*
X22293Y11560D01*
X22500Y11560D01*
X22692Y11640D01*
X22839Y11786D01*
X22919Y11978D01*
X22919Y12186D01*
X22840Y12377D01*
X22693Y12524D01*
X22636Y12548D01*
X23759Y12548D01*
X23772Y12517D01*
X23814Y12475D01*
X23868Y12453D01*
X23927Y12453D01*
X24477Y12453D01*
X24532Y12475D01*
X24573Y12517D01*
X24586Y12548D01*
X24703Y12548D01*
X24757Y12512D01*
X24874Y12489D01*
X25046Y12489D01*
X25163Y12512D01*
X25217Y12548D01*
X25531Y12548D01*
X25543Y12517D01*
X25585Y12475D01*
X25640Y12453D01*
X25699Y12453D01*
X26249Y12453D01*
X26303Y12475D01*
X26345Y12517D01*
X26358Y12548D01*
X26475Y12548D01*
X26528Y12512D01*
X26646Y12489D01*
X26818Y12489D01*
X26935Y12512D01*
X26989Y12548D01*
X27115Y12548D01*
X27115Y2412D01*
G54D10*
G36*
X10973Y443D02*
X2614Y443D01*
X2614Y7857D01*
X2601Y8033D01*
X2558Y8137D01*
X2492Y8169D01*
X2421Y8099D01*
X2421Y8240D01*
X2389Y8306D01*
X2221Y8362D01*
X2045Y8349D01*
X1941Y8306D01*
X1909Y8240D01*
X2165Y7984D01*
X2421Y8240D01*
X2421Y8099D01*
X2236Y7913D01*
X2492Y7657D01*
X2558Y7689D01*
X2614Y7857D01*
X2614Y443D01*
X2421Y443D01*
X2421Y7586D01*
X2165Y7842D01*
X2094Y7771D01*
X2094Y7913D01*
X1838Y8169D01*
X1772Y8137D01*
X1716Y7969D01*
X1728Y7793D01*
X1772Y7689D01*
X1838Y7657D01*
X2094Y7913D01*
X2094Y7771D01*
X1909Y7586D01*
X1941Y7520D01*
X2108Y7464D01*
X2285Y7476D01*
X2389Y7520D01*
X2421Y7586D01*
X2421Y443D01*
X2412Y443D01*
X2412Y2412D01*
X1236Y2412D01*
X1236Y4290D01*
X1223Y4466D01*
X1180Y4570D01*
X1114Y4602D01*
X1043Y4531D01*
X1043Y4673D01*
X1011Y4739D01*
X843Y4795D01*
X667Y4782D01*
X563Y4739D01*
X531Y4673D01*
X787Y4417D01*
X1043Y4673D01*
X1043Y4531D01*
X858Y4346D01*
X1114Y4090D01*
X1180Y4122D01*
X1236Y4290D01*
X1236Y2412D01*
X443Y2412D01*
X443Y2910D01*
X462Y2902D01*
X521Y2902D01*
X1112Y2902D01*
X1166Y2925D01*
X1208Y2966D01*
X1231Y3021D01*
X1231Y3080D01*
X1231Y3671D01*
X1208Y3725D01*
X1166Y3767D01*
X1112Y3790D01*
X1053Y3790D01*
X1043Y3790D01*
X1043Y4019D01*
X787Y4275D01*
X531Y4019D01*
X563Y3953D01*
X731Y3897D01*
X907Y3910D01*
X1011Y3953D01*
X1043Y4019D01*
X1043Y3790D01*
X462Y3790D01*
X443Y3782D01*
X443Y4098D01*
X460Y4090D01*
X716Y4346D01*
X460Y4602D01*
X443Y4594D01*
X443Y10579D01*
X1213Y10579D01*
X1821Y9971D01*
X1889Y9926D01*
X1889Y9926D01*
X1968Y9910D01*
X10150Y9910D01*
X10601Y9459D01*
X10601Y9459D01*
X10646Y9429D01*
X10668Y9414D01*
X10668Y9414D01*
X10748Y9398D01*
X10973Y9398D01*
X10973Y4466D01*
X10859Y4581D01*
X10872Y4613D01*
X10872Y4850D01*
X10872Y4850D01*
X10872Y8431D01*
X10872Y9131D01*
X10834Y9221D01*
X10765Y9291D01*
X10674Y9329D01*
X10576Y9329D01*
X9876Y9329D01*
X9785Y9291D01*
X9716Y9222D01*
X9678Y9131D01*
X9678Y9033D01*
X9678Y8333D01*
X9716Y8242D01*
X9785Y8173D01*
X9876Y8135D01*
X9974Y8135D01*
X10674Y8135D01*
X10765Y8172D01*
X10834Y8242D01*
X10872Y8332D01*
X10872Y8431D01*
X10872Y4850D01*
X10781Y5069D01*
X10614Y5237D01*
X10394Y5329D01*
X10157Y5329D01*
X9937Y5238D01*
X9769Y5070D01*
X9678Y4851D01*
X9678Y4614D01*
X9769Y4394D01*
X9937Y4226D01*
X10156Y4135D01*
X10393Y4135D01*
X10426Y4148D01*
X10520Y4054D01*
X10520Y3601D01*
X10499Y3622D01*
X10380Y3671D01*
X10250Y3672D01*
X10130Y3622D01*
X10039Y3531D01*
X9989Y3411D01*
X9989Y3281D01*
X10038Y3162D01*
X10088Y3112D01*
X10088Y3083D01*
X10076Y3078D01*
X10034Y3036D01*
X10012Y2981D01*
X10012Y2922D01*
X10012Y2372D01*
X10034Y2318D01*
X10039Y2313D01*
X9900Y2313D01*
X9889Y2309D01*
X9883Y2315D01*
X9886Y2317D01*
X9909Y2372D01*
X9909Y2431D01*
X9909Y2981D01*
X9886Y3036D01*
X9844Y3077D01*
X9790Y3100D01*
X9731Y3100D01*
X9381Y3100D01*
X9326Y3078D01*
X9284Y3036D01*
X9282Y3030D01*
X9282Y7480D01*
X9282Y7559D01*
X9282Y8070D01*
X9282Y8070D01*
X9258Y8187D01*
X9192Y8287D01*
X9192Y8287D01*
X9130Y8349D01*
X9170Y8357D01*
X9301Y8444D01*
X9389Y8575D01*
X9420Y8730D01*
X9420Y8907D01*
X9389Y9061D01*
X9301Y9193D01*
X9170Y9280D01*
X9015Y9311D01*
X8861Y9280D01*
X8729Y9193D01*
X8642Y9061D01*
X8638Y9044D01*
X8579Y9083D01*
X8425Y9114D01*
X8270Y9083D01*
X8139Y8996D01*
X8126Y8976D01*
X8117Y9022D01*
X8050Y9121D01*
X7951Y9187D01*
X7834Y9211D01*
X7798Y9203D01*
X7772Y9229D01*
X7692Y9283D01*
X7598Y9301D01*
X7194Y9301D01*
X7194Y9359D01*
X7171Y9414D01*
X7130Y9455D01*
X7075Y9478D01*
X7016Y9478D01*
X6666Y9478D01*
X6612Y9456D01*
X6570Y9414D01*
X6547Y9359D01*
X6547Y9300D01*
X6547Y8750D01*
X6570Y8696D01*
X6611Y8654D01*
X6666Y8631D01*
X6725Y8631D01*
X7075Y8631D01*
X7130Y8654D01*
X7171Y8695D01*
X7194Y8750D01*
X7194Y8808D01*
X7496Y8808D01*
X7528Y8775D01*
X7528Y8732D01*
X7552Y8615D01*
X7618Y8516D01*
X7717Y8450D01*
X7834Y8426D01*
X7951Y8450D01*
X8027Y8500D01*
X8051Y8379D01*
X8139Y8247D01*
X8270Y8160D01*
X8425Y8129D01*
X8475Y8139D01*
X8670Y7944D01*
X8670Y7559D01*
X8670Y7480D01*
X8670Y4006D01*
X8219Y4457D01*
X8219Y4619D01*
X8137Y4818D01*
X8121Y4834D01*
X8121Y6245D01*
X8121Y6836D01*
X8098Y6891D01*
X8056Y6933D01*
X8002Y6955D01*
X7943Y6955D01*
X7721Y6955D01*
X7863Y7097D01*
X7863Y7097D01*
X7893Y7142D01*
X7908Y7164D01*
X7908Y7164D01*
X7924Y7244D01*
X7924Y7244D01*
X7924Y7874D01*
X7910Y7940D01*
X7908Y7953D01*
X7908Y7953D01*
X7863Y8020D01*
X7331Y8552D01*
X7264Y8597D01*
X7185Y8612D01*
X6404Y8612D01*
X6368Y8649D01*
X6380Y8654D01*
X6421Y8695D01*
X6444Y8750D01*
X6444Y8809D01*
X6444Y9359D01*
X6421Y9414D01*
X6380Y9455D01*
X6325Y9478D01*
X6266Y9478D01*
X6169Y9478D01*
X5973Y9674D01*
X5906Y9719D01*
X5826Y9735D01*
X4881Y9735D01*
X4815Y9721D01*
X4802Y9719D01*
X4735Y9674D01*
X4512Y9451D01*
X4398Y9451D01*
X4344Y9428D01*
X4303Y9387D01*
X4262Y9428D01*
X4207Y9451D01*
X4148Y9451D01*
X4003Y9451D01*
X3871Y9583D01*
X3790Y9637D01*
X3696Y9656D01*
X3228Y9656D01*
X2609Y9656D01*
X2609Y9734D01*
X2586Y9788D01*
X2545Y9830D01*
X2490Y9853D01*
X2431Y9853D01*
X1840Y9853D01*
X1785Y9830D01*
X1744Y9789D01*
X1721Y9734D01*
X1721Y9675D01*
X1721Y9084D01*
X1743Y9029D01*
X1785Y8988D01*
X1840Y8965D01*
X1899Y8965D01*
X2490Y8965D01*
X2544Y8988D01*
X2586Y9029D01*
X2609Y9084D01*
X2609Y9143D01*
X2609Y9162D01*
X3228Y9162D01*
X3594Y9162D01*
X3779Y8977D01*
X3779Y8773D01*
X3802Y8718D01*
X3843Y8677D01*
X3898Y8654D01*
X3957Y8654D01*
X4207Y8654D01*
X4262Y8676D01*
X4303Y8717D01*
X4343Y8677D01*
X4398Y8654D01*
X4457Y8654D01*
X4707Y8654D01*
X4762Y8676D01*
X4803Y8717D01*
X4831Y8689D01*
X4831Y8599D01*
X4763Y8531D01*
X4713Y8411D01*
X4713Y8281D01*
X4763Y8162D01*
X4854Y8070D01*
X4974Y8020D01*
X5103Y8020D01*
X5223Y8070D01*
X5315Y8161D01*
X5364Y8281D01*
X5365Y8410D01*
X5315Y8530D01*
X5246Y8599D01*
X5246Y8670D01*
X5262Y8676D01*
X5303Y8717D01*
X5344Y8676D01*
X5398Y8654D01*
X5466Y8654D01*
X5503Y8691D01*
X5503Y9002D01*
X5495Y9002D01*
X5495Y9102D01*
X5503Y9102D01*
X5503Y9110D01*
X5603Y9110D01*
X5603Y9102D01*
X5611Y9102D01*
X5611Y9002D01*
X5603Y9002D01*
X5603Y8691D01*
X5640Y8654D01*
X5707Y8654D01*
X5762Y8676D01*
X5803Y8718D01*
X5807Y8727D01*
X5820Y8696D01*
X5861Y8654D01*
X5913Y8632D01*
X5913Y8603D01*
X5929Y8523D01*
X5974Y8456D01*
X6172Y8258D01*
X6203Y8237D01*
X6092Y8237D01*
X6033Y8237D01*
X5979Y8215D01*
X5937Y8173D01*
X5915Y8118D01*
X5915Y8001D01*
X5952Y7964D01*
X6288Y7964D01*
X6288Y7972D01*
X6388Y7972D01*
X6388Y7964D01*
X6724Y7964D01*
X6762Y8001D01*
X6762Y8118D01*
X6739Y8173D01*
X6714Y8198D01*
X7099Y8198D01*
X7298Y7999D01*
X7289Y8002D01*
X7120Y8002D01*
X6964Y7938D01*
X6845Y7819D01*
X6780Y7663D01*
X6780Y7587D01*
X6762Y7568D01*
X6762Y7709D01*
X6762Y7827D01*
X6724Y7864D01*
X6388Y7864D01*
X6388Y7628D01*
X6425Y7590D01*
X6584Y7590D01*
X6643Y7590D01*
X6697Y7613D01*
X6739Y7655D01*
X6762Y7709D01*
X6762Y7568D01*
X6745Y7551D01*
X6662Y7586D01*
X6564Y7586D01*
X6288Y7586D01*
X6288Y7628D01*
X6288Y7864D01*
X5952Y7864D01*
X5915Y7827D01*
X5915Y7709D01*
X5937Y7655D01*
X5979Y7613D01*
X6033Y7590D01*
X6092Y7590D01*
X6251Y7590D01*
X6288Y7628D01*
X6288Y7586D01*
X6014Y7586D01*
X5923Y7548D01*
X5854Y7479D01*
X5849Y7467D01*
X5747Y7446D01*
X5648Y7380D01*
X5617Y7349D01*
X5379Y7349D01*
X5288Y7312D01*
X5221Y7245D01*
X5207Y7251D01*
X5148Y7251D01*
X4898Y7251D01*
X4844Y7228D01*
X4803Y7187D01*
X4762Y7228D01*
X4707Y7251D01*
X4648Y7251D01*
X4398Y7251D01*
X4344Y7228D01*
X4303Y7187D01*
X4262Y7228D01*
X4207Y7251D01*
X4140Y7251D01*
X4103Y7214D01*
X4103Y6902D01*
X4111Y6902D01*
X4111Y6802D01*
X4103Y6802D01*
X4103Y6491D01*
X4140Y6454D01*
X4207Y6454D01*
X4262Y6476D01*
X4303Y6517D01*
X4343Y6477D01*
X4345Y6476D01*
X4345Y6470D01*
X4361Y6391D01*
X4406Y6323D01*
X4775Y5954D01*
X4775Y5404D01*
X4798Y5349D01*
X4833Y5314D01*
X4798Y5280D01*
X4776Y5225D01*
X4775Y5166D01*
X4775Y4616D01*
X4798Y4562D01*
X4833Y4527D01*
X4798Y4493D01*
X4776Y4438D01*
X4775Y4379D01*
X4775Y3829D01*
X4798Y3774D01*
X4840Y3733D01*
X4894Y3710D01*
X4953Y3710D01*
X5303Y3710D01*
X5358Y3732D01*
X5400Y3774D01*
X5422Y3829D01*
X5422Y3888D01*
X5422Y4438D01*
X5400Y4492D01*
X5365Y4527D01*
X5400Y4562D01*
X5422Y4616D01*
X5422Y4675D01*
X5422Y5225D01*
X5400Y5280D01*
X5365Y5314D01*
X5400Y5349D01*
X5413Y5381D01*
X5426Y5349D01*
X5468Y5307D01*
X5522Y5285D01*
X5581Y5285D01*
X5931Y5285D01*
X5986Y5307D01*
X6028Y5349D01*
X6050Y5404D01*
X6050Y5463D01*
X6050Y6012D01*
X6153Y6012D01*
X6153Y5954D01*
X6153Y5404D01*
X6176Y5349D01*
X6218Y5307D01*
X6272Y5285D01*
X6331Y5285D01*
X6681Y5285D01*
X6736Y5307D01*
X6778Y5349D01*
X6800Y5404D01*
X6800Y5463D01*
X6800Y6013D01*
X6778Y6067D01*
X6736Y6109D01*
X6684Y6130D01*
X6684Y6155D01*
X7233Y6703D01*
X7233Y6186D01*
X7255Y6132D01*
X7297Y6090D01*
X7352Y6067D01*
X7411Y6067D01*
X8002Y6067D01*
X8056Y6090D01*
X8098Y6132D01*
X8121Y6186D01*
X8121Y6245D01*
X8121Y4834D01*
X7984Y4971D01*
X7785Y5054D01*
X7569Y5054D01*
X7370Y4971D01*
X7217Y4819D01*
X7134Y4620D01*
X7134Y4404D01*
X7217Y4204D01*
X7369Y4052D01*
X7568Y3969D01*
X7731Y3969D01*
X8100Y3600D01*
X8100Y3406D01*
X8061Y3367D01*
X8024Y3277D01*
X8023Y3178D01*
X8023Y2628D01*
X8061Y2538D01*
X8130Y2468D01*
X8221Y2430D01*
X8319Y2430D01*
X8669Y2430D01*
X8670Y2431D01*
X8670Y2306D01*
X8567Y2203D01*
X8493Y2025D01*
X8493Y1833D01*
X8566Y1655D01*
X8702Y1520D01*
X8879Y1446D01*
X9072Y1446D01*
X9249Y1519D01*
X9385Y1655D01*
X9459Y1832D01*
X9459Y2024D01*
X9385Y2202D01*
X9282Y2306D01*
X9282Y2324D01*
X9284Y2318D01*
X9326Y2276D01*
X9380Y2253D01*
X9391Y2253D01*
X9393Y2240D01*
X9438Y2173D01*
X9596Y2015D01*
X9592Y2005D01*
X9591Y1853D01*
X9650Y1711D01*
X9758Y1603D01*
X9899Y1544D01*
X10052Y1544D01*
X10193Y1603D01*
X10302Y1711D01*
X10360Y1852D01*
X10360Y2005D01*
X10302Y2146D01*
X10195Y2253D01*
X10520Y2253D01*
X10520Y1769D01*
X10120Y1368D01*
X8360Y1368D01*
X8360Y2005D01*
X8302Y2146D01*
X8194Y2254D01*
X8053Y2313D01*
X7903Y2313D01*
X7903Y2530D01*
X7954Y2551D01*
X7996Y2593D01*
X8019Y2648D01*
X8019Y2707D01*
X8019Y3257D01*
X7996Y3311D01*
X7955Y3353D01*
X7900Y3376D01*
X7841Y3376D01*
X7491Y3376D01*
X7436Y3353D01*
X7395Y3311D01*
X7372Y3257D01*
X7372Y3198D01*
X7372Y2648D01*
X7394Y2593D01*
X7436Y2552D01*
X7488Y2530D01*
X7488Y2209D01*
X7504Y2130D01*
X7549Y2062D01*
X7596Y2015D01*
X7592Y2005D01*
X7591Y1853D01*
X7650Y1711D01*
X7758Y1603D01*
X7899Y1544D01*
X8052Y1544D01*
X8193Y1603D01*
X8302Y1711D01*
X8360Y1852D01*
X8360Y2005D01*
X8360Y1368D01*
X5987Y1368D01*
X6067Y1449D01*
X6144Y1632D01*
X6144Y1830D01*
X6068Y2014D01*
X5928Y2154D01*
X5745Y2230D01*
X5546Y2230D01*
X5363Y2155D01*
X5223Y2014D01*
X5198Y1956D01*
X5151Y2069D01*
X4984Y2237D01*
X4951Y2251D01*
X4951Y2716D01*
X4928Y2833D01*
X4861Y2932D01*
X4861Y2932D01*
X4655Y3139D01*
X4655Y3645D01*
X4664Y3649D01*
X4733Y3718D01*
X4771Y3809D01*
X4771Y3907D01*
X4771Y4457D01*
X4733Y4548D01*
X4670Y4611D01*
X4672Y4616D01*
X4672Y4675D01*
X4672Y5225D01*
X4650Y5280D01*
X4615Y5314D01*
X4650Y5349D01*
X4672Y5404D01*
X4672Y5463D01*
X4672Y5954D01*
X4672Y6013D01*
X4650Y6067D01*
X4608Y6109D01*
X4553Y6132D01*
X4436Y6132D01*
X4399Y6094D01*
X4399Y5758D01*
X4635Y5758D01*
X4672Y5795D01*
X4672Y5954D01*
X4672Y5463D01*
X4672Y5621D01*
X4635Y5658D01*
X4399Y5658D01*
X4399Y5650D01*
X4299Y5650D01*
X4299Y5658D01*
X4299Y5758D01*
X4299Y6094D01*
X4262Y6132D01*
X4145Y6132D01*
X4090Y6109D01*
X4048Y6067D01*
X4026Y6013D01*
X4025Y5954D01*
X4025Y5795D01*
X4063Y5758D01*
X4299Y5758D01*
X4299Y5658D01*
X4063Y5658D01*
X4025Y5621D01*
X4025Y5463D01*
X4026Y5404D01*
X4048Y5349D01*
X4083Y5314D01*
X4048Y5280D01*
X4026Y5225D01*
X4025Y5166D01*
X4025Y5128D01*
X4003Y5128D01*
X4003Y6491D01*
X4003Y6802D01*
X4003Y6902D01*
X4003Y7214D01*
X3966Y7251D01*
X3898Y7251D01*
X3844Y7228D01*
X3802Y7186D01*
X3779Y7132D01*
X3779Y7073D01*
X3779Y6939D01*
X3816Y6902D01*
X4003Y6902D01*
X4003Y6802D01*
X3816Y6802D01*
X3779Y6765D01*
X3779Y6632D01*
X3779Y6573D01*
X3802Y6518D01*
X3844Y6476D01*
X3898Y6454D01*
X3966Y6454D01*
X4003Y6491D01*
X4003Y5128D01*
X3993Y5128D01*
X3924Y5197D01*
X3829Y5236D01*
X3829Y5659D01*
X3829Y6308D01*
X3807Y6363D01*
X3765Y6405D01*
X3710Y6427D01*
X3651Y6427D01*
X3472Y6427D01*
X3435Y6390D01*
X3435Y6034D01*
X3792Y6034D01*
X3829Y6071D01*
X3829Y6308D01*
X3829Y5659D01*
X3829Y5896D01*
X3792Y5934D01*
X3435Y5934D01*
X3435Y5577D01*
X3472Y5540D01*
X3651Y5540D01*
X3710Y5540D01*
X3765Y5562D01*
X3807Y5604D01*
X3829Y5659D01*
X3829Y5236D01*
X3805Y5246D01*
X3675Y5246D01*
X3555Y5197D01*
X3464Y5105D01*
X3414Y4986D01*
X3414Y4856D01*
X3463Y4737D01*
X3555Y4645D01*
X3675Y4595D01*
X3804Y4595D01*
X3924Y4645D01*
X3993Y4713D01*
X4025Y4713D01*
X4025Y4616D01*
X4028Y4611D01*
X3965Y4548D01*
X3927Y4458D01*
X3927Y4439D01*
X3729Y4439D01*
X3693Y4475D01*
X3494Y4558D01*
X3335Y4558D01*
X3335Y5577D01*
X3335Y5934D01*
X3335Y6034D01*
X3335Y6390D01*
X3298Y6427D01*
X3119Y6427D01*
X3060Y6427D01*
X3006Y6405D01*
X2964Y6363D01*
X2941Y6308D01*
X2941Y6071D01*
X2979Y6034D01*
X3335Y6034D01*
X3335Y5934D01*
X2979Y5934D01*
X2941Y5896D01*
X2941Y5659D01*
X2964Y5604D01*
X3006Y5562D01*
X3060Y5540D01*
X3119Y5540D01*
X3298Y5540D01*
X3335Y5577D01*
X3335Y4558D01*
X3278Y4558D01*
X3079Y4476D01*
X2926Y4323D01*
X2843Y4124D01*
X2843Y3908D01*
X2925Y3709D01*
X3078Y3556D01*
X3277Y3473D01*
X3493Y3473D01*
X3692Y3555D01*
X3845Y3708D01*
X3894Y3827D01*
X3927Y3827D01*
X3927Y3809D01*
X3965Y3719D01*
X4034Y3649D01*
X4043Y3645D01*
X4043Y3012D01*
X4066Y2895D01*
X4133Y2796D01*
X4339Y2589D01*
X4339Y2251D01*
X4308Y2238D01*
X4144Y2074D01*
X4144Y2111D01*
X4121Y2166D01*
X4079Y2208D01*
X4025Y2230D01*
X3966Y2230D01*
X3266Y2230D01*
X3211Y2208D01*
X3169Y2166D01*
X3147Y2111D01*
X3147Y2052D01*
X3147Y1352D01*
X3169Y1298D01*
X3211Y1256D01*
X3266Y1233D01*
X3325Y1233D01*
X4025Y1233D01*
X4079Y1256D01*
X4121Y1298D01*
X4144Y1352D01*
X4144Y1389D01*
X4307Y1226D01*
X4526Y1135D01*
X4763Y1135D01*
X4796Y1148D01*
X5098Y846D01*
X5197Y780D01*
X5314Y757D01*
X10246Y757D01*
X10363Y780D01*
X10463Y846D01*
X10973Y1357D01*
X10973Y443D01*
X10973Y443D01*
G37*
G54D36*
X10973Y443D02*
X2614Y443D01*
X2614Y7857D01*
X2601Y8033D01*
X2558Y8137D01*
X2492Y8169D01*
X2421Y8099D01*
X2421Y8240D01*
X2389Y8306D01*
X2221Y8362D01*
X2045Y8349D01*
X1941Y8306D01*
X1909Y8240D01*
X2165Y7984D01*
X2421Y8240D01*
X2421Y8099D01*
X2236Y7913D01*
X2492Y7657D01*
X2558Y7689D01*
X2614Y7857D01*
X2614Y443D01*
X2421Y443D01*
X2421Y7586D01*
X2165Y7842D01*
X2094Y7771D01*
X2094Y7913D01*
X1838Y8169D01*
X1772Y8137D01*
X1716Y7969D01*
X1728Y7793D01*
X1772Y7689D01*
X1838Y7657D01*
X2094Y7913D01*
X2094Y7771D01*
X1909Y7586D01*
X1941Y7520D01*
X2108Y7464D01*
X2285Y7476D01*
X2389Y7520D01*
X2421Y7586D01*
X2421Y443D01*
X2412Y443D01*
X2412Y2412D01*
X1236Y2412D01*
X1236Y4290D01*
X1223Y4466D01*
X1180Y4570D01*
X1114Y4602D01*
X1043Y4531D01*
X1043Y4673D01*
X1011Y4739D01*
X843Y4795D01*
X667Y4782D01*
X563Y4739D01*
X531Y4673D01*
X787Y4417D01*
X1043Y4673D01*
X1043Y4531D01*
X858Y4346D01*
X1114Y4090D01*
X1180Y4122D01*
X1236Y4290D01*
X1236Y2412D01*
X443Y2412D01*
X443Y2910D01*
X462Y2902D01*
X521Y2902D01*
X1112Y2902D01*
X1166Y2925D01*
X1208Y2966D01*
X1231Y3021D01*
X1231Y3080D01*
X1231Y3671D01*
X1208Y3725D01*
X1166Y3767D01*
X1112Y3790D01*
X1053Y3790D01*
X1043Y3790D01*
X1043Y4019D01*
X787Y4275D01*
X531Y4019D01*
X563Y3953D01*
X731Y3897D01*
X907Y3910D01*
X1011Y3953D01*
X1043Y4019D01*
X1043Y3790D01*
X462Y3790D01*
X443Y3782D01*
X443Y4098D01*
X460Y4090D01*
X716Y4346D01*
X460Y4602D01*
X443Y4594D01*
X443Y10579D01*
X1213Y10579D01*
X1821Y9971D01*
X1889Y9926D01*
X1889Y9926D01*
X1968Y9910D01*
X10150Y9910D01*
X10601Y9459D01*
X10601Y9459D01*
X10646Y9429D01*
X10668Y9414D01*
X10668Y9414D01*
X10748Y9398D01*
X10973Y9398D01*
X10973Y4466D01*
X10859Y4581D01*
X10872Y4613D01*
X10872Y4850D01*
X10872Y4850D01*
X10872Y8431D01*
X10872Y9131D01*
X10834Y9221D01*
X10765Y9291D01*
X10674Y9329D01*
X10576Y9329D01*
X9876Y9329D01*
X9785Y9291D01*
X9716Y9222D01*
X9678Y9131D01*
X9678Y9033D01*
X9678Y8333D01*
X9716Y8242D01*
X9785Y8173D01*
X9876Y8135D01*
X9974Y8135D01*
X10674Y8135D01*
X10765Y8172D01*
X10834Y8242D01*
X10872Y8332D01*
X10872Y8431D01*
X10872Y4850D01*
X10781Y5069D01*
X10614Y5237D01*
X10394Y5329D01*
X10157Y5329D01*
X9937Y5238D01*
X9769Y5070D01*
X9678Y4851D01*
X9678Y4614D01*
X9769Y4394D01*
X9937Y4226D01*
X10156Y4135D01*
X10393Y4135D01*
X10426Y4148D01*
X10520Y4054D01*
X10520Y3601D01*
X10499Y3622D01*
X10380Y3671D01*
X10250Y3672D01*
X10130Y3622D01*
X10039Y3531D01*
X9989Y3411D01*
X9989Y3281D01*
X10038Y3162D01*
X10088Y3112D01*
X10088Y3083D01*
X10076Y3078D01*
X10034Y3036D01*
X10012Y2981D01*
X10012Y2922D01*
X10012Y2372D01*
X10034Y2318D01*
X10039Y2313D01*
X9900Y2313D01*
X9889Y2309D01*
X9883Y2315D01*
X9886Y2317D01*
X9909Y2372D01*
X9909Y2431D01*
X9909Y2981D01*
X9886Y3036D01*
X9844Y3077D01*
X9790Y3100D01*
X9731Y3100D01*
X9381Y3100D01*
X9326Y3078D01*
X9284Y3036D01*
X9282Y3030D01*
X9282Y7480D01*
X9282Y7559D01*
X9282Y8070D01*
X9282Y8070D01*
X9258Y8187D01*
X9192Y8287D01*
X9192Y8287D01*
X9130Y8349D01*
X9170Y8357D01*
X9301Y8444D01*
X9389Y8575D01*
X9420Y8730D01*
X9420Y8907D01*
X9389Y9061D01*
X9301Y9193D01*
X9170Y9280D01*
X9015Y9311D01*
X8861Y9280D01*
X8729Y9193D01*
X8642Y9061D01*
X8638Y9044D01*
X8579Y9083D01*
X8425Y9114D01*
X8270Y9083D01*
X8139Y8996D01*
X8126Y8976D01*
X8117Y9022D01*
X8050Y9121D01*
X7951Y9187D01*
X7834Y9211D01*
X7798Y9203D01*
X7772Y9229D01*
X7692Y9283D01*
X7598Y9301D01*
X7194Y9301D01*
X7194Y9359D01*
X7171Y9414D01*
X7130Y9455D01*
X7075Y9478D01*
X7016Y9478D01*
X6666Y9478D01*
X6612Y9456D01*
X6570Y9414D01*
X6547Y9359D01*
X6547Y9300D01*
X6547Y8750D01*
X6570Y8696D01*
X6611Y8654D01*
X6666Y8631D01*
X6725Y8631D01*
X7075Y8631D01*
X7130Y8654D01*
X7171Y8695D01*
X7194Y8750D01*
X7194Y8808D01*
X7496Y8808D01*
X7528Y8775D01*
X7528Y8732D01*
X7552Y8615D01*
X7618Y8516D01*
X7717Y8450D01*
X7834Y8426D01*
X7951Y8450D01*
X8027Y8500D01*
X8051Y8379D01*
X8139Y8247D01*
X8270Y8160D01*
X8425Y8129D01*
X8475Y8139D01*
X8670Y7944D01*
X8670Y7559D01*
X8670Y7480D01*
X8670Y4006D01*
X8219Y4457D01*
X8219Y4619D01*
X8137Y4818D01*
X8121Y4834D01*
X8121Y6245D01*
X8121Y6836D01*
X8098Y6891D01*
X8056Y6933D01*
X8002Y6955D01*
X7943Y6955D01*
X7721Y6955D01*
X7863Y7097D01*
X7863Y7097D01*
X7893Y7142D01*
X7908Y7164D01*
X7908Y7164D01*
X7924Y7244D01*
X7924Y7244D01*
X7924Y7874D01*
X7910Y7940D01*
X7908Y7953D01*
X7908Y7953D01*
X7863Y8020D01*
X7331Y8552D01*
X7264Y8597D01*
X7185Y8612D01*
X6404Y8612D01*
X6368Y8649D01*
X6380Y8654D01*
X6421Y8695D01*
X6444Y8750D01*
X6444Y8809D01*
X6444Y9359D01*
X6421Y9414D01*
X6380Y9455D01*
X6325Y9478D01*
X6266Y9478D01*
X6169Y9478D01*
X5973Y9674D01*
X5906Y9719D01*
X5826Y9735D01*
X4881Y9735D01*
X4815Y9721D01*
X4802Y9719D01*
X4735Y9674D01*
X4512Y9451D01*
X4398Y9451D01*
X4344Y9428D01*
X4303Y9387D01*
X4262Y9428D01*
X4207Y9451D01*
X4148Y9451D01*
X4003Y9451D01*
X3871Y9583D01*
X3790Y9637D01*
X3696Y9656D01*
X3228Y9656D01*
X2609Y9656D01*
X2609Y9734D01*
X2586Y9788D01*
X2545Y9830D01*
X2490Y9853D01*
X2431Y9853D01*
X1840Y9853D01*
X1785Y9830D01*
X1744Y9789D01*
X1721Y9734D01*
X1721Y9675D01*
X1721Y9084D01*
X1743Y9029D01*
X1785Y8988D01*
X1840Y8965D01*
X1899Y8965D01*
X2490Y8965D01*
X2544Y8988D01*
X2586Y9029D01*
X2609Y9084D01*
X2609Y9143D01*
X2609Y9162D01*
X3228Y9162D01*
X3594Y9162D01*
X3779Y8977D01*
X3779Y8773D01*
X3802Y8718D01*
X3843Y8677D01*
X3898Y8654D01*
X3957Y8654D01*
X4207Y8654D01*
X4262Y8676D01*
X4303Y8717D01*
X4343Y8677D01*
X4398Y8654D01*
X4457Y8654D01*
X4707Y8654D01*
X4762Y8676D01*
X4803Y8717D01*
X4831Y8689D01*
X4831Y8599D01*
X4763Y8531D01*
X4713Y8411D01*
X4713Y8281D01*
X4763Y8162D01*
X4854Y8070D01*
X4974Y8020D01*
X5103Y8020D01*
X5223Y8070D01*
X5315Y8161D01*
X5364Y8281D01*
X5365Y8410D01*
X5315Y8530D01*
X5246Y8599D01*
X5246Y8670D01*
X5262Y8676D01*
X5303Y8717D01*
X5344Y8676D01*
X5398Y8654D01*
X5466Y8654D01*
X5503Y8691D01*
X5503Y9002D01*
X5495Y9002D01*
X5495Y9102D01*
X5503Y9102D01*
X5503Y9110D01*
X5603Y9110D01*
X5603Y9102D01*
X5611Y9102D01*
X5611Y9002D01*
X5603Y9002D01*
X5603Y8691D01*
X5640Y8654D01*
X5707Y8654D01*
X5762Y8676D01*
X5803Y8718D01*
X5807Y8727D01*
X5820Y8696D01*
X5861Y8654D01*
X5913Y8632D01*
X5913Y8603D01*
X5929Y8523D01*
X5974Y8456D01*
X6172Y8258D01*
X6203Y8237D01*
X6092Y8237D01*
X6033Y8237D01*
X5979Y8215D01*
X5937Y8173D01*
X5915Y8118D01*
X5915Y8001D01*
X5952Y7964D01*
X6288Y7964D01*
X6288Y7972D01*
X6388Y7972D01*
X6388Y7964D01*
X6724Y7964D01*
X6762Y8001D01*
X6762Y8118D01*
X6739Y8173D01*
X6714Y8198D01*
X7099Y8198D01*
X7298Y7999D01*
X7289Y8002D01*
X7120Y8002D01*
X6964Y7938D01*
X6845Y7819D01*
X6780Y7663D01*
X6780Y7587D01*
X6762Y7568D01*
X6762Y7709D01*
X6762Y7827D01*
X6724Y7864D01*
X6388Y7864D01*
X6388Y7628D01*
X6425Y7590D01*
X6584Y7590D01*
X6643Y7590D01*
X6697Y7613D01*
X6739Y7655D01*
X6762Y7709D01*
X6762Y7568D01*
X6745Y7551D01*
X6662Y7586D01*
X6564Y7586D01*
X6288Y7586D01*
X6288Y7628D01*
X6288Y7864D01*
X5952Y7864D01*
X5915Y7827D01*
X5915Y7709D01*
X5937Y7655D01*
X5979Y7613D01*
X6033Y7590D01*
X6092Y7590D01*
X6251Y7590D01*
X6288Y7628D01*
X6288Y7586D01*
X6014Y7586D01*
X5923Y7548D01*
X5854Y7479D01*
X5849Y7467D01*
X5747Y7446D01*
X5648Y7380D01*
X5617Y7349D01*
X5379Y7349D01*
X5288Y7312D01*
X5221Y7245D01*
X5207Y7251D01*
X5148Y7251D01*
X4898Y7251D01*
X4844Y7228D01*
X4803Y7187D01*
X4762Y7228D01*
X4707Y7251D01*
X4648Y7251D01*
X4398Y7251D01*
X4344Y7228D01*
X4303Y7187D01*
X4262Y7228D01*
X4207Y7251D01*
X4140Y7251D01*
X4103Y7214D01*
X4103Y6902D01*
X4111Y6902D01*
X4111Y6802D01*
X4103Y6802D01*
X4103Y6491D01*
X4140Y6454D01*
X4207Y6454D01*
X4262Y6476D01*
X4303Y6517D01*
X4343Y6477D01*
X4345Y6476D01*
X4345Y6470D01*
X4361Y6391D01*
X4406Y6323D01*
X4775Y5954D01*
X4775Y5404D01*
X4798Y5349D01*
X4833Y5314D01*
X4798Y5280D01*
X4776Y5225D01*
X4775Y5166D01*
X4775Y4616D01*
X4798Y4562D01*
X4833Y4527D01*
X4798Y4493D01*
X4776Y4438D01*
X4775Y4379D01*
X4775Y3829D01*
X4798Y3774D01*
X4840Y3733D01*
X4894Y3710D01*
X4953Y3710D01*
X5303Y3710D01*
X5358Y3732D01*
X5400Y3774D01*
X5422Y3829D01*
X5422Y3888D01*
X5422Y4438D01*
X5400Y4492D01*
X5365Y4527D01*
X5400Y4562D01*
X5422Y4616D01*
X5422Y4675D01*
X5422Y5225D01*
X5400Y5280D01*
X5365Y5314D01*
X5400Y5349D01*
X5413Y5381D01*
X5426Y5349D01*
X5468Y5307D01*
X5522Y5285D01*
X5581Y5285D01*
X5931Y5285D01*
X5986Y5307D01*
X6028Y5349D01*
X6050Y5404D01*
X6050Y5463D01*
X6050Y6012D01*
X6153Y6012D01*
X6153Y5954D01*
X6153Y5404D01*
X6176Y5349D01*
X6218Y5307D01*
X6272Y5285D01*
X6331Y5285D01*
X6681Y5285D01*
X6736Y5307D01*
X6778Y5349D01*
X6800Y5404D01*
X6800Y5463D01*
X6800Y6013D01*
X6778Y6067D01*
X6736Y6109D01*
X6684Y6130D01*
X6684Y6155D01*
X7233Y6703D01*
X7233Y6186D01*
X7255Y6132D01*
X7297Y6090D01*
X7352Y6067D01*
X7411Y6067D01*
X8002Y6067D01*
X8056Y6090D01*
X8098Y6132D01*
X8121Y6186D01*
X8121Y6245D01*
X8121Y4834D01*
X7984Y4971D01*
X7785Y5054D01*
X7569Y5054D01*
X7370Y4971D01*
X7217Y4819D01*
X7134Y4620D01*
X7134Y4404D01*
X7217Y4204D01*
X7369Y4052D01*
X7568Y3969D01*
X7731Y3969D01*
X8100Y3600D01*
X8100Y3406D01*
X8061Y3367D01*
X8024Y3277D01*
X8023Y3178D01*
X8023Y2628D01*
X8061Y2538D01*
X8130Y2468D01*
X8221Y2430D01*
X8319Y2430D01*
X8669Y2430D01*
X8670Y2431D01*
X8670Y2306D01*
X8567Y2203D01*
X8493Y2025D01*
X8493Y1833D01*
X8566Y1655D01*
X8702Y1520D01*
X8879Y1446D01*
X9072Y1446D01*
X9249Y1519D01*
X9385Y1655D01*
X9459Y1832D01*
X9459Y2024D01*
X9385Y2202D01*
X9282Y2306D01*
X9282Y2324D01*
X9284Y2318D01*
X9326Y2276D01*
X9380Y2253D01*
X9391Y2253D01*
X9393Y2240D01*
X9438Y2173D01*
X9596Y2015D01*
X9592Y2005D01*
X9591Y1853D01*
X9650Y1711D01*
X9758Y1603D01*
X9899Y1544D01*
X10052Y1544D01*
X10193Y1603D01*
X10302Y1711D01*
X10360Y1852D01*
X10360Y2005D01*
X10302Y2146D01*
X10195Y2253D01*
X10520Y2253D01*
X10520Y1769D01*
X10120Y1368D01*
X8360Y1368D01*
X8360Y2005D01*
X8302Y2146D01*
X8194Y2254D01*
X8053Y2313D01*
X7903Y2313D01*
X7903Y2530D01*
X7954Y2551D01*
X7996Y2593D01*
X8019Y2648D01*
X8019Y2707D01*
X8019Y3257D01*
X7996Y3311D01*
X7955Y3353D01*
X7900Y3376D01*
X7841Y3376D01*
X7491Y3376D01*
X7436Y3353D01*
X7395Y3311D01*
X7372Y3257D01*
X7372Y3198D01*
X7372Y2648D01*
X7394Y2593D01*
X7436Y2552D01*
X7488Y2530D01*
X7488Y2209D01*
X7504Y2130D01*
X7549Y2062D01*
X7596Y2015D01*
X7592Y2005D01*
X7591Y1853D01*
X7650Y1711D01*
X7758Y1603D01*
X7899Y1544D01*
X8052Y1544D01*
X8193Y1603D01*
X8302Y1711D01*
X8360Y1852D01*
X8360Y2005D01*
X8360Y1368D01*
X5987Y1368D01*
X6067Y1449D01*
X6144Y1632D01*
X6144Y1830D01*
X6068Y2014D01*
X5928Y2154D01*
X5745Y2230D01*
X5546Y2230D01*
X5363Y2155D01*
X5223Y2014D01*
X5198Y1956D01*
X5151Y2069D01*
X4984Y2237D01*
X4951Y2251D01*
X4951Y2716D01*
X4928Y2833D01*
X4861Y2932D01*
X4861Y2932D01*
X4655Y3139D01*
X4655Y3645D01*
X4664Y3649D01*
X4733Y3718D01*
X4771Y3809D01*
X4771Y3907D01*
X4771Y4457D01*
X4733Y4548D01*
X4670Y4611D01*
X4672Y4616D01*
X4672Y4675D01*
X4672Y5225D01*
X4650Y5280D01*
X4615Y5314D01*
X4650Y5349D01*
X4672Y5404D01*
X4672Y5463D01*
X4672Y5954D01*
X4672Y6013D01*
X4650Y6067D01*
X4608Y6109D01*
X4553Y6132D01*
X4436Y6132D01*
X4399Y6094D01*
X4399Y5758D01*
X4635Y5758D01*
X4672Y5795D01*
X4672Y5954D01*
X4672Y5463D01*
X4672Y5621D01*
X4635Y5658D01*
X4399Y5658D01*
X4399Y5650D01*
X4299Y5650D01*
X4299Y5658D01*
X4299Y5758D01*
X4299Y6094D01*
X4262Y6132D01*
X4145Y6132D01*
X4090Y6109D01*
X4048Y6067D01*
X4026Y6013D01*
X4025Y5954D01*
X4025Y5795D01*
X4063Y5758D01*
X4299Y5758D01*
X4299Y5658D01*
X4063Y5658D01*
X4025Y5621D01*
X4025Y5463D01*
X4026Y5404D01*
X4048Y5349D01*
X4083Y5314D01*
X4048Y5280D01*
X4026Y5225D01*
X4025Y5166D01*
X4025Y5128D01*
X4003Y5128D01*
X4003Y6491D01*
X4003Y6802D01*
X4003Y6902D01*
X4003Y7214D01*
X3966Y7251D01*
X3898Y7251D01*
X3844Y7228D01*
X3802Y7186D01*
X3779Y7132D01*
X3779Y7073D01*
X3779Y6939D01*
X3816Y6902D01*
X4003Y6902D01*
X4003Y6802D01*
X3816Y6802D01*
X3779Y6765D01*
X3779Y6632D01*
X3779Y6573D01*
X3802Y6518D01*
X3844Y6476D01*
X3898Y6454D01*
X3966Y6454D01*
X4003Y6491D01*
X4003Y5128D01*
X3993Y5128D01*
X3924Y5197D01*
X3829Y5236D01*
X3829Y5659D01*
X3829Y6308D01*
X3807Y6363D01*
X3765Y6405D01*
X3710Y6427D01*
X3651Y6427D01*
X3472Y6427D01*
X3435Y6390D01*
X3435Y6034D01*
X3792Y6034D01*
X3829Y6071D01*
X3829Y6308D01*
X3829Y5659D01*
X3829Y5896D01*
X3792Y5934D01*
X3435Y5934D01*
X3435Y5577D01*
X3472Y5540D01*
X3651Y5540D01*
X3710Y5540D01*
X3765Y5562D01*
X3807Y5604D01*
X3829Y5659D01*
X3829Y5236D01*
X3805Y5246D01*
X3675Y5246D01*
X3555Y5197D01*
X3464Y5105D01*
X3414Y4986D01*
X3414Y4856D01*
X3463Y4737D01*
X3555Y4645D01*
X3675Y4595D01*
X3804Y4595D01*
X3924Y4645D01*
X3993Y4713D01*
X4025Y4713D01*
X4025Y4616D01*
X4028Y4611D01*
X3965Y4548D01*
X3927Y4458D01*
X3927Y4439D01*
X3729Y4439D01*
X3693Y4475D01*
X3494Y4558D01*
X3335Y4558D01*
X3335Y5577D01*
X3335Y5934D01*
X3335Y6034D01*
X3335Y6390D01*
X3298Y6427D01*
X3119Y6427D01*
X3060Y6427D01*
X3006Y6405D01*
X2964Y6363D01*
X2941Y6308D01*
X2941Y6071D01*
X2979Y6034D01*
X3335Y6034D01*
X3335Y5934D01*
X2979Y5934D01*
X2941Y5896D01*
X2941Y5659D01*
X2964Y5604D01*
X3006Y5562D01*
X3060Y5540D01*
X3119Y5540D01*
X3298Y5540D01*
X3335Y5577D01*
X3335Y4558D01*
X3278Y4558D01*
X3079Y4476D01*
X2926Y4323D01*
X2843Y4124D01*
X2843Y3908D01*
X2925Y3709D01*
X3078Y3556D01*
X3277Y3473D01*
X3493Y3473D01*
X3692Y3555D01*
X3845Y3708D01*
X3894Y3827D01*
X3927Y3827D01*
X3927Y3809D01*
X3965Y3719D01*
X4034Y3649D01*
X4043Y3645D01*
X4043Y3012D01*
X4066Y2895D01*
X4133Y2796D01*
X4339Y2589D01*
X4339Y2251D01*
X4308Y2238D01*
X4144Y2074D01*
X4144Y2111D01*
X4121Y2166D01*
X4079Y2208D01*
X4025Y2230D01*
X3966Y2230D01*
X3266Y2230D01*
X3211Y2208D01*
X3169Y2166D01*
X3147Y2111D01*
X3147Y2052D01*
X3147Y1352D01*
X3169Y1298D01*
X3211Y1256D01*
X3266Y1233D01*
X3325Y1233D01*
X4025Y1233D01*
X4079Y1256D01*
X4121Y1298D01*
X4144Y1352D01*
X4144Y1389D01*
X4307Y1226D01*
X4526Y1135D01*
X4763Y1135D01*
X4796Y1148D01*
X5098Y846D01*
X5197Y780D01*
X5314Y757D01*
X10246Y757D01*
X10363Y780D01*
X10463Y846D01*
X10973Y1357D01*
X10973Y443D01*
M02*
