M48
;DRILL file {Pcbnew (2013-07-07 BZR 4022)-stable} date 2015-02-25 13:51:38
;FORMAT={-:-/ absolute / metric / decimal}
FMAT,2
METRIC,TZ
T1C0.500
T2C0.500
T3C0.600
T4C0.800
T5C0.813
T6C1.000
T7C1.016
T8C3.200
%
G90
G05
M71
T1
X1.5Y35.
X1.5Y28.5
X3.Y35.5
X3.Y29.
X4.5Y35.
X4.5Y28.5
X7.5Y35.
X7.5Y28.5
X9.Y35.5
X9.Y29.
X10.5Y35.
X10.5Y28.5
X13.5Y35.
X13.5Y28.5
X15.Y35.5
X15.Y29.
X16.5Y35.
X16.5Y28.5
X19.5Y35.
X19.5Y28.5
X19.9Y22.4
X21.Y35.5
X21.Y29.
X21.4Y21.9
X22.5Y35.
X22.5Y28.5
X22.9Y22.4
X25.5Y35.
X25.5Y28.5
X27.Y35.5
X27.Y29.
X28.5Y35.
X28.5Y28.5
X31.5Y35.
X31.5Y28.5
X33.Y35.5
X33.Y29.
X34.5Y35.
X34.5Y28.5
X62.9Y34.
X63.4Y35.5
X63.4Y32.5
X67.4Y34.
X67.9Y35.5
X67.9Y32.5
T2
X20.26Y4.9
X22.8Y4.9
X25.34Y4.9
T3
X6.5Y30.975
X9.5Y12.5
X12.Y31.
X12.8Y21.2
X18.Y31.
X18.3Y19.25
X26.2Y8.5
X30.6Y31.
X36.9Y17.6
X42.3Y41.2
X42.5Y18.5
X44.9Y23.05
X44.925Y28.425
X45.45Y18.5
X51.5Y3.5
X52.5Y10.2
X53.05Y15.375
X53.9Y11.1
X54.Y20.9
X54.525Y16.35
X55.5Y11.8
X59.2Y18.1
X62.225Y8.75
X64.6Y13.4
T4
X5.5Y23.9
X5.5Y20.1
X8.6Y15.199
X8.6Y10.201
X19.5Y16.54
X19.5Y11.46
T5
X39.11Y38.31
X39.11Y30.69
X41.65Y38.31
X41.65Y30.69
X44.19Y38.31
X44.19Y30.69
X46.73Y38.31
X46.73Y30.69
X46.73Y2.83
X49.27Y38.31
X49.27Y30.69
X49.27Y5.37
X49.27Y2.83
X51.81Y38.31
X51.81Y30.69
X54.35Y38.31
X54.35Y30.69
X56.89Y38.31
X56.89Y30.69
X64.35Y15.84
X64.35Y10.76
T6
X2.Y11.04
X2.Y8.5
X10.Y43.
X12.54Y43.
X15.08Y43.
X17.62Y43.
X20.16Y43.
X22.7Y43.
X30.65Y4.525
X32.Y43.
X33.19Y4.525
X34.54Y43.
X37.08Y43.
X39.42Y10.7
X39.42Y8.16
X39.62Y43.
X40.66Y2.
X41.96Y10.7
X41.96Y8.16
X42.16Y43.
X42.7Y16.64
X42.7Y14.1
X43.2Y2.
X44.5Y10.7
X44.5Y8.16
X44.7Y43.
X47.24Y43.
X49.78Y43.
X50.5Y25.54
X50.5Y23.
X52.32Y43.
X54.86Y43.
X55.5Y25.54
X55.5Y23.
X56.61Y4.7
X56.61Y2.15
X57.4Y43.
X59.15Y4.7
X59.15Y2.15
X59.94Y43.
X65.Y27.5
X65.Y24.96
X65.Y22.42
X65.Y19.88
T7
X9.26Y4.4
X11.8Y4.4
X14.34Y4.4
X26.1Y22.18
X26.1Y12.02
X39.92Y35.5
X50.08Y35.5
T8
X3.Y42.
X3.Y3.
X67.Y42.
X67.Y3.
T0
M30
