G04 (created by PCBNEW (2013-07-07 BZR 4022)-stable) date 2015-02-26 23:16:54*
%MOIN*%
G04 Gerber Fmt 3.4, Leading zero omitted, Abs format*
%FSLAX34Y34*%
G01*
G70*
G90*
G04 APERTURE LIST*
%ADD10C,0.00629921*%
%ADD11C,0.07*%
%ADD12R,0.07X0.07*%
%ADD13R,0.055X0.055*%
%ADD14C,0.055*%
%ADD15O,0.0314961X0.0472441*%
%ADD16C,0.1969*%
%ADD17R,0.0590551X0.0590551*%
%ADD18C,0.0590551*%
%ADD19O,0.0472441X0.0314961*%
%ADD20C,0.0591*%
%ADD21R,0.0591X0.0591*%
%ADD22C,0.0472*%
%ADD23C,0.0354331*%
%ADD24C,0.011811*%
%ADD25C,0.019685*%
%ADD26C,0.01*%
G04 APERTURE END LIST*
G54D10*
G54D11*
X10275Y4732D03*
G54D12*
X10275Y8732D03*
G54D11*
X19716Y13976D03*
G54D12*
X15716Y13976D03*
G54D13*
X15397Y12082D03*
G54D14*
X16397Y12082D03*
X17397Y12082D03*
X18397Y12082D03*
X19397Y12082D03*
X20397Y12082D03*
X21397Y12082D03*
X22397Y12082D03*
X22397Y15082D03*
X21397Y15082D03*
X20397Y15082D03*
X19397Y15082D03*
X18397Y15082D03*
X17397Y15082D03*
X16397Y15082D03*
X15397Y15082D03*
G54D15*
X9015Y8818D03*
X8425Y8622D03*
X7834Y8818D03*
G54D16*
X1181Y16535D03*
X26377Y16535D03*
X26377Y1181D03*
X1181Y1181D03*
G54D17*
X3937Y16929D03*
G54D18*
X4937Y16929D03*
X5937Y16929D03*
X6937Y16929D03*
X7937Y16929D03*
X8937Y16929D03*
G54D17*
X12598Y16929D03*
G54D18*
X13598Y16929D03*
X14598Y16929D03*
X15598Y16929D03*
X16598Y16929D03*
X17598Y16929D03*
X18598Y16929D03*
X19598Y16929D03*
X20598Y16929D03*
X21598Y16929D03*
X22598Y16929D03*
X23598Y16929D03*
G54D19*
X26732Y12795D03*
X26535Y13385D03*
X26732Y13976D03*
G54D15*
X12401Y13779D03*
X12992Y13976D03*
X13582Y13779D03*
X12401Y11220D03*
X12992Y11417D03*
X13582Y11220D03*
G54D19*
X24960Y12795D03*
X24763Y13385D03*
X24960Y13976D03*
G54D15*
X10039Y13779D03*
X10629Y13976D03*
X11220Y13779D03*
X7677Y13779D03*
X8267Y13976D03*
X8858Y13779D03*
X7677Y11220D03*
X8267Y11417D03*
X8858Y11220D03*
X5314Y13779D03*
X5905Y13976D03*
X6496Y13779D03*
X5314Y11220D03*
X5905Y11417D03*
X6496Y11220D03*
X2952Y13779D03*
X3543Y13976D03*
X4133Y13779D03*
X2952Y11220D03*
X3543Y11417D03*
X4133Y11220D03*
X590Y13779D03*
X1181Y13976D03*
X1771Y13779D03*
X10039Y11220D03*
X10629Y11417D03*
X11220Y11220D03*
X590Y11220D03*
X1181Y11417D03*
X1771Y11220D03*
G54D20*
X7677Y4511D03*
G54D21*
X7677Y6511D03*
X3385Y5984D03*
G54D20*
X3385Y4016D03*
X2165Y7913D03*
G54D21*
X2165Y9409D03*
G54D11*
X5645Y1732D03*
X4645Y1732D03*
G54D12*
X3645Y1732D03*
G54D22*
X7976Y1929D03*
X8976Y1929D03*
X9976Y1929D03*
G54D14*
X25334Y6236D03*
X25334Y4236D03*
G54D17*
X23287Y1850D03*
G54D18*
X22287Y1850D03*
G54D17*
X21850Y9055D03*
G54D18*
X21850Y10055D03*
G54D17*
X16811Y5551D03*
G54D18*
X16811Y6551D03*
G54D17*
X12066Y1781D03*
G54D18*
X13066Y1781D03*
G54D17*
X23287Y846D03*
G54D18*
X22287Y846D03*
G54D17*
X19881Y9055D03*
G54D18*
X19881Y10055D03*
G54D17*
X17007Y787D03*
G54D18*
X16007Y787D03*
G54D17*
X787Y3346D03*
G54D18*
X787Y4346D03*
G54D17*
X17519Y4212D03*
G54D18*
X17519Y3212D03*
X16519Y4212D03*
X16519Y3212D03*
X15519Y4212D03*
X15519Y3212D03*
G54D13*
X18397Y1114D03*
G54D14*
X19397Y1114D03*
X19397Y2114D03*
G54D17*
X25590Y10826D03*
G54D18*
X25590Y9826D03*
X25590Y8826D03*
X25590Y7826D03*
G54D23*
X23307Y7125D03*
X21850Y4645D03*
X21220Y4370D03*
X20669Y4015D03*
X16653Y16220D03*
X7204Y7578D03*
X5039Y8346D03*
X21466Y6437D03*
X21259Y8228D03*
X17687Y11190D03*
X17677Y9074D03*
X17893Y7283D03*
X16732Y7283D03*
X20275Y1377D03*
X2559Y12194D03*
X12047Y12204D03*
X25433Y5275D03*
X24498Y3444D03*
X20885Y6053D03*
X10314Y3346D03*
X3740Y4921D03*
X14527Y6929D03*
X7086Y12204D03*
X4724Y12204D03*
G54D24*
X21850Y11811D02*
X21850Y12322D01*
X23307Y7125D02*
X23149Y7283D01*
X23149Y7283D02*
X23149Y10997D01*
X23149Y10997D02*
X22631Y11515D01*
X22631Y11515D02*
X22145Y11515D01*
X22145Y11515D02*
X21850Y11811D01*
X18834Y12519D02*
X18397Y12082D01*
X21653Y12519D02*
X18834Y12519D01*
X21850Y12322D02*
X21653Y12519D01*
X22023Y11299D02*
X21397Y11925D01*
X21397Y11925D02*
X21397Y12082D01*
X22541Y11299D02*
X22023Y11299D01*
X22933Y10907D02*
X22933Y5962D01*
X22541Y11299D02*
X22933Y10907D01*
X21850Y4645D02*
X21850Y4879D01*
X21850Y4879D02*
X22933Y5962D01*
X21751Y11082D02*
X20751Y12082D01*
X21220Y4555D02*
X22716Y6052D01*
X22716Y6052D02*
X22716Y10778D01*
X22716Y10778D02*
X22412Y11082D01*
X21220Y4370D02*
X21220Y4555D01*
X21751Y11082D02*
X22412Y11082D01*
X20751Y12082D02*
X20397Y12082D01*
X22500Y6141D02*
X22500Y10649D01*
X20669Y4311D02*
X22500Y6141D01*
X20669Y4311D02*
X20669Y4015D01*
X17866Y11614D02*
X17397Y12082D01*
X20905Y11614D02*
X17866Y11614D01*
X21653Y10866D02*
X20905Y11614D01*
X22283Y10866D02*
X21653Y10866D01*
X22500Y10649D02*
X22283Y10866D01*
G54D25*
X18397Y1114D02*
X18070Y787D01*
X18070Y787D02*
X17007Y787D01*
G54D24*
X22397Y12082D02*
X22397Y12956D01*
X14598Y13866D02*
X15118Y13346D01*
X15118Y13346D02*
X22007Y13346D01*
X14598Y13866D02*
X14598Y16929D01*
X22397Y12956D02*
X22007Y13346D01*
X22397Y15082D02*
X21732Y15748D01*
X15598Y16291D02*
X15598Y16929D01*
X16141Y15748D02*
X15598Y16291D01*
X21732Y15748D02*
X16141Y15748D01*
X17598Y16929D02*
X16889Y16220D01*
X16889Y16220D02*
X16653Y16220D01*
X9015Y8011D02*
X9015Y8818D01*
X8582Y7578D02*
X9015Y8011D01*
X7204Y7578D02*
X8582Y7578D01*
X5645Y1732D02*
X5645Y2503D01*
X5039Y3110D02*
X5039Y8346D01*
X5645Y2503D02*
X5039Y3110D01*
X21466Y6437D02*
X21466Y5482D01*
X21466Y5482D02*
X19685Y3700D01*
X19685Y3700D02*
X16031Y3700D01*
X16031Y3700D02*
X15519Y4212D01*
X20850Y10055D02*
X19881Y10055D01*
X21259Y9645D02*
X20850Y10055D01*
X21259Y8228D02*
X21259Y9645D01*
G54D25*
X17677Y9074D02*
X17677Y11181D01*
X17677Y11181D02*
X17687Y11190D01*
X17893Y7283D02*
X17893Y8858D01*
X17893Y8858D02*
X17677Y9074D01*
X16732Y7283D02*
X17893Y7283D01*
X2559Y12194D02*
X2539Y12194D01*
X10039Y13779D02*
X10039Y13188D01*
X7677Y13779D02*
X7677Y13188D01*
X5314Y13779D02*
X5314Y13188D01*
X2952Y13779D02*
X2952Y13188D01*
X9448Y13188D02*
X7677Y13188D01*
X7677Y13188D02*
X5314Y13188D01*
X5314Y13188D02*
X2952Y13188D01*
X2952Y13188D02*
X1181Y13188D01*
X1181Y13188D02*
X590Y13779D01*
X9448Y13188D02*
X10039Y13188D01*
X10039Y13188D02*
X11614Y13188D01*
X10275Y8732D02*
X9448Y9559D01*
X9448Y9559D02*
X9448Y13188D01*
X12204Y13779D02*
X12401Y13779D01*
X11614Y13188D02*
X12204Y13779D01*
X7677Y4511D02*
X10275Y7110D01*
X10275Y7110D02*
X10275Y8732D01*
G54D10*
G36*
X27115Y2412D02*
X27101Y2412D01*
X26682Y2412D01*
X26682Y12524D01*
X26682Y12745D01*
X26389Y12745D01*
X26363Y12698D01*
X26421Y12590D01*
X26516Y12517D01*
X26633Y12486D01*
X26682Y12524D01*
X26682Y2412D01*
X26034Y2412D01*
X26034Y7914D01*
X26034Y8914D01*
X26034Y9914D01*
X26034Y9914D01*
X26034Y10502D01*
X26034Y11151D01*
X26011Y11206D01*
X25970Y11247D01*
X25915Y11270D01*
X25856Y11270D01*
X25677Y11270D01*
X25640Y11233D01*
X25640Y10876D01*
X25997Y10876D01*
X26034Y10913D01*
X26034Y11151D01*
X26034Y10502D01*
X26034Y10739D01*
X25997Y10776D01*
X25640Y10776D01*
X25640Y10420D01*
X25677Y10383D01*
X25856Y10383D01*
X25915Y10383D01*
X25970Y10405D01*
X26011Y10447D01*
X26034Y10502D01*
X26034Y9914D01*
X25966Y10077D01*
X25842Y10202D01*
X25679Y10270D01*
X25540Y10270D01*
X25540Y10420D01*
X25540Y10776D01*
X25540Y10876D01*
X25540Y11233D01*
X25503Y11270D01*
X25453Y11270D01*
X25453Y13976D01*
X25422Y14131D01*
X25334Y14262D01*
X25203Y14349D01*
X25048Y14380D01*
X24872Y14380D01*
X24717Y14349D01*
X24586Y14262D01*
X24498Y14131D01*
X24468Y13976D01*
X24498Y13821D01*
X24586Y13690D01*
X24605Y13677D01*
X24560Y13668D01*
X24461Y13602D01*
X24394Y13502D01*
X24371Y13385D01*
X24394Y13268D01*
X24461Y13169D01*
X24560Y13103D01*
X24677Y13079D01*
X24770Y13079D01*
X24745Y13073D01*
X24649Y12999D01*
X24591Y12891D01*
X24617Y12845D01*
X24910Y12845D01*
X24910Y13066D01*
X24884Y13086D01*
X24967Y13103D01*
X25066Y13169D01*
X25132Y13268D01*
X25155Y13385D01*
X25132Y13502D01*
X25082Y13578D01*
X25203Y13602D01*
X25334Y13690D01*
X25422Y13821D01*
X25453Y13976D01*
X25453Y11270D01*
X25329Y11270D01*
X25329Y12698D01*
X25329Y12891D01*
X25271Y12999D01*
X25175Y13073D01*
X25059Y13104D01*
X25010Y13066D01*
X25010Y12845D01*
X25303Y12845D01*
X25329Y12891D01*
X25329Y12698D01*
X25303Y12745D01*
X25010Y12745D01*
X25010Y12524D01*
X25059Y12486D01*
X25175Y12517D01*
X25271Y12590D01*
X25329Y12698D01*
X25329Y11270D01*
X25324Y11270D01*
X25265Y11270D01*
X25211Y11247D01*
X25169Y11206D01*
X25146Y11151D01*
X25146Y10913D01*
X25183Y10876D01*
X25540Y10876D01*
X25540Y10776D01*
X25183Y10776D01*
X25146Y10739D01*
X25146Y10502D01*
X25169Y10447D01*
X25211Y10405D01*
X25265Y10383D01*
X25324Y10383D01*
X25503Y10383D01*
X25540Y10420D01*
X25540Y10270D01*
X25502Y10270D01*
X25339Y10203D01*
X25214Y10078D01*
X25146Y9915D01*
X25146Y9738D01*
X25214Y9575D01*
X25338Y9450D01*
X25501Y9383D01*
X25678Y9382D01*
X25841Y9450D01*
X25966Y9575D01*
X26034Y9738D01*
X26034Y9914D01*
X26034Y8914D01*
X25966Y9077D01*
X25842Y9202D01*
X25679Y9270D01*
X25502Y9270D01*
X25339Y9203D01*
X25214Y9078D01*
X25146Y8915D01*
X25146Y8738D01*
X25214Y8575D01*
X25338Y8450D01*
X25501Y8383D01*
X25678Y8382D01*
X25841Y8450D01*
X25966Y8575D01*
X26034Y8738D01*
X26034Y8914D01*
X26034Y7914D01*
X25966Y8077D01*
X25842Y8202D01*
X25679Y8270D01*
X25502Y8270D01*
X25339Y8203D01*
X25214Y8078D01*
X25146Y7915D01*
X25146Y7738D01*
X25214Y7575D01*
X25338Y7450D01*
X25501Y7383D01*
X25678Y7382D01*
X25841Y7450D01*
X25966Y7575D01*
X26034Y7738D01*
X26034Y7914D01*
X26034Y2412D01*
X25766Y2412D01*
X25758Y2403D01*
X25758Y4320D01*
X25758Y6320D01*
X25693Y6475D01*
X25574Y6594D01*
X25419Y6659D01*
X25250Y6659D01*
X25095Y6595D01*
X24975Y6476D01*
X24911Y6320D01*
X24911Y6152D01*
X24975Y5996D01*
X25094Y5877D01*
X25250Y5812D01*
X25418Y5812D01*
X25574Y5877D01*
X25693Y5996D01*
X25757Y6151D01*
X25758Y6320D01*
X25758Y4320D01*
X25693Y4475D01*
X25574Y4594D01*
X25419Y4659D01*
X25250Y4659D01*
X25095Y4595D01*
X24975Y4476D01*
X24911Y4320D01*
X24911Y4152D01*
X24975Y3996D01*
X25094Y3877D01*
X25250Y3812D01*
X25418Y3812D01*
X25574Y3877D01*
X25693Y3996D01*
X25757Y4151D01*
X25758Y4320D01*
X25758Y2403D01*
X25146Y1792D01*
X25146Y443D01*
X24910Y443D01*
X24910Y12524D01*
X24910Y12745D01*
X24617Y12745D01*
X24591Y12698D01*
X24649Y12590D01*
X24745Y12517D01*
X24862Y12486D01*
X24910Y12524D01*
X24910Y443D01*
X23685Y443D01*
X23708Y466D01*
X23731Y521D01*
X23731Y580D01*
X23731Y1112D01*
X23731Y1584D01*
X23731Y2116D01*
X23731Y2175D01*
X23708Y2229D01*
X23666Y2271D01*
X23612Y2294D01*
X23374Y2294D01*
X23337Y2256D01*
X23337Y1900D01*
X23693Y1900D01*
X23731Y1937D01*
X23731Y2116D01*
X23731Y1584D01*
X23731Y1763D01*
X23693Y1800D01*
X23337Y1800D01*
X23337Y1443D01*
X23374Y1406D01*
X23612Y1406D01*
X23666Y1429D01*
X23708Y1470D01*
X23731Y1525D01*
X23731Y1584D01*
X23731Y1112D01*
X23731Y1171D01*
X23708Y1225D01*
X23666Y1267D01*
X23612Y1290D01*
X23374Y1290D01*
X23337Y1253D01*
X23337Y896D01*
X23693Y896D01*
X23731Y933D01*
X23731Y1112D01*
X23731Y580D01*
X23731Y759D01*
X23693Y796D01*
X23337Y796D01*
X23337Y788D01*
X23237Y788D01*
X23237Y796D01*
X23237Y896D01*
X23237Y1253D01*
X23237Y1443D01*
X23237Y1800D01*
X23237Y1900D01*
X23237Y2256D01*
X23200Y2294D01*
X22962Y2294D01*
X22908Y2271D01*
X22866Y2229D01*
X22843Y2175D01*
X22843Y2116D01*
X22843Y1937D01*
X22880Y1900D01*
X23237Y1900D01*
X23237Y1800D01*
X22880Y1800D01*
X22843Y1763D01*
X22843Y1584D01*
X22843Y1525D01*
X22866Y1470D01*
X22908Y1429D01*
X22962Y1406D01*
X23200Y1406D01*
X23237Y1443D01*
X23237Y1253D01*
X23200Y1290D01*
X22962Y1290D01*
X22908Y1267D01*
X22866Y1225D01*
X22843Y1171D01*
X22843Y1112D01*
X22843Y933D01*
X22880Y896D01*
X23237Y896D01*
X23237Y796D01*
X22880Y796D01*
X22843Y759D01*
X22843Y580D01*
X22843Y521D01*
X22866Y466D01*
X22889Y443D01*
X22474Y443D01*
X22538Y470D01*
X22663Y594D01*
X22731Y757D01*
X22731Y934D01*
X22731Y1938D01*
X22663Y2101D01*
X22539Y2226D01*
X22376Y2294D01*
X22199Y2294D01*
X22036Y2226D01*
X21911Y2102D01*
X21843Y1939D01*
X21843Y1762D01*
X21911Y1599D01*
X22035Y1474D01*
X22198Y1406D01*
X22375Y1406D01*
X22538Y1474D01*
X22663Y1598D01*
X22731Y1761D01*
X22731Y1938D01*
X22731Y934D01*
X22663Y1097D01*
X22539Y1222D01*
X22376Y1290D01*
X22199Y1290D01*
X22036Y1222D01*
X21911Y1098D01*
X21843Y935D01*
X21843Y758D01*
X21911Y595D01*
X22035Y470D01*
X22100Y443D01*
X19826Y443D01*
X19826Y2062D01*
X19813Y2230D01*
X19773Y2325D01*
X19709Y2355D01*
X19639Y2284D01*
X19639Y2426D01*
X19609Y2490D01*
X19449Y2542D01*
X19281Y2529D01*
X19186Y2490D01*
X19156Y2426D01*
X19397Y2184D01*
X19639Y2426D01*
X19639Y2284D01*
X19468Y2114D01*
X19709Y1872D01*
X19773Y1902D01*
X19826Y2062D01*
X19826Y443D01*
X19821Y443D01*
X19821Y1198D01*
X19756Y1353D01*
X19639Y1471D01*
X19639Y1802D01*
X19397Y2043D01*
X19326Y1972D01*
X19326Y2114D01*
X19085Y2355D01*
X19021Y2325D01*
X18968Y2165D01*
X18981Y1997D01*
X19021Y1902D01*
X19085Y1872D01*
X19326Y2114D01*
X19326Y1972D01*
X19156Y1802D01*
X19186Y1737D01*
X19346Y1685D01*
X19514Y1698D01*
X19609Y1737D01*
X19639Y1802D01*
X19639Y1471D01*
X19637Y1472D01*
X19482Y1537D01*
X19313Y1537D01*
X19158Y1473D01*
X19038Y1354D01*
X18974Y1198D01*
X18974Y1030D01*
X19038Y874D01*
X19157Y755D01*
X19313Y690D01*
X19481Y690D01*
X19637Y755D01*
X19756Y874D01*
X19820Y1029D01*
X19821Y1198D01*
X19821Y443D01*
X17443Y443D01*
X17451Y462D01*
X17451Y521D01*
X17451Y540D01*
X18070Y540D01*
X18165Y559D01*
X18165Y559D01*
X18245Y612D01*
X18323Y690D01*
X18702Y690D01*
X18756Y713D01*
X18798Y754D01*
X18821Y809D01*
X18821Y868D01*
X18821Y1418D01*
X18798Y1473D01*
X18756Y1514D01*
X18702Y1537D01*
X18643Y1537D01*
X18093Y1537D01*
X18038Y1515D01*
X17996Y1473D01*
X17974Y1418D01*
X17974Y1359D01*
X17974Y1039D01*
X17968Y1034D01*
X17451Y1034D01*
X17451Y1112D01*
X17429Y1166D01*
X17387Y1208D01*
X17332Y1231D01*
X17273Y1231D01*
X16683Y1231D01*
X16628Y1208D01*
X16586Y1166D01*
X16564Y1112D01*
X16564Y1053D01*
X16564Y462D01*
X16572Y443D01*
X16291Y443D01*
X16383Y535D01*
X16451Y698D01*
X16451Y875D01*
X16384Y1038D01*
X16259Y1163D01*
X16096Y1231D01*
X15968Y1231D01*
X15968Y3156D01*
X15955Y3332D01*
X15912Y3436D01*
X15846Y3468D01*
X15775Y3398D01*
X15775Y3539D01*
X15743Y3605D01*
X15576Y3661D01*
X15399Y3648D01*
X15295Y3605D01*
X15263Y3539D01*
X15519Y3283D01*
X15775Y3539D01*
X15775Y3398D01*
X15590Y3212D01*
X15846Y2956D01*
X15912Y2988D01*
X15968Y3156D01*
X15968Y1231D01*
X15920Y1231D01*
X15775Y1171D01*
X15775Y2885D01*
X15519Y3141D01*
X15448Y3071D01*
X15448Y3212D01*
X15192Y3468D01*
X15126Y3436D01*
X15070Y3268D01*
X15083Y3092D01*
X15126Y2988D01*
X15192Y2956D01*
X15448Y3212D01*
X15448Y3071D01*
X15263Y2885D01*
X15295Y2819D01*
X15463Y2763D01*
X15639Y2776D01*
X15743Y2819D01*
X15775Y2885D01*
X15775Y1171D01*
X15756Y1163D01*
X15631Y1039D01*
X15564Y876D01*
X15564Y699D01*
X15631Y536D01*
X15724Y443D01*
X13888Y443D01*
X13888Y11134D01*
X13888Y11306D01*
X13865Y11423D01*
X13798Y11523D01*
X13699Y11589D01*
X13582Y11612D01*
X13465Y11589D01*
X13366Y11523D01*
X13300Y11423D01*
X13298Y11413D01*
X13298Y11503D01*
X13274Y11620D01*
X13208Y11719D01*
X13109Y11786D01*
X12992Y11809D01*
X12875Y11786D01*
X12775Y11719D01*
X12709Y11620D01*
X12686Y11503D01*
X12686Y11413D01*
X12684Y11423D01*
X12617Y11523D01*
X12518Y11589D01*
X12401Y11612D01*
X12284Y11589D01*
X12185Y11523D01*
X12118Y11423D01*
X12095Y11306D01*
X12095Y11134D01*
X12118Y11017D01*
X12185Y10917D01*
X12284Y10851D01*
X12401Y10828D01*
X12518Y10851D01*
X12617Y10917D01*
X12684Y11017D01*
X12707Y11134D01*
X12707Y11224D01*
X12709Y11213D01*
X12775Y11114D01*
X12875Y11048D01*
X12992Y11025D01*
X13109Y11048D01*
X13208Y11114D01*
X13274Y11213D01*
X13276Y11224D01*
X13276Y11134D01*
X13300Y11017D01*
X13366Y10917D01*
X13465Y10851D01*
X13582Y10828D01*
X13699Y10851D01*
X13798Y10917D01*
X13865Y11017D01*
X13888Y11134D01*
X13888Y443D01*
X13510Y443D01*
X13510Y1869D01*
X13443Y2032D01*
X13318Y2157D01*
X13155Y2225D01*
X12979Y2225D01*
X12815Y2157D01*
X12690Y2033D01*
X12623Y1870D01*
X12623Y1693D01*
X12690Y1530D01*
X12815Y1405D01*
X12978Y1337D01*
X13154Y1337D01*
X13317Y1405D01*
X13442Y1529D01*
X13510Y1692D01*
X13510Y1869D01*
X13510Y443D01*
X12510Y443D01*
X12510Y1515D01*
X12510Y2047D01*
X12510Y2106D01*
X12487Y2160D01*
X12446Y2202D01*
X12391Y2225D01*
X12154Y2225D01*
X12116Y2188D01*
X12116Y1831D01*
X12473Y1831D01*
X12510Y1868D01*
X12510Y2047D01*
X12510Y1515D01*
X12510Y1694D01*
X12473Y1731D01*
X12116Y1731D01*
X12116Y1374D01*
X12154Y1337D01*
X12391Y1337D01*
X12446Y1360D01*
X12487Y1402D01*
X12510Y1456D01*
X12510Y1515D01*
X12510Y443D01*
X12016Y443D01*
X12016Y1374D01*
X12016Y1731D01*
X12016Y1831D01*
X12016Y2188D01*
X11979Y2225D01*
X11742Y2225D01*
X11687Y2202D01*
X11645Y2160D01*
X11623Y2106D01*
X11623Y2047D01*
X11623Y1868D01*
X11660Y1831D01*
X12016Y1831D01*
X12016Y1731D01*
X11660Y1731D01*
X11623Y1694D01*
X11623Y1515D01*
X11623Y1456D01*
X11645Y1402D01*
X11687Y1360D01*
X11742Y1337D01*
X11979Y1337D01*
X12016Y1374D01*
X12016Y443D01*
X10872Y443D01*
X10872Y4850D01*
X10781Y5069D01*
X10614Y5237D01*
X10394Y5329D01*
X10157Y5329D01*
X9937Y5238D01*
X9769Y5070D01*
X9678Y4851D01*
X9678Y4614D01*
X9769Y4394D01*
X9937Y4226D01*
X10156Y4135D01*
X10393Y4135D01*
X10613Y4226D01*
X10781Y4393D01*
X10872Y4613D01*
X10872Y4850D01*
X10872Y443D01*
X10360Y443D01*
X10360Y2005D01*
X10302Y2146D01*
X10194Y2254D01*
X10053Y2313D01*
X9900Y2313D01*
X9758Y2255D01*
X9650Y2147D01*
X9592Y2005D01*
X9591Y1853D01*
X9650Y1711D01*
X9758Y1603D01*
X9899Y1544D01*
X10052Y1544D01*
X10193Y1603D01*
X10302Y1711D01*
X10360Y1852D01*
X10360Y2005D01*
X10360Y443D01*
X9459Y443D01*
X9459Y2024D01*
X9385Y2202D01*
X9250Y2338D01*
X9072Y2411D01*
X8880Y2412D01*
X8703Y2338D01*
X8567Y2203D01*
X8493Y2025D01*
X8493Y1833D01*
X8566Y1655D01*
X8702Y1520D01*
X8879Y1446D01*
X9072Y1446D01*
X9249Y1519D01*
X9385Y1655D01*
X9459Y1832D01*
X9459Y2024D01*
X9459Y443D01*
X8360Y443D01*
X8360Y2005D01*
X8302Y2146D01*
X8194Y2254D01*
X8053Y2313D01*
X7900Y2313D01*
X7758Y2255D01*
X7650Y2147D01*
X7592Y2005D01*
X7591Y1853D01*
X7650Y1711D01*
X7758Y1603D01*
X7899Y1544D01*
X8052Y1544D01*
X8193Y1603D01*
X8302Y1711D01*
X8360Y1852D01*
X8360Y2005D01*
X8360Y443D01*
X6144Y443D01*
X6144Y1830D01*
X6068Y2014D01*
X5928Y2154D01*
X5853Y2185D01*
X5853Y2503D01*
X5853Y2503D01*
X5837Y2583D01*
X5837Y2583D01*
X5822Y2605D01*
X5792Y2650D01*
X5792Y2650D01*
X5246Y3196D01*
X5246Y8093D01*
X5315Y8161D01*
X5364Y8281D01*
X5365Y8410D01*
X5315Y8530D01*
X5224Y8622D01*
X5104Y8671D01*
X4974Y8672D01*
X4855Y8622D01*
X4763Y8531D01*
X4713Y8411D01*
X4713Y8281D01*
X4763Y8162D01*
X4831Y8093D01*
X4831Y3110D01*
X4847Y3030D01*
X4892Y2963D01*
X5438Y2417D01*
X5438Y2185D01*
X5363Y2155D01*
X5223Y2014D01*
X5198Y1956D01*
X5151Y2069D01*
X4984Y2237D01*
X4764Y2329D01*
X4527Y2329D01*
X4439Y2292D01*
X4439Y11134D01*
X4439Y11306D01*
X4416Y11423D01*
X4350Y11523D01*
X4250Y11589D01*
X4133Y11612D01*
X4016Y11589D01*
X3917Y11523D01*
X3851Y11423D01*
X3849Y11413D01*
X3849Y11503D01*
X3825Y11620D01*
X3759Y11719D01*
X3660Y11786D01*
X3543Y11809D01*
X3426Y11786D01*
X3326Y11719D01*
X3260Y11620D01*
X3237Y11503D01*
X3237Y11413D01*
X3235Y11423D01*
X3169Y11523D01*
X3069Y11589D01*
X2952Y11612D01*
X2835Y11589D01*
X2736Y11523D01*
X2670Y11423D01*
X2646Y11306D01*
X2646Y11134D01*
X2670Y11017D01*
X2736Y10917D01*
X2835Y10851D01*
X2952Y10828D01*
X3069Y10851D01*
X3169Y10917D01*
X3235Y11017D01*
X3258Y11134D01*
X3258Y11224D01*
X3260Y11213D01*
X3326Y11114D01*
X3426Y11048D01*
X3543Y11025D01*
X3660Y11048D01*
X3759Y11114D01*
X3825Y11213D01*
X3827Y11224D01*
X3827Y11134D01*
X3851Y11017D01*
X3917Y10917D01*
X4016Y10851D01*
X4133Y10828D01*
X4250Y10851D01*
X4350Y10917D01*
X4416Y11017D01*
X4439Y11134D01*
X4439Y2292D01*
X4308Y2238D01*
X4144Y2074D01*
X4144Y2111D01*
X4121Y2166D01*
X4079Y2208D01*
X4025Y2230D01*
X3966Y2230D01*
X3928Y2230D01*
X3928Y4123D01*
X3845Y4322D01*
X3829Y4338D01*
X3829Y5717D01*
X3829Y6308D01*
X3807Y6363D01*
X3765Y6405D01*
X3710Y6427D01*
X3651Y6427D01*
X3060Y6427D01*
X3006Y6405D01*
X2964Y6363D01*
X2941Y6309D01*
X2941Y6250D01*
X2941Y5659D01*
X2964Y5604D01*
X3006Y5562D01*
X3060Y5540D01*
X3119Y5540D01*
X3710Y5540D01*
X3765Y5562D01*
X3807Y5604D01*
X3829Y5658D01*
X3829Y5717D01*
X3829Y4338D01*
X3693Y4475D01*
X3494Y4558D01*
X3278Y4558D01*
X3079Y4476D01*
X2926Y4323D01*
X2843Y4124D01*
X2843Y3908D01*
X2925Y3709D01*
X3078Y3556D01*
X3277Y3473D01*
X3493Y3473D01*
X3692Y3555D01*
X3845Y3708D01*
X3928Y3907D01*
X3928Y4123D01*
X3928Y2230D01*
X3732Y2230D01*
X3695Y2193D01*
X3695Y1782D01*
X3703Y1782D01*
X3703Y1682D01*
X3695Y1682D01*
X3695Y1270D01*
X3732Y1233D01*
X3966Y1233D01*
X4025Y1233D01*
X4079Y1256D01*
X4121Y1298D01*
X4144Y1352D01*
X4144Y1389D01*
X4307Y1226D01*
X4526Y1135D01*
X4763Y1135D01*
X4983Y1226D01*
X5151Y1393D01*
X5198Y1508D01*
X5222Y1450D01*
X5362Y1309D01*
X5546Y1233D01*
X5744Y1233D01*
X5927Y1309D01*
X6067Y1449D01*
X6144Y1632D01*
X6144Y1830D01*
X6144Y443D01*
X3595Y443D01*
X3595Y1270D01*
X3595Y1682D01*
X3595Y1782D01*
X3595Y2193D01*
X3558Y2230D01*
X3325Y2230D01*
X3266Y2230D01*
X3211Y2208D01*
X3169Y2166D01*
X3147Y2111D01*
X3147Y1819D01*
X3184Y1782D01*
X3595Y1782D01*
X3595Y1682D01*
X3184Y1682D01*
X3147Y1645D01*
X3147Y1352D01*
X3169Y1298D01*
X3211Y1256D01*
X3266Y1233D01*
X3325Y1233D01*
X3558Y1233D01*
X3595Y1270D01*
X3595Y443D01*
X2609Y443D01*
X2609Y8001D01*
X2609Y8001D01*
X2609Y9084D01*
X2609Y9734D01*
X2586Y9788D01*
X2545Y9830D01*
X2490Y9853D01*
X2431Y9853D01*
X2252Y9853D01*
X2215Y9816D01*
X2215Y9459D01*
X2572Y9459D01*
X2609Y9496D01*
X2609Y9734D01*
X2609Y9084D01*
X2609Y9322D01*
X2572Y9359D01*
X2215Y9359D01*
X2215Y9002D01*
X2252Y8965D01*
X2431Y8965D01*
X2490Y8965D01*
X2545Y8988D01*
X2586Y9029D01*
X2609Y9084D01*
X2609Y8001D01*
X2541Y8164D01*
X2417Y8289D01*
X2254Y8357D01*
X2115Y8357D01*
X2115Y9002D01*
X2115Y9359D01*
X2115Y9459D01*
X2115Y9816D01*
X2078Y9853D01*
X1899Y9853D01*
X1840Y9853D01*
X1785Y9830D01*
X1743Y9788D01*
X1721Y9734D01*
X1721Y9496D01*
X1758Y9459D01*
X2115Y9459D01*
X2115Y9359D01*
X1758Y9359D01*
X1721Y9322D01*
X1721Y9084D01*
X1743Y9029D01*
X1785Y8988D01*
X1840Y8965D01*
X1899Y8965D01*
X2078Y8965D01*
X2115Y9002D01*
X2115Y8357D01*
X2077Y8357D01*
X1914Y8289D01*
X1789Y8165D01*
X1721Y8002D01*
X1721Y7825D01*
X1788Y7662D01*
X1913Y7537D01*
X2076Y7469D01*
X2253Y7469D01*
X2416Y7536D01*
X2541Y7661D01*
X2609Y7824D01*
X2609Y8001D01*
X2609Y443D01*
X2412Y443D01*
X2412Y2412D01*
X1231Y2412D01*
X1231Y3021D01*
X1231Y3671D01*
X1208Y3725D01*
X1166Y3767D01*
X1112Y3790D01*
X1053Y3790D01*
X874Y3790D01*
X837Y3753D01*
X837Y3396D01*
X1193Y3396D01*
X1231Y3433D01*
X1231Y3671D01*
X1231Y3021D01*
X1231Y3259D01*
X1193Y3296D01*
X837Y3296D01*
X837Y2939D01*
X874Y2902D01*
X1053Y2902D01*
X1112Y2902D01*
X1166Y2925D01*
X1208Y2967D01*
X1231Y3021D01*
X1231Y2412D01*
X443Y2412D01*
X443Y2910D01*
X462Y2902D01*
X521Y2902D01*
X700Y2902D01*
X737Y2939D01*
X737Y3296D01*
X729Y3296D01*
X729Y3396D01*
X737Y3396D01*
X737Y3753D01*
X700Y3790D01*
X521Y3790D01*
X462Y3790D01*
X443Y3782D01*
X443Y4062D01*
X535Y3970D01*
X698Y3902D01*
X875Y3902D01*
X1038Y3970D01*
X1163Y4094D01*
X1231Y4257D01*
X1231Y4434D01*
X1163Y4597D01*
X1039Y4722D01*
X876Y4790D01*
X699Y4790D01*
X536Y4722D01*
X443Y4630D01*
X443Y10871D01*
X473Y10851D01*
X590Y10828D01*
X707Y10851D01*
X806Y10917D01*
X873Y11017D01*
X896Y11134D01*
X896Y11224D01*
X898Y11213D01*
X964Y11114D01*
X1064Y11048D01*
X1181Y11025D01*
X1298Y11048D01*
X1397Y11114D01*
X1463Y11213D01*
X1465Y11224D01*
X1465Y11134D01*
X1489Y11017D01*
X1555Y10917D01*
X1654Y10851D01*
X1771Y10828D01*
X1888Y10851D01*
X1987Y10917D01*
X2054Y11017D01*
X2077Y11134D01*
X2077Y11306D01*
X2054Y11423D01*
X1987Y11523D01*
X1888Y11589D01*
X1771Y11612D01*
X1654Y11589D01*
X1555Y11523D01*
X1489Y11423D01*
X1487Y11413D01*
X1487Y11503D01*
X1463Y11620D01*
X1397Y11719D01*
X1298Y11786D01*
X1181Y11809D01*
X1064Y11786D01*
X964Y11719D01*
X898Y11620D01*
X875Y11503D01*
X875Y11413D01*
X873Y11423D01*
X806Y11523D01*
X707Y11589D01*
X590Y11612D01*
X473Y11589D01*
X443Y11569D01*
X443Y13316D01*
X590Y13286D01*
X594Y13287D01*
X936Y12944D01*
X936Y12944D01*
X1004Y12899D01*
X1048Y12869D01*
X1048Y12869D01*
X1181Y12843D01*
X2952Y12843D01*
X5314Y12843D01*
X7677Y12843D01*
X9103Y12843D01*
X9103Y11479D01*
X9074Y11523D01*
X8975Y11589D01*
X8858Y11612D01*
X8741Y11589D01*
X8641Y11523D01*
X8575Y11423D01*
X8573Y11413D01*
X8573Y11503D01*
X8550Y11620D01*
X8484Y11719D01*
X8384Y11786D01*
X8267Y11809D01*
X8150Y11786D01*
X8051Y11719D01*
X7985Y11620D01*
X7961Y11503D01*
X7961Y11413D01*
X7959Y11423D01*
X7893Y11523D01*
X7794Y11589D01*
X7677Y11612D01*
X7560Y11589D01*
X7460Y11523D01*
X7394Y11423D01*
X7371Y11306D01*
X7371Y11134D01*
X7394Y11017D01*
X7460Y10917D01*
X7560Y10851D01*
X7677Y10828D01*
X7794Y10851D01*
X7893Y10917D01*
X7959Y11017D01*
X7983Y11134D01*
X7983Y11224D01*
X7985Y11213D01*
X8051Y11114D01*
X8150Y11048D01*
X8267Y11025D01*
X8384Y11048D01*
X8484Y11114D01*
X8550Y11213D01*
X8552Y11224D01*
X8552Y11134D01*
X8575Y11017D01*
X8641Y10917D01*
X8741Y10851D01*
X8858Y10828D01*
X8975Y10851D01*
X9074Y10917D01*
X9103Y10961D01*
X9103Y9559D01*
X9129Y9426D01*
X9204Y9314D01*
X9678Y8840D01*
X9678Y8333D01*
X9716Y8242D01*
X9785Y8173D01*
X9876Y8135D01*
X9930Y8135D01*
X9930Y7253D01*
X9420Y6743D01*
X9420Y8730D01*
X9420Y8907D01*
X9389Y9061D01*
X9301Y9193D01*
X9170Y9280D01*
X9015Y9311D01*
X8861Y9280D01*
X8729Y9193D01*
X8642Y9061D01*
X8638Y9044D01*
X8579Y9083D01*
X8425Y9114D01*
X8270Y9083D01*
X8139Y8996D01*
X8127Y8978D01*
X8112Y9034D01*
X8039Y9130D01*
X7931Y9187D01*
X7884Y9161D01*
X7884Y8868D01*
X7892Y8868D01*
X7892Y8768D01*
X7884Y8768D01*
X7884Y8476D01*
X7931Y8449D01*
X8027Y8501D01*
X8051Y8379D01*
X8139Y8247D01*
X8270Y8160D01*
X8425Y8129D01*
X8579Y8160D01*
X8709Y8247D01*
X8709Y8138D01*
X8455Y7884D01*
X7784Y7884D01*
X7784Y8476D01*
X7784Y8768D01*
X7784Y8868D01*
X7784Y9161D01*
X7738Y9187D01*
X7630Y9130D01*
X7556Y9034D01*
X7525Y8917D01*
X7563Y8868D01*
X7784Y8868D01*
X7784Y8768D01*
X7563Y8768D01*
X7525Y8720D01*
X7556Y8603D01*
X7630Y8507D01*
X7738Y8449D01*
X7784Y8476D01*
X7784Y7884D01*
X7498Y7884D01*
X7445Y7937D01*
X7289Y8002D01*
X7120Y8002D01*
X6964Y7938D01*
X6845Y7819D01*
X6801Y7714D01*
X6801Y11134D01*
X6801Y11306D01*
X6778Y11423D01*
X6712Y11523D01*
X6613Y11589D01*
X6496Y11612D01*
X6378Y11589D01*
X6279Y11523D01*
X6213Y11423D01*
X6211Y11413D01*
X6211Y11503D01*
X6188Y11620D01*
X6121Y11719D01*
X6022Y11786D01*
X5905Y11809D01*
X5788Y11786D01*
X5689Y11719D01*
X5622Y11620D01*
X5599Y11503D01*
X5599Y11413D01*
X5597Y11423D01*
X5531Y11523D01*
X5432Y11589D01*
X5314Y11612D01*
X5197Y11589D01*
X5098Y11523D01*
X5032Y11423D01*
X5009Y11306D01*
X5009Y11134D01*
X5032Y11017D01*
X5098Y10917D01*
X5197Y10851D01*
X5314Y10828D01*
X5432Y10851D01*
X5531Y10917D01*
X5597Y11017D01*
X5620Y11134D01*
X5620Y11224D01*
X5622Y11213D01*
X5689Y11114D01*
X5788Y11048D01*
X5905Y11025D01*
X6022Y11048D01*
X6121Y11114D01*
X6188Y11213D01*
X6190Y11224D01*
X6190Y11134D01*
X6213Y11017D01*
X6279Y10917D01*
X6378Y10851D01*
X6496Y10828D01*
X6613Y10851D01*
X6712Y10917D01*
X6778Y11017D01*
X6801Y11134D01*
X6801Y7714D01*
X6780Y7663D01*
X6780Y7494D01*
X6845Y7338D01*
X6964Y7219D01*
X7120Y7154D01*
X7288Y7154D01*
X7444Y7219D01*
X7498Y7272D01*
X8582Y7272D01*
X8699Y7296D01*
X8798Y7362D01*
X9232Y7795D01*
X9232Y7795D01*
X9232Y7795D01*
X9298Y7894D01*
X9298Y7894D01*
X9321Y8011D01*
X9321Y8011D01*
X9321Y8474D01*
X9389Y8575D01*
X9420Y8730D01*
X9420Y6743D01*
X8121Y5444D01*
X8121Y6186D01*
X8121Y6836D01*
X8098Y6891D01*
X8056Y6933D01*
X8002Y6955D01*
X7943Y6955D01*
X7764Y6955D01*
X7727Y6918D01*
X7727Y6561D01*
X8083Y6561D01*
X8121Y6598D01*
X8121Y6836D01*
X8121Y6186D01*
X8121Y6424D01*
X8083Y6461D01*
X7727Y6461D01*
X7727Y6104D01*
X7764Y6067D01*
X7943Y6067D01*
X8002Y6067D01*
X8056Y6090D01*
X8098Y6132D01*
X8121Y6186D01*
X8121Y5444D01*
X7731Y5054D01*
X7627Y5054D01*
X7627Y6104D01*
X7627Y6461D01*
X7627Y6561D01*
X7627Y6918D01*
X7590Y6955D01*
X7411Y6955D01*
X7352Y6955D01*
X7297Y6933D01*
X7255Y6891D01*
X7233Y6836D01*
X7233Y6598D01*
X7270Y6561D01*
X7627Y6561D01*
X7627Y6461D01*
X7270Y6461D01*
X7233Y6424D01*
X7233Y6186D01*
X7255Y6132D01*
X7297Y6090D01*
X7352Y6067D01*
X7411Y6067D01*
X7590Y6067D01*
X7627Y6104D01*
X7627Y5054D01*
X7569Y5054D01*
X7370Y4971D01*
X7217Y4819D01*
X7134Y4620D01*
X7134Y4404D01*
X7217Y4204D01*
X7369Y4052D01*
X7568Y3969D01*
X7784Y3969D01*
X7983Y4051D01*
X8136Y4204D01*
X8219Y4403D01*
X8219Y4565D01*
X10519Y6866D01*
X10519Y6866D01*
X10519Y6866D01*
X10594Y6978D01*
X10594Y6978D01*
X10620Y7110D01*
X10620Y8135D01*
X10674Y8135D01*
X10765Y8172D01*
X10834Y8242D01*
X10872Y8332D01*
X10872Y8431D01*
X10872Y9131D01*
X10834Y9221D01*
X10765Y9291D01*
X10674Y9329D01*
X10576Y9329D01*
X10166Y9329D01*
X9794Y9702D01*
X9794Y10961D01*
X9823Y10917D01*
X9922Y10851D01*
X10039Y10828D01*
X10156Y10851D01*
X10255Y10917D01*
X10321Y11017D01*
X10345Y11134D01*
X10345Y11224D01*
X10347Y11213D01*
X10413Y11114D01*
X10512Y11048D01*
X10629Y11025D01*
X10746Y11048D01*
X10846Y11114D01*
X10912Y11213D01*
X10914Y11224D01*
X10914Y11134D01*
X10937Y11017D01*
X11004Y10917D01*
X11103Y10851D01*
X11220Y10828D01*
X11337Y10851D01*
X11436Y10917D01*
X11503Y11017D01*
X11526Y11134D01*
X11526Y11306D01*
X11503Y11423D01*
X11436Y11523D01*
X11337Y11589D01*
X11220Y11612D01*
X11103Y11589D01*
X11004Y11523D01*
X10937Y11423D01*
X10935Y11413D01*
X10935Y11503D01*
X10912Y11620D01*
X10846Y11719D01*
X10746Y11786D01*
X10629Y11809D01*
X10512Y11786D01*
X10413Y11719D01*
X10347Y11620D01*
X10324Y11503D01*
X10324Y11413D01*
X10321Y11423D01*
X10255Y11523D01*
X10156Y11589D01*
X10039Y11612D01*
X9922Y11589D01*
X9823Y11523D01*
X9794Y11479D01*
X9794Y12843D01*
X10039Y12843D01*
X11614Y12843D01*
X11746Y12869D01*
X11858Y12944D01*
X12237Y13324D01*
X12246Y13317D01*
X12401Y13286D01*
X12556Y13317D01*
X12687Y13405D01*
X12775Y13536D01*
X12799Y13658D01*
X12875Y13607D01*
X12992Y13584D01*
X13109Y13607D01*
X13184Y13658D01*
X13209Y13536D01*
X13296Y13405D01*
X13427Y13317D01*
X13582Y13286D01*
X13737Y13317D01*
X13868Y13405D01*
X13956Y13536D01*
X13987Y13691D01*
X13987Y13867D01*
X13956Y14022D01*
X13868Y14153D01*
X13737Y14241D01*
X13582Y14272D01*
X13427Y14241D01*
X13296Y14153D01*
X13283Y14134D01*
X13274Y14179D01*
X13208Y14278D01*
X13109Y14345D01*
X12992Y14368D01*
X12875Y14345D01*
X12775Y14278D01*
X12709Y14179D01*
X12700Y14134D01*
X12687Y14153D01*
X12556Y14241D01*
X12401Y14272D01*
X12246Y14241D01*
X12115Y14153D01*
X12079Y14099D01*
X12072Y14098D01*
X12027Y14068D01*
X11960Y14023D01*
X11960Y14023D01*
X11623Y13687D01*
X11624Y13691D01*
X11624Y13867D01*
X11594Y14022D01*
X11506Y14153D01*
X11375Y14241D01*
X11220Y14272D01*
X11065Y14241D01*
X10934Y14153D01*
X10921Y14134D01*
X10912Y14179D01*
X10846Y14278D01*
X10746Y14345D01*
X10629Y14368D01*
X10512Y14345D01*
X10413Y14278D01*
X10347Y14179D01*
X10338Y14134D01*
X10325Y14153D01*
X10194Y14241D01*
X10039Y14272D01*
X9884Y14241D01*
X9753Y14153D01*
X9665Y14022D01*
X9635Y13867D01*
X9635Y13691D01*
X9665Y13536D01*
X9667Y13534D01*
X9448Y13534D01*
X9230Y13534D01*
X9231Y13536D01*
X9262Y13691D01*
X9262Y13867D01*
X9231Y14022D01*
X9144Y14153D01*
X9012Y14241D01*
X8858Y14272D01*
X8703Y14241D01*
X8572Y14153D01*
X8559Y14134D01*
X8550Y14179D01*
X8484Y14278D01*
X8384Y14345D01*
X8267Y14368D01*
X8150Y14345D01*
X8051Y14278D01*
X7985Y14179D01*
X7976Y14134D01*
X7963Y14153D01*
X7831Y14241D01*
X7677Y14272D01*
X7522Y14241D01*
X7391Y14153D01*
X7303Y14022D01*
X7272Y13867D01*
X7272Y13691D01*
X7303Y13536D01*
X7305Y13534D01*
X6868Y13534D01*
X6869Y13536D01*
X6900Y13691D01*
X6900Y13867D01*
X6869Y14022D01*
X6781Y14153D01*
X6650Y14241D01*
X6496Y14272D01*
X6341Y14241D01*
X6210Y14153D01*
X6197Y14134D01*
X6188Y14179D01*
X6121Y14278D01*
X6022Y14345D01*
X5905Y14368D01*
X5788Y14345D01*
X5689Y14278D01*
X5622Y14179D01*
X5613Y14134D01*
X5600Y14153D01*
X5469Y14241D01*
X5314Y14272D01*
X5160Y14241D01*
X5029Y14153D01*
X4941Y14022D01*
X4910Y13867D01*
X4910Y13691D01*
X4941Y13536D01*
X4942Y13534D01*
X4505Y13534D01*
X4507Y13536D01*
X4538Y13691D01*
X4538Y13867D01*
X4507Y14022D01*
X4419Y14153D01*
X4288Y14241D01*
X4133Y14272D01*
X3979Y14241D01*
X3847Y14153D01*
X3834Y14134D01*
X3825Y14179D01*
X3759Y14278D01*
X3660Y14345D01*
X3543Y14368D01*
X3426Y14345D01*
X3326Y14278D01*
X3260Y14179D01*
X3251Y14134D01*
X3238Y14153D01*
X3107Y14241D01*
X2952Y14272D01*
X2798Y14241D01*
X2666Y14153D01*
X2579Y14022D01*
X2548Y13867D01*
X2548Y13691D01*
X2579Y13536D01*
X2580Y13534D01*
X2143Y13534D01*
X2145Y13536D01*
X2175Y13691D01*
X2175Y13867D01*
X2145Y14022D01*
X2057Y14153D01*
X1926Y14241D01*
X1771Y14272D01*
X1616Y14241D01*
X1485Y14153D01*
X1472Y14134D01*
X1463Y14179D01*
X1397Y14278D01*
X1298Y14345D01*
X1181Y14368D01*
X1064Y14345D01*
X964Y14278D01*
X898Y14179D01*
X889Y14134D01*
X876Y14153D01*
X745Y14241D01*
X590Y14272D01*
X443Y14242D01*
X443Y15304D01*
X1792Y15304D01*
X2412Y15924D01*
X2412Y17272D01*
X3394Y17272D01*
X3394Y17175D01*
X3394Y16584D01*
X3432Y16494D01*
X3501Y16424D01*
X3592Y16387D01*
X3690Y16386D01*
X4281Y16386D01*
X4371Y16424D01*
X4441Y16493D01*
X4479Y16584D01*
X4479Y16620D01*
X4629Y16469D01*
X4828Y16387D01*
X5044Y16386D01*
X5243Y16469D01*
X5396Y16621D01*
X5437Y16719D01*
X5477Y16622D01*
X5629Y16469D01*
X5828Y16387D01*
X6044Y16386D01*
X6243Y16469D01*
X6396Y16621D01*
X6437Y16719D01*
X6477Y16622D01*
X6629Y16469D01*
X6828Y16387D01*
X7044Y16386D01*
X7243Y16469D01*
X7396Y16621D01*
X7437Y16719D01*
X7477Y16622D01*
X7629Y16469D01*
X7828Y16387D01*
X8044Y16386D01*
X8243Y16469D01*
X8396Y16621D01*
X8437Y16719D01*
X8477Y16622D01*
X8629Y16469D01*
X8828Y16387D01*
X9044Y16386D01*
X9243Y16469D01*
X9396Y16621D01*
X9479Y16820D01*
X9479Y17036D01*
X9396Y17235D01*
X9359Y17272D01*
X12056Y17272D01*
X12056Y17175D01*
X12056Y16584D01*
X12093Y16494D01*
X12163Y16424D01*
X12253Y16387D01*
X12352Y16386D01*
X12942Y16386D01*
X13033Y16424D01*
X13102Y16493D01*
X13140Y16584D01*
X13140Y16620D01*
X13290Y16469D01*
X13490Y16387D01*
X13705Y16386D01*
X13905Y16469D01*
X14057Y16621D01*
X14098Y16719D01*
X14138Y16622D01*
X14290Y16469D01*
X14292Y16469D01*
X14292Y13866D01*
X14315Y13749D01*
X14382Y13649D01*
X14901Y13130D01*
X14901Y13130D01*
X15001Y13063D01*
X15118Y13040D01*
X15118Y13040D01*
X21881Y13040D01*
X22091Y12829D01*
X22091Y12514D01*
X22016Y12439D01*
X21997Y12469D01*
X21997Y12469D01*
X21800Y12666D01*
X21732Y12711D01*
X21653Y12727D01*
X18834Y12727D01*
X18755Y12711D01*
X18687Y12666D01*
X18514Y12492D01*
X18482Y12506D01*
X18313Y12506D01*
X18158Y12441D01*
X18038Y12322D01*
X17974Y12167D01*
X17974Y11998D01*
X18038Y11843D01*
X18059Y11821D01*
X17952Y11821D01*
X17807Y11966D01*
X17820Y11998D01*
X17821Y12166D01*
X17756Y12322D01*
X17637Y12441D01*
X17482Y12506D01*
X17313Y12506D01*
X17158Y12441D01*
X17038Y12322D01*
X16974Y12167D01*
X16974Y11998D01*
X17038Y11843D01*
X17157Y11723D01*
X17313Y11659D01*
X17481Y11659D01*
X17514Y11672D01*
X17670Y11516D01*
X17622Y11516D01*
X17502Y11467D01*
X17411Y11375D01*
X17361Y11255D01*
X17361Y11126D01*
X17410Y11006D01*
X17430Y10987D01*
X17430Y9288D01*
X17401Y9259D01*
X17351Y9139D01*
X17351Y9010D01*
X17400Y8890D01*
X17492Y8798D01*
X17612Y8749D01*
X17646Y8749D01*
X17646Y7530D01*
X16945Y7530D01*
X16919Y7556D01*
X16919Y12186D01*
X16840Y12377D01*
X16693Y12524D01*
X16501Y12604D01*
X16294Y12604D01*
X16102Y12525D01*
X15955Y12378D01*
X15919Y12292D01*
X15919Y12406D01*
X15882Y12497D01*
X15812Y12566D01*
X15721Y12604D01*
X15623Y12604D01*
X15073Y12604D01*
X14982Y12567D01*
X14913Y12497D01*
X14875Y12406D01*
X14875Y12308D01*
X14875Y11758D01*
X14913Y11668D01*
X14982Y11598D01*
X15073Y11560D01*
X15171Y11560D01*
X15721Y11560D01*
X15812Y11598D01*
X15881Y11667D01*
X15919Y11758D01*
X15919Y11856D01*
X15919Y11873D01*
X15954Y11787D01*
X16101Y11640D01*
X16293Y11560D01*
X16500Y11560D01*
X16692Y11640D01*
X16839Y11786D01*
X16919Y11978D01*
X16919Y12186D01*
X16919Y7556D01*
X16916Y7559D01*
X16797Y7608D01*
X16667Y7609D01*
X16548Y7559D01*
X16456Y7468D01*
X16406Y7348D01*
X16406Y7218D01*
X16456Y7099D01*
X16547Y7007D01*
X16650Y6964D01*
X16560Y6927D01*
X16435Y6802D01*
X16367Y6639D01*
X16367Y6463D01*
X16434Y6300D01*
X16559Y6175D01*
X16722Y6107D01*
X16898Y6107D01*
X17062Y6174D01*
X17186Y6299D01*
X17254Y6462D01*
X17254Y6639D01*
X17187Y6802D01*
X17062Y6927D01*
X16899Y6994D01*
X16886Y6994D01*
X16916Y7007D01*
X16945Y7036D01*
X17680Y7036D01*
X17709Y7007D01*
X17828Y6957D01*
X17958Y6957D01*
X18077Y7007D01*
X18169Y7098D01*
X18219Y7218D01*
X18219Y7347D01*
X18169Y7467D01*
X18140Y7497D01*
X18140Y8858D01*
X18121Y8952D01*
X18121Y8952D01*
X18068Y9032D01*
X18002Y9098D01*
X18002Y9139D01*
X17953Y9258D01*
X17924Y9288D01*
X17924Y10967D01*
X17962Y11006D01*
X18012Y11125D01*
X18012Y11255D01*
X17963Y11375D01*
X17931Y11406D01*
X20819Y11406D01*
X21506Y10719D01*
X21506Y10719D01*
X21551Y10689D01*
X21574Y10674D01*
X21574Y10674D01*
X21653Y10658D01*
X21653Y10658D01*
X22197Y10658D01*
X22292Y10563D01*
X22292Y10146D01*
X22226Y10306D01*
X22102Y10431D01*
X21939Y10498D01*
X21762Y10498D01*
X21599Y10431D01*
X21474Y10306D01*
X21406Y10143D01*
X21406Y9967D01*
X21474Y9804D01*
X21598Y9679D01*
X21761Y9611D01*
X21938Y9611D01*
X22101Y9678D01*
X22226Y9803D01*
X22292Y9962D01*
X22292Y9383D01*
X22271Y9434D01*
X22229Y9476D01*
X22175Y9498D01*
X22116Y9498D01*
X21525Y9498D01*
X21471Y9476D01*
X21467Y9472D01*
X21467Y9645D01*
X21451Y9725D01*
X21451Y9725D01*
X21406Y9792D01*
X20997Y10201D01*
X20929Y10246D01*
X20850Y10262D01*
X20276Y10262D01*
X20258Y10306D01*
X20133Y10431D01*
X19970Y10498D01*
X19794Y10498D01*
X19630Y10431D01*
X19505Y10306D01*
X19438Y10143D01*
X19438Y9967D01*
X19505Y9804D01*
X19630Y9679D01*
X19793Y9611D01*
X19969Y9611D01*
X20132Y9678D01*
X20257Y9803D01*
X20276Y9847D01*
X20764Y9847D01*
X21052Y9559D01*
X21052Y8481D01*
X20983Y8413D01*
X20934Y8293D01*
X20934Y8163D01*
X20983Y8044D01*
X21075Y7952D01*
X21194Y7902D01*
X21324Y7902D01*
X21444Y7952D01*
X21535Y8043D01*
X21585Y8163D01*
X21585Y8292D01*
X21536Y8412D01*
X21467Y8481D01*
X21467Y8637D01*
X21470Y8634D01*
X21525Y8611D01*
X21584Y8611D01*
X22175Y8611D01*
X22229Y8633D01*
X22271Y8675D01*
X22292Y8726D01*
X22292Y6227D01*
X21674Y5609D01*
X21674Y6184D01*
X21742Y6252D01*
X21792Y6371D01*
X21792Y6501D01*
X21742Y6621D01*
X21651Y6712D01*
X21531Y6762D01*
X21402Y6762D01*
X21282Y6713D01*
X21190Y6621D01*
X21141Y6502D01*
X21140Y6372D01*
X21190Y6252D01*
X21259Y6183D01*
X21259Y5568D01*
X20325Y4634D01*
X20325Y8789D01*
X20325Y9379D01*
X20303Y9434D01*
X20261Y9476D01*
X20206Y9498D01*
X20147Y9498D01*
X19557Y9498D01*
X19502Y9476D01*
X19460Y9434D01*
X19438Y9380D01*
X19438Y9320D01*
X19438Y8730D01*
X19460Y8675D01*
X19502Y8634D01*
X19556Y8611D01*
X19616Y8611D01*
X20206Y8611D01*
X20261Y8633D01*
X20302Y8675D01*
X20325Y8730D01*
X20325Y8789D01*
X20325Y4634D01*
X19599Y3908D01*
X17963Y3908D01*
X17963Y3946D01*
X17963Y4537D01*
X17940Y4591D01*
X17899Y4633D01*
X17844Y4656D01*
X17785Y4656D01*
X17254Y4656D01*
X17254Y5285D01*
X17254Y5875D01*
X17232Y5930D01*
X17190Y5972D01*
X17135Y5994D01*
X17076Y5994D01*
X16486Y5994D01*
X16431Y5972D01*
X16389Y5930D01*
X16367Y5876D01*
X16367Y5817D01*
X16367Y5226D01*
X16389Y5171D01*
X16431Y5130D01*
X16486Y5107D01*
X16545Y5107D01*
X17135Y5107D01*
X17190Y5130D01*
X17232Y5171D01*
X17254Y5226D01*
X17254Y5285D01*
X17254Y4656D01*
X17195Y4656D01*
X17140Y4633D01*
X17098Y4592D01*
X17076Y4537D01*
X17075Y4478D01*
X17075Y3908D01*
X16842Y3908D01*
X16895Y3960D01*
X16963Y4123D01*
X16963Y4300D01*
X16896Y4463D01*
X16771Y4588D01*
X16608Y4656D01*
X16431Y4656D01*
X16268Y4588D01*
X16143Y4464D01*
X16076Y4301D01*
X16075Y4124D01*
X16143Y3961D01*
X16196Y3908D01*
X16117Y3908D01*
X15945Y4080D01*
X15963Y4123D01*
X15963Y4300D01*
X15896Y4463D01*
X15771Y4588D01*
X15608Y4656D01*
X15431Y4656D01*
X15268Y4588D01*
X15143Y4464D01*
X15076Y4301D01*
X15075Y4124D01*
X15143Y3961D01*
X15268Y3836D01*
X15431Y3768D01*
X15607Y3768D01*
X15651Y3787D01*
X15884Y3554D01*
X15884Y3554D01*
X15929Y3524D01*
X15952Y3509D01*
X15952Y3509D01*
X16031Y3493D01*
X16172Y3493D01*
X16143Y3464D01*
X16076Y3301D01*
X16075Y3124D01*
X16143Y2961D01*
X16268Y2836D01*
X16431Y2768D01*
X16607Y2768D01*
X16770Y2836D01*
X16895Y2960D01*
X16963Y3123D01*
X16963Y3300D01*
X16896Y3463D01*
X16866Y3493D01*
X17172Y3493D01*
X17143Y3464D01*
X17076Y3301D01*
X17075Y3124D01*
X17143Y2961D01*
X17268Y2836D01*
X17431Y2768D01*
X17607Y2768D01*
X17770Y2836D01*
X17895Y2960D01*
X17963Y3123D01*
X17963Y3300D01*
X17896Y3463D01*
X17866Y3493D01*
X19685Y3493D01*
X19764Y3509D01*
X19764Y3509D01*
X19831Y3554D01*
X20343Y4066D01*
X20343Y3951D01*
X20393Y3831D01*
X20484Y3739D01*
X20604Y3690D01*
X20733Y3690D01*
X20853Y3739D01*
X20945Y3831D01*
X20994Y3950D01*
X20994Y4080D01*
X20956Y4173D01*
X21035Y4094D01*
X21155Y4044D01*
X21284Y4044D01*
X21404Y4093D01*
X21496Y4185D01*
X21546Y4305D01*
X21546Y4434D01*
X21501Y4543D01*
X21528Y4571D01*
X21574Y4461D01*
X21665Y4369D01*
X21785Y4320D01*
X21914Y4320D01*
X22034Y4369D01*
X22126Y4460D01*
X22175Y4580D01*
X22176Y4710D01*
X22126Y4829D01*
X22110Y4846D01*
X23079Y5815D01*
X23079Y5815D01*
X23109Y5860D01*
X23124Y5882D01*
X23124Y5882D01*
X23140Y5962D01*
X23140Y5962D01*
X23140Y6842D01*
X23242Y6800D01*
X23371Y6800D01*
X23491Y6849D01*
X23582Y6941D01*
X23632Y7060D01*
X23632Y7190D01*
X23583Y7310D01*
X23491Y7401D01*
X23372Y7451D01*
X23357Y7451D01*
X23357Y10997D01*
X23341Y11076D01*
X23341Y11076D01*
X23326Y11099D01*
X23296Y11144D01*
X23296Y11144D01*
X22777Y11662D01*
X22740Y11687D01*
X22839Y11786D01*
X22919Y11978D01*
X22919Y12186D01*
X22840Y12377D01*
X22703Y12514D01*
X22703Y12956D01*
X22680Y13073D01*
X22613Y13173D01*
X22224Y13562D01*
X22124Y13629D01*
X22007Y13652D01*
X20219Y13652D01*
X20109Y13652D01*
X20110Y13653D01*
X20083Y13680D01*
X20155Y13719D01*
X20219Y13906D01*
X20208Y14104D01*
X20155Y14233D01*
X20083Y14272D01*
X20012Y14201D01*
X20012Y14342D01*
X19973Y14414D01*
X19826Y14465D01*
X19826Y15031D01*
X19813Y15199D01*
X19773Y15294D01*
X19709Y15324D01*
X19468Y15082D01*
X19709Y14841D01*
X19773Y14871D01*
X19826Y15031D01*
X19826Y14465D01*
X19785Y14479D01*
X19639Y14471D01*
X19639Y14770D01*
X19397Y15011D01*
X19326Y14941D01*
X19326Y15082D01*
X19085Y15324D01*
X19021Y15294D01*
X18968Y15134D01*
X18981Y14966D01*
X19021Y14871D01*
X19085Y14841D01*
X19326Y15082D01*
X19326Y14941D01*
X19156Y14770D01*
X19186Y14706D01*
X19346Y14654D01*
X19514Y14666D01*
X19609Y14706D01*
X19639Y14770D01*
X19639Y14471D01*
X19588Y14468D01*
X19459Y14414D01*
X19420Y14342D01*
X19716Y14047D01*
X20012Y14342D01*
X20012Y14201D01*
X19787Y13976D01*
X19792Y13970D01*
X19722Y13900D01*
X19716Y13905D01*
X19710Y13900D01*
X19645Y13965D01*
X19640Y13970D01*
X19645Y13976D01*
X19349Y14272D01*
X19278Y14233D01*
X19213Y14045D01*
X19224Y13847D01*
X19278Y13719D01*
X19349Y13680D01*
X19322Y13653D01*
X19323Y13652D01*
X16313Y13652D01*
X16313Y13675D01*
X16313Y14375D01*
X16275Y14466D01*
X16206Y14535D01*
X16115Y14573D01*
X16017Y14573D01*
X15531Y14573D01*
X15692Y14640D01*
X15839Y14786D01*
X15897Y14926D01*
X15954Y14787D01*
X16101Y14640D01*
X16293Y14560D01*
X16500Y14560D01*
X16692Y14640D01*
X16839Y14786D01*
X16897Y14926D01*
X16954Y14787D01*
X17101Y14640D01*
X17293Y14560D01*
X17500Y14560D01*
X17692Y14640D01*
X17839Y14786D01*
X17897Y14926D01*
X17954Y14787D01*
X18101Y14640D01*
X18293Y14560D01*
X18500Y14560D01*
X18692Y14640D01*
X18839Y14786D01*
X18919Y14978D01*
X18919Y15186D01*
X18840Y15377D01*
X18776Y15442D01*
X19178Y15442D01*
X19156Y15394D01*
X19397Y15153D01*
X19639Y15394D01*
X19617Y15442D01*
X20019Y15442D01*
X19955Y15378D01*
X19875Y15186D01*
X19875Y14979D01*
X19954Y14787D01*
X20101Y14640D01*
X20293Y14560D01*
X20500Y14560D01*
X20692Y14640D01*
X20839Y14786D01*
X20897Y14926D01*
X20954Y14787D01*
X21101Y14640D01*
X21293Y14560D01*
X21500Y14560D01*
X21692Y14640D01*
X21839Y14786D01*
X21897Y14926D01*
X21954Y14787D01*
X22101Y14640D01*
X22293Y14560D01*
X22500Y14560D01*
X22692Y14640D01*
X22839Y14786D01*
X22919Y14978D01*
X22919Y15186D01*
X22840Y15377D01*
X22693Y15524D01*
X22501Y15604D01*
X22308Y15604D01*
X21948Y15964D01*
X21849Y16030D01*
X21732Y16053D01*
X17155Y16053D01*
X17489Y16387D01*
X17490Y16387D01*
X17705Y16386D01*
X17905Y16469D01*
X18057Y16621D01*
X18098Y16719D01*
X18138Y16622D01*
X18290Y16469D01*
X18490Y16387D01*
X18705Y16386D01*
X18905Y16469D01*
X19057Y16621D01*
X19098Y16719D01*
X19138Y16622D01*
X19290Y16469D01*
X19490Y16387D01*
X19705Y16386D01*
X19905Y16469D01*
X20057Y16621D01*
X20098Y16719D01*
X20138Y16622D01*
X20290Y16469D01*
X20490Y16387D01*
X20705Y16386D01*
X20905Y16469D01*
X21057Y16621D01*
X21098Y16719D01*
X21138Y16622D01*
X21290Y16469D01*
X21490Y16387D01*
X21705Y16386D01*
X21905Y16469D01*
X22057Y16621D01*
X22098Y16719D01*
X22138Y16622D01*
X22290Y16469D01*
X22490Y16387D01*
X22705Y16386D01*
X22905Y16469D01*
X23057Y16621D01*
X23098Y16719D01*
X23138Y16622D01*
X23290Y16469D01*
X23490Y16387D01*
X23705Y16386D01*
X23905Y16469D01*
X24057Y16621D01*
X24140Y16820D01*
X24140Y17036D01*
X24058Y17235D01*
X24021Y17272D01*
X25146Y17272D01*
X25146Y15304D01*
X27115Y15304D01*
X27115Y14248D01*
X27106Y14262D01*
X26975Y14349D01*
X26820Y14380D01*
X26644Y14380D01*
X26489Y14349D01*
X26358Y14262D01*
X26270Y14131D01*
X26239Y13976D01*
X26270Y13821D01*
X26358Y13690D01*
X26377Y13677D01*
X26332Y13668D01*
X26232Y13602D01*
X26166Y13502D01*
X26143Y13385D01*
X26166Y13268D01*
X26232Y13169D01*
X26332Y13103D01*
X26449Y13079D01*
X26542Y13079D01*
X26516Y13073D01*
X26421Y12999D01*
X26363Y12891D01*
X26389Y12845D01*
X26682Y12845D01*
X26682Y13066D01*
X26656Y13086D01*
X26738Y13103D01*
X26838Y13169D01*
X26904Y13268D01*
X26927Y13385D01*
X26904Y13502D01*
X26853Y13578D01*
X26975Y13602D01*
X27106Y13690D01*
X27115Y13703D01*
X27115Y12845D01*
X27101Y12845D01*
X27075Y12845D01*
X27101Y12891D01*
X27043Y12999D01*
X26947Y13073D01*
X26830Y13104D01*
X26782Y13066D01*
X26782Y12845D01*
X26790Y12845D01*
X26790Y12745D01*
X26782Y12745D01*
X26782Y12524D01*
X26830Y12486D01*
X26947Y12517D01*
X27043Y12590D01*
X27101Y12698D01*
X27075Y12745D01*
X27101Y12745D01*
X27115Y12745D01*
X27115Y2412D01*
X27115Y2412D01*
G37*
G54D26*
X27115Y2412D02*
X27101Y2412D01*
X26682Y2412D01*
X26682Y12524D01*
X26682Y12745D01*
X26389Y12745D01*
X26363Y12698D01*
X26421Y12590D01*
X26516Y12517D01*
X26633Y12486D01*
X26682Y12524D01*
X26682Y2412D01*
X26034Y2412D01*
X26034Y7914D01*
X26034Y8914D01*
X26034Y9914D01*
X26034Y9914D01*
X26034Y10502D01*
X26034Y11151D01*
X26011Y11206D01*
X25970Y11247D01*
X25915Y11270D01*
X25856Y11270D01*
X25677Y11270D01*
X25640Y11233D01*
X25640Y10876D01*
X25997Y10876D01*
X26034Y10913D01*
X26034Y11151D01*
X26034Y10502D01*
X26034Y10739D01*
X25997Y10776D01*
X25640Y10776D01*
X25640Y10420D01*
X25677Y10383D01*
X25856Y10383D01*
X25915Y10383D01*
X25970Y10405D01*
X26011Y10447D01*
X26034Y10502D01*
X26034Y9914D01*
X25966Y10077D01*
X25842Y10202D01*
X25679Y10270D01*
X25540Y10270D01*
X25540Y10420D01*
X25540Y10776D01*
X25540Y10876D01*
X25540Y11233D01*
X25503Y11270D01*
X25453Y11270D01*
X25453Y13976D01*
X25422Y14131D01*
X25334Y14262D01*
X25203Y14349D01*
X25048Y14380D01*
X24872Y14380D01*
X24717Y14349D01*
X24586Y14262D01*
X24498Y14131D01*
X24468Y13976D01*
X24498Y13821D01*
X24586Y13690D01*
X24605Y13677D01*
X24560Y13668D01*
X24461Y13602D01*
X24394Y13502D01*
X24371Y13385D01*
X24394Y13268D01*
X24461Y13169D01*
X24560Y13103D01*
X24677Y13079D01*
X24770Y13079D01*
X24745Y13073D01*
X24649Y12999D01*
X24591Y12891D01*
X24617Y12845D01*
X24910Y12845D01*
X24910Y13066D01*
X24884Y13086D01*
X24967Y13103D01*
X25066Y13169D01*
X25132Y13268D01*
X25155Y13385D01*
X25132Y13502D01*
X25082Y13578D01*
X25203Y13602D01*
X25334Y13690D01*
X25422Y13821D01*
X25453Y13976D01*
X25453Y11270D01*
X25329Y11270D01*
X25329Y12698D01*
X25329Y12891D01*
X25271Y12999D01*
X25175Y13073D01*
X25059Y13104D01*
X25010Y13066D01*
X25010Y12845D01*
X25303Y12845D01*
X25329Y12891D01*
X25329Y12698D01*
X25303Y12745D01*
X25010Y12745D01*
X25010Y12524D01*
X25059Y12486D01*
X25175Y12517D01*
X25271Y12590D01*
X25329Y12698D01*
X25329Y11270D01*
X25324Y11270D01*
X25265Y11270D01*
X25211Y11247D01*
X25169Y11206D01*
X25146Y11151D01*
X25146Y10913D01*
X25183Y10876D01*
X25540Y10876D01*
X25540Y10776D01*
X25183Y10776D01*
X25146Y10739D01*
X25146Y10502D01*
X25169Y10447D01*
X25211Y10405D01*
X25265Y10383D01*
X25324Y10383D01*
X25503Y10383D01*
X25540Y10420D01*
X25540Y10270D01*
X25502Y10270D01*
X25339Y10203D01*
X25214Y10078D01*
X25146Y9915D01*
X25146Y9738D01*
X25214Y9575D01*
X25338Y9450D01*
X25501Y9383D01*
X25678Y9382D01*
X25841Y9450D01*
X25966Y9575D01*
X26034Y9738D01*
X26034Y9914D01*
X26034Y8914D01*
X25966Y9077D01*
X25842Y9202D01*
X25679Y9270D01*
X25502Y9270D01*
X25339Y9203D01*
X25214Y9078D01*
X25146Y8915D01*
X25146Y8738D01*
X25214Y8575D01*
X25338Y8450D01*
X25501Y8383D01*
X25678Y8382D01*
X25841Y8450D01*
X25966Y8575D01*
X26034Y8738D01*
X26034Y8914D01*
X26034Y7914D01*
X25966Y8077D01*
X25842Y8202D01*
X25679Y8270D01*
X25502Y8270D01*
X25339Y8203D01*
X25214Y8078D01*
X25146Y7915D01*
X25146Y7738D01*
X25214Y7575D01*
X25338Y7450D01*
X25501Y7383D01*
X25678Y7382D01*
X25841Y7450D01*
X25966Y7575D01*
X26034Y7738D01*
X26034Y7914D01*
X26034Y2412D01*
X25766Y2412D01*
X25758Y2403D01*
X25758Y4320D01*
X25758Y6320D01*
X25693Y6475D01*
X25574Y6594D01*
X25419Y6659D01*
X25250Y6659D01*
X25095Y6595D01*
X24975Y6476D01*
X24911Y6320D01*
X24911Y6152D01*
X24975Y5996D01*
X25094Y5877D01*
X25250Y5812D01*
X25418Y5812D01*
X25574Y5877D01*
X25693Y5996D01*
X25757Y6151D01*
X25758Y6320D01*
X25758Y4320D01*
X25693Y4475D01*
X25574Y4594D01*
X25419Y4659D01*
X25250Y4659D01*
X25095Y4595D01*
X24975Y4476D01*
X24911Y4320D01*
X24911Y4152D01*
X24975Y3996D01*
X25094Y3877D01*
X25250Y3812D01*
X25418Y3812D01*
X25574Y3877D01*
X25693Y3996D01*
X25757Y4151D01*
X25758Y4320D01*
X25758Y2403D01*
X25146Y1792D01*
X25146Y443D01*
X24910Y443D01*
X24910Y12524D01*
X24910Y12745D01*
X24617Y12745D01*
X24591Y12698D01*
X24649Y12590D01*
X24745Y12517D01*
X24862Y12486D01*
X24910Y12524D01*
X24910Y443D01*
X23685Y443D01*
X23708Y466D01*
X23731Y521D01*
X23731Y580D01*
X23731Y1112D01*
X23731Y1584D01*
X23731Y2116D01*
X23731Y2175D01*
X23708Y2229D01*
X23666Y2271D01*
X23612Y2294D01*
X23374Y2294D01*
X23337Y2256D01*
X23337Y1900D01*
X23693Y1900D01*
X23731Y1937D01*
X23731Y2116D01*
X23731Y1584D01*
X23731Y1763D01*
X23693Y1800D01*
X23337Y1800D01*
X23337Y1443D01*
X23374Y1406D01*
X23612Y1406D01*
X23666Y1429D01*
X23708Y1470D01*
X23731Y1525D01*
X23731Y1584D01*
X23731Y1112D01*
X23731Y1171D01*
X23708Y1225D01*
X23666Y1267D01*
X23612Y1290D01*
X23374Y1290D01*
X23337Y1253D01*
X23337Y896D01*
X23693Y896D01*
X23731Y933D01*
X23731Y1112D01*
X23731Y580D01*
X23731Y759D01*
X23693Y796D01*
X23337Y796D01*
X23337Y788D01*
X23237Y788D01*
X23237Y796D01*
X23237Y896D01*
X23237Y1253D01*
X23237Y1443D01*
X23237Y1800D01*
X23237Y1900D01*
X23237Y2256D01*
X23200Y2294D01*
X22962Y2294D01*
X22908Y2271D01*
X22866Y2229D01*
X22843Y2175D01*
X22843Y2116D01*
X22843Y1937D01*
X22880Y1900D01*
X23237Y1900D01*
X23237Y1800D01*
X22880Y1800D01*
X22843Y1763D01*
X22843Y1584D01*
X22843Y1525D01*
X22866Y1470D01*
X22908Y1429D01*
X22962Y1406D01*
X23200Y1406D01*
X23237Y1443D01*
X23237Y1253D01*
X23200Y1290D01*
X22962Y1290D01*
X22908Y1267D01*
X22866Y1225D01*
X22843Y1171D01*
X22843Y1112D01*
X22843Y933D01*
X22880Y896D01*
X23237Y896D01*
X23237Y796D01*
X22880Y796D01*
X22843Y759D01*
X22843Y580D01*
X22843Y521D01*
X22866Y466D01*
X22889Y443D01*
X22474Y443D01*
X22538Y470D01*
X22663Y594D01*
X22731Y757D01*
X22731Y934D01*
X22731Y1938D01*
X22663Y2101D01*
X22539Y2226D01*
X22376Y2294D01*
X22199Y2294D01*
X22036Y2226D01*
X21911Y2102D01*
X21843Y1939D01*
X21843Y1762D01*
X21911Y1599D01*
X22035Y1474D01*
X22198Y1406D01*
X22375Y1406D01*
X22538Y1474D01*
X22663Y1598D01*
X22731Y1761D01*
X22731Y1938D01*
X22731Y934D01*
X22663Y1097D01*
X22539Y1222D01*
X22376Y1290D01*
X22199Y1290D01*
X22036Y1222D01*
X21911Y1098D01*
X21843Y935D01*
X21843Y758D01*
X21911Y595D01*
X22035Y470D01*
X22100Y443D01*
X19826Y443D01*
X19826Y2062D01*
X19813Y2230D01*
X19773Y2325D01*
X19709Y2355D01*
X19639Y2284D01*
X19639Y2426D01*
X19609Y2490D01*
X19449Y2542D01*
X19281Y2529D01*
X19186Y2490D01*
X19156Y2426D01*
X19397Y2184D01*
X19639Y2426D01*
X19639Y2284D01*
X19468Y2114D01*
X19709Y1872D01*
X19773Y1902D01*
X19826Y2062D01*
X19826Y443D01*
X19821Y443D01*
X19821Y1198D01*
X19756Y1353D01*
X19639Y1471D01*
X19639Y1802D01*
X19397Y2043D01*
X19326Y1972D01*
X19326Y2114D01*
X19085Y2355D01*
X19021Y2325D01*
X18968Y2165D01*
X18981Y1997D01*
X19021Y1902D01*
X19085Y1872D01*
X19326Y2114D01*
X19326Y1972D01*
X19156Y1802D01*
X19186Y1737D01*
X19346Y1685D01*
X19514Y1698D01*
X19609Y1737D01*
X19639Y1802D01*
X19639Y1471D01*
X19637Y1472D01*
X19482Y1537D01*
X19313Y1537D01*
X19158Y1473D01*
X19038Y1354D01*
X18974Y1198D01*
X18974Y1030D01*
X19038Y874D01*
X19157Y755D01*
X19313Y690D01*
X19481Y690D01*
X19637Y755D01*
X19756Y874D01*
X19820Y1029D01*
X19821Y1198D01*
X19821Y443D01*
X17443Y443D01*
X17451Y462D01*
X17451Y521D01*
X17451Y540D01*
X18070Y540D01*
X18165Y559D01*
X18165Y559D01*
X18245Y612D01*
X18323Y690D01*
X18702Y690D01*
X18756Y713D01*
X18798Y754D01*
X18821Y809D01*
X18821Y868D01*
X18821Y1418D01*
X18798Y1473D01*
X18756Y1514D01*
X18702Y1537D01*
X18643Y1537D01*
X18093Y1537D01*
X18038Y1515D01*
X17996Y1473D01*
X17974Y1418D01*
X17974Y1359D01*
X17974Y1039D01*
X17968Y1034D01*
X17451Y1034D01*
X17451Y1112D01*
X17429Y1166D01*
X17387Y1208D01*
X17332Y1231D01*
X17273Y1231D01*
X16683Y1231D01*
X16628Y1208D01*
X16586Y1166D01*
X16564Y1112D01*
X16564Y1053D01*
X16564Y462D01*
X16572Y443D01*
X16291Y443D01*
X16383Y535D01*
X16451Y698D01*
X16451Y875D01*
X16384Y1038D01*
X16259Y1163D01*
X16096Y1231D01*
X15968Y1231D01*
X15968Y3156D01*
X15955Y3332D01*
X15912Y3436D01*
X15846Y3468D01*
X15775Y3398D01*
X15775Y3539D01*
X15743Y3605D01*
X15576Y3661D01*
X15399Y3648D01*
X15295Y3605D01*
X15263Y3539D01*
X15519Y3283D01*
X15775Y3539D01*
X15775Y3398D01*
X15590Y3212D01*
X15846Y2956D01*
X15912Y2988D01*
X15968Y3156D01*
X15968Y1231D01*
X15920Y1231D01*
X15775Y1171D01*
X15775Y2885D01*
X15519Y3141D01*
X15448Y3071D01*
X15448Y3212D01*
X15192Y3468D01*
X15126Y3436D01*
X15070Y3268D01*
X15083Y3092D01*
X15126Y2988D01*
X15192Y2956D01*
X15448Y3212D01*
X15448Y3071D01*
X15263Y2885D01*
X15295Y2819D01*
X15463Y2763D01*
X15639Y2776D01*
X15743Y2819D01*
X15775Y2885D01*
X15775Y1171D01*
X15756Y1163D01*
X15631Y1039D01*
X15564Y876D01*
X15564Y699D01*
X15631Y536D01*
X15724Y443D01*
X13888Y443D01*
X13888Y11134D01*
X13888Y11306D01*
X13865Y11423D01*
X13798Y11523D01*
X13699Y11589D01*
X13582Y11612D01*
X13465Y11589D01*
X13366Y11523D01*
X13300Y11423D01*
X13298Y11413D01*
X13298Y11503D01*
X13274Y11620D01*
X13208Y11719D01*
X13109Y11786D01*
X12992Y11809D01*
X12875Y11786D01*
X12775Y11719D01*
X12709Y11620D01*
X12686Y11503D01*
X12686Y11413D01*
X12684Y11423D01*
X12617Y11523D01*
X12518Y11589D01*
X12401Y11612D01*
X12284Y11589D01*
X12185Y11523D01*
X12118Y11423D01*
X12095Y11306D01*
X12095Y11134D01*
X12118Y11017D01*
X12185Y10917D01*
X12284Y10851D01*
X12401Y10828D01*
X12518Y10851D01*
X12617Y10917D01*
X12684Y11017D01*
X12707Y11134D01*
X12707Y11224D01*
X12709Y11213D01*
X12775Y11114D01*
X12875Y11048D01*
X12992Y11025D01*
X13109Y11048D01*
X13208Y11114D01*
X13274Y11213D01*
X13276Y11224D01*
X13276Y11134D01*
X13300Y11017D01*
X13366Y10917D01*
X13465Y10851D01*
X13582Y10828D01*
X13699Y10851D01*
X13798Y10917D01*
X13865Y11017D01*
X13888Y11134D01*
X13888Y443D01*
X13510Y443D01*
X13510Y1869D01*
X13443Y2032D01*
X13318Y2157D01*
X13155Y2225D01*
X12979Y2225D01*
X12815Y2157D01*
X12690Y2033D01*
X12623Y1870D01*
X12623Y1693D01*
X12690Y1530D01*
X12815Y1405D01*
X12978Y1337D01*
X13154Y1337D01*
X13317Y1405D01*
X13442Y1529D01*
X13510Y1692D01*
X13510Y1869D01*
X13510Y443D01*
X12510Y443D01*
X12510Y1515D01*
X12510Y2047D01*
X12510Y2106D01*
X12487Y2160D01*
X12446Y2202D01*
X12391Y2225D01*
X12154Y2225D01*
X12116Y2188D01*
X12116Y1831D01*
X12473Y1831D01*
X12510Y1868D01*
X12510Y2047D01*
X12510Y1515D01*
X12510Y1694D01*
X12473Y1731D01*
X12116Y1731D01*
X12116Y1374D01*
X12154Y1337D01*
X12391Y1337D01*
X12446Y1360D01*
X12487Y1402D01*
X12510Y1456D01*
X12510Y1515D01*
X12510Y443D01*
X12016Y443D01*
X12016Y1374D01*
X12016Y1731D01*
X12016Y1831D01*
X12016Y2188D01*
X11979Y2225D01*
X11742Y2225D01*
X11687Y2202D01*
X11645Y2160D01*
X11623Y2106D01*
X11623Y2047D01*
X11623Y1868D01*
X11660Y1831D01*
X12016Y1831D01*
X12016Y1731D01*
X11660Y1731D01*
X11623Y1694D01*
X11623Y1515D01*
X11623Y1456D01*
X11645Y1402D01*
X11687Y1360D01*
X11742Y1337D01*
X11979Y1337D01*
X12016Y1374D01*
X12016Y443D01*
X10872Y443D01*
X10872Y4850D01*
X10781Y5069D01*
X10614Y5237D01*
X10394Y5329D01*
X10157Y5329D01*
X9937Y5238D01*
X9769Y5070D01*
X9678Y4851D01*
X9678Y4614D01*
X9769Y4394D01*
X9937Y4226D01*
X10156Y4135D01*
X10393Y4135D01*
X10613Y4226D01*
X10781Y4393D01*
X10872Y4613D01*
X10872Y4850D01*
X10872Y443D01*
X10360Y443D01*
X10360Y2005D01*
X10302Y2146D01*
X10194Y2254D01*
X10053Y2313D01*
X9900Y2313D01*
X9758Y2255D01*
X9650Y2147D01*
X9592Y2005D01*
X9591Y1853D01*
X9650Y1711D01*
X9758Y1603D01*
X9899Y1544D01*
X10052Y1544D01*
X10193Y1603D01*
X10302Y1711D01*
X10360Y1852D01*
X10360Y2005D01*
X10360Y443D01*
X9459Y443D01*
X9459Y2024D01*
X9385Y2202D01*
X9250Y2338D01*
X9072Y2411D01*
X8880Y2412D01*
X8703Y2338D01*
X8567Y2203D01*
X8493Y2025D01*
X8493Y1833D01*
X8566Y1655D01*
X8702Y1520D01*
X8879Y1446D01*
X9072Y1446D01*
X9249Y1519D01*
X9385Y1655D01*
X9459Y1832D01*
X9459Y2024D01*
X9459Y443D01*
X8360Y443D01*
X8360Y2005D01*
X8302Y2146D01*
X8194Y2254D01*
X8053Y2313D01*
X7900Y2313D01*
X7758Y2255D01*
X7650Y2147D01*
X7592Y2005D01*
X7591Y1853D01*
X7650Y1711D01*
X7758Y1603D01*
X7899Y1544D01*
X8052Y1544D01*
X8193Y1603D01*
X8302Y1711D01*
X8360Y1852D01*
X8360Y2005D01*
X8360Y443D01*
X6144Y443D01*
X6144Y1830D01*
X6068Y2014D01*
X5928Y2154D01*
X5853Y2185D01*
X5853Y2503D01*
X5853Y2503D01*
X5837Y2583D01*
X5837Y2583D01*
X5822Y2605D01*
X5792Y2650D01*
X5792Y2650D01*
X5246Y3196D01*
X5246Y8093D01*
X5315Y8161D01*
X5364Y8281D01*
X5365Y8410D01*
X5315Y8530D01*
X5224Y8622D01*
X5104Y8671D01*
X4974Y8672D01*
X4855Y8622D01*
X4763Y8531D01*
X4713Y8411D01*
X4713Y8281D01*
X4763Y8162D01*
X4831Y8093D01*
X4831Y3110D01*
X4847Y3030D01*
X4892Y2963D01*
X5438Y2417D01*
X5438Y2185D01*
X5363Y2155D01*
X5223Y2014D01*
X5198Y1956D01*
X5151Y2069D01*
X4984Y2237D01*
X4764Y2329D01*
X4527Y2329D01*
X4439Y2292D01*
X4439Y11134D01*
X4439Y11306D01*
X4416Y11423D01*
X4350Y11523D01*
X4250Y11589D01*
X4133Y11612D01*
X4016Y11589D01*
X3917Y11523D01*
X3851Y11423D01*
X3849Y11413D01*
X3849Y11503D01*
X3825Y11620D01*
X3759Y11719D01*
X3660Y11786D01*
X3543Y11809D01*
X3426Y11786D01*
X3326Y11719D01*
X3260Y11620D01*
X3237Y11503D01*
X3237Y11413D01*
X3235Y11423D01*
X3169Y11523D01*
X3069Y11589D01*
X2952Y11612D01*
X2835Y11589D01*
X2736Y11523D01*
X2670Y11423D01*
X2646Y11306D01*
X2646Y11134D01*
X2670Y11017D01*
X2736Y10917D01*
X2835Y10851D01*
X2952Y10828D01*
X3069Y10851D01*
X3169Y10917D01*
X3235Y11017D01*
X3258Y11134D01*
X3258Y11224D01*
X3260Y11213D01*
X3326Y11114D01*
X3426Y11048D01*
X3543Y11025D01*
X3660Y11048D01*
X3759Y11114D01*
X3825Y11213D01*
X3827Y11224D01*
X3827Y11134D01*
X3851Y11017D01*
X3917Y10917D01*
X4016Y10851D01*
X4133Y10828D01*
X4250Y10851D01*
X4350Y10917D01*
X4416Y11017D01*
X4439Y11134D01*
X4439Y2292D01*
X4308Y2238D01*
X4144Y2074D01*
X4144Y2111D01*
X4121Y2166D01*
X4079Y2208D01*
X4025Y2230D01*
X3966Y2230D01*
X3928Y2230D01*
X3928Y4123D01*
X3845Y4322D01*
X3829Y4338D01*
X3829Y5717D01*
X3829Y6308D01*
X3807Y6363D01*
X3765Y6405D01*
X3710Y6427D01*
X3651Y6427D01*
X3060Y6427D01*
X3006Y6405D01*
X2964Y6363D01*
X2941Y6309D01*
X2941Y6250D01*
X2941Y5659D01*
X2964Y5604D01*
X3006Y5562D01*
X3060Y5540D01*
X3119Y5540D01*
X3710Y5540D01*
X3765Y5562D01*
X3807Y5604D01*
X3829Y5658D01*
X3829Y5717D01*
X3829Y4338D01*
X3693Y4475D01*
X3494Y4558D01*
X3278Y4558D01*
X3079Y4476D01*
X2926Y4323D01*
X2843Y4124D01*
X2843Y3908D01*
X2925Y3709D01*
X3078Y3556D01*
X3277Y3473D01*
X3493Y3473D01*
X3692Y3555D01*
X3845Y3708D01*
X3928Y3907D01*
X3928Y4123D01*
X3928Y2230D01*
X3732Y2230D01*
X3695Y2193D01*
X3695Y1782D01*
X3703Y1782D01*
X3703Y1682D01*
X3695Y1682D01*
X3695Y1270D01*
X3732Y1233D01*
X3966Y1233D01*
X4025Y1233D01*
X4079Y1256D01*
X4121Y1298D01*
X4144Y1352D01*
X4144Y1389D01*
X4307Y1226D01*
X4526Y1135D01*
X4763Y1135D01*
X4983Y1226D01*
X5151Y1393D01*
X5198Y1508D01*
X5222Y1450D01*
X5362Y1309D01*
X5546Y1233D01*
X5744Y1233D01*
X5927Y1309D01*
X6067Y1449D01*
X6144Y1632D01*
X6144Y1830D01*
X6144Y443D01*
X3595Y443D01*
X3595Y1270D01*
X3595Y1682D01*
X3595Y1782D01*
X3595Y2193D01*
X3558Y2230D01*
X3325Y2230D01*
X3266Y2230D01*
X3211Y2208D01*
X3169Y2166D01*
X3147Y2111D01*
X3147Y1819D01*
X3184Y1782D01*
X3595Y1782D01*
X3595Y1682D01*
X3184Y1682D01*
X3147Y1645D01*
X3147Y1352D01*
X3169Y1298D01*
X3211Y1256D01*
X3266Y1233D01*
X3325Y1233D01*
X3558Y1233D01*
X3595Y1270D01*
X3595Y443D01*
X2609Y443D01*
X2609Y8001D01*
X2609Y8001D01*
X2609Y9084D01*
X2609Y9734D01*
X2586Y9788D01*
X2545Y9830D01*
X2490Y9853D01*
X2431Y9853D01*
X2252Y9853D01*
X2215Y9816D01*
X2215Y9459D01*
X2572Y9459D01*
X2609Y9496D01*
X2609Y9734D01*
X2609Y9084D01*
X2609Y9322D01*
X2572Y9359D01*
X2215Y9359D01*
X2215Y9002D01*
X2252Y8965D01*
X2431Y8965D01*
X2490Y8965D01*
X2545Y8988D01*
X2586Y9029D01*
X2609Y9084D01*
X2609Y8001D01*
X2541Y8164D01*
X2417Y8289D01*
X2254Y8357D01*
X2115Y8357D01*
X2115Y9002D01*
X2115Y9359D01*
X2115Y9459D01*
X2115Y9816D01*
X2078Y9853D01*
X1899Y9853D01*
X1840Y9853D01*
X1785Y9830D01*
X1743Y9788D01*
X1721Y9734D01*
X1721Y9496D01*
X1758Y9459D01*
X2115Y9459D01*
X2115Y9359D01*
X1758Y9359D01*
X1721Y9322D01*
X1721Y9084D01*
X1743Y9029D01*
X1785Y8988D01*
X1840Y8965D01*
X1899Y8965D01*
X2078Y8965D01*
X2115Y9002D01*
X2115Y8357D01*
X2077Y8357D01*
X1914Y8289D01*
X1789Y8165D01*
X1721Y8002D01*
X1721Y7825D01*
X1788Y7662D01*
X1913Y7537D01*
X2076Y7469D01*
X2253Y7469D01*
X2416Y7536D01*
X2541Y7661D01*
X2609Y7824D01*
X2609Y8001D01*
X2609Y443D01*
X2412Y443D01*
X2412Y2412D01*
X1231Y2412D01*
X1231Y3021D01*
X1231Y3671D01*
X1208Y3725D01*
X1166Y3767D01*
X1112Y3790D01*
X1053Y3790D01*
X874Y3790D01*
X837Y3753D01*
X837Y3396D01*
X1193Y3396D01*
X1231Y3433D01*
X1231Y3671D01*
X1231Y3021D01*
X1231Y3259D01*
X1193Y3296D01*
X837Y3296D01*
X837Y2939D01*
X874Y2902D01*
X1053Y2902D01*
X1112Y2902D01*
X1166Y2925D01*
X1208Y2967D01*
X1231Y3021D01*
X1231Y2412D01*
X443Y2412D01*
X443Y2910D01*
X462Y2902D01*
X521Y2902D01*
X700Y2902D01*
X737Y2939D01*
X737Y3296D01*
X729Y3296D01*
X729Y3396D01*
X737Y3396D01*
X737Y3753D01*
X700Y3790D01*
X521Y3790D01*
X462Y3790D01*
X443Y3782D01*
X443Y4062D01*
X535Y3970D01*
X698Y3902D01*
X875Y3902D01*
X1038Y3970D01*
X1163Y4094D01*
X1231Y4257D01*
X1231Y4434D01*
X1163Y4597D01*
X1039Y4722D01*
X876Y4790D01*
X699Y4790D01*
X536Y4722D01*
X443Y4630D01*
X443Y10871D01*
X473Y10851D01*
X590Y10828D01*
X707Y10851D01*
X806Y10917D01*
X873Y11017D01*
X896Y11134D01*
X896Y11224D01*
X898Y11213D01*
X964Y11114D01*
X1064Y11048D01*
X1181Y11025D01*
X1298Y11048D01*
X1397Y11114D01*
X1463Y11213D01*
X1465Y11224D01*
X1465Y11134D01*
X1489Y11017D01*
X1555Y10917D01*
X1654Y10851D01*
X1771Y10828D01*
X1888Y10851D01*
X1987Y10917D01*
X2054Y11017D01*
X2077Y11134D01*
X2077Y11306D01*
X2054Y11423D01*
X1987Y11523D01*
X1888Y11589D01*
X1771Y11612D01*
X1654Y11589D01*
X1555Y11523D01*
X1489Y11423D01*
X1487Y11413D01*
X1487Y11503D01*
X1463Y11620D01*
X1397Y11719D01*
X1298Y11786D01*
X1181Y11809D01*
X1064Y11786D01*
X964Y11719D01*
X898Y11620D01*
X875Y11503D01*
X875Y11413D01*
X873Y11423D01*
X806Y11523D01*
X707Y11589D01*
X590Y11612D01*
X473Y11589D01*
X443Y11569D01*
X443Y13316D01*
X590Y13286D01*
X594Y13287D01*
X936Y12944D01*
X936Y12944D01*
X1004Y12899D01*
X1048Y12869D01*
X1048Y12869D01*
X1181Y12843D01*
X2952Y12843D01*
X5314Y12843D01*
X7677Y12843D01*
X9103Y12843D01*
X9103Y11479D01*
X9074Y11523D01*
X8975Y11589D01*
X8858Y11612D01*
X8741Y11589D01*
X8641Y11523D01*
X8575Y11423D01*
X8573Y11413D01*
X8573Y11503D01*
X8550Y11620D01*
X8484Y11719D01*
X8384Y11786D01*
X8267Y11809D01*
X8150Y11786D01*
X8051Y11719D01*
X7985Y11620D01*
X7961Y11503D01*
X7961Y11413D01*
X7959Y11423D01*
X7893Y11523D01*
X7794Y11589D01*
X7677Y11612D01*
X7560Y11589D01*
X7460Y11523D01*
X7394Y11423D01*
X7371Y11306D01*
X7371Y11134D01*
X7394Y11017D01*
X7460Y10917D01*
X7560Y10851D01*
X7677Y10828D01*
X7794Y10851D01*
X7893Y10917D01*
X7959Y11017D01*
X7983Y11134D01*
X7983Y11224D01*
X7985Y11213D01*
X8051Y11114D01*
X8150Y11048D01*
X8267Y11025D01*
X8384Y11048D01*
X8484Y11114D01*
X8550Y11213D01*
X8552Y11224D01*
X8552Y11134D01*
X8575Y11017D01*
X8641Y10917D01*
X8741Y10851D01*
X8858Y10828D01*
X8975Y10851D01*
X9074Y10917D01*
X9103Y10961D01*
X9103Y9559D01*
X9129Y9426D01*
X9204Y9314D01*
X9678Y8840D01*
X9678Y8333D01*
X9716Y8242D01*
X9785Y8173D01*
X9876Y8135D01*
X9930Y8135D01*
X9930Y7253D01*
X9420Y6743D01*
X9420Y8730D01*
X9420Y8907D01*
X9389Y9061D01*
X9301Y9193D01*
X9170Y9280D01*
X9015Y9311D01*
X8861Y9280D01*
X8729Y9193D01*
X8642Y9061D01*
X8638Y9044D01*
X8579Y9083D01*
X8425Y9114D01*
X8270Y9083D01*
X8139Y8996D01*
X8127Y8978D01*
X8112Y9034D01*
X8039Y9130D01*
X7931Y9187D01*
X7884Y9161D01*
X7884Y8868D01*
X7892Y8868D01*
X7892Y8768D01*
X7884Y8768D01*
X7884Y8476D01*
X7931Y8449D01*
X8027Y8501D01*
X8051Y8379D01*
X8139Y8247D01*
X8270Y8160D01*
X8425Y8129D01*
X8579Y8160D01*
X8709Y8247D01*
X8709Y8138D01*
X8455Y7884D01*
X7784Y7884D01*
X7784Y8476D01*
X7784Y8768D01*
X7784Y8868D01*
X7784Y9161D01*
X7738Y9187D01*
X7630Y9130D01*
X7556Y9034D01*
X7525Y8917D01*
X7563Y8868D01*
X7784Y8868D01*
X7784Y8768D01*
X7563Y8768D01*
X7525Y8720D01*
X7556Y8603D01*
X7630Y8507D01*
X7738Y8449D01*
X7784Y8476D01*
X7784Y7884D01*
X7498Y7884D01*
X7445Y7937D01*
X7289Y8002D01*
X7120Y8002D01*
X6964Y7938D01*
X6845Y7819D01*
X6801Y7714D01*
X6801Y11134D01*
X6801Y11306D01*
X6778Y11423D01*
X6712Y11523D01*
X6613Y11589D01*
X6496Y11612D01*
X6378Y11589D01*
X6279Y11523D01*
X6213Y11423D01*
X6211Y11413D01*
X6211Y11503D01*
X6188Y11620D01*
X6121Y11719D01*
X6022Y11786D01*
X5905Y11809D01*
X5788Y11786D01*
X5689Y11719D01*
X5622Y11620D01*
X5599Y11503D01*
X5599Y11413D01*
X5597Y11423D01*
X5531Y11523D01*
X5432Y11589D01*
X5314Y11612D01*
X5197Y11589D01*
X5098Y11523D01*
X5032Y11423D01*
X5009Y11306D01*
X5009Y11134D01*
X5032Y11017D01*
X5098Y10917D01*
X5197Y10851D01*
X5314Y10828D01*
X5432Y10851D01*
X5531Y10917D01*
X5597Y11017D01*
X5620Y11134D01*
X5620Y11224D01*
X5622Y11213D01*
X5689Y11114D01*
X5788Y11048D01*
X5905Y11025D01*
X6022Y11048D01*
X6121Y11114D01*
X6188Y11213D01*
X6190Y11224D01*
X6190Y11134D01*
X6213Y11017D01*
X6279Y10917D01*
X6378Y10851D01*
X6496Y10828D01*
X6613Y10851D01*
X6712Y10917D01*
X6778Y11017D01*
X6801Y11134D01*
X6801Y7714D01*
X6780Y7663D01*
X6780Y7494D01*
X6845Y7338D01*
X6964Y7219D01*
X7120Y7154D01*
X7288Y7154D01*
X7444Y7219D01*
X7498Y7272D01*
X8582Y7272D01*
X8699Y7296D01*
X8798Y7362D01*
X9232Y7795D01*
X9232Y7795D01*
X9232Y7795D01*
X9298Y7894D01*
X9298Y7894D01*
X9321Y8011D01*
X9321Y8011D01*
X9321Y8474D01*
X9389Y8575D01*
X9420Y8730D01*
X9420Y6743D01*
X8121Y5444D01*
X8121Y6186D01*
X8121Y6836D01*
X8098Y6891D01*
X8056Y6933D01*
X8002Y6955D01*
X7943Y6955D01*
X7764Y6955D01*
X7727Y6918D01*
X7727Y6561D01*
X8083Y6561D01*
X8121Y6598D01*
X8121Y6836D01*
X8121Y6186D01*
X8121Y6424D01*
X8083Y6461D01*
X7727Y6461D01*
X7727Y6104D01*
X7764Y6067D01*
X7943Y6067D01*
X8002Y6067D01*
X8056Y6090D01*
X8098Y6132D01*
X8121Y6186D01*
X8121Y5444D01*
X7731Y5054D01*
X7627Y5054D01*
X7627Y6104D01*
X7627Y6461D01*
X7627Y6561D01*
X7627Y6918D01*
X7590Y6955D01*
X7411Y6955D01*
X7352Y6955D01*
X7297Y6933D01*
X7255Y6891D01*
X7233Y6836D01*
X7233Y6598D01*
X7270Y6561D01*
X7627Y6561D01*
X7627Y6461D01*
X7270Y6461D01*
X7233Y6424D01*
X7233Y6186D01*
X7255Y6132D01*
X7297Y6090D01*
X7352Y6067D01*
X7411Y6067D01*
X7590Y6067D01*
X7627Y6104D01*
X7627Y5054D01*
X7569Y5054D01*
X7370Y4971D01*
X7217Y4819D01*
X7134Y4620D01*
X7134Y4404D01*
X7217Y4204D01*
X7369Y4052D01*
X7568Y3969D01*
X7784Y3969D01*
X7983Y4051D01*
X8136Y4204D01*
X8219Y4403D01*
X8219Y4565D01*
X10519Y6866D01*
X10519Y6866D01*
X10519Y6866D01*
X10594Y6978D01*
X10594Y6978D01*
X10620Y7110D01*
X10620Y8135D01*
X10674Y8135D01*
X10765Y8172D01*
X10834Y8242D01*
X10872Y8332D01*
X10872Y8431D01*
X10872Y9131D01*
X10834Y9221D01*
X10765Y9291D01*
X10674Y9329D01*
X10576Y9329D01*
X10166Y9329D01*
X9794Y9702D01*
X9794Y10961D01*
X9823Y10917D01*
X9922Y10851D01*
X10039Y10828D01*
X10156Y10851D01*
X10255Y10917D01*
X10321Y11017D01*
X10345Y11134D01*
X10345Y11224D01*
X10347Y11213D01*
X10413Y11114D01*
X10512Y11048D01*
X10629Y11025D01*
X10746Y11048D01*
X10846Y11114D01*
X10912Y11213D01*
X10914Y11224D01*
X10914Y11134D01*
X10937Y11017D01*
X11004Y10917D01*
X11103Y10851D01*
X11220Y10828D01*
X11337Y10851D01*
X11436Y10917D01*
X11503Y11017D01*
X11526Y11134D01*
X11526Y11306D01*
X11503Y11423D01*
X11436Y11523D01*
X11337Y11589D01*
X11220Y11612D01*
X11103Y11589D01*
X11004Y11523D01*
X10937Y11423D01*
X10935Y11413D01*
X10935Y11503D01*
X10912Y11620D01*
X10846Y11719D01*
X10746Y11786D01*
X10629Y11809D01*
X10512Y11786D01*
X10413Y11719D01*
X10347Y11620D01*
X10324Y11503D01*
X10324Y11413D01*
X10321Y11423D01*
X10255Y11523D01*
X10156Y11589D01*
X10039Y11612D01*
X9922Y11589D01*
X9823Y11523D01*
X9794Y11479D01*
X9794Y12843D01*
X10039Y12843D01*
X11614Y12843D01*
X11746Y12869D01*
X11858Y12944D01*
X12237Y13324D01*
X12246Y13317D01*
X12401Y13286D01*
X12556Y13317D01*
X12687Y13405D01*
X12775Y13536D01*
X12799Y13658D01*
X12875Y13607D01*
X12992Y13584D01*
X13109Y13607D01*
X13184Y13658D01*
X13209Y13536D01*
X13296Y13405D01*
X13427Y13317D01*
X13582Y13286D01*
X13737Y13317D01*
X13868Y13405D01*
X13956Y13536D01*
X13987Y13691D01*
X13987Y13867D01*
X13956Y14022D01*
X13868Y14153D01*
X13737Y14241D01*
X13582Y14272D01*
X13427Y14241D01*
X13296Y14153D01*
X13283Y14134D01*
X13274Y14179D01*
X13208Y14278D01*
X13109Y14345D01*
X12992Y14368D01*
X12875Y14345D01*
X12775Y14278D01*
X12709Y14179D01*
X12700Y14134D01*
X12687Y14153D01*
X12556Y14241D01*
X12401Y14272D01*
X12246Y14241D01*
X12115Y14153D01*
X12079Y14099D01*
X12072Y14098D01*
X12027Y14068D01*
X11960Y14023D01*
X11960Y14023D01*
X11623Y13687D01*
X11624Y13691D01*
X11624Y13867D01*
X11594Y14022D01*
X11506Y14153D01*
X11375Y14241D01*
X11220Y14272D01*
X11065Y14241D01*
X10934Y14153D01*
X10921Y14134D01*
X10912Y14179D01*
X10846Y14278D01*
X10746Y14345D01*
X10629Y14368D01*
X10512Y14345D01*
X10413Y14278D01*
X10347Y14179D01*
X10338Y14134D01*
X10325Y14153D01*
X10194Y14241D01*
X10039Y14272D01*
X9884Y14241D01*
X9753Y14153D01*
X9665Y14022D01*
X9635Y13867D01*
X9635Y13691D01*
X9665Y13536D01*
X9667Y13534D01*
X9448Y13534D01*
X9230Y13534D01*
X9231Y13536D01*
X9262Y13691D01*
X9262Y13867D01*
X9231Y14022D01*
X9144Y14153D01*
X9012Y14241D01*
X8858Y14272D01*
X8703Y14241D01*
X8572Y14153D01*
X8559Y14134D01*
X8550Y14179D01*
X8484Y14278D01*
X8384Y14345D01*
X8267Y14368D01*
X8150Y14345D01*
X8051Y14278D01*
X7985Y14179D01*
X7976Y14134D01*
X7963Y14153D01*
X7831Y14241D01*
X7677Y14272D01*
X7522Y14241D01*
X7391Y14153D01*
X7303Y14022D01*
X7272Y13867D01*
X7272Y13691D01*
X7303Y13536D01*
X7305Y13534D01*
X6868Y13534D01*
X6869Y13536D01*
X6900Y13691D01*
X6900Y13867D01*
X6869Y14022D01*
X6781Y14153D01*
X6650Y14241D01*
X6496Y14272D01*
X6341Y14241D01*
X6210Y14153D01*
X6197Y14134D01*
X6188Y14179D01*
X6121Y14278D01*
X6022Y14345D01*
X5905Y14368D01*
X5788Y14345D01*
X5689Y14278D01*
X5622Y14179D01*
X5613Y14134D01*
X5600Y14153D01*
X5469Y14241D01*
X5314Y14272D01*
X5160Y14241D01*
X5029Y14153D01*
X4941Y14022D01*
X4910Y13867D01*
X4910Y13691D01*
X4941Y13536D01*
X4942Y13534D01*
X4505Y13534D01*
X4507Y13536D01*
X4538Y13691D01*
X4538Y13867D01*
X4507Y14022D01*
X4419Y14153D01*
X4288Y14241D01*
X4133Y14272D01*
X3979Y14241D01*
X3847Y14153D01*
X3834Y14134D01*
X3825Y14179D01*
X3759Y14278D01*
X3660Y14345D01*
X3543Y14368D01*
X3426Y14345D01*
X3326Y14278D01*
X3260Y14179D01*
X3251Y14134D01*
X3238Y14153D01*
X3107Y14241D01*
X2952Y14272D01*
X2798Y14241D01*
X2666Y14153D01*
X2579Y14022D01*
X2548Y13867D01*
X2548Y13691D01*
X2579Y13536D01*
X2580Y13534D01*
X2143Y13534D01*
X2145Y13536D01*
X2175Y13691D01*
X2175Y13867D01*
X2145Y14022D01*
X2057Y14153D01*
X1926Y14241D01*
X1771Y14272D01*
X1616Y14241D01*
X1485Y14153D01*
X1472Y14134D01*
X1463Y14179D01*
X1397Y14278D01*
X1298Y14345D01*
X1181Y14368D01*
X1064Y14345D01*
X964Y14278D01*
X898Y14179D01*
X889Y14134D01*
X876Y14153D01*
X745Y14241D01*
X590Y14272D01*
X443Y14242D01*
X443Y15304D01*
X1792Y15304D01*
X2412Y15924D01*
X2412Y17272D01*
X3394Y17272D01*
X3394Y17175D01*
X3394Y16584D01*
X3432Y16494D01*
X3501Y16424D01*
X3592Y16387D01*
X3690Y16386D01*
X4281Y16386D01*
X4371Y16424D01*
X4441Y16493D01*
X4479Y16584D01*
X4479Y16620D01*
X4629Y16469D01*
X4828Y16387D01*
X5044Y16386D01*
X5243Y16469D01*
X5396Y16621D01*
X5437Y16719D01*
X5477Y16622D01*
X5629Y16469D01*
X5828Y16387D01*
X6044Y16386D01*
X6243Y16469D01*
X6396Y16621D01*
X6437Y16719D01*
X6477Y16622D01*
X6629Y16469D01*
X6828Y16387D01*
X7044Y16386D01*
X7243Y16469D01*
X7396Y16621D01*
X7437Y16719D01*
X7477Y16622D01*
X7629Y16469D01*
X7828Y16387D01*
X8044Y16386D01*
X8243Y16469D01*
X8396Y16621D01*
X8437Y16719D01*
X8477Y16622D01*
X8629Y16469D01*
X8828Y16387D01*
X9044Y16386D01*
X9243Y16469D01*
X9396Y16621D01*
X9479Y16820D01*
X9479Y17036D01*
X9396Y17235D01*
X9359Y17272D01*
X12056Y17272D01*
X12056Y17175D01*
X12056Y16584D01*
X12093Y16494D01*
X12163Y16424D01*
X12253Y16387D01*
X12352Y16386D01*
X12942Y16386D01*
X13033Y16424D01*
X13102Y16493D01*
X13140Y16584D01*
X13140Y16620D01*
X13290Y16469D01*
X13490Y16387D01*
X13705Y16386D01*
X13905Y16469D01*
X14057Y16621D01*
X14098Y16719D01*
X14138Y16622D01*
X14290Y16469D01*
X14292Y16469D01*
X14292Y13866D01*
X14315Y13749D01*
X14382Y13649D01*
X14901Y13130D01*
X14901Y13130D01*
X15001Y13063D01*
X15118Y13040D01*
X15118Y13040D01*
X21881Y13040D01*
X22091Y12829D01*
X22091Y12514D01*
X22016Y12439D01*
X21997Y12469D01*
X21997Y12469D01*
X21800Y12666D01*
X21732Y12711D01*
X21653Y12727D01*
X18834Y12727D01*
X18755Y12711D01*
X18687Y12666D01*
X18514Y12492D01*
X18482Y12506D01*
X18313Y12506D01*
X18158Y12441D01*
X18038Y12322D01*
X17974Y12167D01*
X17974Y11998D01*
X18038Y11843D01*
X18059Y11821D01*
X17952Y11821D01*
X17807Y11966D01*
X17820Y11998D01*
X17821Y12166D01*
X17756Y12322D01*
X17637Y12441D01*
X17482Y12506D01*
X17313Y12506D01*
X17158Y12441D01*
X17038Y12322D01*
X16974Y12167D01*
X16974Y11998D01*
X17038Y11843D01*
X17157Y11723D01*
X17313Y11659D01*
X17481Y11659D01*
X17514Y11672D01*
X17670Y11516D01*
X17622Y11516D01*
X17502Y11467D01*
X17411Y11375D01*
X17361Y11255D01*
X17361Y11126D01*
X17410Y11006D01*
X17430Y10987D01*
X17430Y9288D01*
X17401Y9259D01*
X17351Y9139D01*
X17351Y9010D01*
X17400Y8890D01*
X17492Y8798D01*
X17612Y8749D01*
X17646Y8749D01*
X17646Y7530D01*
X16945Y7530D01*
X16919Y7556D01*
X16919Y12186D01*
X16840Y12377D01*
X16693Y12524D01*
X16501Y12604D01*
X16294Y12604D01*
X16102Y12525D01*
X15955Y12378D01*
X15919Y12292D01*
X15919Y12406D01*
X15882Y12497D01*
X15812Y12566D01*
X15721Y12604D01*
X15623Y12604D01*
X15073Y12604D01*
X14982Y12567D01*
X14913Y12497D01*
X14875Y12406D01*
X14875Y12308D01*
X14875Y11758D01*
X14913Y11668D01*
X14982Y11598D01*
X15073Y11560D01*
X15171Y11560D01*
X15721Y11560D01*
X15812Y11598D01*
X15881Y11667D01*
X15919Y11758D01*
X15919Y11856D01*
X15919Y11873D01*
X15954Y11787D01*
X16101Y11640D01*
X16293Y11560D01*
X16500Y11560D01*
X16692Y11640D01*
X16839Y11786D01*
X16919Y11978D01*
X16919Y12186D01*
X16919Y7556D01*
X16916Y7559D01*
X16797Y7608D01*
X16667Y7609D01*
X16548Y7559D01*
X16456Y7468D01*
X16406Y7348D01*
X16406Y7218D01*
X16456Y7099D01*
X16547Y7007D01*
X16650Y6964D01*
X16560Y6927D01*
X16435Y6802D01*
X16367Y6639D01*
X16367Y6463D01*
X16434Y6300D01*
X16559Y6175D01*
X16722Y6107D01*
X16898Y6107D01*
X17062Y6174D01*
X17186Y6299D01*
X17254Y6462D01*
X17254Y6639D01*
X17187Y6802D01*
X17062Y6927D01*
X16899Y6994D01*
X16886Y6994D01*
X16916Y7007D01*
X16945Y7036D01*
X17680Y7036D01*
X17709Y7007D01*
X17828Y6957D01*
X17958Y6957D01*
X18077Y7007D01*
X18169Y7098D01*
X18219Y7218D01*
X18219Y7347D01*
X18169Y7467D01*
X18140Y7497D01*
X18140Y8858D01*
X18121Y8952D01*
X18121Y8952D01*
X18068Y9032D01*
X18002Y9098D01*
X18002Y9139D01*
X17953Y9258D01*
X17924Y9288D01*
X17924Y10967D01*
X17962Y11006D01*
X18012Y11125D01*
X18012Y11255D01*
X17963Y11375D01*
X17931Y11406D01*
X20819Y11406D01*
X21506Y10719D01*
X21506Y10719D01*
X21551Y10689D01*
X21574Y10674D01*
X21574Y10674D01*
X21653Y10658D01*
X21653Y10658D01*
X22197Y10658D01*
X22292Y10563D01*
X22292Y10146D01*
X22226Y10306D01*
X22102Y10431D01*
X21939Y10498D01*
X21762Y10498D01*
X21599Y10431D01*
X21474Y10306D01*
X21406Y10143D01*
X21406Y9967D01*
X21474Y9804D01*
X21598Y9679D01*
X21761Y9611D01*
X21938Y9611D01*
X22101Y9678D01*
X22226Y9803D01*
X22292Y9962D01*
X22292Y9383D01*
X22271Y9434D01*
X22229Y9476D01*
X22175Y9498D01*
X22116Y9498D01*
X21525Y9498D01*
X21471Y9476D01*
X21467Y9472D01*
X21467Y9645D01*
X21451Y9725D01*
X21451Y9725D01*
X21406Y9792D01*
X20997Y10201D01*
X20929Y10246D01*
X20850Y10262D01*
X20276Y10262D01*
X20258Y10306D01*
X20133Y10431D01*
X19970Y10498D01*
X19794Y10498D01*
X19630Y10431D01*
X19505Y10306D01*
X19438Y10143D01*
X19438Y9967D01*
X19505Y9804D01*
X19630Y9679D01*
X19793Y9611D01*
X19969Y9611D01*
X20132Y9678D01*
X20257Y9803D01*
X20276Y9847D01*
X20764Y9847D01*
X21052Y9559D01*
X21052Y8481D01*
X20983Y8413D01*
X20934Y8293D01*
X20934Y8163D01*
X20983Y8044D01*
X21075Y7952D01*
X21194Y7902D01*
X21324Y7902D01*
X21444Y7952D01*
X21535Y8043D01*
X21585Y8163D01*
X21585Y8292D01*
X21536Y8412D01*
X21467Y8481D01*
X21467Y8637D01*
X21470Y8634D01*
X21525Y8611D01*
X21584Y8611D01*
X22175Y8611D01*
X22229Y8633D01*
X22271Y8675D01*
X22292Y8726D01*
X22292Y6227D01*
X21674Y5609D01*
X21674Y6184D01*
X21742Y6252D01*
X21792Y6371D01*
X21792Y6501D01*
X21742Y6621D01*
X21651Y6712D01*
X21531Y6762D01*
X21402Y6762D01*
X21282Y6713D01*
X21190Y6621D01*
X21141Y6502D01*
X21140Y6372D01*
X21190Y6252D01*
X21259Y6183D01*
X21259Y5568D01*
X20325Y4634D01*
X20325Y8789D01*
X20325Y9379D01*
X20303Y9434D01*
X20261Y9476D01*
X20206Y9498D01*
X20147Y9498D01*
X19557Y9498D01*
X19502Y9476D01*
X19460Y9434D01*
X19438Y9380D01*
X19438Y9320D01*
X19438Y8730D01*
X19460Y8675D01*
X19502Y8634D01*
X19556Y8611D01*
X19616Y8611D01*
X20206Y8611D01*
X20261Y8633D01*
X20302Y8675D01*
X20325Y8730D01*
X20325Y8789D01*
X20325Y4634D01*
X19599Y3908D01*
X17963Y3908D01*
X17963Y3946D01*
X17963Y4537D01*
X17940Y4591D01*
X17899Y4633D01*
X17844Y4656D01*
X17785Y4656D01*
X17254Y4656D01*
X17254Y5285D01*
X17254Y5875D01*
X17232Y5930D01*
X17190Y5972D01*
X17135Y5994D01*
X17076Y5994D01*
X16486Y5994D01*
X16431Y5972D01*
X16389Y5930D01*
X16367Y5876D01*
X16367Y5817D01*
X16367Y5226D01*
X16389Y5171D01*
X16431Y5130D01*
X16486Y5107D01*
X16545Y5107D01*
X17135Y5107D01*
X17190Y5130D01*
X17232Y5171D01*
X17254Y5226D01*
X17254Y5285D01*
X17254Y4656D01*
X17195Y4656D01*
X17140Y4633D01*
X17098Y4592D01*
X17076Y4537D01*
X17075Y4478D01*
X17075Y3908D01*
X16842Y3908D01*
X16895Y3960D01*
X16963Y4123D01*
X16963Y4300D01*
X16896Y4463D01*
X16771Y4588D01*
X16608Y4656D01*
X16431Y4656D01*
X16268Y4588D01*
X16143Y4464D01*
X16076Y4301D01*
X16075Y4124D01*
X16143Y3961D01*
X16196Y3908D01*
X16117Y3908D01*
X15945Y4080D01*
X15963Y4123D01*
X15963Y4300D01*
X15896Y4463D01*
X15771Y4588D01*
X15608Y4656D01*
X15431Y4656D01*
X15268Y4588D01*
X15143Y4464D01*
X15076Y4301D01*
X15075Y4124D01*
X15143Y3961D01*
X15268Y3836D01*
X15431Y3768D01*
X15607Y3768D01*
X15651Y3787D01*
X15884Y3554D01*
X15884Y3554D01*
X15929Y3524D01*
X15952Y3509D01*
X15952Y3509D01*
X16031Y3493D01*
X16172Y3493D01*
X16143Y3464D01*
X16076Y3301D01*
X16075Y3124D01*
X16143Y2961D01*
X16268Y2836D01*
X16431Y2768D01*
X16607Y2768D01*
X16770Y2836D01*
X16895Y2960D01*
X16963Y3123D01*
X16963Y3300D01*
X16896Y3463D01*
X16866Y3493D01*
X17172Y3493D01*
X17143Y3464D01*
X17076Y3301D01*
X17075Y3124D01*
X17143Y2961D01*
X17268Y2836D01*
X17431Y2768D01*
X17607Y2768D01*
X17770Y2836D01*
X17895Y2960D01*
X17963Y3123D01*
X17963Y3300D01*
X17896Y3463D01*
X17866Y3493D01*
X19685Y3493D01*
X19764Y3509D01*
X19764Y3509D01*
X19831Y3554D01*
X20343Y4066D01*
X20343Y3951D01*
X20393Y3831D01*
X20484Y3739D01*
X20604Y3690D01*
X20733Y3690D01*
X20853Y3739D01*
X20945Y3831D01*
X20994Y3950D01*
X20994Y4080D01*
X20956Y4173D01*
X21035Y4094D01*
X21155Y4044D01*
X21284Y4044D01*
X21404Y4093D01*
X21496Y4185D01*
X21546Y4305D01*
X21546Y4434D01*
X21501Y4543D01*
X21528Y4571D01*
X21574Y4461D01*
X21665Y4369D01*
X21785Y4320D01*
X21914Y4320D01*
X22034Y4369D01*
X22126Y4460D01*
X22175Y4580D01*
X22176Y4710D01*
X22126Y4829D01*
X22110Y4846D01*
X23079Y5815D01*
X23079Y5815D01*
X23109Y5860D01*
X23124Y5882D01*
X23124Y5882D01*
X23140Y5962D01*
X23140Y5962D01*
X23140Y6842D01*
X23242Y6800D01*
X23371Y6800D01*
X23491Y6849D01*
X23582Y6941D01*
X23632Y7060D01*
X23632Y7190D01*
X23583Y7310D01*
X23491Y7401D01*
X23372Y7451D01*
X23357Y7451D01*
X23357Y10997D01*
X23341Y11076D01*
X23341Y11076D01*
X23326Y11099D01*
X23296Y11144D01*
X23296Y11144D01*
X22777Y11662D01*
X22740Y11687D01*
X22839Y11786D01*
X22919Y11978D01*
X22919Y12186D01*
X22840Y12377D01*
X22703Y12514D01*
X22703Y12956D01*
X22680Y13073D01*
X22613Y13173D01*
X22224Y13562D01*
X22124Y13629D01*
X22007Y13652D01*
X20219Y13652D01*
X20109Y13652D01*
X20110Y13653D01*
X20083Y13680D01*
X20155Y13719D01*
X20219Y13906D01*
X20208Y14104D01*
X20155Y14233D01*
X20083Y14272D01*
X20012Y14201D01*
X20012Y14342D01*
X19973Y14414D01*
X19826Y14465D01*
X19826Y15031D01*
X19813Y15199D01*
X19773Y15294D01*
X19709Y15324D01*
X19468Y15082D01*
X19709Y14841D01*
X19773Y14871D01*
X19826Y15031D01*
X19826Y14465D01*
X19785Y14479D01*
X19639Y14471D01*
X19639Y14770D01*
X19397Y15011D01*
X19326Y14941D01*
X19326Y15082D01*
X19085Y15324D01*
X19021Y15294D01*
X18968Y15134D01*
X18981Y14966D01*
X19021Y14871D01*
X19085Y14841D01*
X19326Y15082D01*
X19326Y14941D01*
X19156Y14770D01*
X19186Y14706D01*
X19346Y14654D01*
X19514Y14666D01*
X19609Y14706D01*
X19639Y14770D01*
X19639Y14471D01*
X19588Y14468D01*
X19459Y14414D01*
X19420Y14342D01*
X19716Y14047D01*
X20012Y14342D01*
X20012Y14201D01*
X19787Y13976D01*
X19792Y13970D01*
X19722Y13900D01*
X19716Y13905D01*
X19710Y13900D01*
X19645Y13965D01*
X19640Y13970D01*
X19645Y13976D01*
X19349Y14272D01*
X19278Y14233D01*
X19213Y14045D01*
X19224Y13847D01*
X19278Y13719D01*
X19349Y13680D01*
X19322Y13653D01*
X19323Y13652D01*
X16313Y13652D01*
X16313Y13675D01*
X16313Y14375D01*
X16275Y14466D01*
X16206Y14535D01*
X16115Y14573D01*
X16017Y14573D01*
X15531Y14573D01*
X15692Y14640D01*
X15839Y14786D01*
X15897Y14926D01*
X15954Y14787D01*
X16101Y14640D01*
X16293Y14560D01*
X16500Y14560D01*
X16692Y14640D01*
X16839Y14786D01*
X16897Y14926D01*
X16954Y14787D01*
X17101Y14640D01*
X17293Y14560D01*
X17500Y14560D01*
X17692Y14640D01*
X17839Y14786D01*
X17897Y14926D01*
X17954Y14787D01*
X18101Y14640D01*
X18293Y14560D01*
X18500Y14560D01*
X18692Y14640D01*
X18839Y14786D01*
X18919Y14978D01*
X18919Y15186D01*
X18840Y15377D01*
X18776Y15442D01*
X19178Y15442D01*
X19156Y15394D01*
X19397Y15153D01*
X19639Y15394D01*
X19617Y15442D01*
X20019Y15442D01*
X19955Y15378D01*
X19875Y15186D01*
X19875Y14979D01*
X19954Y14787D01*
X20101Y14640D01*
X20293Y14560D01*
X20500Y14560D01*
X20692Y14640D01*
X20839Y14786D01*
X20897Y14926D01*
X20954Y14787D01*
X21101Y14640D01*
X21293Y14560D01*
X21500Y14560D01*
X21692Y14640D01*
X21839Y14786D01*
X21897Y14926D01*
X21954Y14787D01*
X22101Y14640D01*
X22293Y14560D01*
X22500Y14560D01*
X22692Y14640D01*
X22839Y14786D01*
X22919Y14978D01*
X22919Y15186D01*
X22840Y15377D01*
X22693Y15524D01*
X22501Y15604D01*
X22308Y15604D01*
X21948Y15964D01*
X21849Y16030D01*
X21732Y16053D01*
X17155Y16053D01*
X17489Y16387D01*
X17490Y16387D01*
X17705Y16386D01*
X17905Y16469D01*
X18057Y16621D01*
X18098Y16719D01*
X18138Y16622D01*
X18290Y16469D01*
X18490Y16387D01*
X18705Y16386D01*
X18905Y16469D01*
X19057Y16621D01*
X19098Y16719D01*
X19138Y16622D01*
X19290Y16469D01*
X19490Y16387D01*
X19705Y16386D01*
X19905Y16469D01*
X20057Y16621D01*
X20098Y16719D01*
X20138Y16622D01*
X20290Y16469D01*
X20490Y16387D01*
X20705Y16386D01*
X20905Y16469D01*
X21057Y16621D01*
X21098Y16719D01*
X21138Y16622D01*
X21290Y16469D01*
X21490Y16387D01*
X21705Y16386D01*
X21905Y16469D01*
X22057Y16621D01*
X22098Y16719D01*
X22138Y16622D01*
X22290Y16469D01*
X22490Y16387D01*
X22705Y16386D01*
X22905Y16469D01*
X23057Y16621D01*
X23098Y16719D01*
X23138Y16622D01*
X23290Y16469D01*
X23490Y16387D01*
X23705Y16386D01*
X23905Y16469D01*
X24057Y16621D01*
X24140Y16820D01*
X24140Y17036D01*
X24058Y17235D01*
X24021Y17272D01*
X25146Y17272D01*
X25146Y15304D01*
X27115Y15304D01*
X27115Y14248D01*
X27106Y14262D01*
X26975Y14349D01*
X26820Y14380D01*
X26644Y14380D01*
X26489Y14349D01*
X26358Y14262D01*
X26270Y14131D01*
X26239Y13976D01*
X26270Y13821D01*
X26358Y13690D01*
X26377Y13677D01*
X26332Y13668D01*
X26232Y13602D01*
X26166Y13502D01*
X26143Y13385D01*
X26166Y13268D01*
X26232Y13169D01*
X26332Y13103D01*
X26449Y13079D01*
X26542Y13079D01*
X26516Y13073D01*
X26421Y12999D01*
X26363Y12891D01*
X26389Y12845D01*
X26682Y12845D01*
X26682Y13066D01*
X26656Y13086D01*
X26738Y13103D01*
X26838Y13169D01*
X26904Y13268D01*
X26927Y13385D01*
X26904Y13502D01*
X26853Y13578D01*
X26975Y13602D01*
X27106Y13690D01*
X27115Y13703D01*
X27115Y12845D01*
X27101Y12845D01*
X27075Y12845D01*
X27101Y12891D01*
X27043Y12999D01*
X26947Y13073D01*
X26830Y13104D01*
X26782Y13066D01*
X26782Y12845D01*
X26790Y12845D01*
X26790Y12745D01*
X26782Y12745D01*
X26782Y12524D01*
X26830Y12486D01*
X26947Y12517D01*
X27043Y12590D01*
X27101Y12698D01*
X27075Y12745D01*
X27101Y12745D01*
X27115Y12745D01*
X27115Y2412D01*
M02*
