G04 (created by PCBNEW (2013-07-07 BZR 4022)-stable) date 2015-02-26 23:16:54*
%MOIN*%
G04 Gerber Fmt 3.4, Leading zero omitted, Abs format*
%FSLAX34Y34*%
G01*
G70*
G90*
G04 APERTURE LIST*
%ADD10C,0.00629921*%
%ADD11C,0.07*%
%ADD12R,0.07X0.07*%
%ADD13R,0.055X0.055*%
%ADD14C,0.055*%
%ADD15O,0.0314961X0.0472441*%
%ADD16C,0.1969*%
%ADD17R,0.0590551X0.0590551*%
%ADD18C,0.0590551*%
%ADD19O,0.0472441X0.0314961*%
%ADD20C,0.0591*%
%ADD21R,0.0591X0.0591*%
%ADD22C,0.0472*%
G04 APERTURE END LIST*
G54D10*
G54D11*
X10275Y4732D03*
G54D12*
X10275Y8732D03*
G54D11*
X19716Y13976D03*
G54D12*
X15716Y13976D03*
G54D13*
X15397Y12082D03*
G54D14*
X16397Y12082D03*
X17397Y12082D03*
X18397Y12082D03*
X19397Y12082D03*
X20397Y12082D03*
X21397Y12082D03*
X22397Y12082D03*
X22397Y15082D03*
X21397Y15082D03*
X20397Y15082D03*
X19397Y15082D03*
X18397Y15082D03*
X17397Y15082D03*
X16397Y15082D03*
X15397Y15082D03*
G54D15*
X9015Y8818D03*
X8425Y8622D03*
X7834Y8818D03*
G54D16*
X1181Y16535D03*
X26377Y16535D03*
X26377Y1181D03*
X1181Y1181D03*
G54D17*
X3937Y16929D03*
G54D18*
X4937Y16929D03*
X5937Y16929D03*
X6937Y16929D03*
X7937Y16929D03*
X8937Y16929D03*
G54D17*
X12598Y16929D03*
G54D18*
X13598Y16929D03*
X14598Y16929D03*
X15598Y16929D03*
X16598Y16929D03*
X17598Y16929D03*
X18598Y16929D03*
X19598Y16929D03*
X20598Y16929D03*
X21598Y16929D03*
X22598Y16929D03*
X23598Y16929D03*
G54D19*
X26732Y12795D03*
X26535Y13385D03*
X26732Y13976D03*
G54D15*
X12401Y13779D03*
X12992Y13976D03*
X13582Y13779D03*
X12401Y11220D03*
X12992Y11417D03*
X13582Y11220D03*
G54D19*
X24960Y12795D03*
X24763Y13385D03*
X24960Y13976D03*
G54D15*
X10039Y13779D03*
X10629Y13976D03*
X11220Y13779D03*
X7677Y13779D03*
X8267Y13976D03*
X8858Y13779D03*
X7677Y11220D03*
X8267Y11417D03*
X8858Y11220D03*
X5314Y13779D03*
X5905Y13976D03*
X6496Y13779D03*
X5314Y11220D03*
X5905Y11417D03*
X6496Y11220D03*
X2952Y13779D03*
X3543Y13976D03*
X4133Y13779D03*
X2952Y11220D03*
X3543Y11417D03*
X4133Y11220D03*
X590Y13779D03*
X1181Y13976D03*
X1771Y13779D03*
X10039Y11220D03*
X10629Y11417D03*
X11220Y11220D03*
X590Y11220D03*
X1181Y11417D03*
X1771Y11220D03*
G54D20*
X7677Y4511D03*
G54D21*
X7677Y6511D03*
X3385Y5984D03*
G54D20*
X3385Y4016D03*
X2165Y7913D03*
G54D21*
X2165Y9409D03*
G54D11*
X5645Y1732D03*
X4645Y1732D03*
G54D12*
X3645Y1732D03*
G54D22*
X7976Y1929D03*
X8976Y1929D03*
X9976Y1929D03*
G54D14*
X25334Y6236D03*
X25334Y4236D03*
G54D17*
X23287Y1850D03*
G54D18*
X22287Y1850D03*
G54D17*
X21850Y9055D03*
G54D18*
X21850Y10055D03*
G54D17*
X16811Y5551D03*
G54D18*
X16811Y6551D03*
G54D17*
X12066Y1781D03*
G54D18*
X13066Y1781D03*
G54D17*
X23287Y846D03*
G54D18*
X22287Y846D03*
G54D17*
X19881Y9055D03*
G54D18*
X19881Y10055D03*
G54D17*
X17007Y787D03*
G54D18*
X16007Y787D03*
G54D17*
X787Y3346D03*
G54D18*
X787Y4346D03*
G54D17*
X17519Y4212D03*
G54D18*
X17519Y3212D03*
X16519Y4212D03*
X16519Y3212D03*
X15519Y4212D03*
X15519Y3212D03*
G54D13*
X18397Y1114D03*
G54D14*
X19397Y1114D03*
X19397Y2114D03*
G54D17*
X25590Y10826D03*
G54D18*
X25590Y9826D03*
X25590Y8826D03*
X25590Y7826D03*
M02*
